<svg width="37" height="40" viewBox="0 0 37 40" fill="none" xmlns="http://www.w3.org/2000/svg">
<path d="M30.4237 15.5202C31.2698 12.9873 32.0085 10.4326 32.3645 7.77684C29.572 9.09565 26.6263 10.2949 24.0725 12.0702C24.0688 8.88043 23.6413 5.54916 22.8085 2.49999C20.156 4.73145 17.5655 7.39083 15.5234 10.2019C13.3527 8.9051 10.9828 7.77097 8.60677 6.92352C8.42954 9.67497 8.49629 12.4401 8.51167 15.1919C6.41001 16.3256 4.30562 17.8067 2.50004 19.4144C3.93076 20.4153 5.52219 21.173 7.00887 22.0838C5.7506 24.5786 4.75529 27.2081 3.66864 29.7819C6.09711 29.5283 8.48348 28.9438 10.8388 28.2684C11.1941 31.0138 11.3877 33.7803 11.7311 36.5279" stroke="#5E7BE0" stroke-width="5" stroke-miterlimit="1.5" stroke-linecap="round" stroke-linejoin="round"/>
</svg>
