<svg width="46" height="61" viewBox="0 0 46 61" fill="none" xmlns="http://www.w3.org/2000/svg">
<path d="M1.44857 53.4556C4.88994 60.1686 14.3206 59.6043 18.6058 58.483M1.44857 53.4556C5.92332 53.3589 15.6194 54.229 18.6058 58.483M1.44857 53.4556L5.32095 46.9576M26.7804 10.948L41.3105 3.70477M26.7804 10.948L5.32095 46.9576M26.7804 10.948C27.9142 10.9025 29.3981 10.9065 31.0298 11.0013M41.3105 3.70477L43.8654 14.9426M41.3105 3.70477L42.8904 0.999631M43.8654 14.9426C37.9357 25.1637 27.83 42.583 22.3712 51.9925M43.8654 14.9426C42.8741 13.8315 41.2891 13.0096 39.4426 12.409M18.6058 58.483C18.6058 58.483 20.0787 55.9441 22.3712 51.9925M22.3712 51.9925C21.4337 51.2703 19.9464 50.3232 18.0992 49.4371M5.32095 46.9576C6.96666 46.7479 8.60915 46.7883 10.1961 47.0002M10.1961 47.0002L31.0298 11.0013M10.1961 47.0002C11.6992 47.201 13.1525 47.5555 14.5114 47.997M31.0298 11.0013C32.3918 11.0804 33.8567 11.2227 35.3069 11.4522M14.5114 47.997L35.3069 11.4522M14.5114 47.997C15.8058 48.4174 17.0146 48.9168 18.0992 49.4371M35.3069 11.4522C36.7375 11.6786 38.1537 11.9899 39.4426 12.409M18.0992 49.4371L39.4426 12.409" stroke="#BF4A4A" stroke-width="2.5"/>
</svg>
