<svg width="492" height="803" viewBox="0 0 492 803" fill="none" xmlns="http://www.w3.org/2000/svg">
<rect y="51" width="492" height="752" rx="20" fill="#BFA285"/>
<rect x="20" y="71" width="452" height="712" rx="20" fill="#F5F1ED"/>
<path d="M118 53.2891C118 47.7663 122.477 43.2891 128 43.2891H364C369.523 43.2891 374 47.7663 374 53.2891V81.2891C374 86.812 369.523 91.2891 364 91.2891H128C122.477 91.2891 118 86.812 118 81.2891V53.2891Z" fill="#C1BEBE"/>
<path d="M284 46C284 62.5685 262.569 60 246 60C229.431 60 208 62.5685 208 46C208 29.4315 229.431 0 246 0C262.569 0 284 29.4315 284 46ZM232.711 30C232.711 37.3394 238.661 43.2891 246 43.2891C253.339 43.2891 259.289 37.3394 259.289 30C259.289 22.6606 253.339 16.7109 246 16.7109C238.661 16.7109 232.711 22.6606 232.711 30Z" fill="#C1BEBE"/>
</svg>
