<svg width="20" height="18" viewBox="0 0 20 18" fill="none" xmlns="http://www.w3.org/2000/svg">
<path d="M19.6155 2.0515C20.2041 1.52025 20.1103 0.731183 19.402 0.289777C18.6937 -0.151629 17.6416 -0.0813167 17.053 0.449933L10.001 6.79759L2.94887 0.449933C2.36033 -0.0813167 1.30824 -0.151629 0.599911 0.289777C-0.108422 0.731183 -0.202172 1.52025 0.386369 2.0515L7.82908 8.75072L0.386369 15.4499C-0.202172 15.9812 -0.108422 16.7702 0.599911 17.2117C1.30824 17.6531 2.36033 17.5827 2.94887 17.0515L10.001 10.7038L17.053 17.0515C17.6416 17.5827 18.6937 17.6531 19.402 17.2117C20.1103 16.7702 20.2041 15.9812 19.6155 15.4499L12.1728 8.75072L19.6155 2.0515Z" fill="#F5F1ED"/>
</svg>
