<svg width="141" height="149" viewBox="0 0 141 149" fill="none" xmlns="http://www.w3.org/2000/svg">
<path d="M-4.73887 45.657L33.515 45.6442C30.7665 39.0147 23.1544 34.231 14.193 34.234L-13.2447 34.2432C-30.8966 34.2491 -45.2536 21.8151 -45.2481 6.52764C-45.247 3.52451 -42.655 1.09025 -39.4571 1.08918C-36.2593 1.08811 -33.669 3.52063 -33.6701 6.52376C-33.6734 15.8159 -24.5086 23.3739 -13.2408 23.3701L14.1969 23.3609C29.7022 23.3557 42.657 32.9479 45.577 45.6402L85.57 45.6268C115.576 45.6167 139.979 68.5332 139.969 96.7118C139.959 124.89 115.539 147.823 85.5335 147.833L-4.77534 147.864C-34.781 147.874 -59.184 124.957 -59.174 96.7785C-59.1639 68.6 -34.7446 45.6671 -4.73887 45.657ZM-4.77146 136.991L85.5374 136.96C109.159 136.952 128.383 118.899 128.391 96.7157C128.398 74.5325 109.188 56.4919 85.5661 56.4998L-4.74275 56.5301C-28.3643 56.538 -47.588 74.5915 -47.5959 96.7747C-47.6038 118.958 -28.393 136.998 -4.77146 136.991Z" fill="#787069" fill-opacity="0.25"/>
<path d="M1.14137 121.114C-3.3347 121.115 -6.96205 117.709 -6.96055 113.505C-6.95905 109.302 -3.32927 105.893 1.1468 105.892C5.62287 105.89 9.25022 109.297 9.24872 113.5C9.24722 117.704 5.61744 121.112 1.14137 121.114Z" fill="#787069" fill-opacity="0.25"/>
<path d="M18.9706 104.364C14.4946 104.365 10.8672 100.959 10.8687 96.7551C10.8702 92.5516 14.5 89.1428 18.9761 89.1413C23.4521 89.1398 27.0795 92.5462 27.078 96.7497C27.0765 100.953 23.4467 104.362 18.9706 104.364Z" fill="#787069" fill-opacity="0.25"/>
<path d="M1.15333 87.6272C-3.32274 87.6287 -6.95009 84.2223 -6.94859 80.0188C-6.94709 75.8153 -3.3173 72.4064 1.15877 72.4049C5.63483 72.4034 9.26218 75.8098 9.26068 80.0133C9.25918 84.2169 5.6294 87.6257 1.15333 87.6272Z" fill="#787069" fill-opacity="0.25"/>
<path d="M58.9253 88.0405L67.03 88.0378L67.0327 80.4266C67.0344 75.6229 71.183 71.7268 76.2982 71.7251C81.4134 71.7234 85.5593 75.6167 85.5576 80.4204L85.5549 88.0316L93.6595 88.0289C98.7747 88.0271 102.921 91.9205 102.919 96.7242C102.917 101.528 98.7685 105.424 93.6533 105.426L85.5486 105.428L85.5459 113.04C85.5442 117.843 81.3956 121.739 76.2804 121.741C71.1652 121.743 67.0193 117.849 67.021 113.046L67.0238 105.435L58.9191 105.437C53.8039 105.439 49.6581 101.546 49.6598 96.742C49.6615 91.9383 53.8101 88.0422 58.9253 88.0405Z" fill="#787069" fill-opacity="0.25"/>
</svg>
