<svg width="145" height="190" viewBox="0 0 145 190" fill="none" xmlns="http://www.w3.org/2000/svg">
<path d="M118.778 158.634C121.481 161.767 82.3925 166.799 72.7418 168.02C71.5803 167.383 68.9782 142.032 68.7079 141.718M118.778 158.634C116.076 155.501 70.6524 128.019 66.4553 129.18L69.11 138.639M118.778 158.634L69.11 138.639M118.778 158.634L68.7079 141.718M69.11 138.639C68.6424 139.043 67.6371 139.91 67.3565 140.152C67.0058 140.454 68.4376 141.405 68.7079 141.718" stroke="black" stroke-width="2"/>
<path d="M59.1568 137.516C16.5247 120.173 -9.15195 70.2037 116.11 72.8039C131.642 73.1264 139.316 67.6466 134.692 61.4044C119.576 41.0001 58.7547 46.2975 65.5419 26.1446" stroke="black" stroke-width="2" stroke-dasharray="16 12"/>
</svg>
