<svg width="60" height="54" viewBox="0 0 60 54" fill="none" xmlns="http://www.w3.org/2000/svg">
<rect width="60" height="54" rx="20" fill="#732727"/>
<path d="M16.5 19.5C16.5 18.6703 17.3618 18 18.4286 18H41.5714C42.6382 18 43.5 18.6703 43.5 19.5C43.5 20.3297 42.6382 21 41.5714 21H18.4286C17.3618 21 16.5 20.3297 16.5 19.5ZM16.5 27C16.5 26.1703 17.3618 25.5 18.4286 25.5H41.5714C42.6382 25.5 43.5 26.1703 43.5 27C43.5 27.8297 42.6382 28.5 41.5714 28.5H18.4286C17.3618 28.5 16.5 27.8297 16.5 27ZM43.5 34.5C43.5 35.3297 42.6382 36 41.5714 36H18.4286C17.3618 36 16.5 35.3297 16.5 34.5C16.5 33.6703 17.3618 33 18.4286 33H41.5714C42.6382 33 43.5 33.6703 43.5 34.5Z" fill="#F5F1ED"/>
</svg>
