<svg width="114" height="107" viewBox="0 0 114 107" fill="none" xmlns="http://www.w3.org/2000/svg">
<path d="M14.3872 39.8964H60.3488C61.7053 37.3067 63.7312 35.1046 66.1799 33.5192C65.3343 23.0725 65.5633 12.5026 66.8317 2.03833H20.8524C20.1478 2.86631 19.4607 4.04662 18.8265 5.54403C17.7343 8.1689 16.8183 11.7627 16.096 16.2197C14.7571 24.6933 14.44 34.1357 14.3872 39.8964Z" fill="#787069" fill-opacity="0.25"/>
<path d="M79.7449 34.9638C79.7273 34.9638 79.6921 34.9462 79.6745 34.9462C79.604 34.9286 79.5335 34.8933 79.4631 34.8757C79.3926 34.8581 79.3398 34.8405 79.2693 34.8229C79.2164 34.8053 79.1636 34.7877 79.1107 34.77C78.8465 34.6996 78.5999 34.6291 78.3356 34.5763C78.3356 34.5763 78.3356 34.5763 78.318 34.5763C78.1771 34.541 78.0537 34.5234 77.9128 34.4882H77.8952C77.49 34.4177 77.0672 34.3472 76.6444 34.312C76.6268 34.312 76.6092 34.312 76.6092 34.312C76.4859 34.2944 76.3802 34.2944 76.2569 34.2768C76.2216 34.2768 76.1864 34.2768 76.1688 34.2768C76.0631 34.2768 75.9574 34.2592 75.8517 34.2592C75.8164 34.2592 75.7812 34.2592 75.746 34.2592C75.605 34.2592 75.4817 34.2592 75.3408 34.2592C75.1999 34.2592 75.0765 34.2592 74.9356 34.2592C74.9004 34.2592 74.8651 34.2592 74.8299 34.2592C74.7242 34.2592 74.6185 34.2592 74.5128 34.2768C74.4776 34.2768 74.4423 34.2768 74.4247 34.2768C74.3014 34.2768 74.1957 34.2944 74.0724 34.312C74.0548 34.312 74.0372 34.312 74.0372 34.312C73.6144 34.3472 73.2092 34.4177 72.7864 34.4882H72.7688C72.6278 34.5058 72.5045 34.541 72.3636 34.5763C72.3636 34.5763 72.3636 34.5763 72.346 34.5763C72.0817 34.6291 71.8351 34.6996 71.5708 34.77C71.518 34.7877 71.4651 34.8053 71.4123 34.8229C71.3418 34.8405 71.289 34.8581 71.2185 34.8757C71.148 34.8933 71.0776 34.9286 71.0071 34.9462C70.9895 34.9462 70.9543 34.9638 70.9366 34.9638C65.6164 36.7959 61.7936 41.8343 61.7936 47.7535C61.7936 55.2053 67.8537 61.283 75.3232 61.283C82.7926 61.283 88.8527 55.2229 88.8527 47.7535C88.8879 41.8343 85.0475 36.7783 79.7449 34.9638ZM80.7139 54.6944C80.8372 55.2053 80.7315 55.7514 80.3968 56.1566C80.0797 56.5794 79.5688 56.8084 79.0579 56.8084H71.6589C71.1304 56.8084 70.6372 56.5617 70.3201 56.1566C70.003 55.7338 69.8797 55.2053 70.003 54.6944L71.5885 48.4053C70.4434 47.3659 69.774 45.8685 69.774 44.283C69.774 42.8384 70.3201 41.4819 71.3066 40.4426C72.3636 39.3327 73.8434 38.6985 75.3584 38.6985C76.8911 38.6985 78.3708 39.3327 79.4102 40.4426C80.3967 41.4819 80.9429 42.856 80.9429 44.283C80.9429 45.8685 80.2734 47.3659 79.1284 48.4053L80.7139 54.6944Z" fill="#787069" fill-opacity="0.25"/>
<path d="M76.3795 46.203C77.0841 45.8155 77.5246 45.0932 77.5246 44.2828C77.5246 43.7191 77.3132 43.1906 76.9256 42.7854C76.5028 42.345 75.9567 42.0984 75.3401 42.0984C74.7411 42.0984 74.1774 42.345 73.7546 42.7854C73.367 43.1906 73.1556 43.7191 73.1556 44.2828C73.1556 45.0932 73.5961 45.8155 74.3007 46.203C74.9878 46.573 75.3401 47.3657 75.1463 48.1233L73.8251 53.4082H76.8375L75.5163 48.1233C75.3401 47.3481 75.6924 46.5554 76.3795 46.203Z" fill="#787069" fill-opacity="0.25"/>
<path d="M12.749 15.6737C13.8589 8.76804 15.4267 3.85301 17.4879 0.840576H10.7584C9.70136 0.840576 8.6796 1.35145 8.06302 2.19705C6.1252 4.8043 4.50447 9.59601 3.21846 16.4665C2.07338 22.6147 1.21017 30.2955 0.575974 39.8965H10.9698C11.0226 34.0302 11.3397 24.3939 12.749 15.6737Z" fill="#787069" fill-opacity="0.25"/>
<path d="M12.9071 52.1928H59.0097C58.6221 50.7835 58.4107 49.2861 58.4107 47.7535C58.4107 46.2208 58.6221 44.7234 59.0097 43.3141H0.487427V52.1928H12.9071Z" fill="#787069" fill-opacity="0.25"/>
<path d="M84.5182 33.5192C86.9669 35.1046 88.9928 37.3067 90.3493 39.8964H136.311C136.258 34.7347 136.011 26.314 134.902 18.3689C133.51 8.25698 131.449 3.88807 129.828 2.03833H83.8488C85.1524 12.5026 85.3638 23.0725 84.5182 33.5192Z" fill="#787069" fill-opacity="0.25"/>
<path d="M69.9144 31.7047C69.932 31.7047 69.9496 31.6871 69.9672 31.6871C70.0729 31.6518 70.161 31.6166 70.2667 31.5814C70.3195 31.5638 70.39 31.5461 70.4429 31.5285C70.4957 31.5109 70.5486 31.4933 70.6014 31.4757C70.6895 31.4581 70.7776 31.4228 70.848 31.4052C70.8833 31.4052 70.9009 31.3876 70.9361 31.3876C71.0418 31.3524 71.1475 31.3347 71.2532 31.2995C71.2532 31.2995 71.2532 31.2995 71.2708 31.2995C71.9755 31.1233 72.7154 31 73.4553 30.9119C73.4729 30.9119 73.4729 30.9119 73.4905 30.9119C73.5962 30.8943 73.7019 30.8943 73.8076 30.8767C73.8429 30.8767 73.8781 30.8767 73.9133 30.8767C74.0014 30.8767 74.0895 30.8591 74.1776 30.8591C74.2304 30.8591 74.2833 30.8591 74.3361 30.8415C74.4066 30.8415 74.4947 30.8239 74.5651 30.8239C74.6356 30.8239 74.7061 30.8239 74.7765 30.8239C74.8294 30.8239 74.8999 30.8239 74.9527 30.8239C75.076 30.8239 75.1993 30.8239 75.3227 30.8239H75.3755C75.4988 30.8239 75.6221 30.8239 75.7455 30.8239C75.7983 30.8239 75.8688 30.8239 75.9216 30.8239C75.9921 30.8239 76.0625 30.8239 76.133 30.8239C76.2035 30.8239 76.2916 30.8239 76.362 30.8415C76.4149 30.8415 76.4677 30.8415 76.5206 30.8591C76.6087 30.8591 76.6967 30.8767 76.7848 30.8767C76.8201 30.8767 76.8553 30.8767 76.8905 30.8767C76.9962 30.8943 77.1019 30.8943 77.2076 30.9119C77.2252 30.9119 77.2252 30.9119 77.2429 30.9119C77.9828 31 78.705 31.1233 79.4273 31.2995C79.4273 31.2995 79.4273 31.2995 79.4449 31.2995C79.5506 31.3347 79.6563 31.3524 79.762 31.3876C79.7973 31.3876 79.8149 31.4052 79.8501 31.4052C79.9382 31.4228 80.0263 31.4581 80.1144 31.4757C80.1672 31.4933 80.2201 31.5109 80.2729 31.5285C80.3258 31.5461 80.3962 31.5638 80.4491 31.5814C80.5548 31.6166 80.6429 31.6518 80.7486 31.6695C80.7662 31.6695 80.7838 31.6871 80.8014 31.6871C80.9423 31.7399 81.0833 31.7928 81.2242 31.8456C81.9289 21.9451 81.6646 11.9213 80.4315 2.02075H70.2667C69.0335 11.9213 68.7693 21.9451 69.4739 31.8456C69.6325 31.8104 69.7734 31.7575 69.9144 31.7047Z" fill="#787069" fill-opacity="0.25"/>
<path d="M91.7056 43.3141C92.0931 44.7234 92.3045 46.2208 92.3045 47.7535C92.3045 49.2861 92.0931 50.7835 91.7056 52.1928H137.826C137.826 52.1928 137.826 52.1928 137.843 52.1928H150.245V43.3141H91.7056Z" fill="#787069" fill-opacity="0.25"/>
<path d="M4.13428 100.815L4.48661 105.554H132.136L132.823 96.6748H3.81718L4.13428 100.815Z" fill="#787069" fill-opacity="0.25"/>
<path d="M11.3036 55.6105H0.645569L3.5523 93.2571H14.2103L11.3036 55.6105Z" fill="#787069" fill-opacity="0.25"/>
<path d="M90.3672 55.6105C87.5309 61.0011 81.876 64.7006 75.3579 64.7006C68.8574 64.7006 63.1848 61.0188 60.3486 55.6105H14.7216L17.6284 93.2571H133.087L135.994 55.6105H90.3672Z" fill="#787069" fill-opacity="0.25"/>
</svg>
