<svg width="28" height="21" viewBox="0 0 28 21" fill="none" xmlns="http://www.w3.org/2000/svg">
<path d="M13.7866 0.853516C19.484 0.853516 22.6799 0.854071 23.3744 0.855181C23.6741 0.856014 24.0488 0.886824 24.2812 0.927626C25.2382 1.09805 25.9902 1.5763 26.537 2.36238C26.7673 2.69379 26.9347 3.09904 27.0391 3.57812C27.0896 3.80795 27.1143 4.23846 27.1132 4.86965C27.1115 6.17644 27.111 10.096 27.1115 16.6283C27.1121 17.4415 27.0777 17.9922 27.0083 18.2804C26.8156 19.0886 26.3504 19.7498 25.6127 20.2639C25.0681 20.643 24.4016 20.8379 23.6133 20.8484C23.3663 20.8523 20.0907 20.854 13.7866 20.8534C7.48192 20.854 4.20606 20.8523 3.95902 20.8484C3.17073 20.8379 2.50429 20.643 1.9597 20.2639C1.22192 19.7498 0.756717 19.0886 0.564085 18.2804C0.494693 17.9917 0.460274 17.4407 0.46083 16.6274C0.46194 10.0951 0.461662 6.17561 0.459997 4.86882C0.458886 4.23763 0.48359 3.8074 0.534107 3.57812C0.638473 3.09904 0.805846 2.69379 1.03623 2.36238C1.58304 1.5763 2.33497 1.09805 3.29202 0.927626C3.52435 0.886824 3.89907 0.856014 4.19884 0.855181C4.89332 0.854071 8.08923 0.853516 13.7866 0.853516ZM13.7849 14.2317C13.8782 14.2317 14.0273 14.2073 14.2321 14.1585C14.2948 14.144 14.3595 14.1302 14.4261 14.1168C14.6368 14.0752 14.845 13.9386 15.0373 13.8445C15.1644 13.7824 15.2977 13.7005 15.437 13.5989C17.949 11.7631 21.1757 9.40872 25.1172 6.53589C25.2216 6.45984 25.3098 6.3935 25.382 6.33687C25.4042 6.31911 25.4184 6.29663 25.4245 6.26942C25.4433 6.18504 25.4528 6.09844 25.4528 6.00962C25.4528 5.33735 25.4536 4.91795 25.4553 4.75141C25.4614 4.17573 25.4167 3.77853 25.3212 3.55981C25.1569 3.18453 24.896 2.91085 24.5385 2.73876C24.4225 2.68269 24.3034 2.64494 24.1812 2.62551C23.9659 2.59165 23.8457 2.57444 23.8207 2.57388C23.3483 2.57111 20.0033 2.56944 13.7858 2.56889C7.56824 2.56889 4.22327 2.57027 3.75084 2.57305C3.72586 2.5736 3.60568 2.59054 3.39028 2.62384C3.26815 2.64327 3.14908 2.68102 3.03305 2.73709C2.67555 2.90918 2.41463 3.18287 2.25031 3.55814C2.15483 3.77686 2.11014 4.17406 2.11625 4.74974C2.11791 4.91628 2.11847 5.33569 2.11791 6.00796C2.11791 6.09678 2.12735 6.18338 2.14622 6.26776C2.15233 6.29496 2.16649 6.31744 2.18869 6.33521C2.26086 6.39183 2.34913 6.45817 2.45349 6.53423C6.39496 9.40761 9.62141 11.7625 12.1328 13.5989C12.2722 13.7005 12.4054 13.7824 12.5325 13.8445C12.7249 13.9386 12.9331 14.0752 13.1438 14.1168C13.2104 14.1302 13.275 14.144 13.3378 14.1585C13.5426 14.2073 13.6917 14.2317 13.7849 14.2317ZM13.7866 15.923C13.4896 15.923 13.2395 15.901 13.0363 15.8572C12.4146 15.7228 11.8292 15.4547 11.2802 15.0528C6.32501 11.4233 3.44469 9.31518 2.63918 8.7284C2.4843 8.61571 2.35329 8.52134 2.24615 8.44528C2.16177 8.38588 2.11985 8.40781 2.12041 8.51107C2.12041 8.72368 2.12041 11.5896 2.12041 17.1087C2.12041 17.3552 2.13068 17.5498 2.15122 17.6925C2.18397 17.9195 2.23366 18.1085 2.30027 18.2595C2.45738 18.6159 2.73689 18.8744 3.13881 19.0348C3.42415 19.1486 3.71199 19.2055 4.00232 19.2055C4.60631 19.2055 7.86801 19.2052 13.7874 19.2047C19.7063 19.2047 22.9677 19.2044 23.5717 19.2038C23.862 19.2038 24.1499 19.1469 24.4352 19.0331C24.8371 18.8727 25.1167 18.6143 25.2738 18.2579C25.3404 18.1069 25.3901 17.9179 25.4228 17.6908C25.4433 17.5481 25.4536 17.3536 25.4536 17.1071C25.4525 11.5879 25.452 8.72202 25.452 8.5094C25.4525 8.40614 25.4106 8.38422 25.3262 8.44362C25.2191 8.51967 25.0881 8.61404 24.9332 8.72674C24.1282 9.31352 21.2482 11.4222 16.293 15.0528C15.7446 15.4547 15.1594 15.7228 14.5377 15.8572C14.3345 15.901 14.0842 15.923 13.7866 15.923Z" fill="white"/>
</svg>
