<svg width="12" height="21" viewBox="0 0 12 21" fill="none" xmlns="http://www.w3.org/2000/svg">
<path d="M3.14696 12.5249H0.631C0.609747 12.5249 0.599121 12.5145 0.599121 12.4936L0.599746 8.77377C0.599746 8.75293 0.610164 8.74251 0.631 8.74251L3.14696 8.74314C3.1678 8.74314 3.17822 8.73251 3.17822 8.71126C3.17572 7.87865 3.1778 7.20355 3.18447 6.68599C3.20135 5.34393 3.47076 3.96124 4.23086 2.88735C4.54215 2.44729 4.92449 2.08037 5.37789 1.78658C5.75461 1.54238 6.16799 1.34798 6.61805 1.20337C7.18688 1.02085 7.79738 0.911667 8.44955 0.875829C9.24507 0.83249 10.0004 0.852284 10.7155 0.935212C11.1205 0.982301 11.5464 1.05752 11.9932 1.16087C11.9973 1.16187 12.001 1.16428 12.0037 1.16769C12.0063 1.17111 12.0076 1.17532 12.0075 1.17962V4.60571C12.0075 4.62696 11.9971 4.63633 11.9763 4.63383C11.3758 4.56549 10.7582 4.5482 10.1235 4.58195C9.69555 4.60487 9.30092 4.69322 8.93962 4.84699C8.90086 4.86366 8.80397 4.91866 8.64895 5.01201C7.94698 5.43332 7.73821 6.36782 7.71883 7.12229C7.70508 7.66278 7.70341 8.17431 7.71383 8.65687C7.71415 8.66727 7.71851 8.67712 7.72598 8.68436C7.73344 8.69159 7.74344 8.69564 7.75383 8.69563H11.7694C11.7994 8.69563 11.8117 8.71042 11.8063 8.74001L11.1137 12.5055C11.1126 12.5109 11.1098 12.5158 11.1056 12.5194C11.1013 12.5229 11.096 12.5248 11.0905 12.5249H7.75696C7.75083 12.5249 7.74476 12.5261 7.73911 12.5285C7.73346 12.5308 7.72833 12.5343 7.72403 12.5387C7.71972 12.543 7.71633 12.5482 7.71404 12.5539C7.71176 12.5596 7.71062 12.5656 7.7107 12.5718V20.8385C7.7107 20.8425 7.70912 20.8463 7.70631 20.8491C7.70349 20.8519 7.69968 20.8535 7.6957 20.8535L3.25573 20.8529C3.20405 20.8529 3.17822 20.8271 3.17822 20.7754V12.5561C3.17822 12.5353 3.1678 12.5249 3.14696 12.5249Z" fill="white"/>
</svg>
