<svg width="21" height="21" viewBox="0 0 21 21" fill="none" xmlns="http://www.w3.org/2000/svg">
<path d="M14.8883 20.699C14.8883 20.6995 14.799 20.7109 14.6202 20.7333C14.5199 20.7456 14.4303 20.7525 14.3514 20.7539C13.5384 20.7687 12.7449 20.791 11.9709 20.821C11.4713 20.8405 10.9961 20.8505 10.5454 20.8509C9.80563 20.8519 9.42173 20.8526 9.39368 20.8531C9.12982 20.8559 8.74592 20.8452 8.24197 20.821C7.78652 20.7986 7.14637 20.7808 6.32152 20.7675C5.92312 20.7608 5.52186 20.7359 5.11775 20.6926C4.64994 20.6432 4.25914 20.5614 3.94537 20.4473C3.01307 20.1078 2.25763 19.6205 1.67904 18.9854C0.772416 17.9903 0.287251 16.7963 0.223544 15.4033C0.2012 14.9184 0.184084 14.6156 0.172199 14.4948C0.138919 14.1663 0.121566 13.8166 0.12014 13.4458C0.109205 11.1628 0.111345 9.31463 0.126559 7.9012C0.12846 7.69535 0.141534 7.46501 0.16578 7.21018C0.204289 6.80322 0.223306 6.57431 0.222831 6.52344C0.220692 6.2389 0.231388 5.86094 0.282734 5.57854C0.493345 4.41852 0.972092 3.45056 1.71898 2.67468C2.20105 2.17406 2.81458 1.75617 3.55956 1.42099C3.74355 1.33827 3.92635 1.27243 4.10796 1.22346C4.27483 1.17829 4.4631 1.12671 4.67276 1.06871C4.8268 1.02545 5.11015 0.985985 5.52281 0.950329C5.9079 0.917049 6.74559 0.899221 8.03588 0.896844C8.22486 0.896844 8.52651 0.859049 8.74473 0.858336C10.0807 0.85168 10.9961 0.851917 11.491 0.859048C11.7114 0.861901 11.9531 0.892565 12.1571 0.893278C13.0347 0.893754 13.9121 0.912533 14.7892 0.949616C14.8605 0.952944 15.0146 0.972436 15.2513 1.00809C15.5951 1.06015 15.829 1.14287 16.182 1.24129C16.326 1.28122 16.482 1.33898 16.6498 1.41458C18.3156 2.16384 19.3806 3.41704 19.8446 5.1742C19.9116 5.42759 19.9625 5.74613 19.9972 6.12979C20.0424 6.63088 20.0659 6.95393 20.0678 7.09893C20.0806 7.95754 20.0868 9.77745 20.0863 12.5587C20.0863 13.6949 20.0664 14.616 20.0264 15.322C19.9485 16.7031 19.4593 17.9116 18.5588 18.9476C18.4205 19.1064 18.2674 19.248 18.0996 19.3726C17.8664 19.5452 17.6703 19.7377 17.4292 19.8661C17.0066 20.091 16.761 20.2234 16.6926 20.2633C16.5328 20.3565 16.3676 20.4233 16.1969 20.4637C15.9295 20.5272 15.6136 20.6356 15.2848 20.6605C15.0139 20.6814 14.8817 20.6943 14.8883 20.699ZM13.8172 2.73601C13.6881 2.72959 13.604 2.71105 13.517 2.70891C11.6419 2.65709 9.88526 2.64163 8.24697 2.66255C7.05414 2.67729 6.12992 2.72816 5.47432 2.81516C4.86245 2.89646 4.46096 2.9749 4.26984 3.0505C3.89046 3.2012 3.55933 3.40017 3.27645 3.64739C3.17424 3.73629 3.05301 3.8618 2.91276 4.02392C2.75111 4.21076 2.64248 4.34744 2.58686 4.43397C2.36959 4.76961 2.22482 5.12356 2.15256 5.49582C2.05177 6.01212 1.9952 6.37416 1.98283 6.58191C1.96287 6.92802 1.94575 7.50494 1.93149 8.31268C1.92864 8.47622 1.91723 8.95188 1.89726 9.73965C1.87967 10.4314 1.87872 11.126 1.89441 11.8234C1.93482 13.5806 1.95883 14.5492 1.96643 14.7294C1.99924 15.4839 2.11025 16.1443 2.29946 16.7105C2.32846 16.797 2.42379 16.9779 2.58543 17.2532C2.69525 17.44 2.81934 17.5556 2.93843 17.721C3.02163 17.837 3.11742 17.9404 3.22582 18.0312C3.5976 18.3412 4.01312 18.5744 4.47237 18.7308C4.65208 18.7921 4.9031 18.8199 5.055 18.8563C5.42939 18.9447 5.81733 18.9276 6.201 18.9782C6.47104 19.0139 6.70684 19.0329 6.90842 19.0353C9.0868 19.0591 11.2383 19.0586 13.363 19.0339C13.526 19.032 13.7547 19.012 14.049 18.974C14.2829 18.944 14.512 18.9248 14.7364 18.9162C14.9554 18.9076 15.2071 18.8456 15.3697 18.8199C15.5275 18.7957 15.6816 18.7541 15.8318 18.6951C16.3467 18.4945 16.7644 18.2354 17.0848 17.9178C17.3035 17.7006 17.5136 17.4215 17.7152 17.0806C17.8198 16.9042 17.9004 16.7236 17.9569 16.5386C18.0254 16.3157 18.0715 16.1219 18.0953 15.9574C18.1545 15.5588 18.2122 15.2785 18.2258 14.8892C18.2462 14.2882 18.2707 13.7493 18.2992 13.2725C18.3078 13.1242 18.3121 13.0336 18.3121 13.0008C18.3121 12.4417 18.3126 10.9979 18.3135 8.66925C18.3135 8.63882 18.3102 8.56037 18.3035 8.43391C18.2565 7.53442 18.2303 7.0048 18.2251 6.84506C18.213 6.4564 18.1637 6.20039 18.0939 5.73258C18.0245 5.26762 17.8652 4.83546 17.6161 4.43611C17.481 4.22074 17.2227 3.93549 16.8409 3.58035C16.7406 3.48717 16.6006 3.39137 16.4209 3.29296C16.1608 3.15033 16.0027 3.07046 15.9466 3.05335C15.3951 2.88648 14.6853 2.7807 13.8172 2.73601Z" fill="white"/>
<path d="M15.4415 6.70917C16.0925 6.70917 16.6203 6.1814 16.6203 5.53037C16.6203 4.87933 16.0925 4.35156 15.4415 4.35156C14.7905 4.35156 14.2627 4.87933 14.2627 5.53037C14.2627 6.1814 14.7905 6.70917 15.4415 6.70917Z" fill="white"/>
<path d="M15.1987 10.8601C15.1987 12.2128 14.6613 13.51 13.7048 14.4665C12.7483 15.423 11.451 15.9604 10.0984 15.9604C8.74567 15.9604 7.44838 15.423 6.49189 14.4665C5.5354 13.51 4.99805 12.2128 4.99805 10.8601C4.99805 9.50738 5.5354 8.2101 6.49189 7.25361C7.44838 6.29712 8.74567 5.75977 10.0984 5.75977C11.451 5.75977 12.7483 6.29712 13.7048 7.25361C14.6613 8.2101 15.1987 9.50738 15.1987 10.8601ZM13.4237 10.8686C13.4237 9.98651 13.0733 9.14052 12.4495 8.51676C11.8257 7.89301 10.9798 7.54259 10.0976 7.54259C9.21552 7.54259 8.36953 7.89301 7.74577 8.51676C7.12202 9.14052 6.7716 9.98651 6.7716 10.8686C6.7716 11.7507 7.12202 12.5967 7.74577 13.2205C8.36953 13.8442 9.21552 14.1947 10.0976 14.1947C10.9798 14.1947 11.8257 13.8442 12.4495 13.2205C13.0733 12.5967 13.4237 11.7507 13.4237 10.8686Z" fill="white"/>
</svg>
