<svg width="21" height="21" viewBox="0 0 21 21" fill="none" xmlns="http://www.w3.org/2000/svg">
<path d="M2.98477 5.65019C4.30933 5.65019 5.38311 4.57642 5.38311 3.25185C5.38311 1.92729 4.30933 0.853516 2.98477 0.853516C1.6602 0.853516 0.586426 1.92729 0.586426 3.25185C0.586426 4.57642 1.6602 5.65019 2.98477 5.65019Z" fill="white"/>
<path d="M11.7191 9.24743C11.7944 9.15262 11.8606 9.06091 11.9177 8.9723C11.9978 8.84795 12.0638 8.75695 12.1157 8.6993C12.7193 8.02992 13.418 7.58136 14.2118 7.35363C14.8097 7.18164 15.4695 7.12852 16.1913 7.19427C16.9431 7.2624 17.6092 7.42152 18.1895 7.67165C18.7064 7.89462 19.154 8.25194 19.5323 8.74361C19.7367 9.00874 19.8624 9.34891 20.0311 9.73053C20.0992 9.88442 20.1495 10.0262 20.1819 10.1557C20.2276 10.3373 20.2757 10.5154 20.3262 10.6903C20.3672 10.8323 20.3979 10.9931 20.4184 11.1727C20.4251 11.2279 20.4503 11.3895 20.4942 11.6572C20.5275 11.863 20.5466 12.1034 20.5513 12.3783C20.5609 12.9333 20.5685 13.2601 20.5742 13.3588C20.5909 13.6661 20.5992 13.9943 20.5992 14.3435C20.5987 18.1164 20.5985 20.2403 20.5985 20.7153C20.5985 20.7519 20.584 20.787 20.5581 20.8128C20.5322 20.8387 20.4972 20.8532 20.4606 20.8532L16.5679 20.8525C16.4688 20.8525 16.4193 20.8034 16.4193 20.7053C16.4174 18.2083 16.4181 15.8519 16.4214 13.6361C16.4229 13.0529 16.3319 12.5124 16.1484 12.0145C16.1341 11.9755 16.1027 11.8921 16.0541 11.7644C16.0198 11.6739 15.9674 11.5924 15.8969 11.52C15.6977 11.3166 15.5365 11.181 15.4131 11.1134C15.2049 10.9995 14.9533 10.9149 14.6584 10.8597C14.4269 10.8158 14.1651 10.818 13.873 10.8661C13.4842 10.9299 13.1879 11.0155 12.984 11.1227C12.7015 11.2713 12.4673 11.5021 12.2815 11.8151C12.1481 12.0405 12.0271 12.3673 11.9185 12.7956C11.8861 12.9238 11.8501 13.1663 11.8106 13.5231C11.7858 13.7509 11.7734 13.9941 11.7734 14.2528C11.7734 17.2276 11.7734 19.4049 11.7734 20.7846C11.7735 20.7936 11.7718 20.8025 11.7684 20.8108C11.7651 20.8191 11.7601 20.8267 11.7538 20.8331C11.7474 20.8395 11.7399 20.8445 11.7316 20.848C11.7234 20.8514 11.7145 20.8532 11.7055 20.8532L7.76139 20.8525C7.66801 20.8525 7.62132 20.8061 7.62132 20.7132C7.62084 18.6459 7.62061 14.3159 7.62061 7.7231C7.62061 7.67498 7.62751 7.62305 7.64133 7.56731C7.64752 7.54349 7.66229 7.52729 7.68564 7.51871C7.76139 7.49251 7.85811 7.47917 7.97578 7.47869C9.5337 7.47536 10.7076 7.47655 11.4975 7.48227C11.5168 7.48236 11.5358 7.48624 11.5535 7.49369C11.5713 7.50114 11.5874 7.51201 11.6009 7.52568C11.6145 7.53935 11.6252 7.55555 11.6324 7.57336C11.6397 7.59117 11.6434 7.61024 11.6433 7.62948L11.6426 9.22171C11.6426 9.30318 11.6681 9.31175 11.7191 9.24743Z" fill="white"/>
<path d="M4.90775 7.47656H1.02581C0.948454 7.47656 0.885742 7.53927 0.885742 7.61663V20.7117C0.885742 20.7891 0.948454 20.8518 1.02581 20.8518H4.90775C4.98511 20.8518 5.04782 20.7891 5.04782 20.7117V7.61663C5.04782 7.53927 4.98511 7.47656 4.90775 7.47656Z" fill="white"/>
</svg>
