<svg width="31" height="31" viewBox="0 0 31 31" fill="none" xmlns="http://www.w3.org/2000/svg">
<g clip-path="url(#clip0_197_463)">
<path d="M15.5 0C6.93977 0 0 6.93907 0 15.5C0 24.0609 6.93977 31 15.5 31C24.0602 31 31 24.0609 31 15.5C31 6.93907 24.0602 0 15.5 0ZM23.0621 22.3442C22.8132 22.785 22.3552 23.033 21.8832 23.033C21.6624 23.033 21.4346 22.9778 21.2256 22.8616C19.2905 21.7766 17.1815 21.1119 14.9528 20.8862C12.7194 20.6624 10.5142 20.8891 8.39583 21.5654C7.68894 21.7911 6.92804 21.4006 6.70258 20.6925C6.47478 19.9833 6.86697 19.2249 7.57621 18.9981C10.0468 18.2087 12.6231 17.9403 15.2252 18.2047C17.8226 18.4692 20.2839 19.2442 22.5431 20.5105C23.1936 20.8726 23.4261 21.6941 23.0621 22.3442ZM24.9174 17.6362C24.6779 18.0972 24.2082 18.3616 23.722 18.3616C23.5107 18.3616 23.2993 18.3132 23.0997 18.2087C20.7207 16.9697 18.1514 16.2024 15.4577 15.9291C12.7429 15.6512 10.0539 15.8934 7.46114 16.6411C6.74485 16.8445 5.99804 16.4349 5.79372 15.7189C5.58706 15.004 6.00037 14.2572 6.71431 14.0507C9.64052 13.2069 12.6748 12.9366 15.7301 13.2466C18.7644 13.5557 21.6624 14.4199 24.3468 15.8187C25.0043 16.1627 25.2626 16.9763 24.9174 17.6362ZM25.5891 13.7194C25.3871 13.7194 25.1828 13.6738 24.9879 13.578C22.165 12.1703 19.1284 11.2936 15.9603 10.9721C12.7875 10.6476 9.63114 10.8984 6.57576 11.7142C5.85712 11.9049 5.11969 11.4787 4.92712 10.7589C4.73454 10.04 5.16198 9.30094 5.88297 9.10907C9.25304 8.20913 12.7382 7.93506 16.2351 8.29062C19.7273 8.64407 23.0762 9.61188 26.1903 11.1649C26.8573 11.497 27.1273 12.307 26.7962 12.9726C26.5614 13.4463 26.0846 13.7194 25.5891 13.7194Z" fill="#7D0202"/>
</g>
<defs>
<clipPath id="clip0_197_463">
<rect width="31" height="31" fill="white"/>
</clipPath>
</defs>
</svg>
