<svg width="20" height="21" viewBox="0 0 20 21" fill="none" xmlns="http://www.w3.org/2000/svg">
<path d="M10.0109 0.853516C10.4252 0.853946 10.8685 0.893523 11.3409 0.972248C11.7952 1.04796 12.0666 1.09636 12.1552 1.11744C12.5493 1.21079 12.8085 1.28091 12.9328 1.3278C13.1264 1.4005 13.3679 1.48138 13.6574 1.57043C13.8713 1.63582 14.104 1.73584 14.3556 1.87049C14.8228 2.12 15.2808 2.39898 15.7295 2.70742C15.9949 2.89025 16.2184 3.06341 16.3999 3.22688C16.6864 3.48499 16.9858 3.70955 17.2265 3.98961C17.3186 4.09715 17.5031 4.30709 17.7802 4.61941C17.8976 4.75147 18.0417 4.94786 18.2125 5.20855C18.3609 5.43569 18.5823 5.72994 18.7307 6.03C18.8408 6.25241 18.9598 6.48729 19.0875 6.73465C19.2028 6.95749 19.297 7.18463 19.3702 7.41608C19.4728 7.73936 19.5928 8.03297 19.6689 8.3511C19.6874 8.42853 19.7311 8.63395 19.7999 8.96734C19.8528 9.2246 19.8901 9.47497 19.9116 9.71846C19.94 10.0381 19.9638 10.2893 19.9832 10.4722C20.0129 10.7522 20.0045 11.1177 19.958 11.5685C19.9301 11.8408 19.9141 11.9991 19.9103 12.0434C19.8901 12.2611 19.869 12.4188 19.847 12.5164C19.8092 12.6842 19.7608 12.9217 19.7018 13.2288C19.6541 13.4775 19.5896 13.7102 19.5083 13.927C19.4601 14.0548 19.3943 14.2413 19.3108 14.4865C19.2428 14.6865 19.1658 14.8683 19.0798 15.0317C18.8875 15.3976 18.7004 15.8222 18.4616 16.1565C18.3906 16.2558 18.271 16.4329 18.1028 16.6875C17.9669 16.894 17.8137 17.0924 17.6434 17.2825C17.4429 17.5058 17.3317 17.631 17.3098 17.6581C17.2319 17.7531 17.1138 17.8716 16.9555 18.0136C16.6931 18.2494 16.4369 18.4774 16.187 18.6976C16.119 18.7578 15.7839 18.9944 15.1816 19.4074C15.0306 19.5111 14.8775 19.5997 14.7222 19.6733C14.6069 19.7279 14.4484 19.8069 14.2466 19.9101C13.9618 20.0559 13.722 20.159 13.5271 20.2192C13.3795 20.2648 13.2141 20.3209 13.0309 20.3876C12.9117 20.4315 12.7431 20.4775 12.525 20.5257C12.0909 20.6221 11.7347 20.6986 11.4564 20.7554C11.3344 20.78 11.166 20.8342 11.0053 20.8387C10.6693 20.8486 10.3334 20.8535 9.99739 20.8535C9.66141 20.8531 9.32543 20.8477 8.98945 20.8374C8.82877 20.8329 8.66035 20.778 8.53839 20.7535C8.26006 20.6963 7.90386 20.6193 7.4698 20.5225C7.25212 20.4739 7.0837 20.4276 6.96454 20.3837C6.78128 20.3166 6.61587 20.2603 6.46832 20.2147C6.27344 20.154 6.03382 20.0506 5.74947 19.9043C5.54771 19.8006 5.38918 19.7215 5.27389 19.6668C5.11859 19.5933 4.96566 19.5044 4.81509 19.4003C4.21326 18.9865 3.87835 18.7495 3.81038 18.6892C3.56087 18.4685 3.30512 18.2401 3.04314 18.0039C2.88483 17.862 2.76695 17.7435 2.68952 17.6484C2.66758 17.6208 2.55638 17.4954 2.35591 17.2722C2.18598 17.0816 2.03326 16.8831 1.89775 16.6766C1.72955 16.4215 1.61017 16.2442 1.53962 16.1449C1.30086 15.8106 1.11438 15.3854 0.922726 15.0195C0.837118 14.856 0.760329 14.674 0.692359 14.4736C0.609332 14.2284 0.543727 14.0419 0.495546 13.9141C0.41467 13.6973 0.350572 13.4643 0.303251 13.2153C0.244745 12.9081 0.196564 12.6706 0.158707 12.5029C0.137198 12.4052 0.116333 12.2475 0.0961143 12.0299C0.0926728 11.9856 0.0769706 11.8273 0.0490082 11.5549C0.00340796 11.1041 -0.00433551 10.7387 0.0257778 10.4586C0.0451364 10.2758 0.0692273 10.0245 0.0980501 9.70491C0.11999 9.46142 0.157631 9.21105 0.210975 8.95379C0.280236 8.62082 0.324115 8.41562 0.342614 8.33819C0.419403 8.02006 0.539426 7.72646 0.642672 7.40317C0.716234 7.17173 0.810876 6.9448 0.926597 6.72239C1.05436 6.47503 1.17353 6.24037 1.28409 6.01839C1.43315 5.71833 1.65448 5.42408 1.80354 5.19758C1.97476 4.93689 2.11909 4.74072 2.23653 4.60908C2.514 4.29676 2.69877 4.08704 2.79083 3.97993C3.03217 3.69987 3.33158 3.47596 3.61873 3.21784C3.8007 3.0548 4.0244 2.88208 4.28983 2.69968C4.73895 2.39166 5.19732 2.11333 5.66493 1.86468C5.9166 1.73046 6.14954 1.63066 6.36378 1.56527C6.6533 1.47665 6.89485 1.3962 7.08844 1.32393C7.21276 1.27704 7.47195 1.20713 7.866 1.11421C7.95505 1.09356 8.22672 1.0456 8.681 0.970312C9.15335 0.892448 9.59666 0.853516 10.0109 0.853516ZM10.8053 6.21584C10.7162 6.19562 10.6655 6.18508 10.653 6.18422C9.40544 6.09388 8.24844 6.07646 7.182 6.13196C6.20633 6.18272 5.1715 6.35867 4.07753 6.6598C3.99967 6.68088 3.90933 6.70411 3.80651 6.72949C3.66541 6.76477 3.57657 6.79639 3.54001 6.82435C3.43461 6.90522 3.34965 6.99858 3.28512 7.1044C3.09024 7.42403 3.06185 7.75184 3.19994 8.08782C3.27393 8.26678 3.39912 8.3967 3.5755 8.47757C3.78543 8.57393 3.97256 8.61351 4.1369 8.5963C4.18078 8.59157 4.40749 8.54533 4.81703 8.45757C5.0403 8.40939 5.26636 8.35733 5.49522 8.30141C5.73011 8.24398 5.95983 8.24591 6.16309 8.19881C6.36098 8.15321 6.52682 8.12761 6.66061 8.12202C7.17426 8.09879 8.15122 7.97618 8.7152 8.0149C9.63409 8.07685 10.1299 8.10868 10.2026 8.1104C10.4005 8.116 10.6371 8.14439 10.9124 8.19558C11.0191 8.21537 11.2559 8.24484 11.6229 8.28399C11.7665 8.29947 12.2428 8.39949 13.0515 8.58404C13.221 8.62276 13.418 8.68234 13.6426 8.76279C13.7867 8.81441 13.9805 8.877 14.224 8.95057C14.4628 9.02327 14.7478 9.13942 15.079 9.29902C15.5716 9.53692 15.8549 9.67501 15.9289 9.71329C16.296 9.90365 16.5922 9.90688 16.9194 9.69135C17.3169 9.42937 17.4143 8.87442 17.2362 8.44982C17.1596 8.26785 17.0491 8.13579 16.9045 8.05362C16.3569 7.74302 15.7669 7.46254 15.1345 7.21217C14.9629 7.1442 14.8046 7.08763 14.6596 7.04246C14.4582 6.98008 14.2978 6.92845 14.1782 6.88759C13.9829 6.82091 13.7899 6.76219 13.5994 6.71142C13.3219 6.63743 13.1257 6.58796 13.0109 6.56301C12.5566 6.46449 11.87 6.35566 10.9511 6.23649C10.8646 6.22531 10.816 6.21842 10.8053 6.21584ZM5.59202 9.77653C5.28142 9.8402 4.94996 9.91828 4.59763 10.0108C4.31542 10.0848 4.12227 10.1721 4.01816 10.2728C3.71746 10.5631 3.68584 11.0323 3.93492 11.3665C4.02225 11.484 4.15884 11.5706 4.34468 11.6266C4.52235 11.6803 4.69507 11.6864 4.86284 11.6446C4.95404 11.6223 5.00072 11.6107 5.00287 11.6098C5.63826 11.4833 6.13707 11.3839 6.49929 11.3117C6.77934 11.2557 7.01122 11.2252 7.19491 11.22C7.43538 11.2132 7.67005 11.2005 7.89891 11.182C8.22113 11.1557 8.56162 11.1503 8.9204 11.1658C9.41684 11.1873 9.75648 11.2108 9.93931 11.2362C10.1174 11.2611 10.5052 11.3256 11.1028 11.4298C11.3028 11.4646 11.5043 11.5119 11.7074 11.5717C12.0752 11.6806 12.2737 11.7391 12.303 11.7472C12.5112 11.8036 12.6697 11.8565 12.7786 11.906C12.8323 11.9305 12.9883 11.9912 13.2464 12.0879C13.6665 12.2448 14.0653 12.4803 14.6041 12.7584C14.8368 12.8789 15.0171 12.9365 15.1448 12.9313C15.3879 12.921 15.5746 12.8395 15.7049 12.6868C15.8301 12.5401 15.9035 12.3661 15.925 12.1647C15.9426 11.9983 15.8996 11.8344 15.7959 11.673C15.7056 11.5328 15.5748 11.4123 15.4036 11.3117C14.93 11.0342 14.4415 10.7929 13.9381 10.5877C13.1513 10.268 12.2925 10.0112 11.3615 9.81719C11.1133 9.76556 10.9395 9.73588 10.8401 9.72814C10.6629 9.71437 10.4882 9.69351 10.3162 9.66554C10.1234 9.63414 9.86187 9.60854 9.53149 9.58875C8.39363 9.52035 7.31536 9.54036 6.29667 9.64876C6.18525 9.66038 5.95037 9.70297 5.59202 9.77653ZM7.6208 12.872C7.43667 12.8986 7.10779 12.9193 6.63415 12.9339C6.56102 12.9361 6.4524 12.9541 6.30828 12.9881C6.03791 13.052 5.71398 13.0617 5.51781 13.1127C5.26486 13.1791 4.96738 13.1862 4.68152 13.2553C4.54042 13.2888 4.43545 13.3512 4.36662 13.4424C4.26208 13.5805 4.20723 13.7334 4.20207 13.9012C4.1939 14.1636 4.3051 14.351 4.53568 14.4632C4.73142 14.5583 4.94565 14.5693 5.17839 14.4962C5.33842 14.4454 5.44382 14.4179 5.49458 14.4136C5.65031 14.3998 5.76065 14.385 5.82561 14.369C5.98349 14.3303 6.14675 14.3036 6.31538 14.289C6.47886 14.2748 6.60404 14.2563 6.69094 14.2335C6.79892 14.2051 6.92346 14.1881 7.06456 14.1825C7.50335 14.1653 7.95505 14.1453 8.41966 14.1225C8.71047 14.1079 9.20218 14.1245 9.89478 14.1722C10.089 14.1858 10.2684 14.2542 10.4736 14.269C10.607 14.2785 10.7502 14.3075 10.9034 14.3561C10.9408 14.3682 11.0967 14.4095 11.3712 14.48C11.5532 14.5269 11.7085 14.5753 11.8371 14.6252C12.0118 14.6936 12.1903 14.7609 12.3727 14.8272C12.5215 14.881 12.696 14.9584 12.896 15.0595C13.3301 15.2793 13.5613 15.3976 13.5897 15.4144C13.7441 15.5043 13.8637 15.5531 13.9485 15.5609C14.1141 15.5755 14.247 15.5542 14.3473 15.497C14.5086 15.4049 14.6133 15.2636 14.6615 15.073C14.7063 14.8954 14.6744 14.7132 14.566 14.5265C14.5135 14.4357 14.3767 14.3363 14.1556 14.2284C13.4987 13.9066 13.0933 13.7123 12.9392 13.6457C12.83 13.5979 12.7317 13.5592 12.6443 13.5295C12.5063 13.4822 12.4075 13.4456 12.3482 13.4198C12.2518 13.3781 12.1017 13.3284 11.8978 13.2708C11.3398 13.1133 10.984 13.0189 10.8304 12.9875C10.7522 12.9711 10.5274 12.9445 10.1561 12.9075C10.1553 12.907 10.054 12.8922 9.8522 12.8629C9.6913 12.8393 9.54332 12.8259 9.40824 12.8229C8.57324 12.8044 7.97742 12.8208 7.6208 12.872Z" fill="white"/>
</svg>
