<svg width="18" height="21" viewBox="0 0 18 21" fill="none" xmlns="http://www.w3.org/2000/svg">
<g clip-path="url(#clip0_9_10682)">
<path d="M17.5864 9.05273C15.8661 9.05642 14.1881 8.5194 12.7896 7.51758V14.502C12.7892 15.7955 12.3938 17.0581 11.6564 18.1208C10.919 19.1836 9.87467 19.9959 8.6631 20.449C7.45153 20.9022 6.13048 20.9746 4.87664 20.6567C3.62279 20.3387 2.49592 19.6454 1.64673 18.6697C0.797551 17.6939 0.266541 16.4821 0.124721 15.1964C-0.0170995 13.9106 0.237033 12.6122 0.853129 11.4748C1.46923 10.3374 2.41791 9.41525 3.57231 8.83164C4.72671 8.24802 6.03179 8.03078 7.31299 8.20898V11.7207C6.72716 11.5363 6.09804 11.5417 5.51545 11.7361C4.93287 11.9306 4.42661 12.3041 4.06896 12.8034C3.71132 13.3027 3.52058 13.9022 3.52398 14.5164C3.52737 15.1306 3.72473 15.728 4.08787 16.2233C4.45101 16.7186 4.96137 17.0865 5.54607 17.2745C6.13076 17.4625 6.75991 17.4609 7.34367 17.27C7.92743 17.0792 8.43596 16.7087 8.79663 16.2116C9.15732 15.7145 9.35171 15.1161 9.35206 14.502V0.853516H12.7896C12.7876 1.14424 12.8125 1.43453 12.8638 1.7207C12.9833 2.35859 13.2317 2.96541 13.5937 3.50406C13.9557 4.04271 14.4238 4.50188 14.9692 4.85352C15.7457 5.36634 16.6559 5.6394 17.5864 5.63867V9.05273Z" fill="white"/>
</g>
<defs>
<clipPath id="clip0_9_10682">
<rect width="17.5" height="20" fill="white" transform="translate(0.0864258 0.853516)"/>
</clipPath>
</defs>
</svg>
