<?xml version="1.0" standalone="no"?>
<!DOCTYPE svg PUBLIC "-//W3C//DTD SVG 20010904//EN"
 "http://www.w3.org/TR/2001/REC-SVG-20010904/DTD/svg10.dtd">
<svg version="1.0" xmlns="http://www.w3.org/2000/svg"
 width="770.000000pt" height="773.000000pt" viewBox="0 0 770.000000 773.000000"
 preserveAspectRatio="xMidYMid meet">

<g transform="translate(0.000000,773.000000) scale(0.100000,-0.100000)"
fill="#000000" stroke="none">
<path d="M3814 7555 c-42 -18 -176 -156 -238 -245 -194 -278 -312 -654 -371
-1180 -8 -74 -15 -161 -15 -192 l0 -57 -47 21 c-168 73 -516 170 -677 189
-111 12 -123 12 -144 -9 -23 -23 -49 -152 -58 -282 -11 -168 39 -558 101 -795
15 -55 35 -131 45 -170 16 -64 98 -332 116 -380 4 -11 -46 32 -112 96 -247
240 -421 380 -641 516 -168 105 -382 185 -448 169 -61 -15 -144 -270 -148
-458 l-2 -83 -90 34 c-118 44 -386 98 -555 112 -146 12 -353 0 -374 -21 -21
-21 -9 -139 26 -240 37 -106 146 -329 230 -465 139 -228 440 -641 446 -613 2
10 -5 30 -16 45 -10 16 -19 46 -21 68 -4 96 -55 186 -137 245 -25 17 -56 33
-69 34 -15 2 -36 16 -50 36 -14 19 -25 35 -25 36 0 2 12 -1 27 -6 48 -15 173
-32 190 -26 13 5 15 18 9 84 -12 158 -19 202 -30 210 -6 5 -69 16 -140 26
-157 21 -162 18 -135 -89 6 -23 9 -51 7 -61 -4 -22 -35 23 -103 149 l-47 86
32 -10 c49 -18 57 -3 41 84 -7 39 -16 96 -18 124 -3 29 -11 57 -18 63 -6 5
-46 15 -88 22 -43 6 -77 16 -77 22 0 6 -3 22 -7 34 l-6 24 41 -21 c23 -12 72
-24 111 -27 l71 -7 0 -37 c0 -59 37 -164 73 -208 50 -61 117 -102 194 -119 37
-8 78 -12 89 -10 20 3 22 -1 26 -63 7 -88 48 -182 104 -238 25 -24 49 -40 55
-36 7 4 -6 22 -35 46 -25 22 -46 46 -46 53 0 8 -9 32 -20 52 -25 49 -42 135
-34 182 l6 36 -79 0 c-65 0 -87 5 -135 28 -105 52 -168 157 -168 281 l0 64
-82 3 c-59 3 -95 10 -125 25 -28 14 -44 17 -47 10 -2 -6 -5 11 -5 37 l-1 49
31 -26 c47 -40 126 -59 212 -51 l72 7 -3 -82 c-6 -114 10 -163 72 -226 61 -60
115 -79 208 -71 35 3 73 8 86 12 21 7 22 5 16 -20 -24 -96 3 -252 47 -275 10
-6 19 -19 19 -30 0 -21 38 -52 53 -43 6 4 4 10 -4 17 -8 6 -31 36 -52 67 -53
77 -59 128 -36 287 11 70 21 133 24 140 8 23 61 -23 79 -68 16 -39 15 -41 -9
-79 -16 -24 -30 -64 -36 -107 -6 -38 -17 -79 -25 -92 -30 -46 16 -58 65 -16
29 24 32 24 53 10 23 -16 60 -21 71 -10 3 4 -7 25 -23 48 -34 47 -50 116 -42
181 4 41 1 48 -38 95 -23 28 -55 57 -70 65 -23 12 -28 21 -28 50 0 19 -9 54
-20 76 l-21 41 27 23 26 22 70 -20 c39 -11 106 -33 149 -49 66 -26 77 -33 72
-49 -4 -11 1 -45 10 -77 28 -101 100 -284 113 -290 30 -11 29 17 -4 98 -34 83
-94 276 -94 301 0 7 -7 21 -17 31 -23 26 -7 35 20 11 28 -26 82 -37 96 -19 8
9 0 24 -29 57 -22 24 -40 47 -40 51 0 7 33 34 66 54 15 10 16 15 7 25 -10 10
-20 10 -51 0 -42 -14 -85 -2 -77 22 2 6 11 47 20 91 l17 79 80 -79 c75 -74
236 -254 252 -281 4 -7 -2 -25 -13 -40 -28 -40 -35 -82 -16 -89 8 -4 21 -2 28
4 6 5 29 12 50 16 20 4 37 12 37 18 0 8 3 9 10 2 12 -12 -13 -137 -41 -201
l-20 -47 -18 30 c-38 63 -70 68 -72 11 -1 -18 -4 -43 -8 -57 -10 -33 -2 -60
16 -60 9 0 13 6 9 15 -7 20 4 105 14 105 4 0 13 -13 20 -30 7 -16 19 -30 27
-30 7 0 16 -7 19 -15 4 -10 20 -15 52 -15 l45 0 -23 -25 c-27 -28 -13 -32 30
-10 50 26 30 55 -37 55 -24 0 -43 2 -43 4 0 2 11 28 25 58 13 29 30 77 37 106
9 42 15 51 27 46 9 -3 25 -9 36 -12 11 -2 26 -9 32 -15 7 -5 20 -6 29 -3 23 9
12 71 -17 102 -21 23 -21 24 -4 51 10 15 26 33 34 40 27 20 0 34 -68 36 -57 1
-62 3 -67 27 -21 91 -56 224 -73 274 -12 33 -21 61 -21 63 0 13 201 -108 303
-183 44 -32 65 -56 83 -94 l24 -52 -34 -40 c-56 -65 -56 -132 -1 -180 30 -26
32 -54 5 -63 -11 -3 -29 -19 -40 -35 -11 -16 -29 -32 -40 -35 -24 -8 -26 -30
-4 -39 9 -3 30 -6 48 -6 45 0 48 -7 26 -50 -11 -21 -28 -69 -38 -108 -18 -67
-18 -70 0 -81 25 -16 28 -14 28 17 0 34 15 90 41 150 l20 46 18 -30 c25 -41
49 -60 62 -47 6 6 12 47 14 92 2 68 7 85 27 110 14 16 36 32 49 36 13 4 30 12
37 18 10 8 14 5 18 -9 19 -72 94 -239 108 -242 24 -5 20 16 -29 141 -25 64
-45 132 -45 153 l0 38 30 -29 c17 -16 28 -37 27 -49 -2 -17 4 -21 25 -21 28 0
35 -6 158 -139 35 -38 61 -62 57 -53 -15 38 -127 391 -127 398 0 17 109 9 163
-11 29 -11 67 -35 84 -52 35 -38 68 -97 58 -106 -6 -7 -31 20 -38 41 -4 14
-39 1 -66 -25 -22 -20 -25 -20 -51 -4 -31 18 -70 21 -70 6 0 -6 11 -27 25 -48
31 -48 46 -118 38 -178 -5 -39 -3 -49 12 -60 28 -21 38 -17 32 12 -3 18 3 38
19 61 13 19 26 51 29 72 4 20 9 49 12 65 l5 30 33 -36 33 -35 -14 -84 c-8 -46
-18 -104 -23 -129 -5 -25 -6 -49 -1 -55 16 -19 30 -93 31 -159 1 -55 4 -65 15
-55 7 6 16 19 19 30 5 14 16 19 41 19 19 0 34 5 34 10 0 6 -15 10 -33 10 -28
0 -36 5 -50 35 -18 37 -21 109 -9 200 7 47 9 51 47 63 87 30 207 -4 262 -73
15 -19 31 -35 36 -35 31 0 -40 83 -97 113 -44 23 -160 30 -223 13 l-32 -8 6
38 c3 22 12 49 20 62 13 21 13 28 -2 58 -9 19 -15 40 -12 47 2 7 -7 30 -21 52
-63 103 -135 145 -249 145 l-72 0 -16 52 c-8 28 -15 62 -15 75 0 13 -9 49 -20
81 -27 76 -40 132 -30 132 13 0 48 -53 72 -107 15 -34 21 -68 21 -118 l0 -70
76 -1 c54 0 89 -6 122 -21 60 -27 132 -95 123 -117 -4 -10 6 -29 26 -52 22
-26 30 -44 27 -61 -2 -13 0 -26 5 -29 4 -3 6 -27 2 -53 l-6 -48 55 5 c105 8
218 -44 273 -128 30 -45 52 -45 29 0 -43 82 -141 140 -251 148 l-71 4 -7 71
c-5 57 -12 77 -31 97 -14 14 -25 37 -25 51 0 33 -71 102 -134 130 -27 12 -80
24 -118 28 l-69 6 -3 65 c-3 82 -33 151 -91 210 -27 27 -47 59 -51 78 l-7 34
47 -3 c25 -2 50 1 55 6 9 11 -29 259 -42 271 -4 5 -29 11 -55 14 -39 4 -48 9
-50 28 -3 21 -1 22 40 15 24 -4 59 -8 79 -8 l37 0 4 -65 c7 -92 40 -160 104
-219 64 -58 142 -91 218 -91 l53 0 6 -67 c8 -94 34 -157 87 -210 55 -57 130
-91 218 -101 l67 -7 3 -45 c5 -101 29 -157 96 -228 55 -58 114 -83 208 -89
l77 -6 -1 -31 c-4 -72 2 -105 21 -116 18 -9 19 -8 9 26 -5 20 -8 60 -6 89 l3
53 -81 4 c-105 4 -181 41 -236 113 -43 58 -73 154 -66 217 l5 43 -72 1 c-51 0
-81 6 -99 18 -15 9 -30 15 -34 12 -14 -8 -101 63 -126 103 -39 61 -59 134 -54
194 l4 53 -71 0 c-61 0 -82 5 -138 32 -112 55 -169 149 -169 275 l1 72 -57 -3
c-77 -4 -136 15 -140 47 -3 21 -1 23 20 17 43 -12 116 -19 141 -12 32 8 75 52
94 96 8 19 15 67 15 107 2 96 -27 153 -103 207 l-54 38 40 -6 c30 -5 49 -17
77 -49 77 -86 92 -212 43 -358 -74 -218 2 -382 192 -414 75 -12 143 10 235 77
l83 60 63 -5 c73 -6 74 -1 6 16 -53 13 -63 27 -38 52 17 17 46 17 99 1 11 -4
1 2 -22 13 -24 11 -43 27 -43 34 0 23 27 39 52 31 l23 -7 -24 20 c-30 25 -22
53 15 53 l26 0 -22 18 c-24 19 -20 42 6 42 19 0 18 10 -3 26 -15 10 -16 15 -5
25 6 7 12 23 12 36 0 13 5 23 11 23 6 0 9 -15 8 -34 -2 -19 3 -41 10 -50 12
-14 11 -19 -2 -34 -13 -15 -13 -19 -1 -30 21 -20 13 -45 -16 -52 l-25 -6 23
-8 c15 -5 22 -15 22 -33 0 -24 -3 -25 -35 -20 -45 7 -44 1 1 -18 28 -11 35
-19 32 -37 -3 -24 -7 -25 -83 -14 -32 4 -34 4 -10 -2 65 -18 103 -54 85 -81
-6 -11 -15 -11 -40 -2 -53 18 -59 12 -10 -10 142 -64 195 -226 135 -416 -36
-117 -41 -176 -21 -247 21 -70 80 -135 149 -161 56 -21 162 -17 221 8 55 24
41 29 -29 11 -129 -34 -239 3 -299 99 -40 65 -40 137 -2 271 48 167 29 301
-54 391 l-28 30 14 65 c26 123 16 272 -32 475 -31 129 -29 186 12 455 31 200
53 305 64 293 4 -4 13 -24 19 -44 6 -20 28 -55 47 -78 l36 -41 -11 -64 c-14
-80 -14 -222 0 -321 13 -97 178 -750 251 -996 50 -169 77 -229 101 -229 5 0 2
11 -7 25 -9 13 -16 38 -16 55 0 17 -16 86 -36 153 -117 396 -214 785 -214 855
0 90 51 265 103 354 35 60 136 162 184 186 123 63 270 17 329 -103 23 -48 26
-64 22 -118 -3 -34 -16 -96 -29 -137 -17 -56 -23 -98 -23 -165 0 -101 18 -155
74 -218 31 -36 31 -37 20 -90 -19 -81 -8 -330 18 -437 106 -434 149 -602 196
-764 30 -104 57 -190 59 -193 11 -10 38 11 32 26 -17 44 -131 460 -175 639
-33 135 -50 224 -50 266 0 84 42 242 88 330 48 93 150 197 217 220 124 42 253
-3 306 -106 35 -68 34 -113 -1 -252 -27 -104 -32 -140 -28 -199 5 -82 30 -146
77 -199 30 -34 31 -40 22 -75 -32 -123 -20 -309 32 -517 26 -106 36 -131 53
-137 l21 -7 -19 76 c-44 177 34 432 177 576 35 36 69 66 74 66 6 0 6 -12 0
-32 -13 -48 -11 -56 13 -60 25 -4 57 -89 58 -155 0 -28 4 -43 13 -43 39 1 107
38 174 97 74 64 77 66 87 44 9 -21 6 -33 -42 -181 -2 -8 8 3 23 25 36 51 34
49 40 44 2 -3 -7 -43 -21 -90 -37 -118 -36 -289 2 -289 11 0 11 6 3 28 -19 49
-13 161 14 247 14 44 28 98 32 120 7 39 29 75 47 75 5 0 7 -23 3 -52 l-7 -53
79 0 c57 -1 90 -6 124 -22 113 -51 183 -162 183 -288 l-1 -70 66 0 c36 0 85
-4 109 -9 26 -5 42 -5 42 1 0 13 -71 34 -133 38 l-52 3 -7 71 c-18 170 -140
289 -305 299 l-71 4 -4 57 c-3 51 7 91 23 91 3 0 10 -24 15 -52 l9 -53 55 -7
c30 -4 80 -11 110 -14 30 -4 69 -8 85 -8 l30 -1 -3 70 c-1 39 -8 102 -15 140
l-13 70 -55 12 c-29 6 -56 12 -58 12 -2 1 2 7 8 15 8 10 31 13 79 10 l67 -3 7
-75 c16 -169 137 -289 309 -303 l69 -6 0 -58 c0 -109 71 -223 170 -274 50 -25
152 -49 180 -42 15 4 18 -5 23 -59 14 -143 102 -273 210 -310 51 -17 56 -24
31 -45 -12 -10 -22 -10 -48 -1 -47 17 -132 16 -139 -2 -7 -18 23 -189 34 -197
5 -3 -4 -20 -19 -38 l-27 -32 -2 36 c-3 55 -32 128 -69 171 -25 29 -33 34 -34
21 0 -10 11 -33 25 -51 31 -40 55 -108 55 -152 0 -19 5 -34 11 -34 6 0 -12
-29 -40 -64 -29 -37 -51 -74 -51 -87 l0 -24 20 25 c11 14 78 102 149 195 367
487 595 910 603 1118 2 39 -2 71 -8 77 -21 21 -228 33 -374 21 -170 -14 -437
-68 -556 -113 l-92 -34 -5 115 c-7 166 -66 361 -127 416 -21 19 -24 19 -100 3
-197 -41 -511 -232 -804 -489 -23 -20 -56 -41 -73 -47 -32 -10 -33 -10 -33 14
0 46 -32 136 -55 158 l-22 21 33 130 c75 296 115 645 95 832 -14 133 -36 223
-59 241 -53 42 -554 -72 -808 -183 l-51 -23 -6 102 c-29 454 -134 884 -289
1171 -72 134 -106 181 -217 296 -102 107 -131 124 -177 104z m60 -30 c21 -14
22 -20 16 -57 -5 -23 -16 -48 -25 -54 -36 -27 -175 -30 -175 -4 0 12 137 130
151 130 5 0 20 -7 33 -15z m116 -105 c21 -30 21 -32 5 -65 -9 -19 -19 -59 -22
-88 -3 -28 -12 -65 -20 -80 -26 -51 6 -63 57 -20 31 25 33 26 60 10 31 -19 70
-22 70 -7 0 6 -11 27 -24 48 -27 42 -44 88 -28 78 22 -13 158 -263 148 -273
-12 -12 -88 -14 -139 -3 -71 14 -133 60 -167 120 -29 53 -33 152 -11 262 12
60 15 67 31 58 10 -6 28 -24 40 -40z m-104 -132 c-1 -125 7 -152 68 -216 56
-60 99 -77 203 -77 51 -1 95 -3 98 -6 3 -3 6 -48 8 -100 3 -103 15 -137 73
-202 19 -20 34 -41 34 -46 0 -5 3 -17 7 -27 11 -29 -53 14 -92 61 -49 59 -70
119 -70 200 l0 70 -75 0 c-62 0 -86 6 -132 28 -111 54 -171 151 -172 277 l-1
75 -75 1 c-42 0 -85 6 -98 13 -22 12 -23 14 -7 31 13 15 22 17 42 9 34 -13
112 -10 153 5 19 8 36 14 36 15 1 0 1 -50 0 -111z m164 37 c0 -18 9 -54 20
-79 10 -25 15 -46 10 -46 -5 0 -12 5 -15 10 -11 17 -44 11 -55 -10 -14 -25
-33 -26 -25 -1 3 11 10 44 15 75 15 93 50 129 50 51z m-310 -21 l65 -6 1 -43
c4 -188 149 -335 329 -335 l52 0 6 -74 c8 -113 69 -212 161 -261 21 -11 36
-28 39 -43 5 -24 4 -24 -47 -17 -107 16 -101 20 -99 -65 2 -87 21 -198 35
-206 5 -3 44 -11 86 -18 76 -12 77 -12 80 -44 l3 -31 -38 16 c-21 9 -72 19
-113 22 l-75 6 -6 75 c-7 93 -25 136 -84 199 -56 60 -127 92 -217 99 l-68 5 0
51 c0 174 -154 326 -331 326 l-47 0 -4 51 c-2 32 3 61 13 81 l16 31 6 -33 c4
-18 7 -43 7 -56 0 -13 7 -25 18 -27 53 -15 241 -39 255 -34 11 4 17 18 17 37
0 29 -26 198 -36 231 -3 11 -28 19 -89 28 -80 12 -83 14 -72 33 9 15 19 18 42
14 17 -4 59 -9 95 -12z m-48 -63 l53 -6 16 -115 c9 -63 15 -118 13 -121 -4 -7
-215 24 -231 34 -14 9 -28 130 -17 148 5 9 9 8 15 -7 6 -15 8 -12 8 14 1 56
17 74 56 66 19 -3 58 -9 87 -13z m-249 -273 l-5 -33 74 -1 c113 -1 214 -54
264 -141 35 -59 57 -147 49 -199 l-6 -41 73 1 c64 1 82 -3 140 -32 111 -54
168 -150 168 -280 l0 -67 78 0 c62 0 87 -5 127 -25 44 -22 50 -29 53 -60 3
-33 3 -34 -15 -18 -34 31 -107 58 -158 58 -105 0 -159 -69 -159 -205 -1 -64 4
-88 21 -122 73 -136 278 -176 352 -67 12 17 25 49 28 70 7 50 20 74 38 74 11
0 15 -12 15 -42 l0 -43 78 0 c178 -1 296 -119 297 -296 l0 -77 71 1 c112 0
217 -57 268 -147 38 -65 40 -97 16 -205 -20 -86 -26 -99 -54 -119 -17 -12 -53
-38 -81 -58 -47 -34 -53 -35 -113 -31 -73 5 -74 1 -6 -16 53 -13 63 -27 38
-52 -17 -17 -46 -17 -99 -1 -11 4 -1 -2 23 -13 23 -11 42 -27 42 -34 0 -23
-27 -39 -52 -31 l-23 7 24 -20 c29 -23 23 -53 -10 -53 -21 0 -21 -1 -5 -19 20
-22 14 -41 -11 -41 -14 0 -14 -3 2 -20 14 -16 16 -23 7 -32 -7 -7 -12 -22 -12
-35 0 -13 -5 -23 -11 -23 -6 0 -9 15 -8 34 2 19 -3 41 -10 50 -12 15 -12 19 2
33 15 16 15 18 1 35 -21 22 -11 48 18 48 l22 0 -22 16 c-12 8 -22 24 -22 36 0
18 4 20 35 15 45 -7 44 -1 -1 18 -28 11 -35 19 -32 37 3 24 7 25 83 14 35 -5
36 -5 8 3 -47 12 -83 39 -83 61 0 28 13 32 59 15 57 -20 51 -10 -9 16 -62 27
-113 83 -141 158 -27 70 -22 187 11 271 32 81 38 194 13 251 -46 103 -130 159
-238 159 -85 0 -115 -11 -200 -74 -84 -61 -117 -72 -169 -57 -20 5 -36 6 -36
1 0 -5 21 -12 46 -16 48 -7 64 -25 44 -49 -15 -18 -57 -19 -97 -4 -15 5 -24 7
-20 2 5 -4 23 -13 40 -19 24 -8 32 -17 32 -35 0 -20 -5 -24 -33 -24 -32 0 -32
0 -11 -16 27 -20 22 -54 -9 -53 -21 1 -21 -1 -6 -17 19 -21 12 -49 -13 -49
-15 0 -15 -2 3 -14 16 -13 17 -18 7 -35 -7 -12 -13 -28 -13 -36 0 -9 -5 -13
-11 -9 -6 3 -9 18 -6 32 3 14 0 34 -7 44 -9 16 -8 22 7 33 17 12 17 14 2 23
-10 5 -15 18 -13 33 2 19 9 24 28 22 25 -2 25 -2 3 9 -24 12 -38 41 -28 58 4
6 23 8 43 5 l37 -5 -32 12 c-42 17 -57 33 -49 54 6 17 29 16 106 -2 20 -4 22
-3 10 5 -8 6 -25 11 -36 11 -30 0 -74 37 -74 62 0 21 6 22 90 3 14 -3 6 2 -16
10 -61 23 -119 78 -151 143 -39 79 -38 192 0 301 86 240 -41 430 -272 407 -58
-6 -71 -11 -103 -43 -43 -41 -63 -40 -24 2 38 41 60 117 52 182 -13 114 -82
200 -185 229 -136 40 -221 -35 -221 -196 0 -89 21 -142 71 -184 58 -50 114
-69 185 -64 61 4 87 -8 44 -19 -11 -3 -20 -8 -20 -12 0 -17 -65 -33 -113 -28
-35 5 -47 3 -37 -3 8 -5 25 -10 37 -10 53 0 74 -38 32 -60 -19 -11 -33 -10
-86 5 -10 3 1 -3 25 -14 23 -11 42 -25 42 -30 0 -21 -30 -38 -57 -34 l-28 4
25 -13 c36 -19 33 -51 -5 -58 -24 -4 -26 -7 -12 -12 21 -9 23 -48 2 -48 -13 0
-13 -3 -3 -20 10 -16 10 -24 0 -40 -6 -11 -12 -30 -13 -42 -1 -20 -2 -19 -9 6
-5 16 -7 33 -3 39 3 5 -1 20 -8 34 -12 22 -11 27 4 38 16 11 16 13 2 19 -25 9
-14 49 15 56 24 6 24 7 3 14 -23 7 -37 32 -27 48 4 6 22 8 40 5 21 -4 32 -2
29 4 -4 5 -12 9 -19 9 -8 0 -24 8 -36 18 -30 24 -18 56 19 48 14 -3 42 -8 61
-11 30 -4 29 -3 -6 5 -48 12 -87 45 -82 68 4 18 23 20 73 8 22 -5 18 -1 -15
14 -82 39 -134 104 -155 195 -15 64 -9 102 38 241 46 135 72 183 60 112z m881
-167 c14 -47 24 -87 22 -89 -11 -10 -56 90 -62 138 -9 77 8 55 40 -49z m-742
55 c99 -29 171 -123 171 -220 -1 -87 -19 -133 -66 -167 -36 -26 -47 -29 -82
-24 -52 9 -123 40 -154 68 -90 83 -79 291 19 339 42 22 54 22 112 4z m817
-370 c12 -9 8 -12 -20 -17 l-34 -6 33 -2 c37 -1 45 -27 10 -34 -20 -4 -19 -4
5 -6 17 -1 27 -7 27 -17 0 -11 -6 -14 -20 -9 -15 5 -20 2 -20 -13 0 -20 25
-36 41 -26 5 3 9 -2 9 -10 0 -12 -10 -16 -35 -16 -28 0 -36 4 -39 23 -3 12 -7
31 -9 42 -3 14 -5 12 -6 -8 -2 -42 16 -67 47 -67 30 0 60 -15 50 -25 -4 -4
-30 -3 -60 2 l-53 8 -12 70 -12 70 6 -65 c3 -36 9 -70 14 -76 5 -7 34 -15 64
-19 39 -4 55 -11 55 -21 0 -12 -9 -14 -47 -8 -99 15 -97 13 -110 90 -6 38 -14
91 -17 118 l-7 48 63 -7 c35 -4 69 -12 77 -19z m-25 -401 c20 -10 50 -31 65
-46 25 -24 29 -38 35 -108 6 -60 11 -81 22 -81 28 0 3 -87 -37 -126 -23 -22
-36 -26 -86 -27 -71 0 -124 24 -176 82 -41 45 -51 84 -45 175 3 51 10 71 32
101 15 20 38 41 50 46 30 12 95 5 140 -16z m911 -25 c-3 -5 -10 -10 -16 -10
-5 0 -9 5 -9 10 0 6 7 10 16 10 8 0 12 -4 9 -10z m81 -41 c29 -114 29 -114
-15 -127 -77 -24 -159 -9 -224 41 -31 23 -76 92 -67 100 3 3 22 7 43 11 32 6
37 4 37 -12 0 -10 9 -27 19 -36 29 -26 65 -5 59 35 -5 34 -4 35 29 9 27 -21
55 -15 67 15 12 31 39 11 52 -36z m-2936 8 c69 -35 103 -92 108 -178 5 -81
-14 -142 -54 -180 -20 -19 -36 -24 -77 -24 -29 0 -67 6 -84 14 l-33 13 0 77
c0 80 13 184 31 264 11 46 13 48 38 42 14 -3 46 -16 71 -28z m304 -19 c140
-37 120 -7 201 -291 56 -196 62 -237 38 -245 -18 -5 -28 27 -15 48 17 27 -10
47 -32 25 -35 -36 -5 -115 44 -115 29 0 60 36 60 70 0 16 -27 123 -60 237 -33
114 -58 209 -55 211 5 5 56 -12 183 -60 l104 -40 -7 -52 c-32 -233 -154 -447
-289 -507 -64 -28 -158 -27 -220 2 -120 56 -154 173 -101 350 14 46 28 109 32
139 7 72 -17 167 -58 227 l-32 46 44 -7 c24 -4 97 -21 163 -38z m2458 17 c0
-5 -5 -11 -11 -13 -6 -2 -11 4 -11 13 0 9 5 15 11 13 6 -2 11 -8 11 -13z
m-143 -32 c23 -45 63 -84 111 -108 42 -22 143 -31 192 -17 36 10 36 9 41 -22
9 -53 8 -244 -2 -250 -20 -13 -52 120 -44 183 l5 36 -74 0 c-115 0 -204 46
-260 134 -32 52 -35 68 -10 74 9 3 18 5 19 6 2 0 11 -16 22 -36z m-75 -17 c18
-43 90 -122 130 -144 50 -27 108 -42 164 -42 l52 0 0 -47 c0 -68 35 -176 63
-194 9 -6 -15 -223 -32 -286 l-8 -28 -17 36 c-46 97 -158 168 -278 177 l-68 5
0 46 c-1 181 -126 310 -317 328 l-64 6 3 31 c3 31 4 31 173 88 94 32 173 58
177 58 4 0 14 -15 22 -34z m-1504 -36 c0 -5 -2 -10 -4 -10 -3 0 -8 5 -11 10
-3 6 -1 10 4 10 6 0 11 -4 11 -10z m-1095 -459 c17 -7 23 -26 36 -122 9 -63
15 -116 14 -117 -2 -2 -22 -1 -45 3 -34 6 -41 10 -37 26 3 10 0 21 -7 24 -8 3
-8 7 2 11 7 3 11 22 11 42 l-2 37 -7 -35 c-6 -33 -7 -33 -13 -10 -11 48 -14
80 -6 80 4 0 10 -8 12 -17 4 -17 5 -17 6 0 0 10 -6 20 -14 23 -8 4 -15 10 -15
15 0 12 47 11 53 -1 3 -6 4 -5 3 2 -1 7 -15 14 -29 16 -33 4 -37 32 -4 31 12
0 31 -4 42 -8z m-943 -289 c4 -4 36 -92 71 -197 36 -104 68 -199 72 -210 4
-11 -21 12 -56 50 -35 39 -105 113 -156 166 l-93 96 24 55 c14 31 31 58 38 60
15 5 90 -10 100 -20z m2793 19 c3 -5 1 -12 -5 -16 -5 -3 -10 1 -10 9 0 18 6
21 15 7z m2165 -48 c63 -134 92 -253 94 -386 l1 -92 -85 1 c-98 0 -145 19
-208 82 -60 60 -85 123 -86 215 l-1 78 -35 -2 c-19 -1 -48 -1 -65 0 -27 1 -28
2 -13 17 8 9 45 22 81 30 35 7 71 14 78 16 8 2 13 -3 11 -12 -2 -8 -6 -47 -9
-86 -8 -97 15 -163 76 -224 62 -62 175 -97 235 -74 34 13 13 24 -46 24 -124 0
-214 70 -238 185 -10 50 -1 186 17 230 5 13 61 35 91 35 19 0 14 -58 -8 -88
-11 -15 -27 -62 -35 -104 -8 -43 -20 -87 -27 -98 -9 -14 -10 -22 -1 -31 12
-12 60 8 83 36 11 14 15 14 29 1 9 -8 28 -18 43 -21 38 -10 48 18 20 48 -35
37 -51 100 -50 191 1 96 13 103 48 29z m-4860 -1 c31 -15 39 -27 63 -97 30
-85 78 -257 74 -262 -2 -1 -20 0 -40 4 l-36 5 -57 172 c-31 94 -59 177 -62
184 -6 17 16 14 58 -6z m4790 -97 c0 -46 13 -87 39 -119 15 -18 15 -19 -4 -12
-46 19 -57 18 -82 -5 -14 -13 -23 -18 -19 -11 5 8 12 41 16 75 14 110 50 162
50 72z m-455 -75 c-10 -11 -21 -17 -24 -14 -3 3 3 12 13 20 28 20 32 17 11 -6z
m125 -19 c23 -6 26 -15 42 -121 9 -63 15 -116 12 -119 -5 -5 -225 26 -232 34
-8 8 -20 99 -15 112 8 20 21 15 26 -9 2 -13 4 -8 3 11 -2 55 20 48 28 -8 4
-28 10 -52 14 -55 4 -2 28 -7 55 -11 l47 -7 -2 38 c-1 38 -1 38 -5 6 -4 -33
-5 -33 -46 -27 -23 4 -43 8 -44 9 -2 2 -6 23 -9 49 l-7 46 39 -6 c22 -3 45
-12 52 -21 11 -14 12 -14 12 0 0 17 -11 22 -73 33 -42 7 -41 24 1 26 17 1 21
3 9 6 -9 2 -15 9 -12 14 7 10 68 10 105 0z m-160 -8 c0 -5 -16 -26 -34 -48
-25 -29 -38 -37 -46 -29 -15 15 -5 36 33 61 34 23 47 28 47 16z m-4529 -117
c-7 -8 -23 -17 -36 -20 -28 -7 -33 -37 -10 -56 8 -7 21 -25 29 -41 19 -37 -1
-40 -34 -4 -13 14 -29 25 -37 25 -17 0 -18 79 0 84 6 2 26 8 42 14 46 15 60
15 46 -2z m4428 -3 c-32 -41 -47 -54 -52 -46 -6 10 12 34 38 50 27 16 30 16
14 -4z m-3610 -66 c1 -12 -35 14 -49 36 -11 18 -8 17 18 -4 17 -13 31 -27 31
-32z m-1530 29 c52 -3 69 -9 89 -30 25 -24 25 -26 8 -45 -9 -10 -21 -32 -25
-47 -9 -34 -48 -45 -67 -19 -27 36 -92 -5 -68 -42 9 -14 23 -17 58 -15 43 3
46 1 46 -21 0 -14 -7 -30 -15 -37 -39 -32 1 -93 46 -69 18 9 20 17 14 55 -7
49 9 62 18 15 7 -33 30 -45 58 -31 29 16 25 58 -8 73 -36 15 -43 25 -43 63 0
67 70 82 122 26 50 -53 55 -81 42 -223 l-7 -66 -43 -11 c-67 -18 -124 -14
-179 12 -61 28 -87 56 -116 121 -19 43 -21 60 -16 145 l6 97 -103 -5 c-88 -4
-109 -2 -149 16 -26 12 -47 25 -47 31 0 18 172 21 379 7z m5061 4 c0 -5 -4
-10 -9 -10 -6 0 -13 5 -16 10 -3 6 1 10 9 10 9 0 16 -4 16 -10z m1650 -10 c0
-10 11 -36 25 -56 31 -46 24 -57 -13 -21 -24 23 -97 46 -149 47 -9 0 -1 21 13
34 10 11 34 16 70 16 47 0 54 -3 54 -20z m199 4 c23 -5 23 -8 18 -62 -4 -31
-18 -92 -32 -135 -28 -85 -95 -240 -102 -233 -8 7 -83 239 -83 255 0 9 -7 29
-15 45 -22 41 -18 53 8 29 25 -24 98 -35 104 -16 2 6 -5 21 -16 32 -12 12 -21
23 -21 26 0 3 -9 14 -21 26 -16 16 -18 23 -8 35 9 11 27 13 78 9 36 -4 77 -8
90 -11z m-359 -4 c0 -5 -9 -15 -20 -22 -32 -20 -23 -34 23 -36 95 -3 97 -4 97
-26 0 -12 6 -31 14 -42 8 -11 14 -35 14 -54 0 -51 80 -292 94 -283 17 10 -63
-134 -155 -278 -121 -191 -98 -177 -192 -115 -44 29 -85 64 -92 77 -50 105
-57 127 -61 204 l-4 80 -53 -3 c-121 -8 -233 55 -285 161 -40 82 -52 174 -25
193 30 22 35 17 35 -39 0 -114 65 -214 163 -252 46 -17 150 -18 204 0 21 7 21
6 16 -87 -6 -107 4 -152 47 -201 15 -18 32 -42 39 -54 12 -24 54 -50 103 -64
48 -13 31 8 -27 35 -45 20 -62 35 -95 87 -22 34 -43 77 -46 96 -7 39 -1 124
19 253 15 94 23 100 69 50 41 -44 44 -71 15 -122 -14 -24 -30 -73 -36 -112 -5
-38 -15 -74 -21 -80 -5 -5 -10 -18 -10 -28 0 -26 33 -23 69 8 29 24 32 24 53
10 48 -34 104 -10 61 25 -34 28 -53 91 -53 175 0 63 -3 83 -15 88 -8 3 -15 14
-15 23 0 18 -55 75 -64 66 -2 -2 -13 1 -25 8 -14 9 -19 20 -15 35 3 12 -4 45
-16 73 l-22 51 36 40 c20 22 36 44 36 49 0 9 36 16 108 19 17 1 32 -2 32 -8z
m-6325 -27 l76 -16 -23 -24 -24 -24 -46 21 c-25 11 -52 18 -60 15 -7 -3 -18 6
-25 20 -14 31 -5 32 102 8z m6145 -2 c-5 -11 -23 -29 -39 -40 -27 -19 -30 -20
-61 -5 -17 9 -42 17 -55 18 -36 2 -20 10 58 28 101 23 110 23 97 -1z m-5270
-12 c0 -24 26 -42 50 -34 12 4 32 4 46 1 l24 -6 -22 -39 -22 -38 27 -32 c44
-53 39 -59 -33 -37 -33 10 -46 19 -50 37 -7 29 -32 35 -62 15 -24 -17 -78 -22
-78 -7 0 4 12 21 27 35 26 26 27 29 13 54 -24 42 -6 71 42 69 28 -1 38 -6 38
-18z m465 -19 c13 0 30 -17 50 -51 17 -28 38 -59 48 -67 19 -18 23 -42 6 -42
-6 0 -22 -9 -36 -20 -14 -11 -34 -20 -45 -20 -10 0 -21 -8 -25 -17 -3 -10 -17
-27 -31 -39 -24 -20 -25 -23 -13 -52 10 -23 10 -39 3 -61 -6 -16 -8 -32 -5
-35 4 -3 1 -6 -6 -6 -6 0 -17 11 -23 25 -6 14 -19 25 -29 25 -9 0 -19 7 -23
15 -3 9 -19 15 -41 15 -19 0 -35 3 -35 7 0 3 23 27 50 53 45 42 50 50 41 72
-5 14 -21 37 -35 51 -40 41 -36 87 14 141 l40 44 37 -19 c21 -11 46 -19 58
-19z m4565 -42 c-20 -46 -48 -59 -70 -33 -17 21 -57 19 -70 -4 -13 -25 -13
-27 6 -45 11 -12 26 -14 55 -10 38 6 39 6 39 -23 0 -17 -7 -36 -15 -43 -20
-17 -19 -33 5 -55 18 -17 21 -17 45 -1 26 17 33 40 15 51 -12 7 -14 45 -2 45
4 0 14 -15 22 -32 19 -40 33 -45 59 -19 25 25 18 47 -20 66 -48 25 -51 95 -5
116 32 15 89 -13 115 -55 28 -46 33 -91 20 -182 l-12 -82 -44 -12 c-97 -28
-213 10 -265 87 -45 65 -62 170 -35 207 10 13 133 61 169 65 4 1 -2 -18 -12
-41z m-6145 -49 c10 -15 -1 -23 -20 -15 -9 3 -13 10 -10 16 8 13 22 13 30 -1z
m6055 -10 c0 -5 -7 -9 -15 -9 -15 0 -20 12 -9 23 8 8 24 -1 24 -14z m97 -26
c-3 -3 -11 -2 -17 2 -9 6 -9 10 1 16 14 8 27 -7 16 -18z m-6049 6 c-2 -6 -8
-10 -13 -10 -5 0 -11 4 -13 10 -2 6 4 11 13 11 9 0 15 -5 13 -11z m-395 -23
c31 -4 57 -10 57 -14 0 -4 7 -47 15 -97 21 -131 21 -135 -15 -135 -25 0 -33 6
-45 33 -7 18 -9 33 -4 35 5 2 8 16 8 30 -2 24 -2 24 -6 5 -7 -38 -20 -26 -51
50 -42 102 -48 125 -31 111 8 -6 40 -15 72 -18z m2444 -33 c2 -6 -5 -13 -15
-15 -15 -4 -20 -18 -25 -67 -3 -35 -13 -74 -23 -89 l-19 -27 -7 63 c-4 37 -16
78 -29 99 l-23 36 32 -19 32 -18 27 27 c28 27 44 30 50 10z m-1985 -8 c0 -5
-5 -11 -11 -13 -6 -2 -11 4 -11 13 0 9 5 15 11 13 6 -2 11 -8 11 -13z m6056
-3 c2 -7 -3 -12 -12 -12 -9 0 -16 7 -16 16 0 17 22 14 28 -4z m-6148 -46 c-14
-14 -24 0 -16 21 6 15 8 15 16 3 6 -9 5 -19 0 -24z m2130 14 c0 -5 -2 -10 -4
-10 -3 0 -8 5 -11 10 -3 6 -1 10 4 10 6 0 11 -4 11 -10z m3930 -5 c0 -8 -7
-15 -15 -15 -8 0 -15 7 -15 15 0 8 7 15 15 15 8 0 15 -7 15 -15z m-5662 -304
c12 -23 18 -41 12 -41 -5 0 -12 5 -15 10 -10 16 -47 12 -68 -7 -19 -18 -19
-17 -14 12 3 17 9 50 13 75 3 25 14 59 22 75 l16 30 7 -57 c3 -31 16 -75 27
-97z m6038 42 c9 -29 20 -55 25 -59 19 -11 9 -25 -10 -14 -29 15 -59 12 -70
-7 -18 -32 -20 -9 -6 70 15 84 38 131 43 86 1 -13 10 -48 18 -76z m-6400 -38
c29 -5 32 -9 38 -53 4 -26 10 -62 13 -79 4 -26 2 -33 -11 -33 -10 0 -17 9 -17
28 -2 27 -2 27 -6 2 -4 -25 -6 -26 -83 -26 -66 -1 -80 2 -81 15 -1 12 -2 12
-6 -2 -14 -52 -51 52 -53 144 l0 36 88 -13 c48 -8 101 -16 118 -19z m-151
-195 c3 -5 14 -10 23 -9 14 0 13 2 -3 9 -13 6 9 8 64 7 54 -1 86 -6 88 -14 3
-7 -9 -13 -29 -16 -32 -4 -32 -4 6 -5 34 -2 38 0 33 18 -3 13 0 20 9 20 15 0
29 -42 21 -63 -4 -11 -24 -10 -112 2 -91 14 -110 20 -123 39 -13 20 -13 22 1
22 9 0 19 -4 22 -10z m186 -228 c21 -24 44 -62 52 -85 28 -82 35 -107 32 -107
-2 0 -45 57 -96 128 -50 70 -97 133 -103 141 -26 34 80 -38 115 -77z m6310 43
l26 0 -25 -37 c-13 -21 -29 -35 -35 -31 -5 3 -7 2 -4 -4 4 -5 -8 -30 -26 -54
l-32 -43 -12 79 c-6 44 -12 86 -12 92 -1 9 12 11 47 6 26 -4 59 -8 73 -8z"/>
<path d="M3869 6904 c-10 -12 -10 -31 -1 -92 7 -42 12 -92 12 -110 0 -67 69
-97 240 -104 l55 -3 -3 78 c-2 43 -9 105 -16 139 l-12 62 -110 18 c-60 10
-119 20 -130 23 -13 3 -27 -2 -35 -11z m171 -37 l85 -12 16 -115 c9 -63 15
-118 13 -121 -5 -10 -198 22 -220 36 -17 11 -23 32 -35 119 -9 59 -13 109 -10
111 2 3 18 3 35 0 17 -4 69 -11 116 -18z"/>
<path d="M3920 6826 c0 -20 2 -36 4 -36 8 0 12 61 4 66 -4 3 -8 -11 -8 -30z"/>
<path d="M3958 6843 c6 -2 18 -2 25 0 6 3 1 5 -13 5 -14 0 -19 -2 -12 -5z"/>
<path d="M4023 6833 c9 -2 25 -2 35 0 9 3 1 5 -18 5 -19 0 -27 -2 -17 -5z"/>
<path d="M4085 6820 c3 -5 8 -10 11 -10 2 0 4 5 4 10 0 6 -5 10 -11 10 -5 0
-7 -4 -4 -10z"/>
<path d="M3961 6778 c2 -30 2 -30 6 -6 3 22 10 28 36 31 31 4 31 4 -5 5 -37 2
-38 1 -37 -30z"/>
<path d="M4040 6796 c0 -2 7 -6 15 -10 8 -3 15 -1 15 4 0 6 -7 10 -15 10 -8 0
-15 -2 -15 -4z"/>
<path d="M4102 6780 c-1 -14 3 -43 7 -65 6 -26 9 -31 9 -15 1 14 -3 43 -7 65
-6 26 -9 31 -9 15z"/>
<path d="M3932 6750 c0 -19 2 -27 5 -17 2 9 2 25 0 35 -3 9 -5 1 -5 -18z"/>
<path d="M4002 6753 c5 -26 38 -29 38 -4 0 15 -6 21 -21 21 -14 0 -19 -5 -17
-17z"/>
<path d="M4070 6731 c0 -25 -5 -30 -27 -34 -24 -3 -23 -4 7 -6 35 -1 36 0 32
34 -5 43 -12 46 -12 6z"/>
<path d="M3971 6723 c-1 -18 4 -23 22 -22 15 1 17 3 5 6 -9 2 -19 12 -21 21
-3 12 -5 10 -6 -5z"/>
<path d="M3941 6693 c-1 -18 6 -22 50 -28 27 -4 52 -5 55 -2 3 2 -18 7 -45 11
-35 5 -51 12 -54 24 -4 13 -5 12 -6 -5z"/>
<path d="M4078 6653 c12 -2 30 -2 40 0 9 3 -1 5 -23 4 -22 0 -30 -2 -17 -4z"/>
<path d="M3595 7219 c22 -4 51 -8 65 -7 16 0 11 3 -15 9 -22 4 -51 8 -65 7
-16 0 -11 -3 15 -9z"/>
<path d="M3705 7200 c3 -5 8 -10 11 -10 2 0 4 5 4 10 0 6 -5 10 -11 10 -5 0
-7 -4 -4 -10z"/>
<path d="M3581 7158 c2 -30 2 -30 6 -6 3 22 10 28 36 31 31 4 31 4 -5 5 -37 2
-38 1 -37 -30z"/>
<path d="M3676 7165 c4 -8 8 -15 10 -15 2 0 4 7 4 15 0 8 -4 15 -10 15 -5 0
-7 -7 -4 -15z"/>
<path d="M3722 7145 c0 -16 2 -22 5 -12 2 9 2 23 0 30 -3 6 -5 -1 -5 -18z"/>
<path d="M3552 7125 c0 -16 2 -22 5 -12 2 9 2 23 0 30 -3 6 -5 -1 -5 -18z"/>
<path d="M3622 7134 c2 -11 11 -20 22 -22 13 -3 17 1 14 14 -2 11 -11 20 -22
22 -13 3 -17 -1 -14 -14z"/>
<path d="M3690 7106 c0 -19 -6 -26 -27 -29 -26 -4 -26 -4 5 -6 29 -1 32 2 32
29 0 17 -2 30 -5 30 -3 0 -5 -11 -5 -24z"/>
<path d="M3590 7098 c0 -12 7 -18 23 -17 15 0 17 2 7 6 -8 3 -18 11 -22 17 -5
7 -8 4 -8 -6z"/>
<path d="M3732 7085 c0 -16 2 -22 5 -12 2 9 2 23 0 30 -3 6 -5 -1 -5 -18z"/>
<path d="M3561 7073 c-1 -16 5 -23 17 -23 10 0 13 3 6 8 -6 4 -14 14 -17 22
-4 10 -6 8 -6 -7z"/>
<path d="M3645 7040 c40 -9 112 -13 104 -6 -2 2 -35 6 -74 9 -54 4 -61 4 -30
-3z"/>
<path d="M4970 5362 c-20 -11 -46 -38 -60 -63 -21 -37 -25 -57 -25 -130 0 -78
3 -90 30 -134 45 -73 108 -109 200 -113 71 -4 73 -3 113 32 48 44 67 102 59
184 -6 74 -35 130 -89 176 -42 36 -118 66 -167 66 -15 0 -42 -8 -61 -18z m167
-33 c114 -55 165 -211 106 -325 -25 -48 -53 -64 -119 -64 -74 0 -150 41 -187
102 -52 85 -46 204 14 273 29 32 36 35 87 35 36 0 71 -7 99 -21z"/>
<path d="M4290 6463 c0 -11 3 -14 8 -7 4 6 14 14 22 17 10 4 8 6 -7 6 -16 1
-23 -5 -23 -16z"/>
<path d="M4335 6430 c-3 -5 -2 -10 4 -10 5 0 13 5 16 10 3 6 2 10 -4 10 -5 0
-13 -4 -16 -10z"/>
<path d="M2371 5389 c1 -19 5 -47 10 -64 5 -20 6 -9 2 30 -6 66 -14 88 -12 34z"/>
<path d="M5945 4943 c16 -3 34 -10 38 -16 6 -8 7 -7 4 3 -2 9 -17 16 -38 16
-31 2 -31 1 -4 -3z"/>
<path d="M5992 4880 c0 -19 2 -27 5 -17 2 9 2 25 0 35 -3 9 -5 1 -5 -18z"/>
<path d="M5890 4865 c0 -8 2 -15 4 -15 2 0 11 -3 20 -6 12 -4 16 0 16 15 0 14
-6 21 -20 21 -11 0 -20 -7 -20 -15z"/>
<path d="M6002 4815 c0 -16 2 -22 5 -12 2 9 2 23 0 30 -3 6 -5 -1 -5 -18z"/>
<path d="M5834 4800 c1 -9 12 -15 29 -16 24 -1 24 -1 3 3 -14 2 -27 10 -29 16
-2 7 -3 5 -3 -3z"/>
<path d="M5913 4773 c9 -2 25 -2 35 0 9 3 1 5 -18 5 -19 0 -27 -2 -17 -5z"/>
<path d="M5985 4770 c-18 -8 -17 -9 8 -9 16 -1 26 3 22 9 -3 6 -7 10 -8 9 -1
0 -11 -4 -22 -9z"/>
<path d="M222 4574 c4 -4 25 -10 45 -13 28 -5 39 -12 44 -31 l7 -25 1 27 c1
22 -4 29 -24 33 -14 3 -37 8 -52 11 -16 3 -25 2 -21 -2z"/>
<path d="M278 4505 c2 -14 6 -25 8 -25 2 0 4 11 4 25 0 14 -4 25 -9 25 -4 0
-6 -11 -3 -25z"/>
<path d="M326 4448 c5 -48 3 -57 -13 -61 -14 -4 -13 -5 5 -6 25 -1 27 16 12
84 -8 35 -9 33 -4 -17z"/>
<path d="M511 4188 c0 -13 4 -41 9 -63 8 -35 9 -33 4 17 -5 56 -5 57 23 61 27
4 27 4 -4 6 -28 1 -33 -2 -32 -21z"/>
<path d="M593 4193 c9 -2 23 -2 30 0 6 3 -1 5 -18 5 -16 0 -22 -2 -12 -5z"/>
<path d="M650 4186 c0 -2 9 -6 20 -9 11 -3 20 -1 20 4 0 5 -9 9 -20 9 -11 0
-20 -2 -20 -4z"/>
<path d="M550 4153 c0 -12 3 -14 8 -7 4 7 16 14 27 17 15 4 14 5 -7 6 -21 1
-28 -4 -28 -16z"/>
<path d="M620 4156 c0 -2 9 -6 20 -9 11 -3 20 -1 20 4 0 5 -9 9 -20 9 -11 0
-20 -2 -20 -4z"/>
<path d="M692 4135 c0 -16 2 -22 5 -12 2 9 2 23 0 30 -3 6 -5 -1 -5 -18z"/>
<path d="M592 4113 c2 -10 13 -19 25 -21 17 -3 20 1 16 17 -7 26 -46 29 -41 4z"/>
<path d="M662 4105 c0 -16 2 -22 5 -12 2 9 2 23 0 30 -3 6 -5 -1 -5 -18z"/>
<path d="M560 4096 c0 -14 4 -27 8 -30 5 -3 6 8 4 25 -5 35 -12 38 -12 5z"/>
<path d="M593 4003 c9 -2 25 -2 35 0 9 3 1 5 -18 5 -19 0 -27 -2 -17 -5z"/>
<path d="M6947 3770 c3 -25 7 -47 9 -49 8 -9 2 55 -6 74 -6 13 -7 5 -3 -25z"/>
<path d="M6988 3803 c6 -2 18 -2 25 0 6 3 1 5 -13 5 -14 0 -19 -2 -12 -5z"/>
<path d="M3677 6302 c-10 -10 -17 -34 -17 -53 0 -19 41 -175 90 -347 50 -173
115 -414 145 -536 59 -240 67 -316 41 -414 -14 -57 -10 -66 29 -56 22 5 23 8
11 18 -13 9 -13 17 -3 49 15 47 31 49 24 2 -3 -19 -1 -37 4 -40 16 -10 10 -45
-8 -45 -14 0 -13 -3 5 -20 12 -12 22 -25 22 -29 0 -16 -28 -31 -46 -26 -11 4
-6 -1 9 -10 20 -11 27 -23 25 -38 -3 -19 -9 -22 -43 -20 -40 2 -40 2 -10 -9
41 -15 55 -27 55 -49 0 -22 -18 -24 -73 -8 -22 6 -41 8 -44 5 -3 -2 12 -9 32
-15 46 -12 75 -37 75 -64 0 -20 -10 -21 -90 -2 -14 3 -3 -3 24 -14 61 -25 105
-67 142 -134 26 -46 29 -62 29 -142 0 -74 -6 -105 -29 -172 l-29 -83 -54 7
c-46 5 -53 4 -47 -10 3 -9 12 -13 20 -10 10 4 14 -2 14 -20 0 -14 5 -29 10
-32 6 -4 10 5 10 19 0 21 5 26 24 26 22 0 24 -4 28 -67 5 -74 22 -128 38 -118
6 4 5 16 -1 33 -6 15 -15 61 -20 102 -7 57 -5 77 5 90 7 8 23 53 36 100 39
148 19 263 -61 355 -31 35 -31 35 -18 87 15 65 15 260 -1 348 -28 158 -155
661 -235 930 -101 339 -111 390 -80 390 22 0 30 -29 16 -53 -9 -13 -10 -22 -2
-30 16 -16 51 21 51 55 0 56 -68 89 -103 50z"/>
<path d="M4442 5554 c-38 -26 -29 -84 63 -400 100 -345 205 -765 205 -823 0
-23 5 -41 10 -41 6 0 10 5 10 11 0 8 5 7 15 -1 9 -7 17 -11 20 -9 5 6 -123
533 -170 694 -20 72 -59 204 -85 295 -59 203 -63 225 -46 239 10 8 17 7 26 -4
11 -13 11 -20 0 -40 -16 -29 -9 -39 19 -30 30 9 38 62 13 85 -11 10 -22 16
-26 13 -3 -3 -8 2 -12 11 -8 20 -14 20 -42 0z"/>
<path d="M2990 5297 c-47 -31 -71 -77 -77 -146 -13 -141 79 -260 219 -285 20
-4 39 -2 42 3 3 5 -11 12 -31 16 -145 27 -235 159 -204 298 17 77 53 109 128
115 49 3 66 -1 112 -25 76 -40 112 -93 118 -176 7 -79 -8 -127 -55 -179 -40
-44 -37 -60 6 -29 42 29 65 84 70 167 7 116 -38 194 -145 248 -49 25 -142 21
-183 -7z"/>
<path d="M2515 5156 c-13 -10 -13 -21 0 -101 8 -49 17 -111 20 -137 l6 -46 47
-5 c26 -2 87 -10 136 -17 58 -8 92 -8 98 -2 10 10 5 57 -23 219 l-11 62 -66 6
c-37 4 -95 13 -129 20 -47 9 -66 10 -78 1z m153 -37 c80 -11 95 -16 102 -33 9
-26 34 -215 29 -220 -5 -5 -228 29 -233 35 -4 4 -36 210 -36 230 0 7 8 9 22 6
12 -4 64 -12 116 -18z"/>
<path d="M2565 5100 c-2 -3 0 -28 5 -56 l9 -49 -3 47 -3 47 36 3 36 3 -38 6
c-21 3 -40 2 -42 -1z"/>
<path d="M2663 5083 c9 -2 25 -2 35 0 9 3 1 5 -18 5 -19 0 -27 -2 -17 -5z"/>
<path d="M2726 5073 c7 -4 14 -17 17 -28 5 -16 5 -15 4 4 -1 14 -9 26 -17 28
-10 3 -11 2 -4 -4z"/>
<path d="M2600 5052 c0 -4 18 -6 40 -4 22 2 40 6 40 8 0 2 -18 4 -40 4 -22 0
-40 -3 -40 -8z"/>
<path d="M2696 5043 c7 -4 14 -19 17 -33 4 -22 5 -21 4 4 -1 17 -9 31 -17 33
-10 3 -11 2 -4 -4z"/>
<path d="M2611 5008 c-2 -40 9 -58 33 -57 20 0 20 1 1 8 -12 5 -22 21 -26 42
-6 29 -7 30 -8 7z"/>
<path d="M2650 5000 c0 -14 7 -20 21 -20 15 0 19 4 15 16 -3 9 -6 18 -6 20 0
2 -7 4 -15 4 -8 0 -15 -9 -15 -20z"/>
<path d="M2752 4990 c0 -19 2 -27 5 -17 2 9 2 25 0 35 -3 9 -5 1 -5 -18z"/>
<path d="M2583 4958 c1 -23 7 -33 20 -34 11 -1 12 0 3 3 -8 2 -17 17 -20 34
-6 28 -6 28 -3 -3z"/>
<path d="M2720 4966 c0 -8 -12 -17 -27 -19 -26 -4 -26 -4 5 -6 26 -1 32 3 32
19 0 11 -2 20 -5 20 -3 0 -5 -6 -5 -14z"/>
<path d="M2758 4925 c-3 -14 -1 -25 3 -25 5 0 9 11 9 25 0 14 -2 25 -4 25 -2
0 -6 -11 -8 -25z"/>
<path d="M2665 4909 c51 -10 92 -10 50 1 -16 4 -43 8 -60 8 -25 0 -24 -2 10
-9z"/>
<path d="M3915 4850 c4 -11 2 -20 -4 -20 -6 0 -11 -6 -11 -13 0 -21 -95 -169
-129 -201 -43 -41 -41 -64 3 -31 46 35 90 46 137 36 22 -5 39 -5 39 -1 0 5
-21 12 -46 16 -48 7 -64 25 -44 49 15 18 57 19 97 4 15 -5 24 -7 20 -2 -5 4
-23 13 -40 19 -24 8 -32 17 -32 35 0 20 5 24 33 24 32 0 32 0 11 16 -28 21
-22 54 11 53 l23 -1 -22 19 c-31 25 -54 24 -46 -2z"/>
<path d="M3730 4823 c0 -5 7 -21 15 -37 28 -53 -18 -113 -48 -65 -8 13 -6 21
6 34 19 19 14 37 -8 29 -19 -8 -29 -58 -16 -82 11 -20 51 -37 51 -22 0 5 10
10 22 12 18 2 23 10 25 46 2 27 -3 52 -13 68 -16 23 -34 32 -34 17z"/>
<path d="M5190 4790 c-25 -25 -25 -47 -1 -134 11 -38 17 -75 14 -83 -3 -7 0
-20 7 -28 13 -16 21 -39 95 -298 30 -103 52 -193 49 -201 -3 -7 2 -21 11 -30
9 -9 13 -21 10 -26 -4 -6 0 -21 9 -34 8 -13 12 -33 10 -44 -3 -11 -1 -23 5
-26 14 -9 15 68 1 95 -8 14 -7 19 1 19 8 0 8 4 0 14 -7 8 -14 39 -16 68 -3 44
-86 337 -114 403 -12 27 -61 236 -61 257 0 25 21 33 36 13 10 -13 10 -21 1
-36 -17 -27 4 -46 27 -24 35 36 5 115 -44 115 -11 0 -29 -9 -40 -20z"/>
<path d="M6134 4579 c10 -87 26 -180 36 -205 7 -18 20 -23 72 -28 162 -16 206
-18 211 -10 2 5 -2 47 -9 94 -8 47 -18 105 -22 130 l-7 45 -65 12 c-36 6 -100
15 -144 19 l-78 7 6 -64z m191 18 l70 -12 16 -115 c9 -63 15 -117 13 -119 -5
-6 -225 27 -232 34 -8 7 -39 225 -33 230 5 6 53 0 166 -18z"/>
<path d="M6195 4525 c11 -103 17 -120 48 -121 24 -1 24 -1 3 3 -25 4 -27 9
-42 117 -5 36 -3 50 7 57 11 7 10 9 -5 9 -17 0 -18 -6 -11 -65z"/>
<path d="M6290 4568 c36 -6 67 -12 69 -14 2 -2 7 -21 11 -41 7 -36 8 -36 9 -7
2 48 -16 62 -89 67 l-65 5 65 -10z"/>
<path d="M6233 4498 c7 -60 16 -71 48 -65 23 4 23 4 -2 6 -21 1 -28 7 -33 32
-12 61 -9 65 32 61 44 -5 62 -24 62 -68 0 -18 -6 -35 -12 -37 -8 -3 -6 -6 5
-6 13 -1 17 7 17 32 0 17 -3 42 -6 55 -6 22 -13 25 -83 36 l-34 6 6 -52z"/>
<path d="M6272 4487 c2 -12 11 -23 21 -25 25 -5 22 34 -4 41 -16 4 -20 1 -17
-16z"/>
<path d="M6380 4427 c0 -25 -5 -37 -17 -40 -12 -3 -8 -5 9 -6 25 -1 26 1 21
37 -8 49 -13 53 -13 9z"/>
<path d="M6293 4393 c9 -2 25 -2 35 0 9 3 1 5 -18 5 -19 0 -27 -2 -17 -5z"/>
<path d="M5740 4612 c-65 -31 -99 -96 -100 -188 0 -80 9 -124 26 -124 10 0 11
6 4 26 -16 42 -11 145 9 189 29 63 54 80 120 80 146 -1 252 -144 220 -295 -7
-35 -21 -64 -39 -82 -26 -26 -28 -33 -7 -29 5 1 6 -7 2 -18 -5 -18 2 -16 62
15 61 32 74 35 135 32 70 -3 99 6 53 18 -46 12 -152 -2 -190 -25 -20 -11 -38
-21 -40 -21 -2 0 8 20 21 44 69 123 17 293 -109 357 -42 22 -141 34 -167 21z"/>
<path d="M3755 4547 c-55 -31 -85 -92 -84 -172 0 -72 17 -123 45 -142 21 -14
21 -12 -3 34 -20 40 -24 59 -21 113 7 118 48 164 147 163 137 -2 236 -120 217
-258 -14 -105 -71 -162 -153 -152 -36 4 -42 2 -32 -9 18 -22 91 -17 130 9 44
29 70 82 76 157 8 87 -11 145 -67 201 -76 76 -179 99 -255 56z"/>
<path d="M3272 4345 c2 -31 7 -54 13 -53 6 2 8 23 7 46 l-4 44 54 -7 c29 -4
82 -12 117 -18 61 -11 65 -14 73 -44 13 -48 32 -42 25 8 -6 48 -8 51 -44 55
-15 2 -59 8 -98 13 -38 6 -87 11 -108 11 l-38 0 3 -55z"/>
<path d="M3321 4318 c2 -28 2 -29 6 -8 3 14 10 28 17 32 7 5 5 8 -6 8 -14 0
-18 -8 -17 -32z"/>
<path d="M3383 4333 c9 -2 25 -2 35 0 9 3 1 5 -18 5 -19 0 -27 -2 -17 -5z"/>
<path d="M3440 4326 c0 -2 13 -6 29 -8 17 -2 28 -1 25 4 -5 8 -54 12 -54 4z"/>
<path d="M3368 4303 c7 -3 16 -2 19 1 4 3 -2 6 -13 5 -11 0 -14 -3 -6 -6z"/>
<path d="M2987 4244 c-4 -4 -7 -18 -7 -31 0 -25 -10 -29 -27 -12 -6 6 -21 9
-34 7 -18 -2 -25 -10 -27 -31 -3 -23 2 -30 33 -43 21 -8 39 -13 42 -10 9 9 -8
27 -35 37 -18 7 -22 13 -14 21 7 7 17 6 33 -5 16 -12 27 -13 41 -6 13 7 18 6
18 -3 0 -7 12 0 27 15 22 22 26 31 17 45 -11 18 -55 28 -67 16z m47 -23 c3 -5
-1 -14 -9 -21 -13 -10 -15 -9 -15 9 0 21 14 28 24 12z"/>
<path d="M6724 4225 c11 -8 25 -15 32 -15 15 0 20 -17 29 -94 5 -44 3 -61 -7
-68 -10 -7 -10 -10 5 -19 22 -13 25 -81 2 -73 -9 4 -15 0 -15 -10 0 -20 48
-22 56 -2 3 8 1 48 -6 88 -6 40 -14 98 -17 128 -6 68 -16 80 -62 80 -34 -1
-35 -2 -17 -15z"/>
<path d="M1424 4146 c-180 -41 -330 -174 -396 -350 l-23 -61 -3 -700 c-2 -494
0 -718 8 -760 25 -131 115 -266 226 -340 272 -181 642 -82 784 208 23 49 44
108 50 147 5 36 10 232 10 436 0 361 -1 372 -21 398 l-20 26 -229 0 -229 0
-20 -26 c-18 -23 -21 -41 -21 -121 0 -86 2 -96 25 -118 22 -23 32 -25 120 -25
l95 0 0 -267 c0 -261 -1 -269 -24 -319 -72 -155 -273 -187 -393 -62 -65 68
-63 38 -63 788 0 672 0 681 21 725 41 88 134 141 234 133 69 -6 109 -24 154
-69 56 -55 65 -83 68 -209 6 -193 4 -190 153 -190 106 0 109 1 130 28 21 26
22 34 17 162 -8 203 -46 303 -160 419 -95 96 -212 148 -351 156 -51 3 -104 -1
-142 -9z"/>
<path d="M2075 4150 c-3 -5 -16 -10 -28 -10 -28 0 -51 -15 -43 -28 4 -6 20 -7
43 -2 21 5 39 8 40 6 2 -2 -6 -15 -18 -29 -18 -24 -19 -47 -1 -47 15 0 42 59
42 89 0 31 -21 43 -35 21z"/>
<path d="M2370 4140 c-20 -20 -20 -33 -20 -1135 l0 -1116 25 -24 c22 -23 32
-25 115 -25 87 0 126 9 142 34 4 6 8 515 8 1132 0 1073 -1 1122 -18 1137 -15
14 -40 17 -125 17 -94 0 -109 -2 -127 -20z"/>
<path d="M3277 4145 c-87 -24 -160 -68 -233 -140 -120 -118 -169 -247 -162
-425 3 -82 7 -102 30 -140 15 -25 189 -259 388 -520 l361 -475 -3 -71 c-4 -90
-40 -154 -112 -199 -44 -27 -58 -30 -126 -30 -68 0 -82 3 -126 30 -30 19 -60
49 -79 79 -28 47 -30 56 -35 182 -7 175 -5 174 -151 174 -99 0 -110 -2 -130
-22 -20 -22 -21 -30 -16 -173 3 -132 7 -158 31 -219 83 -216 276 -350 506
-350 235 0 432 141 511 365 19 53 23 86 24 184 0 111 -2 123 -26 165 -14 25
-188 260 -387 522 l-362 477 0 61 c0 142 100 244 240 244 74 0 125 -22 177
-76 51 -53 63 -93 63 -217 0 -61 5 -121 11 -135 17 -37 57 -48 159 -45 125 5
130 11 130 163 0 62 -5 139 -11 172 -35 192 -198 368 -390 419 -66 18 -217 18
-282 0z"/>
<path d="M4613 4145 c-145 -32 -296 -147 -360 -276 -65 -129 -63 -92 -63
-1082 l0 -898 25 -24 c22 -23 32 -25 115 -25 78 0 118 8 140 27 3 3 7 224 10
491 l5 487 243 3 242 2 0 -470 c0 -508 1 -520 52 -534 13 -3 63 -6 111 -6 80
0 90 2 113 25 l25 25 -3 917 -3 918 -23 64 c-96 264 -360 414 -629 356z m243
-321 c30 -18 60 -48 79 -78 l30 -49 3 -274 3 -273 -247 0 -246 0 4 263 4 262
27 52 c47 90 125 135 228 130 53 -2 76 -9 115 -33z"/>
<path d="M4752 3703 c44 -47 58 -87 58 -160 0 -77 -24 -141 -61 -167 -15 -10
-44 -16 -76 -16 -57 0 -71 -14 -25 -23 38 -8 99 7 124 30 49 43 76 152 58 236
-11 57 -60 127 -88 127 -12 0 -10 -6 10 -27z"/>
<path d="M4822 3331 c-15 -49 -15 -51 3 -51 11 0 15 12 15 45 0 25 -2 45 -3
45 -2 0 -9 -17 -15 -39z"/>
<path d="M4653 3283 c20 -2 54 -2 75 0 20 2 3 4 -38 4 -41 0 -58 -2 -37 -4z"/>
<path d="M5570 4140 c-20 -20 -20 -28 -18 -948 l3 -927 23 -60 c61 -163 195
-290 358 -338 244 -72 510 38 627 261 69 130 67 98 67 1095 0 884 0 897 -20
917 -18 18 -33 20 -128 20 -98 0 -111 -2 -128 -21 -18 -20 -19 -54 -24 -928
l-5 -908 -30 -49 c-99 -159 -338 -147 -424 21 l-26 50 -3 899 c-2 815 -4 902
-19 918 -14 15 -33 18 -125 18 -95 0 -110 -2 -128 -20z"/>
<path d="M5980 4017 c0 -8 7 -17 15 -21 18 -6 20 -37 4 -53 -13 -13 -4 -33 16
-33 30 0 48 77 23 98 -25 19 -58 24 -58 9z"/>
<path d="M5981 3825 c-1 -58 9 -105 55 -260 30 -105 80 -284 109 -400 l53
-210 1 78 c1 89 -15 161 -109 487 -34 118 -72 251 -85 295 l-23 80 -1 -70z"/>
<path d="M836 3862 c-7 -12 17 -199 28 -209 5 -4 6 36 2 95 -7 103 -7 103 15
100 12 -2 24 3 26 10 5 14 -62 18 -71 4z"/>
<path d="M3450 3711 c0 -28 -37 -111 -50 -111 -6 0 -8 10 -5 23 6 28 -7 89
-21 94 -7 2 -9 -28 -6 -89 3 -87 6 -96 40 -147 20 -29 49 -63 64 -74 15 -11
28 -26 28 -33 0 -6 20 -40 46 -74 44 -60 95 -94 130 -88 14 3 19 -3 62 -81 12
-22 29 -41 37 -41 22 0 18 -37 -5 -43 -22 -6 -28 -27 -7 -27 6 0 20 -17 30
-38 9 -20 31 -53 47 -72 l30 -35 -18 45 c-32 77 -47 149 -36 168 22 34 84 22
84 -16 0 -9 -9 -26 -21 -38 -21 -23 -19 -44 5 -44 21 0 46 35 53 73 4 29 1 40
-20 61 -31 31 -90 35 -119 9 -10 -9 -19 -14 -21 -12 -52 74 -58 91 -43 108 9
10 16 21 16 24 0 11 -48 8 -55 -3 -18 -29 -101 6 -127 53 -19 35 -37 136 -39
212 -1 54 -3 63 -9 40 -4 -16 -8 -47 -9 -67 -1 -51 -17 -56 -56 -18 -47 46
-53 79 -21 127 29 43 44 117 27 127 -7 4 -11 -1 -11 -13z"/>
<path d="M6774 3593 c1 -81 4 -119 11 -112 17 17 19 160 3 199 -13 32 -14 27
-14 -87z"/>
<path d="M1614 3651 c-8 -37 -43 -51 -125 -51 -64 0 -80 -14 -26 -23 31 -5
103 4 138 18 14 5 16 -7 15 -107 -1 -102 1 -117 23 -155 14 -24 31 -43 38 -43
18 0 16 7 -6 37 -34 42 -46 121 -32 217 8 57 8 92 1 110 -12 34 -19 33 -26 -3z"/>
<path d="M1430 3515 c0 -12 13 -15 55 -15 l55 0 0 -55 c0 -53 33 -165 49 -165
19 0 19 15 -1 54 -16 31 -22 60 -22 118 l-1 78 -67 0 c-54 0 -68 -3 -68 -15z"/>
<path d="M1430 3456 c0 -8 10 -16 22 -18 20 -3 24 -12 35 -86 11 -82 17 -101
28 -90 9 9 -15 181 -27 195 -14 18 -58 17 -58 -1z"/>
<path d="M1436 3407 c3 -10 9 -15 12 -12 3 3 0 11 -7 18 -10 9 -11 8 -5 -6z"/>
<path d="M6770 3374 c0 -7 12 -16 28 -20 140 -31 320 -93 347 -121 19 -18 15
-48 -21 -183 -19 -68 -25 -111 -22 -153 l4 -58 -98 -94 c-53 -51 -129 -117
-168 -146 -41 -32 -70 -61 -70 -72 0 -21 22 -6 162 111 202 168 378 405 378
506 0 61 -233 173 -482 231 -49 11 -58 11 -58 -1z m442 -175 c15 -8 18 -17 14
-35 -6 -21 -3 -24 24 -24 22 0 30 -5 30 -17 0 -26 -84 -171 -128 -222 l-38
-44 7 69 c4 38 16 95 28 127 11 33 23 81 27 108 7 54 7 54 36 38z"/>
<path d="M7207 3052 c-23 -24 -57 -98 -57 -124 0 -22 27 14 38 50 7 21 23 49
37 62 25 24 32 40 17 40 -5 0 -20 -12 -35 -28z"/>
<path d="M1452 3355 c0 -16 2 -22 5 -12 2 9 2 23 0 30 -3 6 -5 -1 -5 -18z"/>
<path d="M741 3345 c-92 -26 -245 -96 -316 -145 -37 -25 -45 -37 -45 -61 0
-72 101 -229 244 -377 51 -54 221 -202 231 -202 12 0 3 28 -15 45 -11 10 -17
22 -14 26 3 5 -13 69 -35 141 -123 410 -133 456 -104 466 18 5 28 -27 15 -48
-8 -14 -8 -21 2 -29 37 -31 64 70 28 102 -26 24 -68 21 -86 -5 -28 -39 -27
-42 93 -452 23 -77 49 -149 59 -160 31 -37 -122 100 -179 160 -30 33 -77 88
-104 124 -52 70 -118 198 -109 212 3 4 15 8 27 8 18 0 19 2 7 10 -12 8 -12 10
4 16 22 8 51 -18 43 -40 -4 -9 -16 -16 -28 -16 -21 0 -22 -1 -4 -20 14 -16 15
-23 6 -34 -10 -12 -9 -20 2 -42 14 -27 14 -27 37 47 12 40 35 99 50 130 28 55
31 57 105 84 42 16 104 36 138 45 33 9 63 22 65 28 5 17 -21 14 -117 -13z
m-221 -135 c0 -12 -35 -31 -44 -23 -3 3 2 12 12 19 20 16 32 17 32 4z"/>
<path d="M2786 3363 c-11 -11 -6 -23 9 -23 8 0 15 4 15 9 0 13 -16 22 -24 14z"/>
<path d="M2157 3324 c-7 -7 28 -80 43 -89 15 -9 12 20 -7 60 -17 35 -24 41
-36 29z"/>
<path d="M1462 3285 c0 -16 2 -22 5 -12 2 9 2 23 0 30 -3 6 -5 -1 -5 -18z"/>
<path d="M2808 3296 c-22 -16 -23 -54 -3 -80 20 -27 19 -36 -5 -36 -32 0 -23
-27 10 -32 49 -7 54 4 26 62 -26 53 -26 53 -6 67 11 8 18 19 15 24 -8 12 -16
11 -37 -5z"/>
<path d="M4023 3302 c-12 -2 -27 -10 -33 -18 -11 -12 -7 -13 21 -8 39 8 42 10
38 21 -2 4 -14 7 -26 5z"/>
<path d="M3918 3264 c-5 -4 -8 -21 -8 -37 0 -29 1 -29 38 -23 20 3 52 6 70 6
17 0 32 5 32 11 0 8 -18 10 -59 6 -59 -6 -60 -6 -63 19 -2 14 -6 22 -10 18z"/>
<path d="M6770 3218 c0 -59 11 -73 30 -39 15 28 12 46 -10 72 l-19 24 -1 -57z"/>
<path d="M5403 3220 c0 -25 2 -35 4 -22 2 12 2 32 0 45 -2 12 -4 2 -4 -23z"/>
<path d="M1450 3240 c-13 -8 -13 -10 2 -10 9 0 20 5 23 10 8 13 -5 13 -25 0z"/>
<path d="M1430 3199 c0 -5 5 -7 10 -4 6 3 10 8 10 11 0 2 -4 4 -10 4 -5 0 -10
-5 -10 -11z"/>
<path d="M2193 3198 c-6 -8 -5 -26 3 -48 l13 -35 0 48 c1 50 -1 54 -16 35z"/>
<path d="M6770 2950 c0 -43 12 -106 37 -194 20 -72 39 -133 40 -135 2 -3 10 2
19 10 13 14 10 34 -37 195 -28 98 -53 181 -55 183 -2 2 -4 -24 -4 -59z"/>
<path d="M2780 2947 c0 -43 8 -80 31 -135 35 -88 39 -94 57 -83 11 6 3 37 -37
142 l-50 134 -1 -58z"/>
<path d="M3047 2913 c-9 -16 -18 -124 -12 -143 11 -35 34 -24 28 13 -2 17 -1
48 4 67 l10 35 17 -32 c9 -18 21 -33 26 -33 6 0 18 -8 29 -19 12 -12 27 -17
45 -14 31 6 34 -7 6 -32 -15 -14 -17 -21 -8 -26 7 -4 21 2 34 14 22 21 22 22
3 48 -14 20 -25 26 -40 22 -19 -5 -21 -3 -16 19 4 14 1 32 -7 43 -13 18 -14
18 -20 -3 -7 -21 -26 -31 -26 -13 0 12 -47 61 -59 61 -5 0 -12 -3 -14 -7z"/>
<path d="M1458 2723 c-12 -27 -24 -52 -26 -58 -3 -5 5 -1 18 10 12 11 29 34
36 52 17 38 17 43 4 43 -5 0 -19 -21 -32 -47z"/>
<path d="M5980 2671 c0 -34 10 -94 22 -135 22 -75 19 -113 -7 -102 -11 4 -15
-2 -15 -19 0 -48 66 -23 75 28 5 29 -53 269 -69 285 -3 3 -6 -23 -6 -57z"/>
<path d="M4656 2700 c5 -14 9 -78 9 -142 0 -100 2 -117 15 -113 8 3 48 6 87 7
54 2 73 7 73 17 0 10 -12 12 -57 7 -32 -4 -66 -10 -77 -13 -17 -5 -18 0 -11
74 7 86 -4 152 -32 174 -14 12 -15 11 -7 -11z"/>
<path d="M4737 2678 c4 -24 8 -69 7 -100 l0 -58 48 0 c36 0 48 4 48 15 0 10
-10 15 -34 15 l-33 0 -6 68 c-6 74 -14 102 -29 102 -6 0 -7 -16 -1 -42z"/>
<path d="M4804 2665 c6 -56 19 -86 31 -73 8 7 -15 111 -27 123 -7 7 -8 -9 -4
-50z"/>
<path d="M1503 2685 c-51 -26 -80 -51 -71 -61 3 -3 22 6 43 20 42 29 95 46
143 46 17 0 32 5 32 10 0 20 -95 10 -147 -15z"/>
<path d="M3320 2651 c0 -24 25 -73 42 -82 19 -10 19 -12 2 -37 -9 -15 -26 -35
-36 -46 -28 -27 -11 -37 64 -37 l66 -1 11 -74 c12 -70 23 -90 34 -61 4 10 -8
75 -29 155 -3 10 -16 11 -48 7 -60 -9 -71 -1 -46 35 27 37 26 42 -16 100 -36
50 -44 58 -44 41z"/>
<path d="M6176 2563 c-21 -71 -73 -163 -128 -222 -43 -48 -34 -61 18 -26 25
17 51 25 83 26 46 1 46 1 13 10 -18 6 -36 17 -39 26 -8 20 22 43 56 43 23 1
24 2 9 11 -22 12 -23 27 -2 50 11 12 14 34 12 80 l-3 64 -19 -62z"/>
<path d="M4623 2559 c0 -47 20 -48 25 -2 2 19 -2 32 -11 36 -11 4 -14 -4 -14
-34z"/>
<path d="M1437 2523 c-10 -10 -8 -45 2 -39 5 3 15 -1 22 -10 10 -12 10 -20 1
-35 -7 -11 -10 -24 -7 -29 10 -16 34 -11 45 9 18 34 12 68 -16 90 -28 22 -37
25 -47 14z"/>
<path d="M5981 2494 c0 -11 3 -14 6 -6 3 7 2 16 -1 19 -3 4 -6 -2 -5 -13z"/>
<path d="M1431 2384 c0 -11 3 -14 6 -6 3 7 2 16 -1 19 -3 4 -6 -2 -5 -13z"/>
<path d="M4620 2381 c0 -10 7 -24 15 -31 20 -17 19 -67 -2 -78 -16 -9 -12 -42
5 -42 21 0 53 49 54 85 1 30 -4 43 -26 62 -33 28 -46 29 -46 4z"/>
<path d="M6168 2383 c6 -2 18 -2 25 0 6 3 1 5 -13 5 -14 0 -19 -2 -12 -5z"/>
<path d="M1440 2329 c7 -11 14 -18 17 -15 8 8 -5 36 -17 36 -7 0 -7 -6 0 -21z"/>
<path d="M4820 2291 c0 -11 5 -23 10 -26 6 -4 10 5 10 19 0 14 -4 26 -10 26
-5 0 -10 -9 -10 -19z"/>
<path d="M6078 2273 c6 -2 18 -2 25 0 6 3 1 5 -13 5 -14 0 -19 -2 -12 -5z"/>
<path d="M5405 2240 c3 -5 8 -10 11 -10 2 0 4 5 4 10 0 6 -5 10 -11 10 -5 0
-7 -4 -4 -10z"/>
<path d="M2190 2231 c0 -6 5 -13 10 -16 6 -3 10 1 10 9 0 9 -4 16 -10 16 -5 0
-10 -4 -10 -9z"/>
<path d="M5400 2200 c0 -12 40 -33 48 -25 4 4 -2 13 -12 21 -23 16 -36 18 -36
4z"/>
<path d="M4620 2083 c0 -23 16 -96 35 -163 47 -162 47 -158 -15 -152 -44 4
-50 2 -50 -14 0 -11 11 -37 23 -59 l23 -40 -27 -23 c-50 -41 -48 -125 1 -94
11 6 28 12 38 12 9 0 28 7 40 16 22 15 22 14 22 -24 0 -22 -12 -75 -26 -118
-26 -82 -44 -113 -44 -78 0 20 -48 64 -70 64 -5 0 -10 -11 -10 -24 0 -40 -12
-86 -22 -86 -6 0 -8 12 -5 29 6 29 -7 51 -30 51 -9 0 -13 -19 -13 -70 0 -54 3
-70 14 -70 8 0 21 9 29 20 14 21 14 21 20 -1 4 -16 -1 -29 -18 -45 -14 -13
-25 -28 -25 -34 0 -5 -8 -10 -18 -10 -10 0 -27 -7 -38 -15 -27 -21 -32 -19
-39 16 -4 17 -25 74 -46 127 -46 112 -99 283 -99 320 0 23 2 24 45 20 53 -6
62 2 45 43 -15 35 -39 40 -33 6 4 -22 2 -24 -41 -23 -34 1 -46 5 -46 17 0 27
-23 39 -73 39 -41 0 -48 3 -43 16 12 32 -6 33 -31 3 -33 -38 -23 -45 57 -45
67 1 63 5 79 -84 13 -74 63 -230 117 -364 50 -123 55 -167 22 -190 -15 -11
-26 -12 -40 -5 -30 16 -33 38 -8 71 15 21 19 33 12 40 -17 17 -42 1 -57 -36
-16 -39 -12 -60 18 -93 25 -28 82 -31 109 -6 10 9 19 14 21 12 59 -87 60 -89
45 -107 -9 -9 -19 -27 -22 -39 -13 -41 -34 -49 -66 -25 -36 27 -42 27 -64 3
-29 -32 7 -71 53 -56 11 3 25 -1 34 -9 8 -9 35 -18 59 -22 44 -7 86 -23 60
-24 -16 0 -149 33 -249 62 -65 19 -71 22 -60 39 16 25 9 28 -43 19 -77 -15
-191 31 -254 101 -59 64 -80 121 -81 209 l0 76 -57 -4 c-112 -8 -225 52 -282
151 -28 48 -46 135 -39 188 l5 37 -74 0 c-95 1 -149 24 -233 102 -35 33 -67
60 -70 60 -15 0 35 -67 77 -103 58 -50 113 -73 199 -82 l66 -7 5 -67 c12 -169
130 -286 301 -298 72 -5 78 -8 73 -26 -7 -28 12 -124 36 -175 27 -61 98 -128
168 -160 46 -21 58 -30 51 -41 -8 -13 -21 -13 -89 -3 -105 17 -116 12 -108
-47 3 -25 9 -77 12 -116 9 -95 20 -106 137 -130 22 -4 28 -10 25 -28 -2 -13
-9 -21 -18 -18 -68 17 -90 21 -127 21 l-43 0 0 48 c0 100 -41 185 -121 254
-42 37 -49 48 -44 68 5 23 9 25 60 22 l55 -4 -1 44 c-1 74 -33 229 -49 238
-21 12 -249 42 -260 35 -14 -8 -11 -52 9 -175 l17 -105 49 -8 c28 -5 66 -11
85 -14 l35 -5 -35 -15 c-230 -97 -532 -167 -830 -193 -558 -48 -1252 95 -1840
378 -129 63 -170 88 -170 104 1 7 43 58 95 113 l94 100 15 -37 c29 -69 14
-190 -30 -239 -9 -10 -14 -22 -10 -27 12 -11 54 44 65 86 16 54 13 147 -4 189
-20 48 -20 70 0 53 44 -37 58 -199 25 -295 -13 -38 -17 -62 -10 -69 6 -6 13 0
19 16 47 123 42 272 -10 356 -12 18 -8 26 31 69 145 159 180 194 184 181 2 -7
20 -71 39 -143 19 -71 65 -235 102 -362 37 -128 65 -239 61 -248 -3 -8 -12
-15 -20 -15 -20 0 -28 28 -14 50 9 13 9 23 2 30 -14 14 -41 -8 -49 -42 -6 -24
-3 -29 21 -39 16 -6 43 -13 60 -16 27 -4 32 -2 38 21 8 34 4 53 -128 511 -37
127 -69 249 -73 272 -7 53 -24 59 -56 23 -95 -106 -438 -478 -456 -494 -27
-25 -27 -57 2 -84 12 -11 74 -45 137 -76 431 -206 805 -317 1285 -382 159 -21
541 -24 690 -5 184 23 438 79 589 131 82 28 150 49 151 48 7 -7 -18 -292 -41
-473 -28 -222 -30 -252 -20 -263 12 -11 404 -9 414 3 12 13 58 366 74 560 6
83 12 151 13 153 1 1 56 -16 121 -38 129 -44 337 -89 534 -116 168 -23 525
-23 705 0 473 60 935 199 1335 401 124 63 146 97 94 146 -21 19 -234 249 -459
496 -24 26 -44 40 -51 36 -7 -5 34 -58 117 -148 71 -77 129 -143 129 -147 0
-14 -90 -8 -127 7 -97 41 -146 111 -147 211 -1 45 -4 60 -13 57 -22 -9 -15
-102 11 -158 46 -97 125 -144 242 -145 65 0 72 -2 90 -27 15 -21 21 -45 22
-93 0 -36 6 -78 12 -95 16 -43 58 -95 76 -95 12 0 9 8 -10 31 -38 45 -56 94
-56 153 l1 51 65 -70 c88 -95 99 -112 85 -128 -15 -19 -234 -126 -370 -182
-98 -40 -118 -45 -139 -35 -22 10 -74 8 -139 -6 -22 -4 -22 -3 -16 80 9 132
-29 217 -125 273 -40 24 -58 28 -122 28 -41 0 -90 -4 -108 -8 l-33 -9 8 54
c13 86 7 146 -22 204 -52 106 -142 151 -282 141 -80 -6 -84 -5 -78 13 15 47 7
168 -14 215 -28 62 -38 51 -16 -16 14 -42 17 -72 12 -149 l-6 -97 42 8 c115
22 213 0 275 -62 57 -56 75 -110 69 -201 -6 -97 -28 -241 -38 -252 -11 -13
-76 55 -85 88 -5 20 -1 35 13 54 26 36 43 87 43 131 0 20 9 51 20 69 34 56 -4
73 -59 26 -29 -24 -32 -24 -53 -10 -26 18 -64 21 -73 5 -4 -6 2 -20 13 -32 37
-41 46 -72 52 -174 5 -94 8 -105 36 -139 17 -21 44 -45 62 -53 20 -10 32 -24
32 -37 0 -11 11 -41 23 -67 l24 -46 -29 -28 c-35 -33 -53 -89 -44 -137 7 -39
22 -54 38 -38 6 6 6 12 -1 16 -17 11 -13 88 5 114 9 13 26 33 38 46 21 24 22
24 45 5 13 -10 39 -19 57 -19 24 0 37 -6 41 -17 13 -34 61 -94 68 -84 6 11 -9
46 -32 73 -14 15 -13 20 6 44 12 15 21 35 21 45 0 25 37 35 59 15 32 -29 81
-14 81 26 0 25 -27 36 -72 31 -33 -5 -38 -3 -38 15 0 11 8 34 18 52 17 30 17
31 -6 50 -19 16 -28 17 -44 9 -17 -9 -19 -17 -13 -55 4 -28 2 -44 -4 -44 -6 0
-11 9 -11 19 0 29 -38 53 -62 40 -29 -15 -20 -61 14 -77 35 -16 46 -56 27 -91
-28 -49 -98 -32 -139 35 -21 33 -22 44 -17 142 4 85 9 108 22 119 28 20 103
27 160 14 137 -31 207 -157 177 -321 -6 -30 -9 -56 -9 -57 1 -1 45 2 97 7 52
4 97 6 98 5 2 -2 -59 -24 -135 -48 -400 -131 -742 -189 -1108 -191 -213 -1
-414 12 -380 24 18 6 17 9 -13 24 -21 11 -32 24 -32 38 0 12 -10 41 -21 66
l-21 43 25 27 c58 63 65 131 17 185 -29 33 -40 67 -21 67 5 0 32 22 60 49 49
46 51 50 32 60 -11 6 -36 11 -55 11 -20 0 -36 2 -36 4 0 2 11 28 25 58 14 29
28 74 31 101 4 26 10 50 15 52 7 5 36 -4 87 -28 16 -8 26 -7 34 1 15 15 -6 90
-28 99 -21 8 -17 37 11 67 46 50 26 65 -80 58 -31 -2 -31 -2 -43 69 -12 71
-83 301 -102 329 -7 11 -10 4 -10 -27z m100 -373 c5 -21 12 -25 41 -23 19 2
44 0 57 -2 l23 -6 -21 -28 c-26 -37 -25 -47 5 -83 28 -34 32 -53 9 -44 -9 3
-33 9 -55 12 -33 6 -39 10 -39 31 0 32 -25 39 -66 19 -40 -18 -74 -21 -74 -5
0 6 14 23 30 37 36 31 37 40 8 87 l-21 37 49 -4 c42 -3 49 -7 54 -28z m999
-252 c-8 -68 -31 -128 -49 -128 -6 0 -10 24 -10 53 0 33 -7 67 -20 92 -25 50
-26 49 10 28 29 -17 31 -17 52 5 12 12 23 20 24 19 1 -1 -2 -32 -7 -69z
m-1109 -124 c6 -14 19 -28 30 -31 11 -3 20 -9 20 -14 0 -5 18 -9 40 -9 22 0
40 -2 40 -5 0 -12 -64 -75 -77 -75 -8 0 -13 -13 -13 -38 0 -29 7 -45 30 -67
45 -43 39 -87 -22 -151 l-30 -32 -44 20 c-25 10 -53 16 -64 13 -15 -5 -20 -2
-20 14 0 11 -5 23 -10 26 -6 4 -19 24 -30 46 -11 21 -27 39 -35 39 -8 0 -15 8
-15 18 1 19 74 58 102 54 10 -2 19 6 23 20 4 13 19 32 33 44 24 19 25 23 13
51 -13 32 -6 103 10 103 5 0 14 -12 19 -26z m-865 -166 c3 -5 34 -233 31 -235
-1 -2 -56 5 -121 15 l-119 17 -17 115 c-10 63 -16 117 -14 121 4 6 234 -26
240 -33z m2315 8 c0 -8 -4 -17 -9 -21 -12 -7 -24 12 -16 25 9 15 25 12 25 -4z
m-86 -41 c4 -10 -1 -15 -14 -15 -11 0 -20 7 -20 15 0 8 6 15 14 15 8 0 16 -7
20 -15z m61 -65 c0 -7 -6 -15 -12 -17 -8 -3 -13 4 -13 17 0 13 5 20 13 18 6
-3 12 -11 12 -18z m105 -26 c0 -9 -5 -14 -12 -12 -18 6 -21 28 -4 28 9 0 16
-7 16 -16z m-1545 -146 c32 -25 64 -91 65 -130 0 -25 4 -28 32 -28 17 0 28 -3
25 -7 -4 -3 -46 0 -94 7 -49 7 -82 15 -76 17 20 7 -3 41 -29 45 -34 5 -49 70
-23 98 24 26 65 25 100 -2z m-415 -38 c18 -12 2 -12 -25 0 -13 6 -15 9 -5 9 8
0 22 -4 30 -9z m180 -15 c0 -8 -7 -15 -15 -15 -8 0 -15 7 -15 15 0 8 7 15 15
15 8 0 15 -7 15 -15z m100 -20 c0 -8 -4 -15 -9 -15 -13 0 -22 16 -14 24 11 11
23 6 23 -9z m-403 -25 c1 0 1 -13 1 -30 -1 -23 -6 -30 -22 -31 -19 -2 -19 -2
2 -6 16 -3 22 -9 18 -20 -3 -8 -6 -28 -6 -44 0 -23 -5 -29 -22 -30 l-23 -2 23
-4 c38 -7 19 -28 -24 -26 l-39 1 34 -6 c40 -8 55 -32 19 -32 -49 0 -98 20
-103 43 -11 48 -32 202 -29 208 2 4 41 0 86 -7 46 -8 84 -14 85 -14z m-320
-22 c22 -24 47 -56 56 -73 24 -50 39 -132 32 -175 l-7 -40 69 0 c98 0 143 -14
143 -45 0 -29 0 -29 -65 -9 -83 25 -183 6 -229 -45 -25 -27 -17 -26 40 4 80
42 244 28 244 -22 0 -19 -16 -135 -25 -190 l-6 -33 -190 0 -189 0 6 43 c9 58
40 116 69 129 27 12 41 38 25 48 -7 4 -3 13 9 24 10 10 29 41 41 69 38 88 16
201 -55 285 -24 28 -34 72 -17 72 4 0 26 -19 49 -42z m-34 -66 c9 -10 26 -40
38 -66 20 -46 20 -54 9 -123 -12 -65 -17 -77 -52 -108 -21 -20 -42 -34 -46
-31 -4 2 -2 58 5 123 6 65 12 142 12 171 1 55 8 63 34 34z m-13 -341 c0 -5
-11 -16 -25 -25 -24 -16 -25 -15 -25 3 0 17 12 25 43 30 4 0 7 -3 7 -8z"/>
<path d="M3541 1133 c1 -21 5 -51 9 -68 6 -19 6 -8 3 32 l-5 61 28 5 c29 4 28
4 -3 6 -32 1 -33 0 -32 -36z"/>
<path d="M3660 1147 c30 -7 57 -11 59 -10 10 7 -8 12 -59 17 l-55 6 55 -13z"/>
<path d="M3581 1098 c2 -30 2 -30 6 -6 3 18 12 28 26 31 18 4 17 5 -5 6 -25 1
-28 -2 -27 -31z"/>
<path d="M3655 1113 c11 -3 24 -10 28 -17 6 -7 7 -6 4 4 -2 8 -14 16 -28 17
-19 1 -20 1 -4 -4z"/>
<path d="M3722 1085 c0 -16 2 -22 5 -12 2 9 2 23 0 30 -3 6 -5 -1 -5 -18z"/>
<path d="M3620 1071 c0 -15 6 -21 21 -21 25 0 22 33 -4 38 -12 2 -17 -3 -17
-17z"/>
<path d="M3692 1040 c0 -19 2 -27 5 -17 2 9 2 25 0 35 -3 9 -5 1 -5 -18z"/>
<path d="M3590 1035 c0 -8 4 -15 10 -15 5 0 7 7 4 15 -4 8 -8 15 -10 15 -2 0
-4 -7 -4 -15z"/>
<path d="M3732 1020 c0 -19 2 -27 5 -17 2 9 2 25 0 35 -3 9 -5 1 -5 -18z"/>
<path d="M3560 1005 c0 -8 4 -15 10 -15 5 0 7 7 4 15 -4 8 -8 15 -10 15 -2 0
-4 -7 -4 -15z"/>
<path d="M3633 1013 c9 -2 23 -2 30 0 6 3 -1 5 -18 5 -16 0 -22 -2 -12 -5z"/>
<path d="M3618 983 c6 -2 18 -2 25 0 6 3 1 5 -13 5 -14 0 -19 -2 -12 -5z"/>
<path d="M3670 977 c10 -9 70 -16 70 -9 0 4 -17 9 -37 10 -21 2 -35 1 -33 -1z"/>
<path d="M3921 758 c2 -30 2 -30 6 -6 3 20 11 28 31 31 24 4 24 4 -5 6 -31 1
-33 -1 -32 -31z"/>
<path d="M4003 773 c9 -2 23 -2 30 0 6 3 -1 5 -18 5 -16 0 -22 -2 -12 -5z"/>
<path d="M3961 718 c2 -30 2 -30 6 -6 3 18 12 28 26 31 18 4 17 5 -5 6 -25 1
-28 -2 -27 -31z"/>
<path d="M3932 690 c0 -19 2 -27 5 -17 2 9 2 25 0 35 -3 9 -5 1 -5 -18z"/>
<path d="M4000 691 c0 -15 6 -21 21 -21 25 0 22 33 -4 38 -12 2 -17 -3 -17
-17z"/>
<path d="M3970 660 c0 -11 4 -20 9 -20 5 0 7 9 4 20 -3 11 -7 20 -9 20 -2 0
-4 -9 -4 -20z"/>
<path d="M3940 630 c0 -11 4 -20 9 -20 5 0 7 9 4 20 -3 11 -7 20 -9 20 -2 0
-4 -9 -4 -20z"/>
<path d="M3682 244 c-30 -21 -32 -84 -3 -84 14 0 21 8 23 28 2 16 9 27 18 27
10 0 15 -10 15 -27 -1 -23 4 -28 22 -28 32 0 32 48 0 78 -28 26 -45 27 -75 6z"/>
<path d="M2780 2094 c0 -12 11 -29 25 -38 32 -21 32 -5 0 31 -23 26 -24 27
-25 7z"/>
<path d="M5407 2063 c-10 -9 -9 -25 2 -19 4 3 17 -5 28 -17 41 -44 57 -90 61
-177 l4 -85 77 -1 c90 -1 153 -26 213 -86 60 -60 81 -111 86 -208 l4 -85 77 0
c90 -1 152 -26 213 -87 57 -57 81 -117 82 -210 l1 -78 72 0 c39 0 84 -5 99
-10 15 -6 35 -8 43 -5 26 10 -43 34 -119 41 l-68 7 -4 71 c-11 164 -128 281
-297 295 l-73 6 -5 70 c-11 168 -134 292 -300 303 l-73 5 0 47 c0 108 -85 262
-123 223z"/>
<path d="M3966 1992 l-38 -57 48 45 c49 45 58 61 39 66 -5 2 -27 -22 -49 -54z"/>
<path d="M2780 1966 c0 -12 9 -16 34 -16 18 0 49 -3 67 -6 31 -6 33 -5 19 9
-8 9 -39 19 -67 23 -45 6 -53 4 -53 -10z"/>
<path d="M5557 1914 c3 -32 9 -63 14 -68 4 -5 40 -14 79 -21 65 -11 70 -11 56
3 -9 9 -37 19 -63 22 -48 5 -48 5 -60 54 -18 74 -33 80 -26 10z"/>
<path d="M2175 1918 c-23 -14 -45 -18 -92 -16 -66 3 -93 -7 -49 -18 49 -12
135 1 159 24 28 29 19 34 -18 10z"/>
<path d="M2780 1900 c0 -16 2 -30 4 -30 2 0 6 14 8 30 3 17 1 30 -4 30 -4 0
-8 -13 -8 -30z"/>
<path d="M2823 1913 c9 -2 25 -2 35 0 9 3 1 5 -18 5 -19 0 -27 -2 -17 -5z"/>
<path d="M2903 1903 c9 -2 23 -2 30 0 6 3 -1 5 -18 5 -16 0 -22 -2 -12 -5z"/>
<path d="M3895 1900 c-4 -7 6 -25 24 -44 45 -46 43 -92 -6 -148 -21 -24 -38
-45 -40 -47 -1 -2 -14 6 -29 18 -15 11 -41 21 -58 21 -26 0 -35 6 -50 35 -11
19 -25 35 -33 35 -17 0 -16 -5 2 -34 14 -22 14 -27 -10 -75 -27 -53 -51 -65
-75 -35 -20 23 -64 14 -68 -14 -6 -37 16 -54 59 -47 46 8 55 -5 35 -47 -21
-42 -20 -65 4 -78 14 -8 26 -8 41 1 18 9 20 16 14 56 -4 31 -3 43 4 38 6 -3
11 -15 11 -25 0 -27 34 -44 60 -30 30 16 26 58 -7 73 -36 15 -43 25 -43 64 0
35 22 63 49 63 28 0 82 -42 103 -80 17 -30 18 -47 13 -120 -9 -121 -11 -126
-54 -139 -88 -26 -181 -4 -243 56 -57 56 -72 104 -66 220 l5 98 -96 -3 c-65
-3 -117 1 -156 12 -53 13 -58 13 -40 0 42 -31 121 -46 194 -37 l69 9 -2 -100
c-1 -95 1 -104 29 -154 29 -54 79 -96 142 -121 33 -13 162 -11 194 3 14 6 16
-5 15 -101 -1 -95 2 -113 22 -152 56 -104 142 -147 278 -138 l84 5 -6 -54 c-5
-36 -3 -54 4 -54 11 0 16 23 25 97 l4 33 -97 -6 c-85 -6 -101 -4 -145 15 -89
39 -141 108 -152 199 -4 39 31 298 42 310 7 7 54 -34 69 -60 22 -36 20 -58 -9
-111 -14 -25 -28 -69 -32 -99 -3 -29 -12 -66 -20 -82 -26 -50 23 -61 67 -14
17 19 20 19 41 4 25 -17 79 -22 79 -6 0 5 -11 26 -25 46 -33 49 -45 98 -44
175 1 35 -3 75 -9 89 -12 31 -58 77 -94 96 -19 10 -28 22 -28 40 0 13 -9 42
-20 64 l-20 39 26 26 c35 35 57 92 50 130 -7 37 -70 103 -81 85z m-295 -295
c0 -8 -7 -15 -15 -15 -16 0 -20 12 -8 23 11 12 23 8 23 -8z m103 -38 c-3 -5
-10 -4 -15 1 -6 6 -7 16 -3 22 6 9 9 9 16 -1 4 -7 5 -17 2 -22z m66 -41 c8
-10 9 -16 1 -21 -13 -8 -30 3 -30 21 0 18 14 18 29 0z m-84 -45 c7 -12 -12
-24 -25 -16 -11 7 -4 25 10 25 5 0 11 -4 15 -9z m394 -316 c12 -20 18 -35 14
-33 -5 2 -21 10 -36 18 -27 13 -30 12 -53 -16 -17 -18 -24 -22 -20 -11 3 10 9
37 12 60 8 55 24 108 38 126 9 11 12 1 17 -46 3 -35 15 -77 28 -98z"/>
<path d="M2175 1874 c-55 -46 -84 -57 -144 -52 -54 5 -48 -4 12 -17 60 -13 39
-71 -23 -62 -19 3 -44 8 -55 11 -11 4 -1 -2 23 -13 23 -11 42 -27 42 -34 0
-22 -24 -37 -51 -31 -23 5 -23 5 -4 -7 42 -26 40 -59 -4 -59 -24 -1 -24 -2 -8
-14 21 -16 23 -46 2 -46 -17 0 -20 -17 -4 -22 7 -2 6 -17 -3 -46 -16 -53 -32
-55 -25 -2 3 22 1 40 -4 40 -13 0 -11 38 3 42 8 3 7 11 -4 27 -20 28 -13 51
15 51 21 0 21 0 -1 16 -12 8 -22 24 -22 36 0 18 4 20 43 15 l42 -6 -43 19
c-35 16 -43 24 -40 42 3 24 4 24 88 14 l45 -6 -48 13 c-26 8 -55 21 -65 30
-16 15 -21 15 -38 3 -17 -13 -19 -27 -18 -143 2 -148 16 -226 122 -648 63
-255 68 -270 91 -273 18 -3 22 0 18 12 -4 9 -29 106 -56 215 -28 110 -61 226
-74 258 -22 56 -23 61 -10 151 26 197 92 348 192 447 48 46 61 65 44 65 -5 -1
-21 -12 -38 -26z"/>
<path d="M2825 1838 c9 -67 10 -68 48 -67 l32 1 -30 7 c-24 5 -30 13 -37 46
-5 21 -6 45 -4 52 3 7 1 13 -5 13 -7 0 -8 -18 -4 -52z"/>
<path d="M2851 1876 c10 -9 79 -14 74 -5 -4 5 -22 9 -42 9 -20 0 -34 -2 -32
-4z"/>
<path d="M2962 1855 c0 -16 2 -22 5 -12 2 9 2 23 0 30 -3 6 -5 -1 -5 -18z"/>
<path d="M1980 1860 c8 -5 22 -9 30 -9 10 0 8 3 -5 9 -27 12 -43 12 -25 0z"/>
<path d="M2796 1810 c3 -30 8 -58 12 -62 4 -4 34 -9 67 -12 l60 -5 -61 10 -62
10 -10 57 -11 57 5 -55z"/>
<path d="M2860 1830 c0 -16 18 -30 40 -30 16 0 -2 38 -21 43 -13 4 -19 0 -19
-13z"/>
<path d="M2932 1820 c0 -19 2 -27 5 -17 2 9 2 25 0 35 -3 9 -5 1 -5 -18z"/>
<path d="M3004 1805 c4 -27 10 -65 13 -82 6 -39 10 -39 -132 -17 -111 18 -115
20 -115 87 0 28 -14 37 -23 14 -3 -8 -1 -34 4 -59 l10 -46 88 -16 c49 -9 112
-16 140 -16 l51 0 -1 33 c-1 56 -15 127 -29 140 -10 10 -11 2 -6 -38z"/>
<path d="M5385 1830 c-3 -5 -4 -14 0 -19 3 -6 -4 -15 -15 -21 -25 -13 -26 -30
-2 -30 24 0 42 19 42 46 0 25 -15 40 -25 24z"/>
<path d="M2972 1790 c0 -19 2 -27 5 -17 2 9 2 25 0 35 -3 9 -5 1 -5 -18z"/>
<path d="M2925 1770 c-19 -8 -19 -9 3 -9 12 -1 22 4 22 9 0 6 -1 10 -2 9 -2 0
-12 -4 -23 -9z"/>
<path d="M2164 1756 c-32 -24 -22 -82 61 -366 75 -256 114 -399 157 -582 17
-71 25 -88 40 -88 10 0 18 5 18 12 0 23 -101 412 -151 581 -111 374 -120 417
-85 417 20 0 28 -28 14 -50 -10 -15 -10 -22 0 -32 20 -20 55 27 47 61 -14 56
-59 77 -101 47z"/>
<path d="M2690 1706 c0 -24 -3 -51 -6 -59 -4 -12 11 -15 78 -19 97 -5 160 -33
220 -95 57 -59 82 -124 83 -213 l0 -75 60 3 c177 10 319 -132 318 -315 l0 -63
46 0 c25 0 56 3 69 6 40 11 23 24 -32 24 l-53 0 -7 63 c-9 93 -35 154 -87 208
-63 65 -118 90 -209 98 l-75 6 -6 71 c-8 90 -35 151 -94 209 -58 59 -119 86
-209 94 l-71 6 -3 48 c-4 59 -22 62 -22 3z"/>
<path d="M2980 1741 c0 -5 -10 -12 -22 -14 -20 -4 -19 -4 5 -6 18 -1 27 4 27
14 0 8 -2 15 -5 15 -3 0 -5 -4 -5 -9z"/>
<path d="M5910 1723 c0 -27 32 -232 39 -248 7 -16 25 -23 82 -33 41 -7 103
-14 139 -15 l65 -2 -1 30 c-3 58 -24 204 -34 229 -9 25 -13 26 -87 25 l-78 -1
70 -12 70 -11 11 -57 c7 -32 15 -87 19 -124 6 -61 5 -66 -12 -61 -10 3 -62 11
-116 18 -115 15 -108 6 -127 153 -11 83 -11 99 1 107 10 6 6 9 -13 9 -16 0
-28 -3 -28 -7z"/>
<path d="M6245 1681 c20 -178 147 -301 310 -301 l62 0 5 -68 c7 -95 68 -225
97 -208 9 6 9 12 -3 25 -8 9 -26 41 -40 71 -20 44 -26 71 -26 130 l0 75 -63
-3 c-86 -5 -166 26 -227 88 -53 52 -90 136 -90 200 0 29 -4 40 -15 40 -13 0
-15 -9 -10 -49z"/>
<path d="M2615 1683 c-3 -21 -17 -81 -30 -134 -44 -171 -29 -288 48 -382 l35
-42 -15 -70 c-11 -50 -13 -102 -9 -185 6 -128 12 -160 31 -160 19 0 26 41 9
57 -18 19 -18 32 1 40 14 5 14 8 -2 25 -22 25 -6 54 28 50 23 -2 23 -2 -3 13
-27 15 -37 48 -19 59 5 4 21 2 35 -4 14 -5 26 -6 26 -2 0 4 -16 14 -35 21 -28
10 -35 18 -35 38 0 24 3 25 33 19 82 -16 90 -15 43 2 -51 19 -83 52 -71 73 7
10 36 8 80 -6 11 -4 -5 7 -35 24 -30 17 -67 46 -82 64 -71 83 -87 217 -43 348
29 85 44 189 27 189 -6 0 -14 -17 -17 -37z"/>
<path d="M5195 1710 c-35 -5 -41 -7 -20 -9 23 -1 36 -11 57 -45 15 -23 30 -50
34 -59 3 -9 12 -17 20 -17 8 0 14 -9 14 -19 0 -21 -49 -51 -81 -51 -10 0 -27
-12 -36 -27 -10 -16 -26 -35 -37 -44 -16 -13 -17 -20 -7 -50 9 -28 8 -44 -2
-75 l-14 -39 -17 33 c-9 17 -23 32 -30 32 -8 0 -16 7 -20 15 -3 9 -19 15 -41
15 -19 0 -35 4 -35 9 0 5 20 27 45 49 56 49 61 87 15 120 -37 28 -41 78 -9
128 17 29 18 34 5 34 -20 0 -46 -39 -53 -82 -6 -38 17 -95 43 -105 25 -9 15
-43 -23 -80 -21 -19 -46 -39 -55 -44 -41 -22 -14 -49 49 -49 40 0 40 7 -1
-105 -14 -38 -26 -81 -26 -94 0 -18 -4 -22 -17 -16 -10 3 -30 9 -46 12 -15 3
-30 10 -33 14 -3 5 -12 9 -20 9 -25 0 -17 -65 12 -99 26 -31 26 -32 8 -59 -9
-15 -25 -32 -33 -39 -27 -20 1 -35 66 -36 l60 -2 12 -55 c30 -135 43 -170 62
-170 23 0 23 -5 -1 82 -11 40 -20 78 -20 84 0 7 17 9 49 6 28 -2 51 0 55 6 3
6 -5 31 -18 56 l-24 46 29 29 c21 22 29 39 29 65 0 35 -20 50 -35 26 -3 -5
-18 -10 -32 -10 -15 0 -35 -7 -45 -17 -10 -9 -21 -14 -24 -11 -15 16 45 238
65 238 4 0 14 -12 21 -26 17 -32 48 -50 62 -36 5 5 11 45 12 89 2 65 7 85 26
111 13 18 29 32 34 32 6 0 23 6 37 14 l27 14 32 -87 c81 -218 130 -371 130
-406 0 -3 -22 -5 -50 -4 -27 2 -52 0 -56 -3 -3 -3 6 -29 20 -56 l26 -51 -30
-30 c-20 -20 -30 -39 -30 -60 0 -33 16 -49 33 -32 6 6 18 11 26 11 9 0 29 7
45 15 15 8 31 15 34 15 2 0 2 -20 -1 -44 -6 -40 -5 -44 13 -39 11 3 20 9 20
13 0 4 28 6 63 6 56 -1 62 1 65 20 2 12 -8 34 -21 50 -23 27 -24 30 -8 54 8
14 22 30 30 36 30 24 6 39 -62 39 l-65 0 -16 80 c-18 93 -58 220 -114 360 -53
135 -59 168 -32 195 19 19 24 20 43 7 27 -17 34 -59 13 -77 -20 -16 -21 -40
-1 -40 25 0 55 42 55 77 0 70 -86 109 -136 62 l-22 -21 -17 36 c-9 19 -23 40
-31 47 -11 9 -11 15 -3 25 6 8 10 13 8 12 -2 0 -26 -4 -54 -8z m-260 -601 c5
-5 18 -9 28 -9 14 0 18 -5 14 -20 -9 -35 18 -45 58 -20 20 12 46 20 62 18 l28
-3 -40 -39 -39 -38 22 -39 c12 -21 22 -40 22 -43 0 -4 -20 -6 -45 -6 -38 0
-45 3 -45 19 0 28 -17 35 -72 32 -26 -1 -48 0 -48 3 0 3 9 20 20 38 25 42 26
41 -10 80 -16 18 -30 36 -30 41 0 10 61 -1 75 -14z m543 -152 c3 -26 6 -27 58
-27 57 0 63 -5 39 -36 -21 -28 -18 -52 10 -86 31 -37 25 -50 -18 -36 -17 5
-42 12 -54 15 -16 4 -23 13 -23 29 0 29 -24 41 -45 24 -8 -7 -30 -16 -50 -20
-45 -10 -47 6 -5 43 31 28 38 51 19 62 -11 8 -29 47 -24 55 2 3 23 5 47 5 39
0 43 -3 46 -28z"/>
<path d="M1594 1693 c3 -10 24 -94 47 -188 36 -150 40 -180 36 -255 -6 -100
-51 -250 -97 -323 -16 -26 -30 -50 -30 -52 0 -12 22 -3 40 15 11 11 30 20 43
21 12 0 16 3 10 6 -17 6 -17 38 0 51 7 6 24 9 38 6 l24 -5 -22 12 c-14 7 -23
21 -23 36 0 18 5 23 28 23 23 1 24 2 10 11 -27 15 -23 49 5 49 22 1 22 1 2 16
-16 12 -18 18 -7 34 6 11 12 29 12 40 0 13 4 19 11 14 7 -4 9 -21 6 -40 -3
-19 -2 -34 4 -34 15 0 10 -40 -6 -46 -12 -5 -11 -9 6 -23 27 -22 16 -51 -20
-51 l-26 0 25 -13 c14 -7 27 -23 28 -36 4 -23 1 -24 -38 -18 -46 6 -45 -2 3
-19 24 -8 32 -17 32 -35 0 -26 1 -26 -85 -15 l-45 6 48 -13 c26 -8 55 -21 65
-30 45 -41 56 -11 55 148 -2 139 -12 199 -86 500 -49 201 -56 220 -76 223 -18
3 -22 0 -17 -15z m126 -443 c0 -5 -4 -10 -10 -10 -5 0 -10 5 -10 10 0 6 5 10
10 10 6 0 10 -4 10 -10z"/>
<path d="M6008 1673 c6 -2 18 -2 25 0 6 3 1 5 -13 5 -14 0 -19 -2 -12 -5z"/>
<path d="M6048 1633 c6 -2 18 -2 25 0 6 3 1 5 -13 5 -14 0 -19 -2 -12 -5z"/>
<path d="M6105 1620 c3 -5 8 -10 11 -10 2 0 4 5 4 10 0 6 -5 10 -11 10 -5 0
-7 -4 -4 -10z"/>
<path d="M3112 1597 c-11 -13 -5 -79 18 -209 l12 -67 51 -9 c29 -6 87 -15 131
-22 111 -17 110 -17 85 140 -11 69 -24 129 -28 133 -5 5 -55 15 -112 23 -57 8
-114 16 -125 19 -12 3 -26 -1 -32 -8z m188 -40 l65 -12 12 -65 c6 -36 14 -89
18 -119 l7 -54 -54 7 c-29 3 -83 11 -120 18 l-66 11 -11 61 c-6 34 -14 87 -17
119 l-7 59 54 -7 c30 -4 83 -12 119 -18z"/>
<path d="M3161 1523 c1 -22 2 -23 6 -8 3 11 10 23 17 27 7 5 5 8 -6 8 -13 0
-18 -7 -17 -27z"/>
<path d="M3270 1527 c63 -12 65 -13 71 -47 l6 -35 2 31 c1 42 -12 51 -84 58
l-60 5 65 -12z"/>
<path d="M3200 1488 c0 -18 2 -20 10 -8 10 16 66 15 87 -2 6 -5 14 -24 16 -41
4 -31 4 -31 5 5 2 42 -9 52 -75 62 -40 6 -43 5 -43 -16z"/>
<path d="M3176 1435 c3 -33 9 -63 12 -67 4 -3 34 -9 67 -12 l60 -5 -60 12 -60
12 -12 60 -12 60 5 -60z"/>
<path d="M3211 1433 c-1 -38 0 -39 67 -48 34 -4 52 -3 52 4 0 6 -6 8 -13 5 -7
-2 -31 -1 -52 4 -33 7 -41 13 -46 37 l-7 30 -1 -32z"/>
<path d="M3242 1443 c2 -10 14 -20 27 -21 19 -3 22 0 17 13 -3 9 -6 19 -6 21
0 2 -9 4 -21 4 -14 0 -19 -5 -17 -17z"/>
<path d="M3352 1410 c0 -19 2 -27 5 -17 2 9 2 25 0 35 -3 9 -5 1 -5 -18z"/>
<path d="M3360 1361 c0 -5 -10 -12 -22 -14 -20 -4 -19 -4 5 -6 18 -1 27 4 27
14 0 8 -2 15 -5 15 -3 0 -5 -4 -5 -9z"/>
<path d="M6054 1584 c3 -9 6 -18 6 -20 0 -2 7 -4 15 -4 8 0 15 9 15 20 0 14
-7 20 -21 20 -15 0 -19 -4 -15 -16z"/>
<path d="M2690 1557 c-51 -34 -72 -78 -78 -163 -6 -94 13 -148 72 -202 107
-98 259 -93 312 11 22 42 30 145 14 193 -46 141 -221 229 -320 161z m177 -26
c85 -43 128 -116 127 -216 0 -84 -22 -131 -74 -158 -93 -48 -249 30 -279 140
-29 103 7 225 74 254 30 13 108 3 152 -20z"/>
<path d="M6162 1560 c0 -14 2 -19 5 -12 2 6 2 18 0 25 -3 6 -5 1 -5 -13z"/>
<path d="M5993 1536 c1 -17 9 -31 17 -33 10 -3 11 -2 4 4 -7 4 -14 19 -17 33
-4 22 -5 21 -4 -4z"/>
<path d="M6093 1523 c9 -2 23 -2 30 0 6 3 -1 5 -18 5 -16 0 -22 -2 -12 -5z"/>
<path d="M6170 1501 c0 -5 -12 -12 -27 -14 -26 -4 -26 -4 5 -6 22 -1 32 3 32
14 0 8 -2 15 -5 15 -3 0 -5 -4 -5 -9z"/>
<path d="M6053 1493 c9 -2 23 -2 30 0 6 3 -1 5 -18 5 -16 0 -22 -2 -12 -5z"/>
<path d="M6357 1354 c-4 -4 -7 -16 -7 -26 0 -10 -7 -18 -15 -18 -8 0 -15 -8
-15 -18 0 -10 -5 -23 -11 -29 -7 -7 -7 -29 1 -74 18 -107 17 -106 52 -113 66
-14 223 -33 237 -28 14 5 14 17 -9 181 -6 47 -13 88 -15 92 -4 6 -73 20 -170
34 -22 3 -44 3 -48 -1z m133 -37 l65 -12 16 -115 c9 -63 15 -117 13 -118 -6
-8 -229 30 -235 40 -11 18 -19 118 -12 146 6 24 9 20 20 -33 9 -46 12 -50 9
-17 -4 45 9 56 24 20 9 -23 9 -23 10 2 1 46 22 61 71 54 24 -4 48 -12 52 -18
6 -7 7 -6 4 4 -3 14 -43 24 -122 34 -38 4 -46 26 -8 26 15 -1 57 -6 93 -13z"/>
<path d="M6453 1253 c30 -5 47 -34 47 -80 0 -19 -4 -24 -16 -19 -9 3 -27 6
-40 6 -16 0 -28 8 -34 23 l-9 22 0 -22 c-1 -23 7 -27 73 -38 l39 -6 -6 51 c-8
65 -12 70 -50 69 -31 -2 -31 -2 -4 -6z"/>
<path d="M6532 1220 c0 -19 2 -27 5 -17 2 9 2 25 0 35 -3 9 -5 1 -5 -18z"/>
<path d="M6430 1211 c0 -10 9 -21 20 -24 25 -6 29 28 4 37 -23 9 -24 8 -24
-13z"/>
<path d="M6541 1148 c-1 -26 -6 -38 -18 -41 -14 -4 -13 -5 4 -6 28 -1 31 6 22
49 l-6 35 -2 -37z"/>
<path d="M6374 1140 c1 -9 12 -15 29 -16 24 -1 24 -1 3 3 -14 2 -27 10 -29 16
-2 7 -3 5 -3 -3z"/>
<path d="M6453 1113 c9 -2 25 -2 35 0 9 3 1 5 -18 5 -19 0 -27 -2 -17 -5z"/>
<path d="M3050 1189 c-19 -6 -67 -35 -108 -65 -81 -58 -120 -71 -176 -56 -21
6 -34 7 -31 1 4 -5 24 -12 45 -15 75 -12 76 -63 1 -65 -34 0 -34 -1 -13 -11
36 -18 25 -52 -18 -58 -32 -5 -33 -7 -12 -14 35 -12 26 -51 -11 -51 l-28 1 22
-17 c25 -19 20 -49 -8 -49 -15 0 -15 -1 1 -13 16 -11 17 -17 6 -36 -13 -25 -8
-36 14 -28 8 3 17 21 21 39 12 60 47 152 78 208 48 85 151 183 216 205 122 40
249 -11 306 -124 14 -28 17 -51 12 -115 -3 -45 -8 -89 -12 -99 -5 -13 -3 -16
8 -11 35 13 41 165 10 235 -23 52 -71 101 -122 125 -43 20 -153 27 -201 13z"/>
<path d="M2917 992 c-23 -25 -21 -57 8 -159 28 -96 34 -106 54 -94 11 7 8 24
-13 91 -32 103 -34 140 -6 140 23 0 28 -38 8 -58 -17 -17 18 -28 37 -12 21 17
19 73 -3 93 -24 22 -65 21 -85 -1z"/>
<path d="M6084 875 c-25 -19 -1 -19 41 0 30 13 30 13 4 14 -14 1 -34 -6 -45
-14z"/>
</g>
</svg>
