<svg width="42" height="42" viewBox="0 0 42 42" fill="none" xmlns="http://www.w3.org/2000/svg">
<path fill-rule="evenodd" clip-rule="evenodd" d="M30.982 21.4385C33.5326 18.6386 36.3477 16.0628 39 13.3663C35.3547 13.1581 31.6718 12.5623 28.0195 12.7291C27.971 10.059 27.8141 7.40429 27.2626 4.78215C25.0709 6.95792 22.6949 9.0721 20.8807 11.5985C19.8119 8.59311 18.2963 5.59592 16.4929 3C14.738 5.98924 13.1845 9.36115 12.1986 12.6928C9.71938 12.1955 7.10682 11.918 4.58414 11.9128C5.33606 14.5655 6.32251 17.1495 7.2561 19.7381C5.65378 21.5087 4.16492 23.6076 3 25.726C4.68286 26.1916 6.43597 26.3743 8.14146 26.7362C7.78872 29.508 7.7288 32.3189 7.56418 35.1078C9.76851 34.0578 11.8226 32.7098 13.8171 31.2865C15.069 33.7556 16.1755 36.2985 17.4168 38.7737C18.8439 36.3607 20.2807 33.8757 21.8683 31.5698C23.6223 33.4327 25.8925 34.7078 27.7932 36.4119C27.568 33.894 27.7076 31.3719 27.6915 28.8488C30.3914 28.9595 33.1504 28.8693 35.8559 28.8723C34.1548 26.6301 32.4611 24.3836 30.8829 22.0444" fill="#FFFDF5"/>
<path d="M30.982 21.4385C33.5326 18.6386 36.3477 16.0628 39 13.3663C35.3547 13.1581 31.6718 12.5623 28.0195 12.7291C27.971 10.059 27.8141 7.40429 27.2626 4.78215C25.0709 6.95792 22.6949 9.0721 20.8807 11.5985C19.8119 8.59311 18.2963 5.59592 16.4929 3C14.738 5.98924 13.1845 9.36115 12.1986 12.6928C9.71938 12.1955 7.10682 11.918 4.58414 11.9128C5.33606 14.5655 6.32251 17.1495 7.2561 19.7381C5.65378 21.5087 4.16492 23.6076 3 25.726C4.68286 26.1916 6.43597 26.3743 8.14146 26.7362C7.78872 29.508 7.7288 32.3189 7.56418 35.1078C9.76851 34.0578 11.8226 32.7098 13.8171 31.2865C15.069 33.7556 16.1755 36.2985 17.4168 38.7737C18.8439 36.3607 20.2807 33.8757 21.8683 31.5698C23.6223 33.4327 25.8925 34.7078 27.7932 36.4119C27.568 33.894 27.7076 31.3719 27.6915 28.8488C30.3914 28.9595 33.1504 28.8693 35.8559 28.8723C34.1548 26.6301 32.4611 24.3836 30.8829 22.0444" stroke="#5E7BE0" stroke-width="5" stroke-miterlimit="1.5" stroke-linecap="round" stroke-linejoin="round"/>
</svg>
