<?xml version="1.0" standalone="no"?>
<!DOCTYPE svg PUBLIC "-//W3C//DTD SVG 20010904//EN"
 "http://www.w3.org/TR/2001/REC-SVG-20010904/DTD/svg10.dtd">
<svg version="1.0" xmlns="http://www.w3.org/2000/svg"
 width="1138.000000pt" height="1080.000000pt" viewBox="0 0 1138.000000 1080.000000"
 preserveAspectRatio="xMidYMid meet">

<g transform="translate(0.000000,1080.000000) scale(0.100000,-0.100000)"
fill="#000000" stroke="none">
<path d="M3497 9013 c18 -2 50 -2 70 0 21 2 7 4 -32 4 -38 0 -55 -2 -38 -4z"/>
<path d="M7808 9013 c7 -3 16 -2 19 1 4 3 -2 6 -13 5 -11 0 -14 -3 -6 -6z"/>
<path d="M3726 8945 c-15 -80 -5 -75 -131 -75 -119 0 -125 -2 -125 -51 0 -17
8 -19 98 -18 93 1 95 1 54 12 -24 7 -44 17 -45 22 -1 12 42 22 101 24 38 1 42
-1 42 -24 0 -13 -4 -46 -9 -72 -14 -70 -20 -149 -11 -132 8 14 70 306 70 329
0 10 -3 10 -14 1 -11 -10 -15 -8 -18 6 -2 10 -7 1 -12 -22z"/>
<path d="M4658 8956 c38 -50 23 -149 -29 -176 -20 -11 -19 -12 6 -41 31 -38
33 -89 5 -143 l-19 -39 23 22 c28 27 36 27 37 -1 0 -22 1 -22 10 2 10 24 60
264 72 343 4 22 2 35 -4 32 -5 -4 -9 -12 -9 -19 0 -7 -8 -21 -19 -30 -18 -16
-20 -15 -40 17 -12 19 -29 41 -38 48 -11 9 -9 3 5 -15z"/>
<path d="M5168 8949 c41 -47 48 -136 16 -200 -13 -26 -72 -83 -94 -91 -8 -2
-5 -15 10 -41 27 -45 32 -47 17 -6 -11 28 -10 32 28 64 22 19 45 34 52 35 6 0
15 -17 21 -37 l10 -38 1 31 c1 18 10 76 21 129 25 123 26 153 3 106 l-17 -34
-15 24 c-9 13 -29 38 -46 54 -18 19 -21 21 -7 4z"/>
<path d="M8545 8968 c-10 -28 -66 -330 -62 -334 2 -2 14 40 26 93 33 143 34
145 72 131 l31 -11 -5 -66 -5 -66 18 75 c11 41 17 76 14 79 -3 3 -21 4 -40 2
l-36 -3 7 56 c5 40 4 56 -4 56 -6 0 -14 -6 -16 -12z"/>
<path d="M4166 8918 l-8 -48 -118 0 c-109 0 -118 -1 -123 -20 -3 -11 -2 -21 1
-23 18 -7 204 5 193 13 -10 5 -4 10 18 15 37 8 53 34 49 78 -3 29 -5 28 -12
-15z"/>
<path d="M4206 8904 c-20 -64 -29 -85 -52 -124 -9 -16 -12 -36 -8 -55 3 -16 5
-59 4 -95 -1 -35 1 -62 4 -60 8 9 77 354 74 374 -2 11 -11 -7 -22 -40z"/>
<path d="M6181 8934 c0 -11 3 -14 6 -6 3 7 2 16 -1 19 -3 4 -6 -2 -5 -13z"/>
<path d="M6807 8903 c10 -25 13 -54 10 -88 -3 -32 -2 -43 3 -30 14 32 11 94
-5 125 -22 42 -27 37 -8 -7z"/>
<path d="M7050 8938 c0 -2 7 -26 16 -53 l17 -48 19 24 c10 13 23 32 29 42 10
17 9 18 -14 2 -24 -15 -26 -15 -46 11 -12 15 -21 25 -21 22z"/>
<path d="M6870 8917 c0 -13 52 -138 56 -134 2 2 -7 32 -21 67 -23 59 -35 82
-35 67z"/>
<path d="M5442 8890 c0 -14 2 -19 5 -12 2 6 2 18 0 25 -3 6 -5 1 -5 -13z"/>
<path d="M7722 8878 c-19 -19 -14 -56 9 -68 31 -17 71 12 67 48 -2 22 -9 28
-33 30 -17 2 -36 -3 -43 -10z"/>
<path d="M4386 8864 c-14 -38 -7 -44 49 -44 43 0 56 4 64 18 15 28 -5 42 -60
42 -33 0 -49 -5 -53 -16z"/>
<path d="M4914 8820 l-11 -50 52 0 c58 0 75 12 75 52 0 32 -24 48 -72 48 -33
0 -34 -2 -44 -50z"/>
<path d="M5736 8825 c-12 -77 -36 -157 -62 -210 l-25 -50 30 35 c17 19 35 51
41 70 13 46 33 191 27 196 -3 3 -8 -16 -11 -41z"/>
<path d="M6201 8863 c-1 -22 71 -318 80 -327 5 -5 13 2 19 18 13 35 53 257 47
262 -3 3 -8 -12 -12 -32 -3 -21 -16 -62 -27 -92 l-21 -55 -15 29 c-9 16 -28
70 -43 119 -15 50 -28 85 -28 78z"/>
<path d="M6537 8863 c-3 -5 -8 -27 -12 -51 l-7 -43 53 3 c46 3 55 7 68 30 14
24 14 28 -3 47 -19 21 -89 30 -99 14z"/>
<path d="M8327 8850 c3 -11 1 -32 -5 -48 -16 -42 -25 -109 -13 -97 7 7 41 140
41 163 0 1 -6 2 -14 2 -9 0 -12 -7 -9 -20z"/>
<path d="M5422 8796 c-19 -103 -16 -134 13 -148 59 -27 107 25 119 127 l5 50
-14 -49 c-25 -88 -65 -124 -100 -89 -15 14 -17 29 -12 95 4 43 5 78 3 78 -1 0
-8 -29 -14 -64z"/>
<path d="M7972 8813 c-1 -22 -11 -69 -21 -102 -21 -68 -20 -77 5 -30 12 24 18
28 24 19 6 -9 11 -1 16 24 4 24 3 41 -4 45 -6 3 -12 24 -15 46 l-4 40 -1 -42z"/>
<path d="M4112 8785 c-6 -22 -12 -51 -14 -65 -3 -24 -4 -24 -108 -25 l-105 0
-3 -27 c-3 -28 -2 -28 50 -27 29 1 82 4 118 8 56 5 61 7 36 14 l-30 8 25 12
c17 9 28 27 37 62 15 60 10 97 -6 40z"/>
<path d="M6016 8776 c-14 -24 -26 -47 -26 -50 0 -3 18 -6 40 -6 l40 0 -6 43
c-9 61 -18 64 -48 13z"/>
<path d="M5811 8740 c-54 -74 -125 -205 -79 -145 13 16 46 65 73 110 69 108
67 105 62 105 -3 0 -28 -31 -56 -70z"/>
<path d="M3660 8766 c0 -7 -3 -29 -6 -47 -10 -48 3 -32 14 19 6 24 6 42 1 42
-5 0 -9 -6 -9 -14z"/>
<path d="M7182 8741 c-32 -40 -52 -81 -52 -104 1 -7 7 3 15 21 8 19 29 52 46
73 17 22 29 42 27 44 -3 3 -19 -13 -36 -34z"/>
<path d="M6930 8765 c0 -5 5 -17 10 -25 5 -8 10 -10 10 -5 0 6 -5 17 -10 25
-5 8 -10 11 -10 5z"/>
<path d="M8221 8744 c0 -11 3 -14 6 -6 3 7 2 16 -1 19 -3 4 -6 -2 -5 -13z"/>
<path d="M6950 8715 c0 -5 5 -17 10 -25 5 -8 10 -10 10 -5 0 6 -5 17 -10 25
-5 8 -10 11 -10 5z"/>
<path d="M8591 8694 c0 -11 3 -14 6 -6 3 7 2 16 -1 19 -3 4 -6 -2 -5 -13z"/>
<path d="M4346 8669 c-3 -18 -5 -33 -4 -34 2 0 35 1 73 4 67 6 70 7 70 31 0
24 -3 25 -66 28 l-66 3 -7 -32z"/>
<path d="M6740 8680 c-14 -11 -31 -20 -38 -20 -10 0 -9 -7 3 -30 18 -35 25
-39 18 -9 -4 13 3 30 23 50 32 33 30 37 -6 9z"/>
<path d="M7618 8689 c18 -19 15 -29 -10 -29 -19 0 -20 -2 -8 -10 26 -17 103
-11 138 10 41 25 42 43 1 28 -29 -10 -73 -7 -114 8 -16 6 -18 5 -7 -7z"/>
<path d="M3434 8637 c-7 -35 1 -48 10 -13 4 17 14 26 34 28 27 3 27 4 -5 9
-29 5 -33 3 -39 -24z"/>
<path d="M4118 8625 c-4 -11 -9 -36 -12 -55 l-6 -35 15 40 c9 22 14 46 12 55
-2 11 -5 10 -9 -5z"/>
<path d="M4877 8623 c-2 -5 -7 -26 -11 -48 -5 -34 -5 -37 5 -20 19 31 32 35
56 19 l23 -14 -17 35 c-15 32 -45 47 -56 28z"/>
<path d="M6486 8615 c-3 -9 -6 -26 -6 -38 1 -20 2 -21 14 -4 17 21 25 21 49 0
19 -18 19 -17 5 17 -16 38 -51 52 -62 25z"/>
<path d="M8471 8604 c0 -11 3 -14 6 -6 3 7 2 16 -1 19 -3 4 -6 -2 -5 -13z"/>
<path d="M5899 8568 c-11 -22 -11 -22 7 -7 10 10 28 19 39 22 15 4 14 5 -7 6
-19 1 -31 -6 -39 -21z"/>
<path d="M6031 8586 c11 -9 69 -14 69 -6 0 6 -16 10 -37 10 -20 0 -34 -2 -32
-4z"/>
<path d="M3767 8503 c18 -2 50 -2 70 0 21 2 7 4 -32 4 -38 0 -55 -2 -38 -4z"/>
<path d="M6168 8503 c12 -2 30 -2 40 0 9 3 -1 5 -23 4 -22 0 -30 -2 -17 -4z"/>
<path d="M5292 8069 c-104 -18 -165 -65 -211 -159 l-26 -55 -3 -772 -3 -773
186 0 185 0 0 733 c0 698 1 735 18 750 28 26 192 24 215 -1 16 -17 17 -83 17
-750 l0 -732 190 0 190 0 0 740 c0 855 -15 760 124 760 140 0 126 86 126 -770
l0 -730 185 0 186 0 -3 768 c-4 872 1 824 -88 912 -66 67 -114 81 -296 87
-226 8 -318 -13 -392 -90 l-34 -35 -42 43 c-65 64 -111 77 -306 81 -91 1 -189
-1 -218 -7z"/>
<path d="M7170 8066 c-143 -32 -209 -111 -230 -278 -6 -50 -10 -362 -10 -780
l0 -698 190 0 190 0 0 295 0 295 135 0 135 0 0 -295 0 -295 190 0 191 0 -3
758 c-3 678 -5 762 -20 807 -38 112 -114 174 -239 195 -88 14 -460 11 -529 -4z
m396 -260 c11 -16 14 -77 14 -323 l0 -303 -135 0 -135 0 0 309 0 310 23 16
c17 13 42 16 120 13 84 -3 101 -6 113 -22z"/>
<path d="M9142 8069 c-103 -18 -167 -67 -211 -159 l-26 -55 -3 -772 -3 -773
186 0 185 0 0 733 c0 698 1 735 18 750 26 24 193 24 216 1 14 -14 16 -96 16
-750 l0 -734 190 0 190 0 0 688 c0 380 -5 729 -10 781 -16 153 -73 235 -192
279 -34 12 -93 16 -273 18 -126 2 -254 -1 -283 -7z"/>
<path d="M1500 7179 l0 -870 398 3 c356 3 401 5 437 21 79 36 114 67 148 136
l32 66 0 280 c0 269 -1 282 -22 321 -24 46 -82 100 -122 116 l-26 10 38 19
c49 26 93 88 108 152 7 33 10 116 8 222 -4 169 -4 171 -37 237 -25 51 -43 74
-79 97 -88 58 -110 61 -515 61 l-368 0 0 -871z m610 601 c19 -19 20 -33 20
-213 0 -249 8 -237 -146 -237 l-114 0 0 228 c0 126 3 232 7 235 3 4 53 7 110
7 90 0 106 -3 123 -20z m20 -730 c19 -19 20 -33 20 -229 0 -115 -3 -217 -6
-226 -11 -29 -53 -36 -166 -29 l-108 7 0 242 c0 133 3 245 7 248 3 4 57 7 120
7 100 0 115 -2 133 -20z"/>
<path d="M2790 7180 l0 -870 395 0 395 0 0 155 0 155 -210 0 -210 0 0 210 0
210 195 0 195 0 0 145 0 145 -97 0 c-54 0 -142 3 -195 7 l-98 6 0 204 0 203
210 0 210 0 0 150 0 150 -395 0 -395 0 0 -870z"/>
<path d="M3800 7180 l0 -870 186 2 185 3 -1 353 0 352 109 0 c99 0 111 -2 121
-19 6 -13 10 -143 10 -355 l0 -336 185 0 185 0 0 383 c0 349 -2 385 -19 422
-17 37 -61 84 -93 99 -10 5 -10 7 2 12 8 4 34 26 57 50 66 68 75 115 71 352
l-3 197 -33 67 c-25 51 -43 74 -79 97 -88 58 -110 61 -515 61 l-368 0 0 -870z
m610 600 c19 -19 20 -33 20 -238 0 -164 -3 -223 -13 -236 -14 -19 -50 -23
-179 -18 l-68 2 0 248 c0 137 3 252 7 255 3 4 53 7 110 7 90 0 106 -3 123 -20z"/>
<path d="M8240 7180 l0 -870 184 0 184 0 4 618 c1 339 2 731 0 870 l-4 252
-184 0 -184 0 0 -870z"/>
<path d="M5140 6000 c-215 -6 -246 -14 -308 -73 -86 -82 -108 -200 -99 -522 6
-224 17 -277 70 -347 20 -27 55 -54 92 -73 58 -30 62 -30 248 -35 172 -5 190
-7 203 -24 17 -24 21 -375 4 -407 -10 -17 -22 -19 -125 -19 -138 0 -135 -3
-135 139 l0 101 -180 0 -180 0 0 -87 c1 -270 66 -391 228 -429 71 -17 448 -19
524 -3 110 23 182 89 216 198 14 47 17 99 17 331 0 305 -6 348 -65 428 -63 87
-113 103 -348 111 -166 5 -185 8 -198 25 -22 30 -20 358 2 380 20 21 208 23
221 4 4 -7 10 -49 13 -93 l5 -80 179 -3 179 -2 -6 117 c-7 146 -26 209 -84
273 -78 87 -145 100 -473 90z"/>
<path d="M6169 5986 c-90 -32 -142 -84 -175 -171 -18 -47 -19 -97 -22 -812
l-2 -763 185 0 185 0 0 290 0 290 140 0 140 0 0 -290 0 -290 185 0 186 0 -3
768 c-3 730 -4 769 -22 812 -29 68 -69 113 -128 146 l-53 29 -290 2 c-220 2
-299 0 -326 -11z m435 -258 c14 -19 16 -67 16 -320 l0 -298 -140 0 -140 0 0
298 c0 253 2 301 16 320 14 20 23 22 124 22 101 0 110 -2 124 -22z"/>
<path d="M7462 5981 c-104 -36 -164 -123 -182 -262 -6 -51 -10 -355 -10 -781
l0 -698 190 0 190 0 0 733 c0 698 1 735 18 750 14 13 39 17 105 17 141 0 127
86 127 -770 l0 -730 185 0 185 0 0 730 c0 857 -14 770 128 770 73 0 92 -3 105
-18 16 -17 17 -83 17 -750 l0 -732 190 0 190 0 0 728 c0 855 -1 861 -92 951
-68 68 -99 76 -328 79 -191 3 -210 2 -264 -18 -35 -14 -73 -37 -95 -60 l-37
-39 -38 39 c-66 68 -116 80 -339 80 -160 -1 -201 -4 -245 -19z"/>
<path d="M9362 5985 c-97 -30 -153 -92 -183 -202 -18 -63 -19 -116 -19 -804
l0 -736 178 -5 c97 -3 180 -4 185 -1 4 2 7 134 7 294 l0 289 140 0 140 0 0
-290 0 -290 185 0 186 0 -3 773 c-3 759 -3 773 -24 817 -30 65 -69 107 -128
138 l-51 27 -285 2 c-219 2 -295 -1 -328 -12z m430 -252 c17 -15 18 -38 18
-320 l0 -304 -137 3 -138 3 0 301 c0 240 3 304 14 317 20 25 216 25 243 0z"/>
<path d="M1188 5788 c-1 -106 -2 -498 -2 -871 l-1 -678 400 3 c397 3 400 3
453 27 68 31 124 94 148 168 17 51 19 90 19 314 l0 255 -30 60 c-23 45 -43 67
-82 93 l-52 35 39 23 c86 51 116 157 107 371 -9 207 -43 290 -143 344 -76 41
-149 48 -516 48 l-338 0 -2 -192z m610 -80 c17 -17 17 -419 0 -436 -8 -8 -50
-12 -125 -12 l-113 0 0 230 0 230 113 0 c75 0 117 -4 125 -12z m22 -734 c10
-11 15 -73 18 -222 4 -201 4 -208 -18 -234 -21 -28 -23 -28 -141 -28 l-119 0
0 250 0 250 124 0 c100 0 126 -3 136 -16z"/>
<path d="M2470 5110 l0 -870 395 0 395 0 0 155 0 155 -205 0 -205 0 0 210 0
210 195 0 195 0 0 145 0 145 -195 0 -195 0 0 205 0 205 205 0 205 0 0 155 0
155 -395 0 -395 0 0 -870z"/>
<path d="M3488 5188 c-2 -436 -2 -828 0 -870 l4 -78 184 0 184 0 0 355 0 355
103 0 c67 0 107 -4 115 -12 9 -9 12 -102 12 -355 l0 -343 190 0 190 0 0 363
c0 407 -4 439 -62 493 -18 17 -41 36 -51 41 -15 8 -12 13 27 40 30 21 52 49
72 88 26 54 28 69 32 200 8 266 -24 386 -122 452 -80 55 -91 56 -498 60 l-377
4 -3 -793z m610 520 c9 -9 12 -75 12 -237 0 -195 -2 -227 -17 -243 -14 -15
-32 -18 -125 -18 l-108 0 0 255 0 255 113 0 c75 0 117 -4 125 -12z"/>
<path d="M8225 3800 c-4 -6 16 -10 52 -10 41 0 54 3 43 10 -20 13 -87 13 -95
0z"/>
<path d="M8375 3499 c-3 -13 -23 -112 -45 -219 -22 -107 -42 -206 -45 -220 -3
-14 1 -8 10 13 16 43 97 439 90 445 -2 3 -7 -6 -10 -19z"/>
<path d="M5393 3503 c9 -2 23 -2 30 0 6 3 -1 5 -18 5 -16 0 -22 -2 -12 -5z"/>
<path d="M5306 3479 c-47 -37 -26 -67 67 -94 75 -22 85 -14 12 9 -76 24 -96
68 -42 94 16 8 18 11 6 11 -9 1 -28 -8 -43 -20z"/>
<path d="M3604 3444 c-18 -14 -18 -15 4 -4 12 6 22 13 22 15 0 8 -5 6 -26 -11z"/>
<path d="M4372 3420 c0 -14 2 -19 5 -12 2 6 2 18 0 25 -3 6 -5 1 -5 -13z"/>
<path d="M4362 3370 c0 -14 2 -19 5 -12 2 6 2 18 0 25 -3 6 -5 1 -5 -13z"/>
<path d="M6505 3329 c-14 -27 -44 -79 -65 -115 -22 -35 -40 -67 -40 -69 0 -3
43 -5 96 -5 94 0 96 0 91 22 -4 12 -14 66 -23 120 -10 54 -21 98 -26 98 -4 0
-19 -23 -33 -51z m42 -88 c12 -60 7 -70 -40 -78 -50 -8 -57 14 -26 78 32 65
53 64 66 0z"/>
<path d="M3500 3329 c-7 -11 -10 -23 -7 -25 2 -2 9 7 15 21 14 30 7 33 -8 4z"/>
<path d="M4345 3300 c-4 -23 -5 -43 -2 -46 2 -3 7 14 11 37 4 23 5 44 2 46 -2
2 -7 -14 -11 -37z"/>
<path d="M3913 3263 c9 -2 23 -2 30 0 6 3 -1 5 -18 5 -16 0 -22 -2 -12 -5z"/>
<path d="M4725 3180 c-4 -23 -5 -44 -2 -46 3 -3 8 13 12 36 4 23 5 44 2 46 -3
3 -8 -13 -12 -36z"/>
<path d="M4705 3082 c-4 -24 -5 -46 -2 -49 8 -7 20 63 14 79 -2 7 -7 -6 -12
-30z"/>
<path d="M7594 3059 c8 -43 34 -79 65 -91 20 -7 19 -3 -13 32 -20 22 -36 49
-36 59 0 11 -5 23 -12 27 -8 5 -9 -2 -4 -27z"/>
<path d="M5225 3055 c31 -15 52 -20 56 -14 14 24 105 -27 96 -54 -6 -19 -56
-44 -65 -32 -4 6 -51 11 -110 11 -75 1 -100 -2 -92 -10 7 -7 59 -11 140 -11
117 0 131 2 150 21 39 38 6 64 -128 98 -85 23 -105 18 -47 -9z"/>
<path d="M3811 3054 c0 -11 3 -14 6 -6 3 7 2 16 -1 19 -3 4 -6 -2 -5 -13z"/>
<path d="M8243 2958 c-18 -37 -30 -68 -28 -68 8 0 66 121 63 129 -2 4 -17 -23
-35 -61z"/>
<path d="M3791 3002 c-6 -11 -25 -25 -42 -31 -41 -14 -35 -20 14 -13 29 3 38
9 43 29 8 31 -1 40 -15 15z"/>
<path d="M5801 2960 c-1 -8 -12 -39 -26 -68 -28 -61 -15 -61 16 -1 11 22 18
50 16 62 -2 12 -5 15 -6 7z"/>
<path d="M6620 2846 c0 -2 7 -6 15 -10 8 -3 15 -1 15 4 0 6 -7 10 -15 10 -8 0
-15 -2 -15 -4z"/>
<path d="M8164 2828 l-19 -23 23 19 c21 18 27 26 19 26 -2 0 -12 -10 -23 -22z"/>
<path d="M8079 2743 c-13 -16 -12 -17 4 -4 16 13 21 21 13 21 -2 0 -10 -8 -17
-17z"/>
<path d="M7840 2640 c-18 -12 -2 -12 25 0 13 6 15 9 5 9 -8 0 -22 -4 -30 -9z"/>
<path d="M5861 1184 c0 -11 3 -14 6 -6 3 7 2 16 -1 19 -3 4 -6 -2 -5 -13z"/>
<path d="M5702 1085 c0 -16 2 -22 5 -12 2 9 2 23 0 30 -3 6 -5 -1 -5 -18z"/>
<path d="M5996 1068 c3 -4 9 -8 15 -8 5 0 9 4 9 8 0 5 -7 9 -15 9 -8 0 -12 -4
-9 -9z"/>
<path d="M5387 992 c-26 -28 -24 -202 1 -225 22 -21 52 -22 77 -3 13 9 20 30
23 70 l4 56 -31 0 c-32 0 -42 -16 -16 -26 19 -8 19 -58 0 -74 -8 -7 -22 -10
-30 -6 -12 4 -15 24 -15 96 0 72 3 92 15 96 20 8 45 -13 45 -38 0 -22 23 -19
28 3 4 24 -37 69 -62 69 -13 0 -30 -8 -39 -18z"/>
<path d="M5520 880 c0 -109 2 -130 15 -130 13 0 15 21 15 130 0 109 -2 130
-15 130 -13 0 -15 -21 -15 -130z"/>
<path d="M5597 992 c-26 -29 -20 -54 29 -120 49 -65 52 -96 12 -90 -15 2 -24
11 -26 26 -4 30 -32 29 -32 -1 0 -53 75 -77 104 -35 24 34 20 49 -29 113 -50
64 -54 90 -15 90 18 0 26 -6 28 -22 4 -28 32 -31 32 -3 0 27 -35 60 -63 60
-13 0 -31 -8 -40 -18z"/>
<path d="M5747 992 c-24 -26 -25 -242 -2 -242 12 0 15 13 15 55 0 54 0 55 30
55 30 0 30 -1 30 -55 0 -42 3 -55 15 -55 12 0 15 19 15 110 0 97 -2 112 -20
130 -25 25 -62 26 -83 2z m62 -26 c7 -8 11 -27 9 -43 -2 -22 -9 -29 -30 -31
-26 -3 -28 -1 -28 36 0 21 3 42 7 45 11 11 30 8 42 -7z"/>
<path d="M5880 900 c0 -97 2 -112 20 -130 25 -25 62 -26 83 -2 24 26 25 242 2
242 -12 0 -15 -19 -15 -110 0 -90 -3 -112 -15 -116 -35 -14 -45 14 -45 122 0
86 -3 104 -15 104 -12 0 -15 -19 -15 -110z"/>
<path d="M5712 615 c0 -16 2 -22 5 -12 2 9 2 23 0 30 -3 6 -5 -1 -5 -18z"/>
<path d="M5738 623 c7 -3 16 -2 19 1 4 3 -2 6 -13 5 -11 0 -14 -3 -6 -6z"/>
<path d="M5663 561 c1 -23 31 -29 43 -9 5 7 3 8 -6 3 -8 -5 -18 -1 -26 10 -12
16 -13 16 -11 -4z"/>
<path d="M6654 85 c-14 -55 61 -103 96 -60 9 11 6 20 -19 44 -44 43 -69 48
-77 16z"/>
<path d="M6165 38 c-15 -22 -15 -23 20 -26 19 -2 50 -2 68 0 l32 3 -22 22
c-30 30 -77 30 -98 1z"/>
<path d="M5673 30 c-36 -14 -27 -20 29 -20 31 0 48 4 43 9 -17 15 -49 20 -72
11z"/>
</g>
</svg>
