<svg width="211" height="136" viewBox="0 0 211 136" fill="none" xmlns="http://www.w3.org/2000/svg">
<rect x="5.00012" y="18.5757" width="200.58" height="114.468" rx="15" fill="#C1E0B6"/>
<path d="M42.7188 24.6045C42.7188 29.533 38.7235 33.5283 33.795 33.5283C28.8665 33.5283 24.8712 29.533 24.8712 24.6045C24.8712 19.676 28.8665 15.6807 33.795 15.6807C38.7235 15.6807 42.7188 19.676 42.7188 24.6045Z" stroke="#55820C" stroke-width="3"/>
<path d="M21.8712 40.3974C21.8712 45.3259 17.8758 49.3212 12.9474 49.3212C8.01888 49.3212 4.02356 45.3259 4.02356 40.3974C4.02356 35.469 8.01888 31.4736 12.9474 31.4736C17.8758 31.4736 21.8712 35.469 21.8712 40.3974Z" stroke="#55820C" stroke-width="3"/>
<path d="M35.1379 54.9283C35.1379 57.7633 32.8396 60.0616 30.0045 60.0616C27.1695 60.0616 24.8712 57.7633 24.8712 54.9283C24.8712 52.0932 27.1695 49.7949 30.0045 49.7949C32.8396 49.7949 35.1379 52.0932 35.1379 54.9283Z" stroke="#55820C" stroke-width="3"/>
<path d="M26.1211 21.259C26.1211 22.3664 26.1211 23.4739 26.1211 24.5813C26.1211 25.9254 25.9033 27.4639 26.8594 25.2786C27.5071 23.7981 30.31 16.2573 29.0743 22.1613C28.6524 24.1769 27.7196 26.2003 27.5977 28.2729C27.5759 28.6433 27.8206 27.2972 27.8233 27.2884C28.2757 25.8304 29.0557 24.5135 29.628 23.1047C29.9877 22.2194 32.9348 16.7872 32.0275 20.3156C31.3882 22.8017 30.2106 25.0681 29.5255 27.5345C29.1185 28.9997 29.1424 28.2914 30.0177 27.1244C31.6263 24.9795 32.8958 22.7289 34.2014 20.3976C34.318 20.1893 35.3498 17.8418 35.3498 19.2081C35.3498 23.5613 32.2291 27.2732 31.3097 31.4106C31.1155 32.2844 31.0587 32.7292 31.7199 31.9028C33.2187 30.0293 34.7079 28.1013 36.0881 26.14C36.3953 25.7036 36.873 24.5977 37.2776 24.2942C38.6758 23.2456 36.5015 27.7102 35.9241 29.3598C35.6146 30.2441 35.3498 31.2112 35.3498 32.1489C35.3498 33.3667 35.1558 33.3871 35.801 32.2515C37.0435 30.0647 38.7521 27.5318 39.431 25.1556C39.7173 24.1535 39.7797 25.4337 39.7797 25.7503C39.7797 27.2294 39.4105 28.6438 39.4105 30.1186C39.4105 31.1068 39.8649 28.1939 40.1488 27.2474C40.5641 25.8633 41.2563 24.7578 41.2563 23.2893C41.2563 22.4425 39.7797 29.2509 39.7797 24.8685C39.7797 24.0518 40.303 20.9062 39.6976 20.2336C38.9128 19.3615 37.9331 21.2403 37.7493 21.6486C37.5591 22.0714 36.8265 24.4201 36.8265 24.1302C36.8265 22.854 37.0029 21.0663 36.0881 20.1515" stroke="#55820C" stroke-width="2" stroke-linecap="round"/>
<path d="M6.18704 34.9183C6.18704 38.3364 6.18704 41.7545 6.18704 45.1725C6.18704 46.3109 5.82891 49.4637 7.00738 46.8542C8.68584 43.1376 10.3566 39.469 11.8063 35.6566C12.3392 34.2553 13.2009 32.6128 13.2009 31.0833C13.2009 29.2929 12.7362 34.6437 12.278 36.3744C11.7586 38.3368 11.6377 40.4163 10.8219 42.2808C9.96587 44.2376 10.5897 40.5761 10.6374 39.7173C10.734 37.9777 11.0893 36.305 10.986 34.5492C10.8825 32.7898 8.41218 36.8872 8.31992 37.1332C7.55573 39.1711 6.5562 41.5672 6.5562 43.778C6.5562 44.2993 6.97195 42.1812 7.00738 42.0553C7.68784 39.6358 8.6002 37.2532 9.87856 35.0824C10.8344 33.4593 12.1082 32.4081 13.2009 31.0422C13.4197 30.7688 13.1553 36.6703 12.9958 37.4819C12.9521 37.7045 11.0058 45.0905 11.3552 45.0905C12.1318 45.0905 14.771 36.7533 15.1287 35.8207C15.3625 35.2112 16.978 31.3234 16.3182 34.057C15.3724 37.9753 15.0064 42.0109 14.1443 45.9518C13.9978 46.6215 13.9392 47.2603 13.9392 47.9412C13.9392 49.0234 13.9622 45.7677 14.1443 44.7008C14.2192 44.2623 15.448 39.4518 13.9187 40.312C11.3657 41.7481 10.3414 45.8289 9.96059 48.4949C9.87598 49.0872 9.42801 53.1027 10.3297 51.3661C11.9759 48.1957 13.6561 45.0858 14.6775 41.6451C15.0728 40.3135 16.0007 36.368 16.1541 37.7485C16.3645 39.642 16.1541 41.6651 16.1541 43.5729C16.1541 46.074 17.8376 38.859 18.5331 36.4565C18.9334 35.0737 19.4765 32.1701 19.4765 35.1644C19.4765 37.7119 19.5118 40.1432 19.8251 42.65C20.0355 44.3329 20.8394 40.6664 21.0351 40.2505C21.5719 39.11 20.1307 42.6184 19.4765 43.6959C19.0467 44.4039 19.1863 45.9048 18.1845 44.6803C17.56 43.9171 17.2616 41.9283 17.2616 43.778C17.2616 44.6393 17.2616 45.5007 17.2616 46.362" stroke="#55820C" stroke-width="2" stroke-linecap="round"/>
<path d="M27.5981 49.6836C27.5277 50.3175 24.8554 55.2406 25.4242 55.1593C26.3907 55.0213 29.6623 52.3662 29.813 51.1602C29.8812 50.6144 29.2256 52.974 28.7056 53.6622C28.2764 54.2302 27.8637 54.8348 27.4135 55.3849C27.3319 55.4847 26.51 56.2253 26.7163 56.3078C27.8644 56.7671 34.2864 50.2365 30.1822 55.1388C27.3336 58.5413 30.0449 55.2971 31.8434 54.298C32.3464 54.0185 28.7766 57.8474 28.7056 58.9124C28.7025 58.9592 30.318 57.8253 30.8384 57.5178C31.2406 57.2802 33.9365 55.7516 33.6276 56.3693C33.3424 56.9396 29.9179 61.8928 31.6588 59.2815" stroke="#55820C" stroke-width="2" stroke-linecap="round"/>
<path d="M30.3204 16.2539V20.2943" stroke="white" stroke-linecap="round"/>
<path d="M30.3196 16.254C30.3196 18.3266 30.3196 20.3991 30.3196 22.4716C30.3196 26.2805 28.9466 23.1458 27.4913 21.5289C26.4648 20.3883 25.0748 18.8711 26.0997 21.5065C26.5863 22.7579 27.808 24.0933 26.8628 21.9329C26.0055 19.9733 25.4841 21.9234 26.4813 22.9206C27.739 24.1783 25.6888 21.1473 25.763 21.1473C27.2004 21.1473 28.6922 23.501 30.0951 23.1001C31.1384 22.8021 28.5837 19.3928 28.7708 18.9251C29.0117 18.3228 31.9372 21.1536 32.5193 19.823C32.8327 19.1067 32.4858 15.6368 32.9234 16.0744C34.3061 17.4572 33.9559 16.2902 33.9559 14.4807C33.9559 12.4845 33.9559 17.306 33.9559 18.0048C33.9559 18.8335 35.2418 15.3275 35.5496 16.0969C35.7191 16.5205 34.5479 19.6212 35.6169 19.2394C36.186 19.0361 38.1632 16.7815 37.9738 18.2966C37.8966 18.9139 36.6026 21.4835 36.6046 21.484C37.0341 21.6067 38.1928 20.6705 38.3105 20.7882C39.0809 21.5585 38.0631 21.8194 39.6124 21.9105C40.3117 21.9516 39.1879 23.374 40.0164 23.0328C40.2041 22.9555 42.3596 21.7898 41.9468 22.7186C41.7584 23.1425 40.32 25.4455 40.9143 23.8409C41.0651 23.4337 43.4229 19.8319 42.0366 21.5962C41.6169 22.1304 39.2083 25.7661 39.2083 25.5468C39.2083 24.9465 40.57 22.9307 39.9266 22.4043C38.8095 21.4903 35.8337 23.4132 35.2578 24.3347C35.0544 24.6601 35.2198 22.9337 35.2578 22.7186C35.3086 22.4307 36.0859 21.0163 35.8863 20.7882C35.5648 20.4208 33.7232 23.6088 33.4621 23.8409C33.3147 23.9719 33.5519 18.2224 33.5519 17.5559C33.5519 16.0769 31.695 20.0365 31.5317 21.5065C31.4864 21.9142 30.9797 21.5364 30.6338 22.3145C29.4753 24.9213 28.2483 21.9105 26.2792 21.9105" stroke="white" stroke-linecap="round"/>
<path d="M27.896 26.7586C27.896 28.1802 27.2602 32.295 27.896 31.0234C28.0746 30.6662 29.2428 26.2424 29.4223 26.4444C29.8461 26.9211 29.2849 30.5081 31.0385 29.9011C32.2333 29.4875 33.9565 25.5922 33.9565 27.9707C33.9565 29.5811 34.0968 30.6338 35.0788 28.7788C35.3701 28.2285 36.4395 28.9633 37.1888 27.8809C39.1599 25.0337 37.487 28.7357 38.7151 28.5992C39.4667 28.5157 40.017 24.0265 40.017 26.7586" stroke="white" stroke-linecap="round"/>
<path d="M8.09835 31.6076C8.09835 33.0666 8.09835 34.5256 8.09835 35.9846C8.09835 37.809 9.0106 32.4455 9.28801 30.6424C9.56186 28.8623 10.3477 32.6968 10.5226 33.1339C11.4931 35.5602 12.3797 33.5356 12.9468 32.1014C13.8095 29.919 13.7548 32.9732 13.7548 34.0093C13.7548 36.3115 14.4882 33.147 14.7649 32.483C14.9421 32.0576 14.9669 34.7442 14.9669 35.2439C14.9669 35.3991 15.6043 32.5952 16.0893 32.5952C16.2628 32.5952 16.179 34.7106 16.179 34.997C16.179 36.1134 18.1662 31.6259 18.5808 32.6625C18.7116 32.9894 18.3015 35.0638 19.0073 34.75C20.8086 33.9495 21.0275 33.7837 21.0275 36.0519C21.0275 43.1073 21.3533 30.9269 18.4237 32.2585C16.961 32.9233 16.8062 35.2371 16.0893 36.456C15.6193 37.2548 13.0695 33.9137 12.5427 33.6277C10.5783 32.5613 11.0803 34.7266 10.7246 36.007C10.1465 38.0883 9.75255 34.7605 8.90642 33.6726C7.5051 31.8709 7.69432 33.3903 7.69432 34.8398C7.69432 36.972 6.59041 35.3038 5.67414 34.4358C3.29653 32.1833 6.0498 40.4388 3.45195 39.2842C1.73403 38.5207 3.44978 40.2025 3.96822 40.9004C5.52625 42.9977 4.01723 40.7282 2.8459 40.0923C0.812191 38.9883 2.52529 39.9305 3.45195 40.2719C5.17806 40.9078 5.95006 38.5603 6.25775 37.2416C6.46264 36.3635 5.96893 33.0158 7.60453 34.5256C8.9968 35.8108 9.31046 35.4231 9.31046 33.5379C9.31046 31.2465 9.66187 32.9555 10.1185 34.2113C10.9062 36.3775 11.3161 31.9851 11.3531 31.6524C11.4894 30.4251 14.1589 32.9415 14.1589 33.2237" stroke="white" stroke-linecap="round"/>
<path d="M7.69348 42.1123C7.69348 43.4291 7.69348 44.746 7.69348 46.0628C7.69348 47.6949 7.8089 43.3001 7.8955 42.7632C8.55091 38.6997 7.99413 42.7789 8.09752 44.5365C8.16993 45.7676 9.34137 43.4383 9.39941 43.3244C10.1937 41.7653 11.0493 39.7245 12.1379 38.3637C12.4678 37.9513 11.7514 44.8267 13.1255 41.6858C14.889 37.655 12.9777 42.9935 14.4723 41.6185C16.6746 39.5923 11.4009 43.6292 11.3522 43.4591C10.945 42.0337 12.6707 36.4669 10.2075 39.6881C7.58758 43.1141 12.7517 39.7663 13.6642 39.8676C13.8552 39.8889 12.9521 41.5044 12.8561 41.7082C12.4785 42.5107 14.7054 42.1128 15.1232 41.8878C16.0583 41.3843 16.4399 41.3279 15.9313 42.7408C15.5023 43.9325 13.7253 47.2224 13.9336 45.9731C14.2304 44.1922 16.5862 41.6442 17.7046 40.2717C17.9726 39.9427 19.1498 38.0493 18.984 39.1269C18.6895 41.0415 17.3042 42.682 16.5822 44.4467C16.0202 45.8205 16.0155 45.5619 16.4027 44.2896C16.5551 43.7887 17.3119 41.0358 17.3679 41.3715C17.489 42.0984 16.9863 44.2857 16.9863 43.5488C16.9863 42.0974 17.4487 38.6225 14.7865 40.3166C12.7449 41.6158 15.0539 38.1637 13.0357 40.1819C10.4909 42.7267 12.1513 37.6142 12.5419 36.0518" stroke="white" stroke-linecap="round"/>
<path d="M26.2792 50.1931C26.2792 51.1808 26.0303 54.1057 26.3016 53.156C26.6294 52.0088 27.8953 48.2509 27.8953 48.2627C27.8953 48.9408 26.9785 53.2838 27.7157 51.8093C28.9826 49.2756 28.9069 51.7777 29.085 53.3805C29.3607 55.862 30.3197 52.4163 30.7236 51.5848C31.6702 49.6358 30.9221 53.1664 31.15 53.9641C31.1849 54.086 32.5155 51.0049 32.7437 50.7767C32.9876 50.5328 32.6366 51.6921 32.9682 51.7868C33.6862 51.992 33.743 52.4008 33.8661 53.2009C33.9292 53.6114 34.3599 58.5362 34.3599 56.2312C34.3599 54.4816 34.1273 53.3852 33.6416 55.7598C33.3274 57.2961 33.1478 59.1784 33.1478 56.4557C33.1478 53.1606 32.8125 54.889 32.3397 57.0168C31.7756 59.5554 31.9357 55.403 31.9357 54.7273C31.9357 52.8888 30.9246 54.5181 30.5215 55.2435C29.9575 56.2588 29.5566 53.0015 28.7034 52.5275C27.5788 51.9028 27.0873 52.949 27.0873 51.4052" stroke="white" stroke-linecap="round"/>
<path d="M23.687 23.963C23.687 24.9448 23.75 28.6413 23.8001 28.5412C24.7285 26.6843 24.1957 26.065 24.1957 28.5412C24.1957 31.6011 24.1985 29.1971 23.1783 27.6368C21.6805 25.346 22.6085 27.949 22.6696 29.0499C22.7425 30.3616 20.6349 30.3169 20.6349 30.0672C20.6349 27.7692 23.9595 26.5977 24.1957 24.4717C24.2632 23.8643 24.5211 20.8444 24.8175 20.5152C25.2762 20.0055 28.9187 18.061 27.7 17.8869C25.7424 17.6073 23.592 18.7793 25.7783 17.3217C26.6038 16.7714 29.1961 14.2979 30.0457 14.2979C32.6398 14.2979 35.2026 15.8239 37.676 15.8239C39.3907 15.8239 39.2489 19.9437 39.4282 21.1086C39.6801 22.7464 41.7759 21.1234 41.9716 22.4934C42.2398 24.3709 42.0607 28.5108 45.052 27.0151" stroke="white" stroke-linecap="round"/>
<path d="M2.32126 42.2753C2.32126 44.2527 1.92247 46.6556 2.34952 48.5774C2.68084 50.0683 5.83077 46.1408 5.88209 47.4752C5.89593 47.8351 5.94321 52.4411 6.39078 51.6578C7.67903 49.4034 4.6109 50.0462 3.87559 51.1491C2.4173 53.3366 5.2761 46.0329 5.3734 43.4057C5.43108 41.8484 4.75047 41.3269 3.11256 41.7949C2.38873 42.0017 7.65501 39.2903 5.3734 39.2232C2.95306 39.152 0.0449576 40.2597 1.30388 37.0754C2.54551 33.9348 4.26729 33.6276 7.40816 33.6276C9.69658 33.6276 11.4868 31.8686 12.382 29.6711C13.4973 26.9335 8.81774 32.4219 8.48206 33.345C7.51458 36.0056 14.9609 33.8053 15.9994 33.4015C18.4251 32.4581 17.3273 36.9916 16.9602 38.0927C16.1695 40.4649 17.8363 40.2405 19.8711 40.2405C20.7978 40.2405 23.3278 41.3903 24.0819 40.6362C24.2388 40.4793 24.0891 38.9462 24.5906 39.3362C25.2179 39.8241 25.2123 39.4588 25.2123 38.7145" stroke="white" stroke-linecap="round"/>
<path d="M24.4665 51.825C24.4665 52.9957 24.1392 54.6437 25.9013 54.1402C27.2967 53.7415 26.4155 51.1004 25.51 53.7163C24.5972 56.3533 25.4787 55.766 27.1078 54.4989C28.1735 53.67 29.9717 53.6916 31.1839 52.9989C32.2455 52.3923 31.3693 52.2788 32.6838 51.6946C34.5775 50.8529 34.1575 50.4527 32.3904 51.238C30.5495 52.0562 31.7402 53.2167 32.6838 53.7163C33.9556 54.3896 33.8577 55.8952 33.8577 57.1075" stroke="white" stroke-linecap="round"/>
</svg>
