<svg width="334" height="189" viewBox="0 0 334 189" fill="none" xmlns="http://www.w3.org/2000/svg">
<rect width="330" height="185" rx="15" fill="#E7B4B4"/>
<path d="M288.449 181.456C291.89 188.169 301.321 187.605 305.606 186.483M288.449 181.456C292.923 181.359 302.619 182.23 305.606 186.483M288.449 181.456L292.321 174.958M313.78 138.948L328.311 131.705M313.78 138.948L292.321 174.958M313.78 138.948C314.914 138.903 316.398 138.907 318.03 139.002M328.311 131.705L330.865 142.943M328.311 131.705L329.89 129M330.865 142.943C324.936 153.164 314.83 170.583 309.371 179.993M330.865 142.943C329.874 141.832 328.289 141.01 326.443 140.41M305.606 186.483C305.606 186.483 307.079 183.945 309.371 179.993M309.371 179.993C308.434 179.271 306.946 178.324 305.099 177.438M292.321 174.958C293.967 174.748 295.609 174.789 297.196 175.001M297.196 175.001L318.03 139.002M297.196 175.001C298.699 175.201 300.152 175.556 301.511 175.997M318.03 139.002C319.392 139.081 320.857 139.223 322.307 139.453M301.511 175.997L322.307 139.453M301.511 175.997C302.806 176.418 304.015 176.917 305.099 177.438M322.307 139.453C323.738 139.679 325.154 139.99 326.443 140.41M305.099 177.438L326.443 140.41" stroke="#815454" stroke-width="2.5"/>
</svg>
