<svg width="330" height="212" viewBox="0 0 330 212" fill="none" xmlns="http://www.w3.org/2000/svg">
<rect y="27" width="315" height="185" rx="15" fill="#F4E8BB"/>
<path d="M265.774 14.0395L272.533 4.87237L278.307 14.5405L290.813 17.5444L281.785 25.5219L281.492 37.3845C280.056 36.5821 275.303 33.172 273.106 31.5672L256.294 38.1053C253.67 38.3729 259.307 29.8776 262.453 25.5965C262.695 24.982 256.464 20.1812 253.318 17.8576C252.354 16.4131 261.22 14.7103 265.774 14.0395Z" stroke="#E9C852" stroke-width="4"/>
<path d="M295.472 29.7999L299 25.0121L302.012 30.0594L308.537 31.6259L303.824 35.7929L303.67 41.987C302.921 41.5683 300.441 39.7885 299.295 38.9509L290.521 42.3676C289.152 42.5077 292.095 38.0709 293.737 35.835C293.864 35.5141 290.613 33.0084 288.972 31.7956C288.469 31.0415 293.096 30.1509 295.472 29.7999Z" stroke="#E9C852" stroke-width="4"/>
<path d="M312.608 48.4441L314.871 45.3923L316.826 48.6268L321.037 49.645L318.009 52.2969L317.926 56.2565C317.441 55.9869 315.838 54.8427 315.097 54.3042L309.448 56.466C308.565 56.5521 310.452 53.7232 311.505 52.2979C311.586 52.0931 309.483 50.4828 308.422 49.7033C308.096 49.2199 311.077 48.6624 312.608 48.4441Z" stroke="#E9C852" stroke-width="4"/>
<path d="M297.133 55.5952L299.396 52.5434L301.351 55.7779L305.563 56.7962L302.535 59.448L302.451 63.4076C301.967 63.138 300.363 61.9938 299.622 61.4554L293.973 63.6171C293.091 63.7032 294.977 60.8743 296.03 59.449C296.111 59.2442 294.009 57.6339 292.947 56.8544C292.621 56.371 295.602 55.8135 297.133 55.5952Z" stroke="#E9C852" stroke-width="4"/>
</svg>
