<svg width="212" height="137" viewBox="0 0 212 137" fill="none" xmlns="http://www.w3.org/2000/svg">
<path d="M5 36C5 27.7157 11.7157 21 20 21H190.583C198.867 21 205.583 27.7157 205.583 36V120.47C205.583 128.754 198.867 135.47 190.583 135.47H20C11.7157 135.47 5 128.754 5 120.47V36Z" fill="#F4E8BB"/>
<path d="M170.502 9.93995L174.806 4.10259L178.483 10.259L186.446 12.1718L180.697 17.2516L180.511 24.8053C179.596 24.2944 176.57 22.123 175.171 21.1011L164.465 25.2644C162.794 25.4347 166.384 20.0252 168.387 17.2991C168.542 16.9078 164.574 13.8508 162.57 12.3712C161.957 11.4514 167.602 10.3671 170.502 9.93995Z" stroke="#E9C852" stroke-width="4"/>
<path d="M189.413 19.9758L191.66 16.927L193.578 20.141L197.733 21.1385L194.732 23.7919L194.633 27.7362C194.156 27.4696 192.577 26.3362 191.848 25.8029L186.261 27.9785C185.389 28.0677 187.263 25.2425 188.309 23.8187C188.389 23.6144 186.319 22.0188 185.274 21.2466C184.954 20.7664 187.9 20.1993 189.413 19.9758Z" stroke="#E9C852" stroke-width="4"/>
<path d="M200.324 31.8478L201.765 29.9045L203.01 31.9642L205.692 32.6125L203.763 34.3012L203.71 36.8225C203.402 36.6509 202.381 35.9222 201.909 35.5794L198.312 36.956C197.75 37.0108 198.951 35.2094 199.622 34.3018C199.673 34.1714 198.334 33.146 197.658 32.6496C197.451 32.3418 199.349 31.9868 200.324 31.8478Z" stroke="#E9C852" stroke-width="4"/>
<path d="M190.471 36.4015L191.912 34.4582L193.157 36.5178L195.839 37.1662L193.91 38.8548L193.857 41.3762C193.549 41.2045 192.528 40.4759 192.056 40.133L188.459 41.5096C187.897 41.5644 189.098 39.763 189.769 38.8555C189.82 38.7251 188.481 37.6997 187.805 37.2033C187.598 36.8955 189.496 36.5405 190.471 36.4015Z" stroke="#E9C852" stroke-width="4"/>
</svg>
