<svg width="211" height="135" viewBox="0 0 211 135" fill="none" xmlns="http://www.w3.org/2000/svg">
<rect x="5" y="19" width="200.58" height="114.47" rx="15" fill="#E7B4B4"/>
<path d="M180.237 129.79C182.469 133.859 188.585 133.517 191.365 132.837M180.237 129.79C183.139 129.732 189.428 130.259 191.365 132.837M180.237 129.79L182.748 125.852M196.667 104.029L206.091 99.6395M196.667 104.029L182.748 125.852M196.667 104.029C197.402 104.002 198.364 104.004 199.423 104.061M206.091 99.6395L207.748 106.45M206.091 99.6395L207.115 98.0001M207.748 106.45C203.902 112.644 197.347 123.201 193.807 128.904M207.748 106.45C207.105 105.777 206.077 105.279 204.879 104.915M191.365 132.837C191.365 132.837 192.32 131.299 193.807 128.904M193.807 128.904C193.199 128.466 192.234 127.892 191.036 127.355M182.748 125.852C183.816 125.725 184.881 125.75 185.91 125.878M185.91 125.878L199.423 104.061M185.91 125.878C186.885 126 187.828 126.215 188.709 126.482M199.423 104.061C200.306 104.109 201.256 104.196 202.197 104.335M188.709 126.482L202.197 104.335M188.709 126.482C189.549 126.737 190.333 127.04 191.036 127.355M202.197 104.335C203.125 104.472 204.043 104.661 204.879 104.915M191.036 127.355L204.879 104.915" stroke="#815454" stroke-width="2.5"/>
</svg>
