<svg width="334" height="222" viewBox="0 0 334 222" fill="none" xmlns="http://www.w3.org/2000/svg">
<rect x="70.8984" width="192" height="33" fill="#FFFDF5"/>
<rect y="33" width="330" height="185" rx="15" fill="#E7B4B4"/>
<path d="M288.449 214.456C291.89 221.169 301.321 220.605 305.606 219.483M288.449 214.456C292.923 214.359 302.619 215.23 305.606 219.483M288.449 214.456L292.321 207.958M313.78 171.948L328.311 164.705M313.78 171.948L292.321 207.958M313.78 171.948C314.914 171.903 316.398 171.907 318.03 172.002M328.311 164.705L330.865 175.943M328.311 164.705L329.89 162M330.865 175.943C324.936 186.164 314.83 203.583 309.371 212.993M330.865 175.943C329.874 174.832 328.289 174.01 326.443 173.41M305.606 219.483C305.606 219.483 307.079 216.945 309.371 212.993M309.371 212.993C308.434 212.271 306.946 211.324 305.099 210.438M292.321 207.958C293.967 207.748 295.609 207.789 297.196 208.001M297.196 208.001L318.03 172.002M297.196 208.001C298.699 208.201 300.152 208.556 301.511 208.997M318.03 172.002C319.392 172.081 320.857 172.223 322.307 172.453M301.511 208.997L322.307 172.453M301.511 208.997C302.806 209.418 304.015 209.917 305.099 210.438M322.307 172.453C323.738 172.679 325.154 172.99 326.443 173.41M305.099 210.438L326.443 173.41" stroke="#815454" stroke-width="2.5"/>
</svg>
