<svg width="333" height="222" viewBox="0 0 333 222" fill="none" xmlns="http://www.w3.org/2000/svg">
<rect x="3" y="34" width="330" height="185" rx="15" fill="#C1E0B6"/>
<circle cx="52.5" cy="17.5" r="15" stroke="#55820C" stroke-width="3"/>
<circle cx="19.5" cy="42.5" r="15" stroke="#55820C" stroke-width="3"/>
<circle cx="46.5" cy="65.5" r="9" stroke="#55820C" stroke-width="3"/>
<path d="M40.3521 12.2051C40.3521 13.9581 40.3521 15.7111 40.3521 17.4641C40.3521 19.5916 40.0074 22.0269 41.5208 18.5678C42.5461 16.2243 46.9829 4.28786 45.0268 13.6334C44.359 16.824 42.8824 20.0267 42.6895 23.3074C42.655 23.8937 43.0423 21.763 43.0466 21.7492C43.7628 19.4413 44.9974 17.3567 45.9033 15.1267C46.4727 13.7253 51.1377 5.12659 49.7015 10.7118C48.6895 14.6471 46.8255 18.2345 45.741 22.1388C45.0968 24.4579 45.1346 23.3369 46.5201 21.4895C49.0664 18.0944 51.076 14.5319 53.1426 10.8416C53.3272 10.5119 54.9605 6.79595 54.9605 8.95876C54.9605 15.8495 50.0207 21.725 48.5653 28.2743C48.2579 29.6574 48.168 30.3615 49.2145 29.0534C51.5871 26.0877 53.9444 23.036 56.1292 19.9313C56.6153 19.2405 57.3715 17.49 58.012 17.0096C60.2253 15.3497 56.7834 22.4167 55.8695 25.028C55.3795 26.4278 54.9605 27.9586 54.9605 29.443C54.9605 31.3705 54.6533 31.4029 55.6747 29.6053C57.6415 26.1437 60.346 22.1345 61.4206 18.3731C61.8738 16.7869 61.9725 18.8133 61.9725 19.3145C61.9725 21.6557 61.3882 23.8946 61.3882 26.2291C61.3882 27.7933 62.1074 23.1825 62.5569 21.6843C63.2142 19.4933 64.3099 17.7434 64.3099 15.4189C64.3099 14.0785 61.9725 24.8556 61.9725 17.9186C61.9725 16.6259 62.801 11.6467 61.8427 10.5819C60.6003 9.2015 59.0495 12.1755 58.7587 12.8219C58.4575 13.491 57.2978 17.2089 57.2978 16.7499C57.2978 14.7298 57.5771 11.9 56.1292 10.4521" stroke="#55820C" stroke-width="2" stroke-linecap="round"/>
<path d="M8.79781 33.8256C8.79781 39.2361 8.79781 44.6466 8.79781 50.0571C8.79781 51.8591 8.23091 56.8496 10.0963 52.7191C12.7532 46.836 15.3978 41.029 17.6927 34.9942C18.5362 32.7761 19.9002 30.1761 19.9002 27.755C19.9002 24.921 19.1645 33.3908 18.4393 36.1304C17.6171 39.2367 17.4257 42.5283 16.1345 45.4798C14.7794 48.5772 15.7668 42.7813 15.8423 41.4219C15.9953 38.6682 16.5577 36.0205 16.3942 33.2412C16.2303 30.4562 12.32 36.9421 12.174 37.3316C10.9643 40.5573 9.38215 44.3501 9.38215 47.8496C9.38215 48.6748 10.0403 45.3221 10.0963 45.1227C11.1734 41.293 12.6176 37.5214 14.6412 34.0853C16.1542 31.516 18.1705 29.8521 19.9002 27.69C20.2464 27.2572 19.8279 36.5988 19.5755 37.8834C19.5063 38.2359 16.4255 49.9272 16.9785 49.9272C18.2079 49.9272 22.3855 36.7301 22.9517 35.2539C23.3218 34.2891 25.879 28.1351 24.8346 32.4621C23.3375 38.6644 22.7581 45.0526 21.3935 51.2907C21.1616 52.3506 21.0688 53.3619 21.0688 54.4396C21.0688 56.1527 21.1052 50.9991 21.3935 49.3104C21.512 48.6163 23.4571 41.0017 21.0364 42.3633C16.9952 44.6365 15.3739 51.0961 14.771 55.3161C14.6371 56.2536 13.928 62.6099 15.3553 59.8609C17.961 54.8425 20.6206 49.9198 22.2375 44.4734C22.8633 42.3657 24.3321 36.1202 24.5749 38.3055C24.9079 41.3027 24.5749 44.5051 24.5749 47.525C24.5749 51.4841 27.2397 40.0633 28.3406 36.2603C28.9742 34.0714 29.8339 29.4754 29.8339 34.2151C29.8339 38.2476 29.8897 42.0961 30.3857 46.0641C30.7187 48.7281 31.9913 42.9242 32.3011 42.266C33.1507 40.4606 30.8694 46.0142 29.8339 47.7197C29.1535 48.8404 29.3745 51.2162 27.7887 49.278C26.8003 48.0699 26.3279 44.9217 26.3279 47.8496C26.3279 49.213 26.3279 50.5765 26.3279 51.9399" stroke="#55820C" stroke-width="2" stroke-linecap="round"/>
<path d="M42.6898 57.199C42.5783 58.2024 38.3483 65.9952 39.2487 65.8666C40.7785 65.6481 45.9572 61.4454 46.1958 59.5363C46.3038 58.6724 45.2659 62.4074 44.4428 63.4968C43.7634 64.3959 43.1101 65.3528 42.3976 66.2237C42.2684 66.3816 40.9674 67.554 41.2939 67.6845C43.1112 68.4115 53.2768 58.0743 46.7801 65.8341C42.2711 71.2199 46.5629 66.0847 49.4096 64.5032C50.2059 64.0608 44.5552 70.1216 44.4428 71.8074C44.4378 71.8815 46.9951 70.0867 47.8189 69.5999C48.4555 69.2237 52.7229 66.8041 52.2339 67.7819C51.7826 68.6846 46.3618 76.5252 49.1175 72.3917" stroke="#55820C" stroke-width="2" stroke-linecap="round"/>
<path d="M47 4.28223V10.6778" stroke="white" stroke-linecap="round"/>
<path d="M46.9985 4.28225C46.9985 7.56292 46.9985 10.8436 46.9985 14.1243C46.9985 20.1533 44.8251 15.1914 42.5217 12.632C40.8967 10.8265 38.6965 8.42491 40.3187 12.5964C41.0891 14.5774 43.0229 16.6912 41.5268 13.2715C40.1697 10.1696 39.3443 13.2564 40.9228 14.8349C42.9136 16.8257 39.6684 12.0279 39.7858 12.0279C42.0611 12.0279 44.4225 15.7536 46.6432 15.1191C48.2946 14.6473 44.2508 9.25073 44.5469 8.5104C44.9283 7.55694 49.559 12.0379 50.4805 9.93163C50.9766 8.79782 50.4274 3.30532 51.1201 3.998C53.3088 6.18676 52.7545 4.33947 52.7545 1.47532C52.7545 -1.68454 52.7545 5.94741 52.7545 7.05364C52.7545 8.36534 54.79 2.81565 55.2772 4.03353C55.5454 4.70416 53.6916 9.61218 55.3838 9.00783C56.2846 8.68612 59.4143 5.11724 59.1145 7.51554C58.9924 8.49256 56.944 12.56 56.9471 12.5609C57.6271 12.7552 59.4612 11.2732 59.6475 11.4595C60.8669 12.6789 59.2559 13.0917 61.7082 13.236C62.8152 13.3011 61.0363 15.5525 62.3478 15.0125C62.6448 14.8902 66.0569 13.0449 65.4034 14.5151C65.1052 15.1862 62.8283 18.8316 63.769 16.2916C64.0077 15.6471 67.7399 9.94574 65.5456 12.7386C64.8812 13.5841 61.0687 19.339 61.0687 18.992C61.0687 18.0418 63.224 14.8509 62.2057 14.0177C60.4374 12.5709 55.7269 15.6146 54.8153 17.0733C54.4933 17.5884 54.7552 14.8557 54.8153 14.5151C54.8957 14.0594 56.1262 11.8206 55.8101 11.4595C55.3013 10.8779 52.3861 15.9243 51.9728 16.2916C51.7396 16.499 52.1149 7.398 52.1149 6.34303C52.1149 4.00183 49.1757 10.2696 48.9172 12.5964C48.8455 13.2419 48.0434 12.6438 47.496 13.8755C45.6621 18.0018 43.7199 13.236 40.603 13.236" stroke="white" stroke-linecap="round"/>
<path d="M43.1621 20.9107C43.1621 23.1609 42.1558 29.6742 43.1621 27.6615C43.4449 27.096 45.2941 20.0936 45.5782 20.4132C46.249 21.1679 45.3607 26.8458 48.1364 25.885C50.0278 25.2302 52.7554 19.0643 52.7554 22.8293C52.7554 25.3785 52.9775 27.0447 54.5319 24.1084C54.9931 23.2374 56.6858 24.4004 57.8718 22.6872C60.992 18.1803 58.344 24.0402 60.2879 23.8242C61.4775 23.692 62.3487 16.586 62.3487 20.9107" stroke="white" stroke-linecap="round"/>
<path d="M11.823 28.5854C11.823 30.8949 11.823 33.2044 11.823 35.5139C11.823 38.4017 13.267 29.9118 13.7061 27.0576C14.1396 24.2399 15.3836 30.3096 15.6603 31.0015C17.1966 34.8421 18.6001 31.6373 19.4977 29.3671C20.8634 25.9126 20.7768 30.747 20.7768 32.3872C20.7768 36.0313 21.9376 31.0223 22.3756 29.9711C22.6562 29.2978 22.6954 33.5504 22.6954 34.3414C22.6954 34.5871 23.7042 30.1487 24.472 30.1487C24.7466 30.1487 24.6141 33.4972 24.6141 33.9505C24.6141 35.7178 27.7595 28.6145 28.4159 30.2553C28.6228 30.7728 27.9737 34.0563 29.0909 33.5597C31.9423 32.2924 32.2887 32.0301 32.2887 35.6205C32.2887 46.7885 32.8044 27.5079 28.1671 29.6158C25.8519 30.6682 25.6069 34.3307 24.472 36.26C23.7281 37.5245 19.692 32.2358 18.8581 31.7831C15.7486 30.0951 16.5431 33.5225 15.9801 35.5494C15.065 38.8439 14.4415 33.5762 13.1021 31.8542C10.8839 29.0023 11.1835 31.4073 11.1835 33.7018C11.1835 37.0769 9.43607 34.4363 7.9857 33.0623C4.22215 29.4968 8.58034 42.5645 4.46816 40.7369C1.74884 39.5283 4.46473 42.1904 5.28537 43.2951C7.7516 46.615 5.36295 43.0225 3.50883 42.016C0.289646 40.2684 3.00133 41.7598 4.46816 42.3002C7.20044 43.3069 8.42245 39.5909 8.9095 37.5036C9.23383 36.1136 8.45232 30.8145 11.0413 33.2044C13.2452 35.2387 13.7417 34.625 13.7417 31.641C13.7417 28.0138 14.2979 30.7191 15.0208 32.7069C16.2676 36.1358 16.9165 29.1831 16.975 28.6564C17.1908 26.7137 21.4163 30.697 21.4163 31.1436" stroke="white" stroke-linecap="round"/>
<path d="M11.1836 45.2139C11.1836 47.2984 11.1836 49.3828 11.1836 51.4673C11.1836 54.0507 11.3663 47.0941 11.5034 46.2443C12.5408 39.812 11.6595 46.2691 11.8231 49.0512C11.9378 50.9999 13.7921 47.3129 13.8839 47.1326C15.1412 44.6647 16.4955 41.4342 18.2187 39.2803C18.741 38.6274 17.6069 49.5106 19.782 44.5388C22.5734 38.1585 19.548 46.6088 21.9139 44.4322C25.3999 41.225 17.0521 47.6151 16.9751 47.3457C16.3304 45.0894 19.0622 36.2777 15.163 41.3766C11.016 46.7997 19.1903 41.5003 20.6348 41.6608C20.937 41.6944 19.5075 44.2516 19.3557 44.5743C18.7579 45.8446 22.2829 45.2147 22.9443 44.8586C24.4243 44.0616 25.0285 43.9723 24.2234 46.2088C23.5443 48.0952 20.7315 53.3028 21.0611 51.3252C21.531 48.5062 25.26 44.473 27.0303 42.3004C27.4545 41.7797 29.318 38.7825 29.0555 40.4883C28.5893 43.5189 26.3965 46.1157 25.2538 48.9091C24.3641 51.0837 24.3566 50.6743 24.9695 48.6604C25.2108 47.8676 26.4087 43.5099 26.4973 44.0414C26.6891 45.1919 25.8933 48.6542 25.8933 47.4879C25.8933 45.1903 26.6252 39.6899 22.4113 42.3714C19.1796 44.428 22.8346 38.9636 19.6399 42.1583C15.6117 46.1864 18.2399 38.0938 18.8582 35.6206" stroke="white" stroke-linecap="round"/>
<path d="M40.6025 58.0049C40.6025 59.5683 40.2086 64.1982 40.6381 62.695C41.1569 60.8789 43.1607 54.9305 43.1607 54.9493C43.1607 56.0226 41.7094 62.8972 42.8765 60.5631C44.8818 56.5525 44.762 60.5132 45.0439 63.0503C45.4803 66.9782 46.9983 61.524 47.6376 60.2078C49.1361 57.1227 47.9519 62.7114 48.3127 63.9741C48.3678 64.167 50.4741 59.2899 50.8354 58.9287C51.2214 58.5426 50.6657 60.3776 51.1907 60.5276C52.3273 60.8523 52.4171 61.4995 52.6119 62.766C52.7119 63.4157 53.3936 71.2113 53.3936 67.5627C53.3936 64.7932 53.0254 63.0578 52.2566 66.8165C51.7592 69.2483 51.4749 72.2279 51.4749 67.918C51.4749 62.7021 50.9443 65.4381 50.1958 68.8062C49.3028 72.8246 49.5563 66.2517 49.5563 65.1821C49.5563 62.272 47.9558 64.851 47.3178 65.9993C46.425 67.6064 45.7903 62.4504 44.4398 61.7001C42.6597 60.7111 41.8816 62.3672 41.8816 59.9236" stroke="white" stroke-linecap="round"/>
<path d="M36.4992 16.4846C36.4992 18.0388 36.599 23.89 36.6782 23.7315C38.1479 20.7922 37.3045 19.8119 37.3045 23.7315C37.3045 28.5752 37.3088 24.7697 35.694 22.3C33.3231 18.6739 34.792 22.7941 34.8888 24.5367C35.0042 26.6131 31.668 26.5423 31.668 26.1472C31.668 22.5096 36.9305 20.6551 37.3045 17.2898C37.4113 16.3285 37.8195 11.5482 38.2886 11.027C39.0148 10.2202 44.7805 7.14235 42.8515 6.86677C39.7527 6.42409 36.3488 8.27925 39.8096 5.97209C41.1162 5.10098 45.2196 1.18555 46.5644 1.18555C50.6707 1.18555 54.7274 3.60119 58.6426 3.60119C61.3568 3.60119 61.1324 10.1224 61.4161 11.9665C61.815 14.5589 65.1324 11.9898 65.4422 14.1584C65.8667 17.1303 65.5832 23.6834 70.3182 21.3159" stroke="white" stroke-linecap="round"/>
<path d="M2.67914 45.472C2.67914 48.6021 2.04788 52.4058 2.72388 55.4477C3.24832 57.8077 8.2344 51.5909 8.31564 53.7031C8.33754 54.2727 8.41238 61.5636 9.12085 60.3238C11.16 56.7552 6.30344 57.7727 5.13952 59.5185C2.83116 62.9811 7.3564 51.42 7.51042 47.2614C7.60172 44.7963 6.52438 43.9708 3.9317 44.7116C2.78594 45.0389 11.122 40.747 7.51042 40.6408C3.67922 40.5281 -0.924053 42.2815 1.06872 37.241C3.0341 32.2697 5.75954 31.7834 10.7313 31.7834C14.3536 31.7834 17.1873 28.9991 18.6045 25.5207C20.3699 21.1872 12.9625 29.8749 12.4312 31.3361C10.8997 35.5476 22.6866 32.0648 24.3304 31.4256C28.1702 29.9323 26.4324 37.1083 25.8514 38.8514C24.5997 42.6063 27.2381 42.2512 30.459 42.2512C31.926 42.2512 35.9307 44.0711 37.1244 42.8775C37.3727 42.6292 37.1358 40.2023 37.9296 40.8197C38.9226 41.592 38.9137 41.0138 38.9137 39.8356" stroke="white" stroke-linecap="round"/>
<path d="M37.7333 60.5883C37.7333 62.4414 37.2151 65.05 40.0045 64.253C42.2132 63.622 40.8184 59.4413 39.3851 63.582C37.9402 67.7562 39.3355 66.8265 41.9143 64.8208C43.6012 63.5087 46.4475 63.5429 48.3663 62.4465C50.0467 61.4862 48.6598 61.3066 50.7406 60.3818C53.7381 59.0496 53.0733 58.416 50.2761 59.6592C47.3621 60.9543 49.2469 62.7912 50.7406 63.582C52.7537 64.6478 52.5988 67.031 52.5988 68.9501" stroke="white" stroke-linecap="round"/>
<rect x="60" y="219" width="192" height="3" fill="white"/>
</svg>
