<svg width="71" height="76" viewBox="0 0 71 76" fill="none" xmlns="http://www.w3.org/2000/svg">
<circle cx="52.5" cy="17.5" r="15" stroke="#55820C" stroke-width="3"/>
<circle cx="19.5" cy="42.5" r="15" stroke="#55820C" stroke-width="3"/>
<circle cx="46.5" cy="65.5" r="9" stroke="#55820C" stroke-width="3"/>
<path d="M40.3521 12.206C40.3521 13.9591 40.3521 15.7121 40.3521 17.4651C40.3521 19.5926 40.0074 22.0279 41.5208 18.5688C42.5461 16.2253 46.9829 4.28884 45.0268 13.6344C44.359 16.825 42.8824 20.0277 42.6895 23.3084C42.655 23.8947 43.0423 21.764 43.0466 21.7502C43.7628 19.4423 44.9974 17.3577 45.9033 15.1277C46.4727 13.7262 51.1377 5.12757 49.7015 10.7127C48.6895 14.6481 46.8255 18.2355 45.741 22.1397C45.0968 24.4589 45.1346 23.3379 46.5201 21.4905C49.0664 18.0954 51.076 14.5328 53.1426 10.8426C53.3272 10.5129 54.9605 6.79693 54.9605 8.95974C54.9605 15.8505 50.0207 21.726 48.5653 28.2753C48.2579 29.6584 48.168 30.3625 49.2145 29.0544C51.5871 26.0887 53.9444 23.0369 56.1292 19.9323C56.6153 19.2415 57.3715 17.4909 58.012 17.0106C60.2253 15.3506 56.7834 22.4177 55.8695 25.029C55.3795 26.4288 54.9605 27.9596 54.9605 29.4439C54.9605 31.3715 54.6533 31.4039 55.6747 29.6062C57.6415 26.1447 60.346 22.1354 61.4206 18.374C61.8738 16.7879 61.9725 18.8143 61.9725 19.3155C61.9725 21.6567 61.3882 23.8956 61.3882 26.2301C61.3882 27.7943 62.1074 23.1835 62.5569 21.6853C63.2142 19.4942 64.3099 17.7444 64.3099 15.4199C64.3099 14.0795 61.9725 24.8566 61.9725 17.9195C61.9725 16.6269 62.801 11.6477 61.8427 10.5829C60.6003 9.20248 59.0495 12.1765 58.7587 12.8228C58.4575 13.492 57.2978 17.2099 57.2978 16.7509C57.2978 14.7308 57.5771 11.901 56.1292 10.453" stroke="#55820C" stroke-width="2" stroke-linecap="round"/>
<path d="M8.79781 33.8265C8.79781 39.237 8.79781 44.6476 8.79781 50.0581C8.79781 51.86 8.23091 56.8506 10.0963 52.72C12.7532 46.837 15.3978 41.0299 17.6927 34.9952C18.5362 32.7771 19.9002 30.1771 19.9002 27.7559C19.9002 24.922 19.1645 33.3918 18.4393 36.1314C17.6171 39.2377 17.4257 42.5293 16.1345 45.4808C14.7794 48.5781 15.7668 42.7823 15.8423 41.4229C15.9953 38.6692 16.5577 36.0215 16.3942 33.2422C16.2303 30.4572 12.32 36.9431 12.174 37.3325C10.9643 40.5583 9.38215 44.3511 9.38215 47.8506C9.38215 48.6758 10.0403 45.3231 10.0963 45.1237C11.1734 41.2939 12.6176 37.5224 14.6412 34.0862C16.1542 31.517 18.1705 29.8531 19.9002 27.691C20.2464 27.2582 19.8279 36.5997 19.5755 37.8844C19.5063 38.2369 16.4255 49.9282 16.9785 49.9282C18.2079 49.9282 22.3855 36.7311 22.9517 35.2549C23.3218 34.2901 25.879 28.1361 24.8346 32.4631C23.3375 38.6654 22.7581 45.0535 21.3935 51.2917C21.1616 52.3516 21.0688 53.3629 21.0688 54.4406C21.0688 56.1537 21.1052 51.0001 21.3935 49.3114C21.512 48.6172 23.4571 41.0026 21.0364 42.3643C16.9952 44.6375 15.3739 51.0971 14.771 55.3171C14.6371 56.2546 13.928 62.6109 15.3553 59.8619C17.961 54.8435 20.6206 49.9208 22.2375 44.4744C22.8633 42.3667 24.3321 36.1212 24.5749 38.3064C24.9079 41.3036 24.5749 44.5061 24.5749 47.5259C24.5749 51.4851 27.2397 40.0643 28.3406 36.2613C28.9742 34.0724 29.8339 29.4764 29.8339 34.2161C29.8339 38.2486 29.8897 42.097 30.3857 46.0651C30.7187 48.729 31.9913 42.9252 32.3011 42.2669C33.1507 40.4615 30.8694 46.0152 29.8339 47.7207C29.1535 48.8414 29.3745 51.2172 27.7887 49.2789C26.8003 48.0709 26.3279 44.9227 26.3279 47.8506C26.3279 49.214 26.3279 50.5775 26.3279 51.9409" stroke="#55820C" stroke-width="2" stroke-linecap="round"/>
<path d="M42.6898 57.1992C42.5783 58.2027 38.3483 65.9955 39.2487 65.8669C40.7785 65.6483 45.9572 61.4456 46.1958 59.5366C46.3038 58.6726 45.2659 62.4076 44.4428 63.4971C43.7634 64.3962 43.1101 65.3531 42.3976 66.2239C42.2684 66.3819 40.9674 67.5542 41.2939 67.6848C43.1112 68.4117 53.2768 58.0745 46.7801 65.8344C42.2711 71.2201 46.5629 66.0849 49.4096 64.5034C50.2059 64.061 44.5552 70.1219 44.4428 71.8076C44.4378 71.8817 46.9951 70.0869 47.8189 69.6001C48.4555 69.224 52.7229 66.8043 52.2339 67.7822C51.7826 68.6849 46.3618 76.5254 49.1175 72.3919" stroke="#55820C" stroke-width="2" stroke-linecap="round"/>
<path d="M47 4.2832V10.6787" stroke="white" stroke-linecap="round"/>
<path d="M46.9985 4.28274C46.9985 7.5634 46.9985 10.8441 46.9985 14.1247C46.9985 20.1538 44.8251 15.1919 42.5217 12.6325C40.8967 10.827 38.6965 8.4254 40.3187 12.5969C41.0891 14.5779 43.0229 16.6917 41.5268 13.272C40.1697 10.1701 39.3443 13.2569 40.9228 14.8354C42.9136 16.8262 39.6684 12.0284 39.7858 12.0284C42.0611 12.0284 44.4225 15.7541 46.6432 15.1196C48.2946 14.6478 44.2508 9.25122 44.5469 8.51089C44.9283 7.55742 49.559 12.0384 50.4805 9.93212C50.9766 8.79831 50.4274 3.30581 51.1201 3.99849C53.3088 6.18724 52.7545 4.33996 52.7545 1.47581C52.7545 -1.68405 52.7545 5.9479 52.7545 7.05413C52.7545 8.36583 54.79 2.81614 55.2772 4.03402C55.5454 4.70465 53.6916 9.61267 55.3838 9.00832C56.2846 8.6866 59.4143 5.11773 59.1145 7.51603C58.9924 8.49305 56.944 12.5605 56.9471 12.5614C57.6271 12.7557 59.4612 11.2737 59.6475 11.4599C60.8669 12.6794 59.2559 13.0922 61.7082 13.2365C62.8152 13.3016 61.0363 15.553 62.3478 15.013C62.6448 14.8907 66.0569 13.0454 65.4034 14.5156C65.1052 15.1867 62.8283 18.8321 63.769 16.2921C64.0077 15.6476 67.7399 9.94622 65.5456 12.739C64.8812 13.5845 61.0687 19.3395 61.0687 18.9924C61.0687 18.0423 63.224 14.8513 62.2057 14.0182C60.4374 12.5714 55.7269 15.6151 54.8153 17.0738C54.4933 17.5889 54.7552 14.8562 54.8153 14.5156C54.8957 14.0599 56.1262 11.8211 55.8101 11.4599C55.3013 10.8784 52.3861 15.9247 51.9728 16.2921C51.7396 16.4995 52.1149 7.39849 52.1149 6.34352C52.1149 4.00232 49.1757 10.27 48.9172 12.5969C48.8455 13.2424 48.0434 12.6443 47.496 13.876C45.6621 18.0023 43.7199 13.2365 40.603 13.2365" stroke="white" stroke-linecap="round"/>
<path d="M43.1621 20.9116C43.1621 23.1619 42.1558 29.6752 43.1621 27.6625C43.4449 27.0969 45.2941 20.0946 45.5782 20.4142C46.249 21.1689 45.3607 26.8468 48.1364 25.8859C50.0278 25.2312 52.7554 19.0653 52.7554 22.8303C52.7554 25.3794 52.9775 27.0457 54.5319 24.1094C54.9931 23.2383 56.6858 24.4014 57.8718 22.6882C60.992 18.1813 58.344 24.0412 60.2879 23.8252C61.4775 23.693 62.3487 16.587 62.3487 20.9116" stroke="white" stroke-linecap="round"/>
<path d="M11.823 28.5859C11.823 30.8954 11.823 33.2049 11.823 35.5144C11.823 38.4022 13.267 29.9123 13.7061 27.0581C14.1396 24.2404 15.3836 30.3101 15.6603 31.002C17.1966 34.8426 18.6001 31.6378 19.4977 29.3675C20.8634 25.9131 20.7768 30.7475 20.7768 32.3877C20.7768 36.0318 21.9376 31.0228 22.3756 29.9716C22.6562 29.2983 22.6954 33.5508 22.6954 34.3418C22.6954 34.5875 23.7042 30.1492 24.472 30.1492C24.7466 30.1492 24.6141 33.4977 24.6141 33.951C24.6141 35.7182 27.7595 28.615 28.4159 30.2558C28.6228 30.7733 27.9737 34.0567 29.0909 33.5602C31.9423 32.2929 32.2887 32.0305 32.2887 35.621C32.2887 46.789 32.8044 27.5084 28.1671 29.6163C25.8519 30.6686 25.6069 34.3312 24.472 36.2605C23.7281 37.525 19.692 32.2363 18.8581 31.7836C15.7486 30.0956 16.5431 33.523 15.9801 35.5499C15.065 38.8443 14.4415 33.5767 13.1021 31.8547C10.8839 29.0028 11.1835 31.4078 11.1835 33.7023C11.1835 37.0774 9.43607 34.4368 7.9857 33.0627C4.22215 29.4973 8.58034 42.565 4.46816 40.7374C1.74884 39.5288 4.46473 42.1909 5.28537 43.2956C7.7516 46.6155 5.36295 43.023 3.50883 42.0165C0.289646 40.2689 3.00133 41.7603 4.46816 42.3007C7.20044 43.3074 8.42245 39.5914 8.9095 37.5041C9.23383 36.1141 8.45232 30.815 11.0413 33.2049C13.2452 35.2392 13.7417 34.6255 13.7417 31.6415C13.7417 28.0143 14.2979 30.7196 15.0208 32.7074C16.2676 36.1363 16.9165 29.1836 16.975 28.6569C17.1908 26.7142 21.4163 30.6975 21.4163 31.1441" stroke="white" stroke-linecap="round"/>
<path d="M11.1836 45.2144C11.1836 47.2989 11.1836 49.3833 11.1836 51.4678C11.1836 54.0512 11.3663 47.0946 11.5034 46.2448C12.5408 39.8125 11.6595 46.2696 11.8231 49.0517C11.9378 51.0004 13.7921 47.3134 13.8839 47.133C15.1412 44.6652 16.4955 41.4347 18.2187 39.2808C18.741 38.6278 17.6069 49.5111 19.782 44.5393C22.5734 38.1589 19.548 46.6093 21.9139 44.4327C25.3999 41.2255 17.0521 47.6156 16.9751 47.3462C16.3304 45.0899 19.0622 36.2782 15.163 41.3771C11.016 46.8002 19.1903 41.5008 20.6348 41.6613C20.937 41.6949 19.5075 44.2521 19.3557 44.5748C18.7579 45.8451 22.2829 45.2152 22.9443 44.8591C24.4243 44.0621 25.0285 43.9727 24.2234 46.2092C23.5443 48.0957 20.7315 53.3033 21.0611 51.3257C21.531 48.5067 25.26 44.4735 27.0303 42.3009C27.4545 41.7802 29.318 38.783 29.0555 40.4888C28.5893 43.5194 26.3965 46.1162 25.2538 48.9096C24.3641 51.0842 24.3566 50.6748 24.9695 48.6609C25.2108 47.8681 26.4087 43.5104 26.4973 44.0419C26.6891 45.1923 25.8933 48.6547 25.8933 47.4884C25.8933 45.1908 26.6252 39.6904 22.4113 42.3719C19.1796 44.4285 22.8346 38.9641 19.6399 42.1587C15.6117 46.1869 18.2399 38.0943 18.8582 35.6211" stroke="white" stroke-linecap="round"/>
<path d="M40.6025 58.0049C40.6025 59.5683 40.2086 64.1982 40.6381 62.695C41.1569 60.8789 43.1607 54.9305 43.1607 54.9493C43.1607 56.0226 41.7094 62.8972 42.8765 60.5631C44.8818 56.5525 44.762 60.5132 45.0439 63.0503C45.4803 66.9782 46.9983 61.524 47.6376 60.2078C49.1361 57.1227 47.9519 62.7114 48.3127 63.9741C48.3678 64.167 50.4741 59.2899 50.8354 58.9287C51.2214 58.5426 50.6657 60.3776 51.1907 60.5276C52.3273 60.8523 52.4171 61.4995 52.6119 62.766C52.7119 63.4157 53.3936 71.2113 53.3936 67.5627C53.3936 64.7932 53.0254 63.0578 52.2566 66.8165C51.7592 69.2483 51.4749 72.2279 51.4749 67.918C51.4749 62.7021 50.9443 65.4381 50.1958 68.8062C49.3028 72.8246 49.5563 66.2517 49.5563 65.1821C49.5563 62.272 47.9558 64.851 47.3178 65.9993C46.425 67.6064 45.7903 62.4504 44.4398 61.7001C42.6597 60.7111 41.8816 62.3672 41.8816 59.9236" stroke="white" stroke-linecap="round"/>
<path d="M36.4992 16.4846C36.4992 18.0388 36.599 23.89 36.6782 23.7315C38.1479 20.7922 37.3045 19.8119 37.3045 23.7315C37.3045 28.5752 37.3088 24.7697 35.694 22.3C33.3231 18.6739 34.792 22.7941 34.8888 24.5367C35.0042 26.6131 31.668 26.5423 31.668 26.1472C31.668 22.5096 36.9305 20.6551 37.3045 17.2898C37.4113 16.3285 37.8195 11.5482 38.2886 11.027C39.0148 10.2202 44.7805 7.14235 42.8515 6.86677C39.7527 6.42409 36.3488 8.27925 39.8096 5.97209C41.1162 5.10098 45.2196 1.18555 46.5644 1.18555C50.6707 1.18555 54.7274 3.60119 58.6426 3.60119C61.3568 3.60119 61.1324 10.1224 61.4161 11.9665C61.815 14.5589 65.1324 11.9898 65.4422 14.1584C65.8667 17.1303 65.5832 23.6834 70.3182 21.3159" stroke="white" stroke-linecap="round"/>
<path d="M2.67914 45.4725C2.67914 48.6026 2.04788 52.4063 2.72388 55.4482C3.24832 57.8082 8.2344 51.5914 8.31564 53.7036C8.33754 54.2732 8.41238 61.5641 9.12085 60.3242C11.16 56.7557 6.30344 57.7731 5.13952 59.519C2.83116 62.9816 7.3564 51.4205 7.51042 47.2619C7.60172 44.7967 6.52438 43.9713 3.9317 44.7121C2.78594 45.0394 11.122 40.7475 7.51042 40.6413C3.67922 40.5286 -0.924053 42.282 1.06872 37.2415C3.0341 32.2702 5.75954 31.7839 10.7313 31.7839C14.3536 31.7839 17.1873 28.9995 18.6045 25.5211C20.3699 21.1877 12.9625 29.8754 12.4312 31.3366C10.8997 35.5481 22.6866 32.0653 24.3304 31.426C28.1702 29.9328 26.4324 37.1088 25.8514 38.8519C24.5997 42.6068 27.2381 42.2517 30.459 42.2517C31.926 42.2517 35.9307 44.0716 37.1244 42.878C37.3727 42.6297 37.1358 40.2028 37.9296 40.8202C38.9226 41.5925 38.9137 41.0143 38.9137 39.836" stroke="white" stroke-linecap="round"/>
<path d="M37.7333 60.5883C37.7333 62.4414 37.2151 65.05 40.0045 64.253C42.2132 63.622 40.8184 59.4413 39.3851 63.582C37.9402 67.7562 39.3355 66.8265 41.9143 64.8208C43.6012 63.5087 46.4475 63.5429 48.3663 62.4465C50.0467 61.4862 48.6598 61.3066 50.7406 60.3818C53.7381 59.0496 53.0733 58.416 50.2761 59.6592C47.3621 60.9543 49.2469 62.7912 50.7406 63.582C52.7537 64.6478 52.5988 67.031 52.5988 68.9501" stroke="white" stroke-linecap="round"/>
</svg>
