<svg width="59" height="57" viewBox="0 0 59 57" fill="none" xmlns="http://www.w3.org/2000/svg">
<path fill-rule="evenodd" clip-rule="evenodd" d="M43.9921 14.8832C38.2276 8.89398 28.6877 7.97776 21.7935 10.6788C9.91162 15.3344 5.97985 31.0309 12.6102 39.4279C19.9211 48.6863 31.9097 48.6328 38.5346 44.4996C47.1209 39.1425 52.0563 28.8648 46.8314 19.7994" fill="white"/>
<path d="M43.9921 14.8832C38.2276 8.89398 28.6877 7.97776 21.7935 10.6788C9.91162 15.3344 5.97985 31.0309 12.6102 39.4279C19.9211 48.6863 31.9097 48.6328 38.5346 44.4996C47.1209 39.1425 52.0563 28.8647 46.8314 19.7994" stroke="#DC890D" stroke-width="5" stroke-miterlimit="1.5" stroke-linecap="round" stroke-linejoin="round"/>
<path d="M25.0131 22.47C24.6841 23.4484 24.4499 24.4723 24.2616 25.4865" stroke="#DC890D" stroke-width="5" stroke-miterlimit="1.5" stroke-linecap="round" stroke-linejoin="round"/>
<path d="M34.425 23.6712C34.2401 24.8864 34.1179 26.1662 33.7997 27.359" stroke="#DC890D" stroke-width="5" stroke-miterlimit="1.5" stroke-linecap="round" stroke-linejoin="round"/>
<path d="M18.6895 30.2043C18.824 31.3842 19.3679 32.4842 20.0961 33.4334C23.6671 38.0891 31.7132 38.0856 35.4717 33.7441" stroke="#DC890D" stroke-width="5" stroke-miterlimit="1.5" stroke-linecap="round" stroke-linejoin="round"/>
</svg>
