
<svg width="87" height="71" viewBox="0 0 87 71" fill="none" xmlns="http://www.w3.org/2000/svg">
<path d="M22.7737 14.0395L29.5333 4.87237L35.3074 14.5405L47.8135 17.5444L38.7846 25.5219L38.4924 37.3845C37.0562 36.5821 32.3032 33.172 30.1062 31.5672L13.2939 38.1053C10.6697 38.3729 16.3068 29.8776 19.4533 25.5965C19.6954 24.982 13.4641 20.1812 10.3183 17.8576C9.35407 16.4131 18.2202 14.7103 22.7737 14.0395Z" stroke="#FFC700" stroke-width="4"/>
<path d="M52.4722 29.7996L56.0009 25.0118L59.0122 30.0592L65.5375 31.6256L60.8249 35.7926L60.6704 41.9868C59.9212 41.5681 57.4416 39.7882 56.2954 38.9506L47.5216 42.3673C46.1523 42.5075 49.0951 38.0707 50.7377 35.8347C50.8641 35.5138 47.6134 33.0081 45.9723 31.7953C45.4694 31.0413 50.096 30.1507 52.4722 29.7996Z" stroke="#FFC700" stroke-width="4"/>
<path d="M69.607 48.4446L71.87 45.3928L73.8248 48.6273L78.0364 49.6455L75.0084 52.2974L74.9247 56.257C74.4405 55.9874 72.837 54.8432 72.0958 54.3047L66.4471 56.4665C65.5644 56.5526 67.4506 53.7236 68.504 52.2984C68.5847 52.0936 66.4822 50.4833 65.4208 49.7038C65.0946 49.2204 68.0757 48.6629 69.607 48.4446Z" stroke="#FFC700" stroke-width="4"/>
<path d="M54.1338 55.595L56.3969 52.5431L58.3517 55.7777L62.5633 56.7959L59.5352 59.4478L59.4515 63.4074C58.9673 63.1378 57.3639 61.9935 56.6227 61.4551L50.9739 63.6169C50.0913 63.703 51.9775 60.874 53.0309 59.4488C53.1116 59.244 51.009 57.6337 49.9477 56.8541C49.6215 56.3708 52.6025 55.8133 54.1338 55.595Z" stroke="#FFC700" stroke-width="4"/>
</svg>
