<svg width="36" height="24" viewBox="0 0 36 24" fill="none" xmlns="http://www.w3.org/2000/svg">
<path d="M14.9808 5.55876C14.9808 6.28875 14.837 7.01159 14.5577 7.68601C14.2783 8.36043 13.8689 8.97322 13.3527 9.4894C12.8365 10.0056 12.2237 10.415 11.5493 10.6944C10.8749 10.9737 10.152 11.1175 9.42204 11.1175C7.94777 11.1175 6.53387 10.5319 5.4914 9.4894C4.44893 8.44693 3.86328 7.03303 3.86328 5.55876C3.86328 4.08449 4.44893 2.67059 5.4914 1.62812C6.53387 0.585653 7.94777 0 9.42204 0C10.8963 0 12.3102 0.585653 13.3527 1.62812C14.3951 2.67059 14.9808 4.08449 14.9808 5.55876ZM13.2628 5.55876C13.2628 4.54012 12.8582 3.5632 12.1379 2.84291C11.4176 2.12263 10.4407 1.71798 9.42204 1.71798C8.4034 1.71798 7.42648 2.12263 6.7062 2.84291C5.98591 3.5632 5.58126 4.54012 5.58126 5.55876C5.58126 6.5774 5.98591 7.55432 6.7062 8.27461C7.42648 8.99489 8.4034 9.39954 9.42204 9.39954C10.4407 9.39954 11.4176 8.99489 12.1379 8.27461C12.8582 7.55432 13.2628 6.5774 13.2628 5.55876Z" fill="white"/>
<path d="M32.1341 5.55876C32.1341 6.28875 31.9903 7.01159 31.711 7.68601C31.4316 8.36043 31.0222 8.97322 30.506 9.4894C29.9898 10.0056 29.377 10.415 28.7026 10.6944C28.0282 10.9737 27.3053 11.1175 26.5754 11.1175C25.1011 11.1175 23.6872 10.5319 22.6447 9.4894C21.6023 8.44693 21.0166 7.03303 21.0166 5.55876C21.0166 4.08449 21.6023 2.67059 22.6447 1.62812C23.6872 0.585653 25.1011 0 26.5754 0C28.0496 0 29.4635 0.585653 30.506 1.62812C31.5485 2.67059 32.1341 4.08449 32.1341 5.55876ZM30.4161 5.55876C30.4161 4.54012 30.0115 3.5632 29.2912 2.84291C28.5709 2.12263 27.594 1.71798 26.5754 1.71798C25.5567 1.71798 24.5798 2.12263 23.8595 2.84291C23.1392 3.5632 22.7346 4.54012 22.7346 5.55876C22.7346 6.5774 23.1392 7.55432 23.8595 8.27461C24.5798 8.99489 25.5567 9.39954 26.5754 9.39954C27.594 9.39954 28.5709 8.99489 29.2912 8.27461C30.0115 7.55432 30.4161 6.5774 30.4161 5.55876Z" fill="white"/>
<path d="M2.71693 15.8358C2.86445 15.6855 3.07344 15.4936 3.34391 15.2603C3.57834 15.0591 3.80735 14.8927 4.03093 14.7611C4.56327 14.4478 5.04844 14.2214 5.48644 14.0818C6.19033 13.8577 6.98199 13.7353 7.86142 13.7148C8.50298 13.6999 9.62971 13.6982 11.2416 13.7096C12.0358 13.7148 12.6062 13.7428 12.9527 13.7937C14.5664 14.031 15.9364 14.7643 17.0628 15.9937C17.7633 16.7582 18.2519 17.5933 18.5286 18.499C18.7305 19.1606 18.8406 19.9302 18.8589 20.8079C18.868 21.2625 18.8357 21.6674 18.7619 22.0224C18.7105 22.2672 18.5781 22.5562 18.3648 22.8896C18.1887 23.1652 17.9674 23.3848 17.701 23.5483C17.4162 23.7227 17.116 23.8473 16.8004 23.9223C16.5882 23.972 16.2689 23.9972 15.8423 23.9977C12.1982 24.0006 8.29427 24.0009 4.13042 23.9986C3.50601 23.9986 3.06287 23.966 2.80098 23.9008C2.34526 23.787 1.95014 23.5634 1.61564 23.2301C1.15991 22.7755 0.909179 22.1937 0.863435 21.4847C0.813689 20.7253 0.863149 19.9591 1.01182 19.186C1.10674 18.6903 1.2331 18.2583 1.39092 17.89C1.57904 17.4509 1.79118 17.0509 2.02734 16.6901C2.22461 16.3888 2.45447 16.104 2.71693 15.8358ZM3.39966 22.2866H16.296C16.5201 22.2866 16.735 22.1976 16.8934 22.0392C17.0519 21.8807 17.1409 21.6658 17.1409 21.4418V20.6098C17.1409 19.232 16.5935 17.9106 15.619 16.9363C14.6446 15.9621 13.323 15.4147 11.9449 15.4147H7.75077C6.37272 15.4147 5.05111 15.9621 4.07668 16.9363C3.10225 17.9106 2.55482 19.232 2.55482 20.6098V21.4418C2.55482 21.5527 2.57667 21.6626 2.61913 21.7651C2.66159 21.8676 2.72382 21.9607 2.80227 22.0392C2.88072 22.1176 2.97385 22.1799 3.07635 22.2223C3.17885 22.2648 3.28871 22.2866 3.39966 22.2866Z" fill="white"/>
<path d="M32.9204 15.4849C32.8124 15.4352 32.5285 15.4215 32.3775 15.4215C28.8118 15.422 24.6548 15.4223 19.9065 15.4223C19.5663 15.4223 19.297 15.5235 19.0986 15.7259C19.0757 15.7488 19.056 15.7465 19.0394 15.7191C18.7466 15.2513 18.3958 14.8339 17.987 14.4668C17.9653 14.4468 17.9653 14.4271 17.987 14.4077C18.2552 14.1721 18.4093 14.0457 18.4493 14.0286C18.937 13.8164 19.3447 13.7101 19.6724 13.7095C23.7768 13.7049 27.8812 13.7049 31.9855 13.7095C32.5842 13.7101 33.0031 13.7464 33.2421 13.8184C33.5188 13.9025 33.7839 14.0251 34.0372 14.1864C34.2727 14.3362 34.4749 14.5357 34.6436 14.785C34.9523 15.2408 35.1199 15.7465 35.1462 16.3023C35.1616 16.6208 35.155 17.0319 35.1264 17.5357C35.1001 17.9914 35.0415 18.3977 34.9506 18.7545C34.8025 19.3354 34.6255 19.8406 34.4197 20.27C34.2779 20.5662 34.0246 20.9565 33.6598 21.4408C33.3613 21.8376 33.0388 22.1693 32.6923 22.4357C32.1382 22.8629 31.6953 23.1496 31.3637 23.296C30.665 23.6042 29.9662 23.8129 29.2675 23.9221C29.1588 23.9393 28.9227 23.9582 28.559 23.9787C28.3377 23.9907 28.1013 23.997 27.8497 23.9976C26.0337 24.0016 24.7177 23.9988 23.9017 23.989C23.1155 23.9793 22.2418 23.7955 21.2806 23.4375C20.9795 23.3252 20.651 23.0996 20.3465 22.9495C20.3362 22.9445 20.328 22.9359 20.3234 22.9254C20.3189 22.9148 20.3183 22.903 20.3217 22.892C20.3754 22.7131 20.4217 22.5407 20.4606 22.3748C20.4978 22.2182 20.5232 22.0423 20.5369 21.8474C20.5381 21.8336 20.5544 21.572 20.5858 21.0626C20.5881 21.0288 20.603 21.0217 20.6304 21.0411C20.7305 21.1109 20.8677 21.2127 21.0421 21.3465C21.1816 21.4528 21.3263 21.5443 21.4761 21.6209C21.8278 21.8005 22.0774 21.9137 22.2249 21.9606C22.6635 22.0995 23.0792 22.1913 23.472 22.2359C23.747 22.2673 24.1722 22.2831 24.7474 22.2831C26.8127 22.2854 27.9509 22.2848 28.1619 22.2814C28.5199 22.2756 28.917 22.2333 29.3533 22.1544C29.7684 22.0795 30.1458 21.9591 30.4854 21.7933C31.5535 21.2736 32.3552 20.4919 32.8904 19.4484C33.1054 19.0281 33.2535 18.5592 33.3347 18.0417C33.4153 17.53 33.4488 17.0357 33.4351 16.5588C33.4248 16.1877 33.4042 15.9727 33.3733 15.9138C33.2709 15.7188 33.12 15.5758 32.9204 15.4849Z" fill="white"/>
</svg>
