<svg width="570" height="621" viewBox="0 0 570 621" fill="none" xmlns="http://www.w3.org/2000/svg">
<mask id="path-1-inside-1_30_10467" fill="white">
<path d="M270.87 315.511L271.016 321.954L271.04 364.705L270.652 378.488L270.579 419.204L270.676 430.031L270.701 610.821C270.702 611.861 270.377 612.875 269.773 613.722C269.169 614.569 268.315 615.206 267.33 615.544C266.684 615.77 266.304 615.875 266.191 615.859C262.521 615.052 260.686 613.267 260.686 610.506L260.735 571.752C260.735 570.702 260.201 570.177 259.134 570.177H11.4206C10.5316 570.177 10.087 570.621 10.087 571.509L10.2325 614.769C10.2325 616.82 8.82615 618.879 6.01342 620.946C5.94876 620.994 5.87601 621.01 5.79518 620.994C1.94789 620.316 0.0242528 618.628 0.0242528 615.932L0 564.558C0.000347366 563.412 0.474904 562.313 1.31997 561.501C2.16505 560.688 3.31193 560.229 4.51006 560.222L18.5009 560.149C18.8932 560.149 19.2694 559.996 19.5468 559.724C19.8242 559.451 19.98 559.081 19.98 558.696L20.0528 443.183C20.0529 442.333 20.3944 441.517 21.0031 440.914C21.6117 440.31 22.4381 439.968 23.302 439.962L49.0772 439.792C49.7561 439.792 50.0956 439.461 50.0956 438.799L50.0229 401.086C50.0224 400.475 49.8952 399.869 49.6491 399.307C49.403 398.744 49.0433 398.237 48.5923 397.816C28.3697 379.214 16.7066 340.92 40.8815 319.12C54.7027 306.638 69.9948 306.444 86.758 318.539C89.4091 320.461 91.2843 322.487 92.3835 324.619C92.7016 325.228 92.8736 325.903 92.8858 326.59C92.898 327.277 92.7501 327.958 92.4538 328.578C92.1575 329.198 91.7208 329.741 91.1784 330.163C90.636 330.586 90.0026 330.877 89.3283 331.013C85.2304 331.861 81.0356 332.297 79.0715 334.574C76.2103 337.916 78.6836 342.64 81.7145 344.892C86.7095 348.606 92.4643 350.108 98.9789 349.397C100.013 349.284 100.531 348.703 100.531 347.653L100.215 305.992C100.207 305.114 100.018 304.248 99.6588 303.447C99.2999 302.647 98.7795 301.93 98.1302 301.342C81.1083 285.961 74.998 255.418 95.9479 240.158C107.635 231.656 122.79 235.822 131.762 246.334C132.277 246.958 132.545 247.743 132.513 248.539C132.336 252.398 129.684 254.441 124.56 254.667C123.784 254.715 123.21 255.078 122.839 255.757C121.61 258.082 122.127 259.987 124.39 261.473C128.529 264.218 133.459 265.09 139.181 264.089C139.925 263.944 140.305 263.5 140.321 262.757L140.394 219.933C140.394 219.045 140.062 218.318 139.4 217.753C127.082 207.532 121.238 194.71 121.869 179.289C122.717 158.071 145.243 141.455 164.132 155.431C166.872 157.465 170.194 159.282 171.382 162.722C171.561 163.234 171.629 163.78 171.582 164.327C171.535 164.874 171.373 165.412 171.108 165.909C170.842 166.407 170.476 166.854 170.032 167.226C169.588 167.597 169.075 167.886 168.521 168.075L162.605 170.085C162.142 170.24 161.726 170.508 161.395 170.865C161.063 171.223 160.829 171.656 160.715 172.124C160.6 172.591 160.609 173.077 160.74 173.535C160.872 173.992 161.121 174.406 161.465 174.735C165.636 178.692 171.471 180.169 178.972 179.168C179.877 179.039 180.338 178.522 180.354 177.618C180.516 163.86 180.524 149.101 180.378 133.341C180.378 132.194 180.314 131.46 180.184 131.137C179.812 130.297 179.295 129.514 178.632 128.787C162.071 110.621 157.779 81.1917 182.245 67.555C189.115 63.728 196.907 64.2205 205.62 69.0325C209.475 71.164 213.137 73.683 214.907 77.5827C215.137 78.0876 215.257 78.6358 215.258 79.1893C215.259 79.7429 215.141 80.2886 214.913 80.7885C214.684 81.2885 214.351 81.7308 213.935 82.0849C213.52 82.4389 213.032 82.6961 212.506 82.8388L206.711 84.4374C206.326 84.5387 205.965 84.7127 205.648 84.9495C205.331 85.1862 205.064 85.481 204.863 85.8167C204.662 86.1523 204.532 86.5223 204.478 86.905C204.425 87.2878 204.451 87.6758 204.553 88.0464C206.323 94.6105 218.859 94.5863 224.363 93.8354C224.694 93.7886 224.997 93.6278 225.215 93.3829C225.434 93.1379 225.553 92.8254 225.552 92.5032C225.665 75.3705 225.657 61.5884 225.527 51.157C225.511 48.8963 225.05 47.3542 224.145 46.5306C217.679 40.6529 213.993 33.5156 213.088 25.1188C210.809 3.99753 232.365 -9.08213 248.272 7.63076C248.679 8.05286 248.92 8.61202 248.95 9.20517C249.241 13.5005 247.374 15.6158 243.349 15.5512C243.169 15.5457 243 15.6024 242.866 15.7131C242.732 15.8239 242.639 15.9831 242.601 16.1682C242.564 16.3533 242.583 16.5548 242.656 16.7441C242.73 16.9333 242.853 17.1007 243.01 17.2225L243.907 17.9007C244.617 18.4361 245.5 18.7331 246.429 18.7485L266.263 18.8938C267.481 18.9002 268.646 19.3803 269.505 20.229C270.364 21.0778 270.846 22.2262 270.846 23.4233L270.87 315.511ZM232.414 12.8626C232.899 9.58465 231.824 8.93873 229.189 10.9249C227.459 12.2167 226.295 13.2663 225.697 14.0737C223.466 17.061 222.618 20.226 223.151 23.5686C224.315 30.835 226.659 35.5825 230.183 37.8109C230.878 38.2468 232.252 38.4891 234.305 38.5375C243.228 38.7151 251.593 38.8605 259.401 38.9735C260.339 38.9897 260.808 38.5214 260.808 37.5686V30.3991C260.791 29.3979 260.282 28.9054 259.28 28.9215C251.262 29.0992 246.582 29.0588 245.241 28.8004C235.348 26.9919 231.072 21.6793 232.414 12.8626ZM260.686 50.1397C260.686 49.8442 260.569 49.5607 260.36 49.3518C260.15 49.1428 259.867 49.0255 259.571 49.0255H236.972C236.676 49.0255 236.393 49.1428 236.183 49.3518C235.974 49.5607 235.857 49.8442 235.857 50.1397V92.9634C235.857 93.2589 235.974 93.5423 236.183 93.7513C236.393 93.9602 236.676 94.0776 236.972 94.0776H259.571C259.867 94.0776 260.15 93.9602 260.36 93.7513C260.569 93.5423 260.686 93.2589 260.686 92.9634V50.1397ZM194.636 90.7835C193.246 86.9242 194.224 82.427 197.57 77.2921C198.103 76.4847 197.893 75.9922 196.939 75.8145C189.115 74.3289 183.005 77.0821 178.608 84.0741C174.518 90.5978 174.074 98.494 177.274 107.763C178.794 112.187 181.017 116.224 183.943 119.874C186.157 122.635 188.186 124.024 190.029 124.04C206.048 124.153 229.245 124.193 259.619 124.161C259.911 124.154 260.189 124.034 260.393 123.826C260.596 123.618 260.711 123.338 260.711 123.047L260.759 105.486C260.759 104.598 260.315 104.154 259.425 104.154C246.736 104.154 233.545 104.17 219.853 104.202C208.699 104.251 198.637 101.901 194.636 90.7835ZM260.686 134.939C260.686 134.682 260.584 134.436 260.402 134.254C260.22 134.073 259.974 133.971 259.716 133.971H191.387C191.129 133.971 190.883 134.073 190.701 134.254C190.519 134.436 190.417 134.682 190.417 134.939V178.345C190.417 178.601 190.519 178.848 190.701 179.03C190.883 179.211 191.129 179.313 191.387 179.313H259.716C259.974 179.313 260.22 179.211 260.402 179.03C260.584 178.848 260.686 178.601 260.686 178.345V134.939ZM154.967 161.753C155.036 161.667 155.082 161.565 155.099 161.456C155.116 161.347 155.105 161.236 155.065 161.133C155.026 161.03 154.961 160.939 154.875 160.869C154.79 160.799 154.688 160.753 154.579 160.735C146.609 159.298 140.321 161.938 135.714 168.656C130.493 176.245 130.25 185.175 134.987 195.445C138.066 202.057 142.867 209.445 148.25 209.445C179.756 209.348 216.733 209.3 259.183 209.3C259.562 209.3 259.926 209.149 260.195 208.881C260.463 208.613 260.614 208.25 260.614 207.871L260.686 190.819C260.686 189.963 260.266 189.535 259.425 189.535C244.295 189.503 215.036 189.454 171.649 189.39C157.125 189.39 143.934 176.068 154.967 161.753ZM194.321 264.622L201.74 264.646L259.813 264.549C260.051 264.549 260.28 264.455 260.448 264.287C260.616 264.119 260.711 263.891 260.711 263.653L260.686 220.757C260.686 219.885 260.242 219.449 259.353 219.449L151.717 219.4C151.396 219.4 151.088 219.528 150.86 219.755C150.633 219.982 150.505 220.29 150.505 220.611L150.457 263.241C150.457 263.582 150.595 263.908 150.84 264.149C151.086 264.39 151.419 264.525 151.766 264.525L194.321 264.622ZM225.891 294.414L230.668 294.293L260.056 294.439C260.46 294.439 260.662 294.237 260.662 293.833L260.783 275.037C260.783 274.65 260.589 274.456 260.201 274.456C198.047 274.359 156.268 274.351 134.865 274.432C125.7 274.464 119.104 271.824 115.079 266.511C110.593 260.577 110.715 253.625 115.298 247.836C115.4 247.71 115.469 247.56 115.5 247.4C115.531 247.241 115.522 247.076 115.474 246.92C115.426 246.765 115.341 246.623 115.226 246.509C115.11 246.394 114.968 246.309 114.813 246.262C111.24 245.115 107.781 245.414 104.435 247.158C85.8367 256.847 92.2865 280.996 104.119 293.155C104.944 293.995 105.946 294.414 107.126 294.414H225.891ZM110.157 314.373L110.496 347.847C110.513 348.735 110.965 349.196 111.854 349.228L118.765 349.543L139.885 349.494L151.354 349.543H165.248L177.905 349.518L190.247 349.373L202.322 349.543L225.285 349.761L237.239 349.615L249.532 349.543L259.086 349.518C259.485 349.518 259.867 349.358 260.149 349.072C260.431 348.785 260.589 348.397 260.589 347.992L260.492 315.463L260.541 305.895C260.541 305.007 260.096 304.563 259.207 304.563L111.175 304.515C110.319 304.515 109.898 304.943 109.915 305.798L110.157 314.373ZM106.738 384.858L118.789 385.052L138.866 385.003L151.257 384.93H165.32L178.948 385.052L190.611 384.906L204.189 384.955L225.891 384.809L239.955 385.076L259.716 384.809C259.9 384.806 260.081 384.767 260.249 384.693C260.417 384.619 260.569 384.512 260.695 384.379C260.822 384.246 260.921 384.089 260.986 383.918C261.051 383.746 261.081 383.564 261.074 383.38L260.274 361.193C260.242 360.337 259.789 359.91 258.916 359.91L201.619 359.595L189.326 359.474L178.826 359.692L164.254 359.619H153.003L139.594 359.522L118.571 359.546L105.744 359.643C102.236 359.498 98.8091 359.465 95.4629 359.546C83.1694 359.788 69.0815 352.546 67.7964 339.563C67.1983 333.524 69.7443 328.373 75.4344 324.11C75.5304 324.042 75.607 323.95 75.6566 323.843C75.7062 323.736 75.7271 323.618 75.7174 323.501C75.7076 323.384 75.6674 323.271 75.6008 323.174C75.5342 323.077 75.4434 322.999 75.3374 322.947C58.9945 314.518 44.7611 324.691 39.1357 340.339C34.1649 354.193 40.8573 372.481 49.4894 384.01C49.9744 384.656 50.621 384.979 51.4292 384.979L106.738 384.858ZM260.735 428.868L260.492 396.242C260.489 396.086 260.455 395.932 260.393 395.79C260.33 395.647 260.24 395.518 260.127 395.41C260.015 395.302 259.882 395.217 259.737 395.16C259.591 395.104 259.436 395.076 259.28 395.079L250.745 395.2L239.154 394.934L225.552 394.861L203.801 394.91L190.465 395.031L179.36 394.91L165.587 395.055L152.445 394.958H140.733L120.002 394.837L105.671 394.885L61.3223 394.982C60.514 394.982 60.1099 395.378 60.1099 396.169L60.1341 438.581C60.1341 439.486 60.5949 439.938 61.5163 439.938L259.159 439.986C260.032 439.986 260.476 439.542 260.492 438.654L260.735 428.868ZM222.011 450.014L30.6005 449.99C30.4205 449.99 30.2478 450.064 30.1204 450.195C29.9931 450.327 29.9216 450.506 29.9216 450.692L29.9458 459.46C29.9458 459.832 30.1156 460.017 30.455 460.017L116.292 459.969C117.31 459.969 118.287 460.371 119.009 461.088C119.732 461.805 120.141 462.779 120.147 463.796C120.163 475.487 120.171 499.765 120.171 536.63C120.171 541.636 120.01 545.148 119.686 547.167C119.542 548.046 119.088 548.846 118.403 549.423C117.719 550 116.85 550.316 115.952 550.315L31.4249 550.437C30.9748 550.437 30.5431 550.613 30.2247 550.926C29.9064 551.24 29.7276 551.665 29.7276 552.108L29.7761 558.381C29.7923 559.608 30.4389 560.222 31.7159 560.222L258.698 560.198C259.991 560.198 260.638 559.56 260.638 558.284L260.662 451.273C260.662 450.547 260.282 450.183 259.522 450.183L241.021 450.232L222.011 450.014ZM100.143 505.191C100.143 512.376 100.086 519.401 99.973 526.263C99.9602 527.328 99.5254 528.344 98.7629 529.092C98.0003 529.841 96.9714 530.26 95.8994 530.26L31.5704 530.236C31.101 530.236 30.6507 530.422 30.3188 530.754C29.9868 531.085 29.8003 531.535 29.8003 532.004L29.7519 538.641C29.7357 539.739 30.2772 540.288 31.3764 540.288L109.308 540.239C109.465 540.239 109.616 540.179 109.729 540.071C109.842 539.962 109.908 539.814 109.915 539.658C110.076 528.209 110.157 516.72 110.157 505.191C110.157 493.677 110.076 482.196 109.915 470.747C109.908 470.591 109.842 470.443 109.729 470.335C109.616 470.227 109.465 470.166 109.308 470.166L31.3764 470.094C30.2772 470.094 29.7357 470.643 29.7519 471.741L29.8003 478.377C29.8003 478.846 29.9868 479.296 30.3188 479.628C30.6507 479.959 31.101 480.145 31.5704 480.145H95.8994C96.9714 480.145 98.0003 480.565 98.7629 481.313C99.5254 482.061 99.9602 483.078 99.973 484.142C100.086 491.005 100.143 498.021 100.143 505.191ZM90.2497 490.827C90.2497 490.57 90.1475 490.324 89.9656 490.142C89.7837 489.96 89.537 489.858 89.2798 489.858H30.7945C30.5373 489.858 30.2906 489.96 30.1087 490.142C29.9268 490.324 29.8246 490.57 29.8246 490.827V519.215C29.8246 519.472 29.9268 519.718 30.1087 519.9C30.2906 520.082 30.5373 520.184 30.7945 520.184H89.2798C89.537 520.184 89.7837 520.082 89.9656 519.9C90.1475 519.718 90.2497 519.472 90.2497 519.215V490.827Z"/>
</mask>
<path d="M270.87 315.511L271.016 321.954L271.04 364.705L270.652 378.488L270.579 419.204L270.676 430.031L270.701 610.821C270.702 611.861 270.377 612.875 269.773 613.722C269.169 614.569 268.315 615.206 267.33 615.544C266.684 615.77 266.304 615.875 266.191 615.859C262.521 615.052 260.686 613.267 260.686 610.506L260.735 571.752C260.735 570.702 260.201 570.177 259.134 570.177H11.4206C10.5316 570.177 10.087 570.621 10.087 571.509L10.2325 614.769C10.2325 616.82 8.82615 618.879 6.01342 620.946C5.94876 620.994 5.87601 621.01 5.79518 620.994C1.94789 620.316 0.0242528 618.628 0.0242528 615.932L0 564.558C0.000347366 563.412 0.474904 562.313 1.31997 561.501C2.16505 560.688 3.31193 560.229 4.51006 560.222L18.5009 560.149C18.8932 560.149 19.2694 559.996 19.5468 559.724C19.8242 559.451 19.98 559.081 19.98 558.696L20.0528 443.183C20.0529 442.333 20.3944 441.517 21.0031 440.914C21.6117 440.31 22.4381 439.968 23.302 439.962L49.0772 439.792C49.7561 439.792 50.0956 439.461 50.0956 438.799L50.0229 401.086C50.0224 400.475 49.8952 399.869 49.6491 399.307C49.403 398.744 49.0433 398.237 48.5923 397.816C28.3697 379.214 16.7066 340.92 40.8815 319.12C54.7027 306.638 69.9948 306.444 86.758 318.539C89.4091 320.461 91.2843 322.487 92.3835 324.619C92.7016 325.228 92.8736 325.903 92.8858 326.59C92.898 327.277 92.7501 327.958 92.4538 328.578C92.1575 329.198 91.7208 329.741 91.1784 330.163C90.636 330.586 90.0026 330.877 89.3283 331.013C85.2304 331.861 81.0356 332.297 79.0715 334.574C76.2103 337.916 78.6836 342.64 81.7145 344.892C86.7095 348.606 92.4643 350.108 98.9789 349.397C100.013 349.284 100.531 348.703 100.531 347.653L100.215 305.992C100.207 305.114 100.018 304.248 99.6588 303.447C99.2999 302.647 98.7795 301.93 98.1302 301.342C81.1083 285.961 74.998 255.418 95.9479 240.158C107.635 231.656 122.79 235.822 131.762 246.334C132.277 246.958 132.545 247.743 132.513 248.539C132.336 252.398 129.684 254.441 124.56 254.667C123.784 254.715 123.21 255.078 122.839 255.757C121.61 258.082 122.127 259.987 124.39 261.473C128.529 264.218 133.459 265.09 139.181 264.089C139.925 263.944 140.305 263.5 140.321 262.757L140.394 219.933C140.394 219.045 140.062 218.318 139.4 217.753C127.082 207.532 121.238 194.71 121.869 179.289C122.717 158.071 145.243 141.455 164.132 155.431C166.872 157.465 170.194 159.282 171.382 162.722C171.561 163.234 171.629 163.78 171.582 164.327C171.535 164.874 171.373 165.412 171.108 165.909C170.842 166.407 170.476 166.854 170.032 167.226C169.588 167.597 169.075 167.886 168.521 168.075L162.605 170.085C162.142 170.24 161.726 170.508 161.395 170.865C161.063 171.223 160.829 171.656 160.715 172.124C160.6 172.591 160.609 173.077 160.74 173.535C160.872 173.992 161.121 174.406 161.465 174.735C165.636 178.692 171.471 180.169 178.972 179.168C179.877 179.039 180.338 178.522 180.354 177.618C180.516 163.86 180.524 149.101 180.378 133.341C180.378 132.194 180.314 131.46 180.184 131.137C179.812 130.297 179.295 129.514 178.632 128.787C162.071 110.621 157.779 81.1917 182.245 67.555C189.115 63.728 196.907 64.2205 205.62 69.0325C209.475 71.164 213.137 73.683 214.907 77.5827C215.137 78.0876 215.257 78.6358 215.258 79.1893C215.259 79.7429 215.141 80.2886 214.913 80.7885C214.684 81.2885 214.351 81.7308 213.935 82.0849C213.52 82.4389 213.032 82.6961 212.506 82.8388L206.711 84.4374C206.326 84.5387 205.965 84.7127 205.648 84.9495C205.331 85.1862 205.064 85.481 204.863 85.8167C204.662 86.1523 204.532 86.5223 204.478 86.905C204.425 87.2878 204.451 87.6758 204.553 88.0464C206.323 94.6105 218.859 94.5863 224.363 93.8354C224.694 93.7886 224.997 93.6278 225.215 93.3829C225.434 93.1379 225.553 92.8254 225.552 92.5032C225.665 75.3705 225.657 61.5884 225.527 51.157C225.511 48.8963 225.05 47.3542 224.145 46.5306C217.679 40.6529 213.993 33.5156 213.088 25.1188C210.809 3.99753 232.365 -9.08213 248.272 7.63076C248.679 8.05286 248.92 8.61202 248.95 9.20517C249.241 13.5005 247.374 15.6158 243.349 15.5512C243.169 15.5457 243 15.6024 242.866 15.7131C242.732 15.8239 242.639 15.9831 242.601 16.1682C242.564 16.3533 242.583 16.5548 242.656 16.7441C242.73 16.9333 242.853 17.1007 243.01 17.2225L243.907 17.9007C244.617 18.4361 245.5 18.7331 246.429 18.7485L266.263 18.8938C267.481 18.9002 268.646 19.3803 269.505 20.229C270.364 21.0778 270.846 22.2262 270.846 23.4233L270.87 315.511ZM232.414 12.8626C232.899 9.58465 231.824 8.93873 229.189 10.9249C227.459 12.2167 226.295 13.2663 225.697 14.0737C223.466 17.061 222.618 20.226 223.151 23.5686C224.315 30.835 226.659 35.5825 230.183 37.8109C230.878 38.2468 232.252 38.4891 234.305 38.5375C243.228 38.7151 251.593 38.8605 259.401 38.9735C260.339 38.9897 260.808 38.5214 260.808 37.5686V30.3991C260.791 29.3979 260.282 28.9054 259.28 28.9215C251.262 29.0992 246.582 29.0588 245.241 28.8004C235.348 26.9919 231.072 21.6793 232.414 12.8626ZM260.686 50.1397C260.686 49.8442 260.569 49.5607 260.36 49.3518C260.15 49.1428 259.867 49.0255 259.571 49.0255H236.972C236.676 49.0255 236.393 49.1428 236.183 49.3518C235.974 49.5607 235.857 49.8442 235.857 50.1397V92.9634C235.857 93.2589 235.974 93.5423 236.183 93.7513C236.393 93.9602 236.676 94.0776 236.972 94.0776H259.571C259.867 94.0776 260.15 93.9602 260.36 93.7513C260.569 93.5423 260.686 93.2589 260.686 92.9634V50.1397ZM194.636 90.7835C193.246 86.9242 194.224 82.427 197.57 77.2921C198.103 76.4847 197.893 75.9922 196.939 75.8145C189.115 74.3289 183.005 77.0821 178.608 84.0741C174.518 90.5978 174.074 98.494 177.274 107.763C178.794 112.187 181.017 116.224 183.943 119.874C186.157 122.635 188.186 124.024 190.029 124.04C206.048 124.153 229.245 124.193 259.619 124.161C259.911 124.154 260.189 124.034 260.393 123.826C260.596 123.618 260.711 123.338 260.711 123.047L260.759 105.486C260.759 104.598 260.315 104.154 259.425 104.154C246.736 104.154 233.545 104.17 219.853 104.202C208.699 104.251 198.637 101.901 194.636 90.7835ZM260.686 134.939C260.686 134.682 260.584 134.436 260.402 134.254C260.22 134.073 259.974 133.971 259.716 133.971H191.387C191.129 133.971 190.883 134.073 190.701 134.254C190.519 134.436 190.417 134.682 190.417 134.939V178.345C190.417 178.601 190.519 178.848 190.701 179.03C190.883 179.211 191.129 179.313 191.387 179.313H259.716C259.974 179.313 260.22 179.211 260.402 179.03C260.584 178.848 260.686 178.601 260.686 178.345V134.939ZM154.967 161.753C155.036 161.667 155.082 161.565 155.099 161.456C155.116 161.347 155.105 161.236 155.065 161.133C155.026 161.03 154.961 160.939 154.875 160.869C154.79 160.799 154.688 160.753 154.579 160.735C146.609 159.298 140.321 161.938 135.714 168.656C130.493 176.245 130.25 185.175 134.987 195.445C138.066 202.057 142.867 209.445 148.25 209.445C179.756 209.348 216.733 209.3 259.183 209.3C259.562 209.3 259.926 209.149 260.195 208.881C260.463 208.613 260.614 208.25 260.614 207.871L260.686 190.819C260.686 189.963 260.266 189.535 259.425 189.535C244.295 189.503 215.036 189.454 171.649 189.39C157.125 189.39 143.934 176.068 154.967 161.753ZM194.321 264.622L201.74 264.646L259.813 264.549C260.051 264.549 260.28 264.455 260.448 264.287C260.616 264.119 260.711 263.891 260.711 263.653L260.686 220.757C260.686 219.885 260.242 219.449 259.353 219.449L151.717 219.4C151.396 219.4 151.088 219.528 150.86 219.755C150.633 219.982 150.505 220.29 150.505 220.611L150.457 263.241C150.457 263.582 150.595 263.908 150.84 264.149C151.086 264.39 151.419 264.525 151.766 264.525L194.321 264.622ZM225.891 294.414L230.668 294.293L260.056 294.439C260.46 294.439 260.662 294.237 260.662 293.833L260.783 275.037C260.783 274.65 260.589 274.456 260.201 274.456C198.047 274.359 156.268 274.351 134.865 274.432C125.7 274.464 119.104 271.824 115.079 266.511C110.593 260.577 110.715 253.625 115.298 247.836C115.4 247.71 115.469 247.56 115.5 247.4C115.531 247.241 115.522 247.076 115.474 246.92C115.426 246.765 115.341 246.623 115.226 246.509C115.11 246.394 114.968 246.309 114.813 246.262C111.24 245.115 107.781 245.414 104.435 247.158C85.8367 256.847 92.2865 280.996 104.119 293.155C104.944 293.995 105.946 294.414 107.126 294.414H225.891ZM110.157 314.373L110.496 347.847C110.513 348.735 110.965 349.196 111.854 349.228L118.765 349.543L139.885 349.494L151.354 349.543H165.248L177.905 349.518L190.247 349.373L202.322 349.543L225.285 349.761L237.239 349.615L249.532 349.543L259.086 349.518C259.485 349.518 259.867 349.358 260.149 349.072C260.431 348.785 260.589 348.397 260.589 347.992L260.492 315.463L260.541 305.895C260.541 305.007 260.096 304.563 259.207 304.563L111.175 304.515C110.319 304.515 109.898 304.943 109.915 305.798L110.157 314.373ZM106.738 384.858L118.789 385.052L138.866 385.003L151.257 384.93H165.32L178.948 385.052L190.611 384.906L204.189 384.955L225.891 384.809L239.955 385.076L259.716 384.809C259.9 384.806 260.081 384.767 260.249 384.693C260.417 384.619 260.569 384.512 260.695 384.379C260.822 384.246 260.921 384.089 260.986 383.918C261.051 383.746 261.081 383.564 261.074 383.38L260.274 361.193C260.242 360.337 259.789 359.91 258.916 359.91L201.619 359.595L189.326 359.474L178.826 359.692L164.254 359.619H153.003L139.594 359.522L118.571 359.546L105.744 359.643C102.236 359.498 98.8091 359.465 95.4629 359.546C83.1694 359.788 69.0815 352.546 67.7964 339.563C67.1983 333.524 69.7443 328.373 75.4344 324.11C75.5304 324.042 75.607 323.95 75.6566 323.843C75.7062 323.736 75.7271 323.618 75.7174 323.501C75.7076 323.384 75.6674 323.271 75.6008 323.174C75.5342 323.077 75.4434 322.999 75.3374 322.947C58.9945 314.518 44.7611 324.691 39.1357 340.339C34.1649 354.193 40.8573 372.481 49.4894 384.01C49.9744 384.656 50.621 384.979 51.4292 384.979L106.738 384.858ZM260.735 428.868L260.492 396.242C260.489 396.086 260.455 395.932 260.393 395.79C260.33 395.647 260.24 395.518 260.127 395.41C260.015 395.302 259.882 395.217 259.737 395.16C259.591 395.104 259.436 395.076 259.28 395.079L250.745 395.2L239.154 394.934L225.552 394.861L203.801 394.91L190.465 395.031L179.36 394.91L165.587 395.055L152.445 394.958H140.733L120.002 394.837L105.671 394.885L61.3223 394.982C60.514 394.982 60.1099 395.378 60.1099 396.169L60.1341 438.581C60.1341 439.486 60.5949 439.938 61.5163 439.938L259.159 439.986C260.032 439.986 260.476 439.542 260.492 438.654L260.735 428.868ZM222.011 450.014L30.6005 449.99C30.4205 449.99 30.2478 450.064 30.1204 450.195C29.9931 450.327 29.9216 450.506 29.9216 450.692L29.9458 459.46C29.9458 459.832 30.1156 460.017 30.455 460.017L116.292 459.969C117.31 459.969 118.287 460.371 119.009 461.088C119.732 461.805 120.141 462.779 120.147 463.796C120.163 475.487 120.171 499.765 120.171 536.63C120.171 541.636 120.01 545.148 119.686 547.167C119.542 548.046 119.088 548.846 118.403 549.423C117.719 550 116.85 550.316 115.952 550.315L31.4249 550.437C30.9748 550.437 30.5431 550.613 30.2247 550.926C29.9064 551.24 29.7276 551.665 29.7276 552.108L29.7761 558.381C29.7923 559.608 30.4389 560.222 31.7159 560.222L258.698 560.198C259.991 560.198 260.638 559.56 260.638 558.284L260.662 451.273C260.662 450.547 260.282 450.183 259.522 450.183L241.021 450.232L222.011 450.014ZM100.143 505.191C100.143 512.376 100.086 519.401 99.973 526.263C99.9602 527.328 99.5254 528.344 98.7629 529.092C98.0003 529.841 96.9714 530.26 95.8994 530.26L31.5704 530.236C31.101 530.236 30.6507 530.422 30.3188 530.754C29.9868 531.085 29.8003 531.535 29.8003 532.004L29.7519 538.641C29.7357 539.739 30.2772 540.288 31.3764 540.288L109.308 540.239C109.465 540.239 109.616 540.179 109.729 540.071C109.842 539.962 109.908 539.814 109.915 539.658C110.076 528.209 110.157 516.72 110.157 505.191C110.157 493.677 110.076 482.196 109.915 470.747C109.908 470.591 109.842 470.443 109.729 470.335C109.616 470.227 109.465 470.166 109.308 470.166L31.3764 470.094C30.2772 470.094 29.7357 470.643 29.7519 471.741L29.8003 478.377C29.8003 478.846 29.9868 479.296 30.3188 479.628C30.6507 479.959 31.101 480.145 31.5704 480.145H95.8994C96.9714 480.145 98.0003 480.565 98.7629 481.313C99.5254 482.061 99.9602 483.078 99.973 484.142C100.086 491.005 100.143 498.021 100.143 505.191ZM90.2497 490.827C90.2497 490.57 90.1475 490.324 89.9656 490.142C89.7837 489.96 89.537 489.858 89.2798 489.858H30.7945C30.5373 489.858 30.2906 489.96 30.1087 490.142C29.9268 490.324 29.8246 490.57 29.8246 490.827V519.215C29.8246 519.472 29.9268 519.718 30.1087 519.9C30.2906 520.082 30.5373 520.184 30.7945 520.184H89.2798C89.537 520.184 89.7837 520.082 89.9656 519.9C90.1475 519.718 90.2497 519.472 90.2497 519.215V490.827Z" fill="#F5EFE4" stroke="#FFFDF7" stroke-width="2" mask="url(#path-1-inside-1_30_10467)"/>
<mask id="path-2-inside-2_30_10467" fill="white">
<path d="M573.141 439.865L597.898 439.962C599.025 439.968 600.105 440.42 600.9 441.219C601.695 442.018 602.141 443.098 602.141 444.225L602.068 559.18C602.069 559.401 602.166 559.613 602.338 559.771C602.51 559.93 602.744 560.022 602.99 560.028L618.339 560.416C619.288 560.441 620.19 560.818 620.855 561.469C621.52 562.12 621.896 562.993 621.903 563.904L622 615.932C622.002 617.074 621.56 618.194 620.748 619.103C619.935 620.012 618.802 620.654 617.538 620.921C617.474 620.937 617.409 620.937 617.344 620.921C615.823 620.641 614.446 619.93 613.453 618.912C612.461 617.894 611.916 616.634 611.913 615.35L611.937 571.727C611.937 570.694 611.404 570.177 610.337 570.177H362.841C361.839 570.177 361.338 570.678 361.338 571.679L361.095 610.918C361.079 613.324 359.932 614.826 357.652 615.423C357.07 615.584 356.658 615.665 356.416 615.665C355.03 615.659 353.704 615.043 352.727 613.954C351.75 612.864 351.202 611.39 351.202 609.852V23.7622C351.202 20.565 352.803 18.9583 356.003 18.9421C367.23 18.9179 375.717 19.5961 378.651 17.7068C379.572 17.1094 379.532 16.6007 378.529 16.1809C376.913 15.5026 375.822 14.9859 375.256 14.6307C374.092 13.904 373.381 13.1128 373.122 12.257C370.77 4.62717 384.64 -0.071834 389.877 0.00083074C400.474 0.14616 408.936 10.7794 408.96 20.7587C408.993 31.3032 405.331 39.7323 397.976 46.0461C397.361 46.569 396.866 47.2254 396.527 47.9699C396.188 48.7143 396.012 49.529 396.012 50.3575L396.061 92.6969C396.059 92.9561 396.154 93.2073 396.328 93.4035C396.502 93.5997 396.743 93.7273 397.006 93.7626C402.777 94.5377 408.023 94.1179 412.743 92.5031C414.78 91.8087 416.283 90.4604 417.253 88.4581C417.438 88.0683 417.532 87.6414 417.527 87.2099C417.523 86.7784 417.419 86.3537 417.225 85.9682C417.031 85.5827 416.751 85.2466 416.407 84.9855C416.063 84.7244 415.664 84.5452 415.24 84.4615L410.318 83.5169C409.64 83.3834 409.003 83.0927 408.457 82.6681C407.912 82.2435 407.474 81.6969 407.18 81.0723C406.885 80.4478 406.741 79.7627 406.759 79.0724C406.778 78.3821 406.959 77.7059 407.287 77.0982C409.081 73.691 412.072 70.8732 416.259 68.6448C428.067 62.3714 438.664 64.3092 447.732 73.5376C463.445 89.4996 457.043 115.271 442.373 129.925C441.872 130.426 441.622 131.032 441.622 131.742L441.549 177.739C441.549 178.627 442.002 179.136 442.907 179.265C449.826 180.379 455.71 178.813 460.559 174.566C460.925 174.244 461.195 173.83 461.341 173.366C461.487 172.902 461.504 172.407 461.389 171.932C461.275 171.457 461.034 171.021 460.691 170.671C460.348 170.32 459.917 170.067 459.444 169.94L453.382 168.341C452.774 168.183 452.208 167.893 451.725 167.492C451.243 167.091 450.856 166.589 450.594 166.022C450.331 165.456 450.199 164.839 450.207 164.218C450.216 163.597 450.364 162.986 450.642 162.431C451.935 159.831 453.875 157.7 456.461 156.036C470.38 147.042 482.649 148.729 493.269 161.099C499.267 168.091 501.408 177.012 499.695 187.863C497.707 200.539 491.96 210.462 482.455 217.632C482.183 217.842 481.963 218.111 481.812 218.417C481.661 218.724 481.582 219.06 481.582 219.4L481.558 262.902C481.558 263.709 481.954 264.17 482.746 264.283C489.6 265.3 495.128 263.822 499.331 259.85C499.707 259.492 499.983 259.041 500.131 258.543C500.279 258.046 500.293 257.521 500.171 257.025C500.049 256.528 499.796 256.078 499.439 255.723C499.082 255.368 498.634 255.12 498.143 255.006L492.833 253.746C492.084 253.57 491.39 253.211 490.815 252.702C490.239 252.193 489.801 251.551 489.54 250.834C489.279 250.117 489.204 249.349 489.322 248.601C489.44 247.853 489.746 247.148 490.214 246.552C500.301 233.667 517.881 231.656 529.738 243.428C546.444 259.971 539.146 286.106 524.112 300.978C521.688 303.4 521.906 304.733 521.906 307.736C521.938 326.726 522.003 340.209 522.1 348.186C522.1 349.123 522.569 349.599 523.506 349.615C532.106 349.761 538.386 347.379 542.346 342.47C546.541 337.262 543.219 332.927 537.521 332.006C534.676 331.522 532.825 331.158 531.969 330.916C531.29 330.71 530.674 330.338 530.175 329.836C529.675 329.333 529.308 328.714 529.106 328.035C528.905 327.357 528.875 326.638 529.019 325.945C529.163 325.251 529.476 324.604 529.932 324.061C537.562 315.019 546.663 310.223 557.235 309.674C571.225 308.923 584.562 319.362 590.357 331.643C600.88 353.927 590.672 382.532 572.705 398.252C572.476 398.449 572.293 398.696 572.167 398.976C572.042 399.256 571.977 399.563 571.977 399.875L571.832 438.581C571.832 439.437 572.268 439.865 573.141 439.865ZM389.489 12.3054C390.783 21.2835 386.636 26.693 377.05 28.5339C374.642 28.986 369.671 29.0829 362.138 28.8245C361.999 28.8213 361.861 28.8465 361.732 28.8986C361.602 28.9507 361.485 29.0287 361.385 29.128C361.286 29.2272 361.207 29.3458 361.153 29.4767C361.099 29.6077 361.071 29.7483 361.071 29.8903L361.12 37.835C361.119 37.977 361.15 38.1176 361.208 38.2485C361.267 38.3794 361.353 38.4979 361.461 38.5972C361.57 38.6965 361.698 38.7745 361.84 38.8266C361.981 38.8787 362.132 38.9039 362.284 38.9007L388.738 38.7312C389.637 38.7231 390.523 38.5119 391.329 38.1134C392.136 37.715 392.841 37.1395 393.393 36.4301C397.936 30.6169 399.657 24.6019 398.558 18.385C398.123 15.9895 396.797 13.8512 394.848 12.4023L392.399 10.5857C390.039 8.84172 389.069 9.41496 389.489 12.3054ZM386.264 50.5029C386.264 50.111 386.109 49.7352 385.831 49.4581C385.554 49.181 385.178 49.0253 384.785 49.0253H362.672C362.279 49.0253 361.903 49.181 361.626 49.4581C361.348 49.7352 361.192 50.111 361.192 50.5029V92.6484C361.192 93.0403 361.348 93.4161 361.626 93.6932C361.903 93.9703 362.279 94.1259 362.672 94.1259H384.785C385.178 94.1259 385.554 93.9703 385.831 93.6932C386.109 93.4161 386.264 93.0403 386.264 92.6484V50.5029ZM426.297 81.0705C429.862 87.0048 426.516 95.1675 421.593 98.946C414.077 104.687 407.263 104.154 395.43 104.202C383.403 104.234 372.395 104.21 362.405 104.129C361.613 104.129 361.217 104.517 361.217 105.292L361.192 123.047C361.192 123.323 361.3 123.588 361.491 123.783C361.682 123.978 361.941 124.088 362.211 124.088C380.283 124.169 402.591 124.161 429.134 124.064C431.656 124.048 433.467 123.684 434.566 122.974C435.762 122.183 437.079 120.81 438.518 118.856C444.612 110.669 447.263 102.289 446.471 93.7142C445.647 84.8975 440.886 78.8502 432.19 75.5722C431.705 75.3784 429.353 75.6045 425.133 76.2504C424.099 76.4119 423.848 76.9367 424.382 77.8248C424.754 78.4707 425.392 79.5526 426.297 81.0705ZM431.486 134.818C431.486 134.606 431.402 134.403 431.252 134.253C431.102 134.103 430.898 134.019 430.686 134.019H362.017C361.805 134.019 361.601 134.103 361.451 134.253C361.301 134.403 361.217 134.606 361.217 134.818V178.562C361.217 178.774 361.301 178.978 361.451 179.128C361.601 179.278 361.805 179.362 362.017 179.362H430.686C430.898 179.362 431.102 179.278 431.252 179.128C431.402 178.978 431.486 178.774 431.486 178.562V134.818ZM470.986 169.286C472.683 182.438 460.293 189.511 448.872 189.486C419.419 189.373 390.589 189.389 362.381 189.535C361.572 189.551 361.168 189.955 361.168 190.746L361.289 208.21C361.296 208.514 361.419 208.803 361.632 209.016C361.845 209.229 362.131 209.348 362.429 209.348C422.288 209.316 459.331 209.356 473.556 209.469C478.163 209.493 479.545 207.556 482.14 204.165C492.081 191.206 495.355 168.946 476.829 161.171C474.906 160.38 471.972 160.259 468.028 160.808C467.041 160.937 466.815 161.422 467.349 162.261C469.628 165.83 470.84 168.171 470.986 169.286ZM471.457 220.394C471.457 220.254 471.429 220.116 471.375 219.986C471.322 219.857 471.243 219.74 471.144 219.641C471.044 219.542 470.927 219.464 470.797 219.41C470.667 219.357 470.529 219.33 470.388 219.33L362.341 219.518C362.201 219.519 362.062 219.546 361.933 219.6C361.804 219.654 361.686 219.733 361.587 219.832C361.488 219.931 361.41 220.049 361.357 220.178C361.303 220.308 361.276 220.446 361.276 220.586L361.351 263.603C361.351 263.743 361.379 263.882 361.433 264.011C361.487 264.14 361.566 264.258 361.665 264.357C361.764 264.455 361.882 264.534 362.012 264.587C362.141 264.64 362.28 264.668 362.42 264.667L470.467 264.479C470.607 264.479 470.746 264.451 470.876 264.397C471.005 264.343 471.122 264.265 471.221 264.166C471.32 264.066 471.399 263.949 471.452 263.819C471.505 263.69 471.533 263.551 471.533 263.411L471.457 220.394ZM506.363 247.352C511.423 255.07 511.342 261.739 506.121 267.359C501.691 272.106 495.532 274.472 487.644 274.456C438.486 274.326 396.61 274.318 362.017 274.431C361.817 274.431 361.626 274.516 361.485 274.666C361.344 274.815 361.265 275.019 361.265 275.231L361.217 293.833C361.217 294.301 361.451 294.535 361.92 294.535C444.523 294.535 494.506 294.527 511.867 294.511C516.353 294.511 517.784 293.518 520.354 290.2C527.749 280.681 532.478 266.584 526.416 255.66C522.827 249.217 514.146 243.016 506.581 246.552C506.511 246.588 506.45 246.637 506.4 246.697C506.351 246.758 506.314 246.828 506.294 246.903C506.273 246.979 506.269 247.058 506.281 247.135C506.293 247.212 506.321 247.286 506.363 247.352ZM361.241 315.075L361.653 349.349L388.714 349.543L401.516 349.518H410.73L423.072 349.543L444.653 349.639L456.995 349.518H470.113H482.867C486.391 350.019 489.382 349.987 491.839 349.421L509.224 349.979C511.245 350.043 512.247 349.066 512.231 347.048L511.916 311.975C512.514 309.666 512.49 307.591 511.843 305.75C511.568 304.926 510.994 304.515 510.121 304.515L362.72 304.563C361.863 304.563 361.427 304.999 361.411 305.871L361.241 315.075ZM499.21 359.57L470.258 359.643L423.509 359.546L410.148 359.74L401.613 359.788L388.083 359.57L362.599 359.619C362.243 359.625 361.904 359.768 361.654 360.017C361.405 360.267 361.265 360.602 361.265 360.951L361.386 383.695C361.386 383.971 361.496 384.236 361.692 384.432C361.887 384.627 362.153 384.737 362.429 384.737L387.671 384.955L402.122 385.027L410.561 385.124L424.333 384.979H470.768L504.302 385.076L570.207 385.051C571.031 385.051 571.694 384.728 572.195 384.083C586.962 365.287 590.939 336.729 568.413 322.584C565.068 320.498 561.018 319.61 556.919 320.065C555.513 320.21 553.161 320.606 549.863 321.252C546.081 321.995 545.652 323.617 548.578 326.12C553.686 330.464 555.254 336.083 553.282 342.979C550.082 354.096 536.964 359.764 525.834 359.691C516.959 359.627 508.085 359.586 499.21 359.57ZM360.756 429.353L361.144 438.969C361.156 439.243 361.274 439.502 361.473 439.691C361.672 439.881 361.936 439.986 362.211 439.986L560.387 439.938C561.324 439.938 561.801 439.469 561.817 438.533L561.89 396.121C561.89 395.394 561.526 395.031 560.799 395.031L506.896 394.837L491.742 395.007L483.837 394.982L471.01 395.055L456.049 395.152L445.113 394.861L423.873 394.958L411.094 395.103L401.419 395.055L388.762 394.958L366.891 394.837C365.371 394.595 364.021 394.659 362.841 395.031C362.033 395.273 361.613 395.814 361.58 396.654L360.756 429.353ZM381.294 449.868L362.308 450.208C361.58 450.224 361.217 450.587 361.217 451.297L361.338 558.623C361.338 559.047 361.507 559.454 361.807 559.754C362.107 560.054 362.514 560.222 362.938 560.222L590.114 560.198C590.588 560.199 591.044 560.024 591.383 559.712C591.723 559.4 591.92 558.975 591.933 558.526L592.151 551.623C592.154 551.463 592.12 551.303 592.051 551.153C591.982 551.004 591.879 550.867 591.748 550.752C591.617 550.637 591.461 550.546 591.289 550.483C591.116 550.421 590.932 550.388 590.745 550.388H506.606C503.372 550.388 501.756 548.781 501.756 545.568L501.829 464.159C501.829 461.43 503.195 460.066 505.927 460.066L590.284 459.945C591.335 459.945 591.876 459.404 591.909 458.322L592.127 451.733C592.159 450.555 591.569 449.965 590.357 449.965L394.848 449.893L381.294 449.868ZM511.794 505.215C511.794 521.379 511.9 532.577 512.11 538.81C512.142 539.763 512.643 540.239 513.613 540.239L590.769 540.263C591.11 540.263 591.437 540.098 591.678 539.802C591.919 539.507 592.054 539.107 592.054 538.689V531.907C592.054 530.809 591.569 530.26 590.599 530.26H526.343C525.187 530.267 524.073 529.823 523.24 529.022C522.407 528.221 521.919 527.127 521.881 525.973C521.833 524.277 521.809 517.358 521.809 505.215C521.809 493.072 521.825 486.152 521.857 484.457C521.895 483.302 522.383 482.208 523.216 481.408C524.049 480.607 525.163 480.163 526.319 480.17L590.575 480.121C591.545 480.121 592.03 479.572 592.03 478.474V471.692C592.03 471.275 591.895 470.874 591.654 470.579C591.413 470.284 591.086 470.118 590.745 470.118L513.589 470.19C512.619 470.19 512.118 470.667 512.085 471.619C511.875 477.852 511.778 489.051 511.794 505.215ZM591.957 490.803C591.957 490.559 591.86 490.325 591.687 490.152C591.514 489.979 591.28 489.883 591.036 489.883H532.744C532.5 489.883 532.266 489.979 532.093 490.152C531.92 490.325 531.823 490.559 531.823 490.803V519.239C531.823 519.483 531.92 519.717 532.093 519.89C532.266 520.062 532.5 520.159 532.744 520.159H591.036C591.28 520.159 591.514 520.062 591.687 519.89C591.86 519.717 591.957 519.483 591.957 519.239V490.803Z"/>
</mask>
<path d="M573.141 439.865L597.898 439.962C599.025 439.968 600.105 440.42 600.9 441.219C601.695 442.018 602.141 443.098 602.141 444.225L602.068 559.18C602.069 559.401 602.166 559.613 602.338 559.771C602.51 559.93 602.744 560.022 602.99 560.028L618.339 560.416C619.288 560.441 620.19 560.818 620.855 561.469C621.52 562.12 621.896 562.993 621.903 563.904L622 615.932C622.002 617.074 621.56 618.194 620.748 619.103C619.935 620.012 618.802 620.654 617.538 620.921C617.474 620.937 617.409 620.937 617.344 620.921C615.823 620.641 614.446 619.93 613.453 618.912C612.461 617.894 611.916 616.634 611.913 615.35L611.937 571.727C611.937 570.694 611.404 570.177 610.337 570.177H362.841C361.839 570.177 361.338 570.678 361.338 571.679L361.095 610.918C361.079 613.324 359.932 614.826 357.652 615.423C357.07 615.584 356.658 615.665 356.416 615.665C355.03 615.659 353.704 615.043 352.727 613.954C351.75 612.864 351.202 611.39 351.202 609.852V23.7622C351.202 20.565 352.803 18.9583 356.003 18.9421C367.23 18.9179 375.717 19.5961 378.651 17.7068C379.572 17.1094 379.532 16.6007 378.529 16.1809C376.913 15.5026 375.822 14.9859 375.256 14.6307C374.092 13.904 373.381 13.1128 373.122 12.257C370.77 4.62717 384.64 -0.071834 389.877 0.00083074C400.474 0.14616 408.936 10.7794 408.96 20.7587C408.993 31.3032 405.331 39.7323 397.976 46.0461C397.361 46.569 396.866 47.2254 396.527 47.9699C396.188 48.7143 396.012 49.529 396.012 50.3575L396.061 92.6969C396.059 92.9561 396.154 93.2073 396.328 93.4035C396.502 93.5997 396.743 93.7273 397.006 93.7626C402.777 94.5377 408.023 94.1179 412.743 92.5031C414.78 91.8087 416.283 90.4604 417.253 88.4581C417.438 88.0683 417.532 87.6414 417.527 87.2099C417.523 86.7784 417.419 86.3537 417.225 85.9682C417.031 85.5827 416.751 85.2466 416.407 84.9855C416.063 84.7244 415.664 84.5452 415.24 84.4615L410.318 83.5169C409.64 83.3834 409.003 83.0927 408.457 82.6681C407.912 82.2435 407.474 81.6969 407.18 81.0723C406.885 80.4478 406.741 79.7627 406.759 79.0724C406.778 78.3821 406.959 77.7059 407.287 77.0982C409.081 73.691 412.072 70.8732 416.259 68.6448C428.067 62.3714 438.664 64.3092 447.732 73.5376C463.445 89.4996 457.043 115.271 442.373 129.925C441.872 130.426 441.622 131.032 441.622 131.742L441.549 177.739C441.549 178.627 442.002 179.136 442.907 179.265C449.826 180.379 455.71 178.813 460.559 174.566C460.925 174.244 461.195 173.83 461.341 173.366C461.487 172.902 461.504 172.407 461.389 171.932C461.275 171.457 461.034 171.021 460.691 170.671C460.348 170.32 459.917 170.067 459.444 169.94L453.382 168.341C452.774 168.183 452.208 167.893 451.725 167.492C451.243 167.091 450.856 166.589 450.594 166.022C450.331 165.456 450.199 164.839 450.207 164.218C450.216 163.597 450.364 162.986 450.642 162.431C451.935 159.831 453.875 157.7 456.461 156.036C470.38 147.042 482.649 148.729 493.269 161.099C499.267 168.091 501.408 177.012 499.695 187.863C497.707 200.539 491.96 210.462 482.455 217.632C482.183 217.842 481.963 218.111 481.812 218.417C481.661 218.724 481.582 219.06 481.582 219.4L481.558 262.902C481.558 263.709 481.954 264.17 482.746 264.283C489.6 265.3 495.128 263.822 499.331 259.85C499.707 259.492 499.983 259.041 500.131 258.543C500.279 258.046 500.293 257.521 500.171 257.025C500.049 256.528 499.796 256.078 499.439 255.723C499.082 255.368 498.634 255.12 498.143 255.006L492.833 253.746C492.084 253.57 491.39 253.211 490.815 252.702C490.239 252.193 489.801 251.551 489.54 250.834C489.279 250.117 489.204 249.349 489.322 248.601C489.44 247.853 489.746 247.148 490.214 246.552C500.301 233.667 517.881 231.656 529.738 243.428C546.444 259.971 539.146 286.106 524.112 300.978C521.688 303.4 521.906 304.733 521.906 307.736C521.938 326.726 522.003 340.209 522.1 348.186C522.1 349.123 522.569 349.599 523.506 349.615C532.106 349.761 538.386 347.379 542.346 342.47C546.541 337.262 543.219 332.927 537.521 332.006C534.676 331.522 532.825 331.158 531.969 330.916C531.29 330.71 530.674 330.338 530.175 329.836C529.675 329.333 529.308 328.714 529.106 328.035C528.905 327.357 528.875 326.638 529.019 325.945C529.163 325.251 529.476 324.604 529.932 324.061C537.562 315.019 546.663 310.223 557.235 309.674C571.225 308.923 584.562 319.362 590.357 331.643C600.88 353.927 590.672 382.532 572.705 398.252C572.476 398.449 572.293 398.696 572.167 398.976C572.042 399.256 571.977 399.563 571.977 399.875L571.832 438.581C571.832 439.437 572.268 439.865 573.141 439.865ZM389.489 12.3054C390.783 21.2835 386.636 26.693 377.05 28.5339C374.642 28.986 369.671 29.0829 362.138 28.8245C361.999 28.8213 361.861 28.8465 361.732 28.8986C361.602 28.9507 361.485 29.0287 361.385 29.128C361.286 29.2272 361.207 29.3458 361.153 29.4767C361.099 29.6077 361.071 29.7483 361.071 29.8903L361.12 37.835C361.119 37.977 361.15 38.1176 361.208 38.2485C361.267 38.3794 361.353 38.4979 361.461 38.5972C361.57 38.6965 361.698 38.7745 361.84 38.8266C361.981 38.8787 362.132 38.9039 362.284 38.9007L388.738 38.7312C389.637 38.7231 390.523 38.5119 391.329 38.1134C392.136 37.715 392.841 37.1395 393.393 36.4301C397.936 30.6169 399.657 24.6019 398.558 18.385C398.123 15.9895 396.797 13.8512 394.848 12.4023L392.399 10.5857C390.039 8.84172 389.069 9.41496 389.489 12.3054ZM386.264 50.5029C386.264 50.111 386.109 49.7352 385.831 49.4581C385.554 49.181 385.178 49.0253 384.785 49.0253H362.672C362.279 49.0253 361.903 49.181 361.626 49.4581C361.348 49.7352 361.192 50.111 361.192 50.5029V92.6484C361.192 93.0403 361.348 93.4161 361.626 93.6932C361.903 93.9703 362.279 94.1259 362.672 94.1259H384.785C385.178 94.1259 385.554 93.9703 385.831 93.6932C386.109 93.4161 386.264 93.0403 386.264 92.6484V50.5029ZM426.297 81.0705C429.862 87.0048 426.516 95.1675 421.593 98.946C414.077 104.687 407.263 104.154 395.43 104.202C383.403 104.234 372.395 104.21 362.405 104.129C361.613 104.129 361.217 104.517 361.217 105.292L361.192 123.047C361.192 123.323 361.3 123.588 361.491 123.783C361.682 123.978 361.941 124.088 362.211 124.088C380.283 124.169 402.591 124.161 429.134 124.064C431.656 124.048 433.467 123.684 434.566 122.974C435.762 122.183 437.079 120.81 438.518 118.856C444.612 110.669 447.263 102.289 446.471 93.7142C445.647 84.8975 440.886 78.8502 432.19 75.5722C431.705 75.3784 429.353 75.6045 425.133 76.2504C424.099 76.4119 423.848 76.9367 424.382 77.8248C424.754 78.4707 425.392 79.5526 426.297 81.0705ZM431.486 134.818C431.486 134.606 431.402 134.403 431.252 134.253C431.102 134.103 430.898 134.019 430.686 134.019H362.017C361.805 134.019 361.601 134.103 361.451 134.253C361.301 134.403 361.217 134.606 361.217 134.818V178.562C361.217 178.774 361.301 178.978 361.451 179.128C361.601 179.278 361.805 179.362 362.017 179.362H430.686C430.898 179.362 431.102 179.278 431.252 179.128C431.402 178.978 431.486 178.774 431.486 178.562V134.818ZM470.986 169.286C472.683 182.438 460.293 189.511 448.872 189.486C419.419 189.373 390.589 189.389 362.381 189.535C361.572 189.551 361.168 189.955 361.168 190.746L361.289 208.21C361.296 208.514 361.419 208.803 361.632 209.016C361.845 209.229 362.131 209.348 362.429 209.348C422.288 209.316 459.331 209.356 473.556 209.469C478.163 209.493 479.545 207.556 482.14 204.165C492.081 191.206 495.355 168.946 476.829 161.171C474.906 160.38 471.972 160.259 468.028 160.808C467.041 160.937 466.815 161.422 467.349 162.261C469.628 165.83 470.84 168.171 470.986 169.286ZM471.457 220.394C471.457 220.254 471.429 220.116 471.375 219.986C471.322 219.857 471.243 219.74 471.144 219.641C471.044 219.542 470.927 219.464 470.797 219.41C470.667 219.357 470.529 219.33 470.388 219.33L362.341 219.518C362.201 219.519 362.062 219.546 361.933 219.6C361.804 219.654 361.686 219.733 361.587 219.832C361.488 219.931 361.41 220.049 361.357 220.178C361.303 220.308 361.276 220.446 361.276 220.586L361.351 263.603C361.351 263.743 361.379 263.882 361.433 264.011C361.487 264.14 361.566 264.258 361.665 264.357C361.764 264.455 361.882 264.534 362.012 264.587C362.141 264.64 362.28 264.668 362.42 264.667L470.467 264.479C470.607 264.479 470.746 264.451 470.876 264.397C471.005 264.343 471.122 264.265 471.221 264.166C471.32 264.066 471.399 263.949 471.452 263.819C471.505 263.69 471.533 263.551 471.533 263.411L471.457 220.394ZM506.363 247.352C511.423 255.07 511.342 261.739 506.121 267.359C501.691 272.106 495.532 274.472 487.644 274.456C438.486 274.326 396.61 274.318 362.017 274.431C361.817 274.431 361.626 274.516 361.485 274.666C361.344 274.815 361.265 275.019 361.265 275.231L361.217 293.833C361.217 294.301 361.451 294.535 361.92 294.535C444.523 294.535 494.506 294.527 511.867 294.511C516.353 294.511 517.784 293.518 520.354 290.2C527.749 280.681 532.478 266.584 526.416 255.66C522.827 249.217 514.146 243.016 506.581 246.552C506.511 246.588 506.45 246.637 506.4 246.697C506.351 246.758 506.314 246.828 506.294 246.903C506.273 246.979 506.269 247.058 506.281 247.135C506.293 247.212 506.321 247.286 506.363 247.352ZM361.241 315.075L361.653 349.349L388.714 349.543L401.516 349.518H410.73L423.072 349.543L444.653 349.639L456.995 349.518H470.113H482.867C486.391 350.019 489.382 349.987 491.839 349.421L509.224 349.979C511.245 350.043 512.247 349.066 512.231 347.048L511.916 311.975C512.514 309.666 512.49 307.591 511.843 305.75C511.568 304.926 510.994 304.515 510.121 304.515L362.72 304.563C361.863 304.563 361.427 304.999 361.411 305.871L361.241 315.075ZM499.21 359.57L470.258 359.643L423.509 359.546L410.148 359.74L401.613 359.788L388.083 359.57L362.599 359.619C362.243 359.625 361.904 359.768 361.654 360.017C361.405 360.267 361.265 360.602 361.265 360.951L361.386 383.695C361.386 383.971 361.496 384.236 361.692 384.432C361.887 384.627 362.153 384.737 362.429 384.737L387.671 384.955L402.122 385.027L410.561 385.124L424.333 384.979H470.768L504.302 385.076L570.207 385.051C571.031 385.051 571.694 384.728 572.195 384.083C586.962 365.287 590.939 336.729 568.413 322.584C565.068 320.498 561.018 319.61 556.919 320.065C555.513 320.21 553.161 320.606 549.863 321.252C546.081 321.995 545.652 323.617 548.578 326.12C553.686 330.464 555.254 336.083 553.282 342.979C550.082 354.096 536.964 359.764 525.834 359.691C516.959 359.627 508.085 359.586 499.21 359.57ZM360.756 429.353L361.144 438.969C361.156 439.243 361.274 439.502 361.473 439.691C361.672 439.881 361.936 439.986 362.211 439.986L560.387 439.938C561.324 439.938 561.801 439.469 561.817 438.533L561.89 396.121C561.89 395.394 561.526 395.031 560.799 395.031L506.896 394.837L491.742 395.007L483.837 394.982L471.01 395.055L456.049 395.152L445.113 394.861L423.873 394.958L411.094 395.103L401.419 395.055L388.762 394.958L366.891 394.837C365.371 394.595 364.021 394.659 362.841 395.031C362.033 395.273 361.613 395.814 361.58 396.654L360.756 429.353ZM381.294 449.868L362.308 450.208C361.58 450.224 361.217 450.587 361.217 451.297L361.338 558.623C361.338 559.047 361.507 559.454 361.807 559.754C362.107 560.054 362.514 560.222 362.938 560.222L590.114 560.198C590.588 560.199 591.044 560.024 591.383 559.712C591.723 559.4 591.92 558.975 591.933 558.526L592.151 551.623C592.154 551.463 592.12 551.303 592.051 551.153C591.982 551.004 591.879 550.867 591.748 550.752C591.617 550.637 591.461 550.546 591.289 550.483C591.116 550.421 590.932 550.388 590.745 550.388H506.606C503.372 550.388 501.756 548.781 501.756 545.568L501.829 464.159C501.829 461.43 503.195 460.066 505.927 460.066L590.284 459.945C591.335 459.945 591.876 459.404 591.909 458.322L592.127 451.733C592.159 450.555 591.569 449.965 590.357 449.965L394.848 449.893L381.294 449.868ZM511.794 505.215C511.794 521.379 511.9 532.577 512.11 538.81C512.142 539.763 512.643 540.239 513.613 540.239L590.769 540.263C591.11 540.263 591.437 540.098 591.678 539.802C591.919 539.507 592.054 539.107 592.054 538.689V531.907C592.054 530.809 591.569 530.26 590.599 530.26H526.343C525.187 530.267 524.073 529.823 523.24 529.022C522.407 528.221 521.919 527.127 521.881 525.973C521.833 524.277 521.809 517.358 521.809 505.215C521.809 493.072 521.825 486.152 521.857 484.457C521.895 483.302 522.383 482.208 523.216 481.408C524.049 480.607 525.163 480.163 526.319 480.17L590.575 480.121C591.545 480.121 592.03 479.572 592.03 478.474V471.692C592.03 471.275 591.895 470.874 591.654 470.579C591.413 470.284 591.086 470.118 590.745 470.118L513.589 470.19C512.619 470.19 512.118 470.667 512.085 471.619C511.875 477.852 511.778 489.051 511.794 505.215ZM591.957 490.803C591.957 490.559 591.86 490.325 591.687 490.152C591.514 489.979 591.28 489.883 591.036 489.883H532.744C532.5 489.883 532.266 489.979 532.093 490.152C531.92 490.325 531.823 490.559 531.823 490.803V519.239C531.823 519.483 531.92 519.717 532.093 519.89C532.266 520.062 532.5 520.159 532.744 520.159H591.036C591.28 520.159 591.514 520.062 591.687 519.89C591.86 519.717 591.957 519.483 591.957 519.239V490.803Z" fill="#F5EFE4" stroke="#FFFDF7" stroke-width="2" mask="url(#path-2-inside-2_30_10467)"/>
<path d="M166.83 480.571C174.176 466.579 193.328 467.44 199.088 482.159C199.977 484.862 200.161 487.453 199.656 489.943C199.138 491.389 198.025 492.285 196.197 492.611L196.194 492.612C195.278 492.781 194.332 492.616 193.528 492.147C192.724 491.679 192.114 490.938 191.811 490.059L191.81 490.056L191.478 489.064C191.148 488.038 190.826 486.905 190.513 485.666V485.665C189.743 482.639 187.731 480.712 185.279 479.952C182.841 479.196 180.004 479.604 177.564 481.152L177.563 481.153C176.253 481.992 175.52 483.252 175.022 484.583C174.536 485.881 174.234 487.381 173.875 488.61C173.502 489.893 173.056 490.952 172.288 491.655C171.545 492.335 170.425 492.747 168.547 492.558H168.545C167.836 492.488 167.167 492.202 166.628 491.74C166.09 491.278 165.71 490.663 165.539 489.979C164.763 486.864 165.183 483.736 166.83 480.571Z" fill="#F5EFE4" stroke="#FFFDF7"/>
<path d="M439.473 470.714V470.715C444.384 470.868 448.349 472.369 451.407 475.189L451.701 475.467C455.303 478.972 456.99 483.516 456.738 489.154C456.7 489.901 456.419 490.614 455.938 491.183C455.456 491.751 454.802 492.144 454.077 492.301H454.074C452.63 492.621 451.497 492.598 450.64 492.294C449.802 491.996 449.18 491.413 448.771 490.501C448.721 490.386 448.512 489.783 448.128 488.645L446.485 483.719C446.199 482.843 445.63 482.083 444.866 481.552L444.861 481.549L444.514 481.319C442.772 480.208 441.028 479.637 439.286 479.646C437.428 479.654 435.625 480.322 433.885 481.605C433.16 482.13 432.626 482.82 432.284 483.664L432.283 483.667L428.988 491.963L426.357 492.479C425.206 492.435 424.28 492.188 423.558 491.76C422.858 491.345 422.325 490.747 421.953 489.949L422.282 483.354C424.001 478.988 426.29 475.782 429.128 473.693C431.976 471.597 435.415 470.596 439.473 470.714Z" fill="#F5EFE4" stroke="#FFFDF7"/>
<path d="M160.856 505.182H160.858C170.324 505.182 178.581 513.013 178.205 522.61V522.613C178.16 523.94 177.758 525.071 177.075 525.904C176.396 526.733 175.416 527.297 174.153 527.463C173.201 527.585 172.238 527.345 171.455 526.789C170.673 526.234 170.129 525.404 169.932 524.466C169.228 521.082 168.139 518.482 166.627 516.721C165.099 514.94 163.156 514.04 160.834 514.04C158.52 514.032 156.582 514.927 155.054 516.702C153.542 518.459 152.448 521.057 151.736 524.44V524.441C151.539 525.384 150.992 526.217 150.204 526.773C149.417 527.33 148.447 527.567 147.491 527.438H147.49C146.229 527.261 145.255 526.691 144.582 525.86C143.905 525.024 143.508 523.893 143.463 522.564V522.563L143.453 522.114C143.37 512.724 151.539 505.159 160.856 505.182Z" fill="#F5EFE4" stroke="#FFFDF7"/>
<path d="M204.213 505.182C213.928 505.182 220.666 512.048 221.733 521.498L221.779 521.949C221.877 523.013 221.727 523.933 221.347 524.728C220.968 525.522 220.344 526.22 219.452 526.816C218.393 527.505 217.093 527.649 215.487 527.165H215.485C214.939 527.002 214.448 526.69 214.064 526.263C213.681 525.835 213.42 525.309 213.311 524.74C212.665 521.23 211.609 518.55 210.099 516.761C208.572 514.951 206.602 514.077 204.231 514.16C201.858 514.089 199.887 514.967 198.362 516.779C196.946 518.462 195.933 520.925 195.286 524.12L195.162 524.766C195.055 525.332 194.797 525.856 194.418 526.283C194.086 526.657 193.671 526.944 193.21 527.121L193.01 527.189C191.502 527.644 190.264 527.545 189.242 526.961L189.041 526.838C188.142 526.25 187.515 525.555 187.133 524.762C186.798 524.067 186.638 523.274 186.67 522.368L186.695 521.973C187.572 512.291 194.367 505.206 204.213 505.182Z" fill="#F5EFE4" stroke="#FFFDF7"/>
<path d="M417.593 505.182C427.942 505.158 436.369 513.952 434.703 524.294C434.563 525.131 434.144 525.897 433.515 526.463C432.964 526.959 432.281 527.276 431.554 527.38L431.24 527.411C430.116 527.466 429.108 527.198 428.198 526.607L428.017 526.484C427.526 526.125 427.093 525.427 426.771 524.293L426.639 523.778C425.942 520.642 424.86 518.23 423.355 516.599C421.835 514.951 419.91 514.129 417.617 514.137C415.315 514.137 413.389 514.967 411.876 516.625C410.38 518.265 409.316 520.684 408.643 523.826C408.313 525.272 407.824 526.127 407.261 526.536C406.304 527.227 405.237 527.542 404.041 527.483H404.042C403.202 527.437 402.402 527.105 401.773 526.543C401.222 526.051 400.831 525.407 400.645 524.695L400.579 524.386C398.843 514.045 407.221 505.205 417.593 505.182Z" fill="#F5EFE4" stroke="#FFFDF7"/>
<path d="M461.115 505.254C471.43 505.278 479.354 513.852 478.296 523.836V523.837C478.177 524.971 477.781 525.794 477.15 526.364C476.512 526.938 475.578 527.304 474.29 527.412C473.307 527.486 472.33 527.197 471.547 526.597C470.763 525.997 470.229 525.129 470.046 524.16C469.431 520.901 468.398 518.393 466.906 516.693C465.396 514.974 463.445 514.113 461.092 514.113C458.733 514.105 456.773 514.957 455.251 516.667C453.746 518.359 452.698 520.858 452.067 524.109C451.879 525.078 451.339 525.944 450.551 526.541C449.764 527.136 448.784 527.42 447.8 527.339H447.801C446.513 527.224 445.581 526.853 444.948 526.275C444.319 525.702 443.929 524.878 443.817 523.744V523.743L443.776 523.276C443.055 513.495 450.937 505.231 461.115 505.254Z" fill="#F5EFE4" stroke="#FFFDF7"/>
</svg>
