<svg width="56" height="56" viewBox="0 0 56 56" fill="none" xmlns="http://www.w3.org/2000/svg">
<rect width="55.9973" height="56" rx="12" fill="#FFFDF5"/>
<path d="M27.9997 16C28.2477 16 28.4788 16.0145 28.6927 16.0436C29.1287 16.1027 29.4404 16.1391 29.6279 16.1526C29.7697 16.1631 29.911 16.1914 30.0518 16.2375C30.1611 16.2731 30.257 16.2967 30.3397 16.3082C30.3713 16.3127 30.4647 16.3388 30.6201 16.3864C31.8458 16.7607 32.921 17.3435 33.8456 18.1348C35.4106 19.4738 36.3996 21.1496 36.8125 23.1621C36.8732 23.4568 36.9295 23.8429 36.9816 24.3205C37.0252 24.7219 37.022 25.1097 36.9719 25.4841C36.8847 26.131 36.7609 26.7131 36.6005 27.2303C36.3881 27.9168 36.1232 28.5996 35.806 29.2786C35.5935 29.7342 35.3615 30.1779 35.1099 30.6099C34.8879 30.9902 34.6131 31.4726 34.2853 32.0569C34.0879 32.4097 33.825 32.8356 33.4968 33.3348C33.3064 33.6244 33.0097 34.0744 32.6068 34.6848C32.3332 35.0992 32.0508 35.5132 31.7597 35.9266C30.817 37.2636 29.9478 38.426 29.152 39.4137C28.8368 39.8046 28.453 40 28.0004 40C27.5474 40 27.1633 39.8046 26.8481 39.4137C26.0523 38.426 25.1831 37.2636 24.2405 35.9266C23.9493 35.5132 23.6669 35.0992 23.3933 34.6848C22.9904 34.0744 22.6938 33.6244 22.5033 33.3348C22.1746 32.8361 21.9115 32.4104 21.714 32.0576C21.3863 31.4733 21.1114 30.991 20.8894 30.6106C20.6379 30.1787 20.4059 29.7349 20.1934 29.2794C19.8762 28.6004 19.6113 27.9176 19.3988 27.231C19.2385 26.7139 19.1147 26.1318 19.0275 25.4848C18.9774 25.1105 18.9741 24.7226 19.0177 24.3212C19.0698 23.8436 19.1262 23.4575 19.1869 23.1629C19.5993 21.1503 20.588 19.4743 22.153 18.1348C23.0776 17.3435 24.1528 16.7607 25.3785 16.3864C25.5339 16.3388 25.6274 16.3127 25.6589 16.3082C25.7416 16.2967 25.8376 16.2731 25.9468 16.2375C26.0876 16.1914 26.229 16.1631 26.3708 16.1526C26.5582 16.1391 26.8699 16.1027 27.3059 16.0436C27.5199 16.0145 27.7511 16 27.9997 16ZM23.9263 18.6941C23.8286 18.7482 23.7602 18.7893 23.7211 18.8173C23.4179 19.0338 23.1613 19.2446 22.9513 19.4495C22.7023 19.6921 22.4743 19.9316 22.2673 20.1681C21.7682 20.7394 21.3683 21.3959 21.0676 22.1376C20.8581 22.6542 20.7196 23.1213 20.6519 23.5387C20.5717 24.0353 20.5269 24.3147 20.5174 24.3768C20.4833 24.6079 20.476 24.9058 20.4956 25.2706C20.5021 25.3999 20.5286 25.5775 20.5752 25.8036C20.6364 26.1037 20.6747 26.2794 20.6902 26.3305C20.8927 26.997 21.0924 27.5427 21.2893 27.9677C21.6492 28.7439 21.9017 29.2839 22.047 29.5876C22.1718 29.8467 22.3169 30.1238 22.4823 30.4189C22.7494 30.897 22.9025 31.1709 22.9416 31.2405C23.2292 31.7587 23.4705 32.1636 23.6654 32.4553C23.8539 32.7369 24.037 33.0183 24.2149 33.2994C24.3597 33.5279 24.5477 33.8038 24.7787 34.127C25.824 35.5858 26.8666 36.9855 27.9065 38.326C27.9177 38.3403 27.932 38.352 27.9483 38.36C27.9647 38.368 27.9826 38.3721 28.0008 38.3721C28.019 38.3721 28.037 38.368 28.0533 38.36C28.0697 38.352 28.084 38.3403 28.0952 38.326C29.1225 36.997 30.1255 35.651 31.1042 34.2879C31.3988 33.878 31.6301 33.5427 31.798 33.2821C32.1347 32.7605 32.6038 32.0674 32.9541 31.445C33.1215 31.1473 33.2798 30.8732 33.4292 30.6227C33.6466 30.2573 33.8679 29.8386 34.0929 29.3666C34.5439 28.423 34.7712 27.9464 34.7747 27.9369C35.0513 27.2348 35.3234 26.4673 35.4354 25.7765C35.5116 25.3049 35.5216 24.8086 35.4655 24.2874C35.2385 22.1892 34.3024 20.4623 32.6572 19.1067C32.4407 18.9283 32.1708 18.7429 31.8476 18.5505C31.4933 18.3395 31.1961 18.1859 30.9561 18.0897C30.6274 17.9579 30.134 17.8128 29.476 17.6545C29.3998 17.6364 29.3184 17.6216 29.2317 17.6101C29.154 17.6001 29.0734 17.5823 28.9897 17.5568C28.918 17.5347 28.798 17.5182 28.6296 17.5071C28.0698 17.4716 27.6238 17.4733 27.2916 17.5124C26.9203 17.5565 26.3963 17.6745 25.7198 17.8664C25.0894 18.0454 24.5589 18.2794 24.1285 18.5685C24.0523 18.6196 23.9849 18.6615 23.9263 18.6941Z" fill="#732727"/>
<path d="M28.0012 21.2764C28.0302 21.2764 28.1445 21.2866 28.3439 21.3072C28.6516 21.3393 28.9521 21.4029 29.2452 21.4981C29.5003 21.5818 29.7103 21.6713 29.8751 21.7665C30.0405 21.8617 30.2229 21.999 30.4224 22.1784C30.6514 22.3849 30.8566 22.6134 31.038 22.8639C31.1558 23.0263 31.2219 23.1203 31.2364 23.1458C31.251 23.1709 31.2991 23.2749 31.3808 23.4578C31.5071 23.7404 31.6023 24.0326 31.6664 24.3342C31.7215 24.5963 31.7491 24.8228 31.7491 25.0138C31.7491 25.2047 31.7213 25.4312 31.6657 25.6933C31.6015 25.995 31.5063 26.2871 31.38 26.5698C31.2983 26.7527 31.25 26.8567 31.2349 26.8817C31.2209 26.9073 31.155 27.0012 31.0372 27.1636C30.8558 27.4142 30.6504 27.6427 30.4209 27.8492C30.2214 28.0281 30.039 28.1651 29.8736 28.2603C29.7083 28.3555 29.4983 28.4447 29.2437 28.5279C28.95 28.6231 28.6494 28.6865 28.3417 28.7181C28.1422 28.7392 28.028 28.7494 27.9989 28.7489C27.9698 28.7494 27.8556 28.7392 27.6561 28.7181C27.3484 28.6865 27.0478 28.6229 26.7541 28.5272C26.4995 28.444 26.2896 28.3548 26.1242 28.2596C25.9593 28.1639 25.7772 28.0266 25.5777 27.8477C25.3482 27.6412 25.143 27.4127 24.9621 27.1621C24.8443 26.9992 24.7782 26.9053 24.7636 26.8802C24.7491 26.8552 24.701 26.7509 24.6193 26.5675C24.493 26.2854 24.3978 25.9932 24.3337 25.6911C24.2785 25.429 24.251 25.2027 24.251 25.0123C24.251 24.8213 24.2785 24.5948 24.3337 24.3327C24.3978 24.0306 24.4933 23.7384 24.6201 23.4563C24.7017 23.2729 24.7498 23.1686 24.7644 23.1436C24.7789 23.1185 24.8451 23.0248 24.9628 22.8624C25.1442 22.6119 25.3497 22.3834 25.5792 22.1769C25.7787 21.998 25.9611 21.8609 26.1264 21.7657C26.2913 21.6705 26.501 21.5813 26.7556 21.4981C27.0493 21.4024 27.3499 21.3388 27.6576 21.3072C27.8576 21.2866 27.9721 21.2764 28.0012 21.2764ZM25.7634 24.992C25.7614 25.2155 25.7772 25.3866 25.8107 25.5054C25.9776 26.0982 26.3091 26.574 26.8052 26.9328C26.9713 27.0531 27.1427 27.1057 27.3855 27.1982C27.4858 27.2363 27.6834 27.2568 27.9786 27.2598C28.2733 27.2623 28.4712 27.2455 28.5725 27.2095C28.8168 27.1223 28.9889 27.0727 29.1573 26.9554C29.6604 26.6066 30.0012 26.1376 30.1796 25.5482C30.2156 25.43 30.2347 25.2591 30.2367 25.0356C30.2387 24.8116 30.2229 24.6402 30.1893 24.5214C30.0225 23.9286 29.691 23.4528 29.1949 23.094C29.0287 22.9737 28.8573 22.9211 28.6145 22.8286C28.5143 22.7905 28.3169 22.77 28.0222 22.767C27.727 22.7645 27.5291 22.7813 27.4284 22.8173C27.1833 22.9053 27.0112 22.9541 26.8428 23.0714C26.3397 23.4202 25.9989 23.8895 25.8205 24.4793C25.7849 24.5971 25.7659 24.768 25.7634 24.992Z" fill="#732727"/>
</svg>
