<svg width="27" height="21" viewBox="0 0 27 21" fill="none" xmlns="http://www.w3.org/2000/svg">
<path d="M13.5005 0.5C19.1978 0.5 22.3938 0.500555 23.0882 0.501666C23.388 0.502498 23.7627 0.533308 23.995 0.574111C24.9521 0.744537 25.704 1.22279 26.2508 2.00886C26.4812 2.34028 26.6486 2.74553 26.753 3.22461C26.8035 3.45444 26.8282 3.88494 26.8271 4.51613C26.8254 5.82292 26.8248 9.74246 26.8254 16.2748C26.826 17.088 26.7915 17.6387 26.7221 17.9268C26.5295 18.7351 26.0643 19.3963 25.3265 19.9103C24.7819 20.2895 24.1155 20.4844 23.3272 20.4949C23.0802 20.4988 19.8046 20.5005 13.5005 20.4999C7.19578 20.5005 3.91992 20.4988 3.67289 20.4949C2.88459 20.4844 2.21815 20.2895 1.67356 19.9103C0.935789 19.3963 0.470584 18.7351 0.277952 17.9268C0.20856 17.6382 0.174142 17.0872 0.174697 16.2739C0.175807 9.74163 0.175529 5.82209 0.173864 4.5153C0.172754 3.88411 0.197457 3.45388 0.247975 3.22461C0.35234 2.74553 0.519714 2.34028 0.750095 2.00886C1.2969 1.22279 2.04884 0.744537 3.00589 0.574111C3.23822 0.533308 3.61293 0.502498 3.91271 0.501666C4.60718 0.500555 7.8031 0.5 13.5005 0.5ZM13.4988 13.8782C13.5921 13.8782 13.7411 13.8538 13.946 13.805C14.0087 13.7905 14.0734 13.7766 14.14 13.7633C14.3507 13.7217 14.5588 13.5851 14.7512 13.491C14.8783 13.4288 15.0115 13.347 15.1509 13.2454C17.6629 11.4095 20.8896 9.05521 24.8311 6.18238C24.9354 6.10632 25.0237 6.03998 25.0959 5.98336C25.1181 5.96559 25.1322 5.94311 25.1383 5.91591C25.1572 5.83153 25.1667 5.74493 25.1667 5.65611C25.1667 4.98384 25.1675 4.56443 25.1692 4.39789C25.1753 3.82221 25.1306 3.42501 25.0351 3.20629C24.8708 2.83102 24.6099 2.55734 24.2523 2.38524C24.1363 2.32917 24.0172 2.29142 23.8951 2.27199C23.6797 2.23813 23.5595 2.22092 23.5346 2.22037C23.0621 2.21759 19.7172 2.21593 13.4996 2.21537C7.28211 2.21537 3.93713 2.21676 3.46471 2.21953C3.43973 2.22009 3.31954 2.23702 3.10415 2.27033C2.98202 2.28976 2.86294 2.32751 2.74692 2.38358C2.38941 2.55567 2.1285 2.82935 1.96418 3.20462C1.8687 3.42335 1.82401 3.82055 1.83011 4.39622C1.83178 4.56276 1.83233 4.98217 1.83178 5.65444C1.83178 5.74326 1.84122 5.82986 1.86009 5.91424C1.8662 5.94145 1.88035 5.96393 1.90256 5.98169C1.97473 6.03832 2.06299 6.10466 2.16736 6.18071C6.10883 9.0541 9.33528 11.409 11.8467 13.2454C11.9861 13.347 12.1193 13.4288 12.2464 13.491C12.4388 13.5851 12.6469 13.7217 12.8576 13.7633C12.9242 13.7766 12.9889 13.7905 13.0516 13.805C13.2565 13.8538 13.4055 13.8782 13.4988 13.8782ZM13.5005 15.5695C13.2035 15.5695 12.9534 15.5475 12.7502 15.5037C12.1284 15.3693 11.5431 15.1012 10.994 14.6993C6.03888 11.0698 3.15855 8.96166 2.35305 8.37489C2.19817 8.26219 2.06716 8.16782 1.96002 8.09177C1.87563 8.03237 1.83372 8.0543 1.83428 8.15755C1.83428 8.37017 1.83428 11.2361 1.83428 16.7552C1.83428 17.0017 1.84455 17.1963 1.86509 17.3389C1.89784 17.566 1.94752 17.755 2.01414 17.906C2.17124 18.2624 2.45076 18.5208 2.85267 18.6813C3.13801 18.7951 3.42585 18.852 3.71619 18.852C4.32018 18.852 7.58188 18.8517 13.5013 18.8511C19.4202 18.8511 22.6816 18.8509 23.2856 18.8503C23.5759 18.8503 23.8638 18.7934 24.1491 18.6796C24.551 18.5192 24.8305 18.2608 24.9876 17.9044C25.0542 17.7534 25.1039 17.5643 25.1367 17.3373C25.1572 17.1946 25.1675 17 25.1675 16.7536C25.1664 11.2344 25.1658 8.3685 25.1658 8.15588C25.1664 8.05263 25.1245 8.0307 25.0401 8.0901C24.9329 8.16616 24.8019 8.26053 24.647 8.37322C23.8421 8.96 20.9621 11.0687 16.0069 14.6993C15.4584 15.1012 14.8733 15.3693 14.2516 15.5037C14.0484 15.5475 13.798 15.5695 13.5005 15.5695Z" fill="white"/>
</svg>
