<svg width="326" height="495" viewBox="0 0 326 495" fill="none" xmlns="http://www.w3.org/2000/svg">
<path d="M342.747 348.372C341.877 348.382 341.598 348.799 341.91 349.625C349.173 368.601 350.131 388.102 344.784 408.13C342.712 415.972 338.314 424.565 331.592 433.909C324.293 444.025 318.391 452.043 313.886 457.963C313.1 459 312.015 459.77 310.779 460.166C309.543 460.563 308.216 460.567 306.98 460.179C290.815 455.139 278.233 451.458 269.234 449.136C246.547 443.285 229.491 429.035 218.064 406.387C208.482 387.374 204.634 367.675 206.523 347.289C206.561 346.882 206.496 346.471 206.334 346.096C206.172 345.721 205.919 345.392 205.597 345.14C205.275 344.889 204.895 344.722 204.491 344.656C204.088 344.59 203.674 344.626 203.289 344.761C180.612 352.617 158.062 352.761 135.637 345.196C96.7202 332.068 61.3832 298.732 43.9417 262.676C41.2489 257.111 39.3771 250.442 38.3265 242.669C38.0989 241.029 38.4619 239.361 39.3506 237.964C40.2392 236.566 41.5957 235.53 43.1777 235.041C51.5179 232.473 58.634 228.874 65.3073 223.177C85.404 206.023 103.712 190.503 126.399 178.806C148.404 167.455 171.103 164.685 194.495 170.497C195.967 170.86 196.473 170.327 196.014 168.898C194.141 163.038 191.123 156.499 186.958 149.281C183.472 143.209 180.735 135.02 178.746 124.712C176.965 115.449 176.793 101.8 178.229 83.7656C178.785 76.9356 182.043 72.8686 188.001 71.5647C225.551 63.3338 259.001 70.9548 288.353 94.4274C291.415 96.884 295.001 96.7505 299.11 94.0267C300.598 93.0449 303.055 90.8495 306.482 87.4403C318.223 75.7118 332.716 71.5124 349.848 73.7676C362.736 75.4585 374.368 78.3838 384.746 82.5435C406.642 91.3002 420.245 96.5296 425.557 98.2316C426.454 98.5188 427.134 99.0787 427.598 99.9112C428.527 101.576 428.988 103.612 428.982 106.02C429.013 148.045 415.013 185.108 386.983 217.209C386.669 217.568 386.446 217.998 386.335 218.462C386.224 218.926 386.227 219.41 386.345 219.873C386.464 220.335 386.693 220.762 387.013 221.116C387.333 221.47 387.734 221.74 388.183 221.904C407.657 228.993 423.904 236.245 434.727 254.685C447.268 275.988 456.549 294.333 462.571 309.72C466.051 318.584 467.962 327.153 468.304 335.427C468.442 338.707 466.877 340.947 463.608 342.149C442.54 349.848 419.358 355.008 394.064 357.629C379.867 359.093 365.301 356.506 350.365 349.867C348.054 348.829 345.515 348.331 342.747 348.372ZM204.214 180.541C201.681 180.796 198.32 180.919 195.523 180.315C177.838 176.555 162.304 176.821 148.921 181.111C132.653 186.351 118.549 193.538 106.61 202.673C98.3612 208.998 85.7666 219.132 68.8257 233.075C64.1328 236.915 59.0045 239.633 53.4407 241.229C51.8558 241.675 50.4851 242.679 49.5803 244.055C48.6755 245.431 48.2973 247.087 48.515 248.719C49.2393 254.101 50.8339 258.923 53.2989 263.187C69.228 290.629 91.8163 313.132 121.064 330.695C142.809 343.763 165.597 346.696 189.427 339.493C198.09 336.877 203.517 335.318 205.71 334.817C208.673 334.122 210.655 334.164 211.655 334.945C212.692 335.74 213.513 336.757 214.041 337.901C214.569 339.045 214.786 340.278 214.674 341.484C212.029 369.045 219.145 394.51 236.021 417.88C242.813 427.271 252.88 434.21 266.224 438.697C277.607 442.521 290.319 446.318 304.358 450.087C305.123 450.3 305.936 450.279 306.691 450.025C307.446 449.772 308.111 449.298 308.599 448.665C315.055 440.34 320.422 432.76 324.699 425.923C332.632 413.202 338.395 398.069 339.838 383.756C341.16 370.428 337.89 357.762 330.029 345.758C325.207 338.42 322.524 334.304 321.982 333.41C320.547 331.054 320.75 329.341 322.592 328.272C323.093 327.974 323.67 327.827 324.253 327.847C324.837 327.868 325.402 328.055 325.881 328.388C353.892 347.509 384.363 353.363 417.294 345.95C430.741 342.931 443.419 339.549 455.33 335.802C458.696 334.726 459.893 332.491 458.922 329.098C452.901 308.354 444.309 288.538 433.147 269.651C425.522 256.763 422.062 249.572 412.284 242.922C399.025 233.892 383.397 228.829 365.399 227.732C363.66 227.617 362.555 227.316 362.084 226.829C361.197 225.928 360.643 224.847 360.423 223.586C360.307 222.9 360.444 222.196 360.807 221.603C361.17 221.01 361.735 220.569 362.398 220.36C379.815 214.692 391.79 198.408 400.046 182.574C409.628 164.236 416.134 145.325 419.564 125.843C420.658 119.598 420.566 113.682 419.286 108.096C419.105 107.289 418.734 106.534 418.202 105.893C417.67 105.252 416.993 104.743 416.226 104.407C404.542 99.3941 392.976 94.6672 381.526 90.2258C356.183 80.4299 326.049 77.6735 306.689 100.974C303.739 104.526 301.18 107.288 299.01 109.262C298.024 110.149 296.767 110.678 295.446 110.761C294.125 110.844 292.816 110.477 291.734 109.719C288.814 107.69 284.815 104.626 279.738 100.527C270.358 92.9649 260.016 87.0717 248.714 82.8477C229.892 75.7994 210.531 75.2972 190.631 81.3411C188.959 81.8437 187.954 82.9505 187.616 84.6613C183.209 107.253 185.401 131.268 196.974 150.683C202.923 160.67 206.618 167.845 206.114 178.535C206.092 179.038 205.888 179.517 205.54 179.885C205.191 180.253 204.721 180.486 204.214 180.541Z" fill="#F5EFE4"/>
<path d="M112.542 263.958C112.376 265.89 110.474 267.593 107.257 268.692C104.039 269.791 99.7688 270.196 95.3852 269.818C91.0016 269.44 86.8638 268.31 83.8819 266.676C80.9001 265.043 79.3186 263.039 79.4853 261.107C79.6521 259.175 81.5534 257.472 84.771 256.373C87.9886 255.274 92.2589 254.869 96.6425 255.247C101.026 255.625 105.164 256.755 108.146 258.388C111.128 260.022 112.709 262.025 112.542 263.958ZM102.298 262.349C102.298 261.753 101.703 261.183 100.644 260.761C99.5844 260.34 98.1474 260.103 96.649 260.102C95.1505 260.101 93.7133 260.337 92.6535 260.757C91.5936 261.178 90.998 261.748 90.9976 262.343C90.9973 262.938 91.5922 263.509 92.6516 263.93C93.711 264.352 95.1479 264.589 96.6464 264.589C98.1448 264.59 99.582 264.354 100.642 263.934C101.702 263.514 102.297 262.944 102.298 262.349Z" fill="#F5EFE4"/>
<path d="M131.422 233.446C131.429 234.453 131.048 235.454 130.303 236.389C129.557 237.325 128.461 238.178 127.077 238.9C125.693 239.621 124.047 240.197 122.235 240.595C120.423 240.992 118.48 241.203 116.516 241.216C114.552 241.229 112.606 241.043 110.789 240.669C108.972 240.295 107.319 239.741 105.926 239.037C104.533 238.334 103.426 237.495 102.668 236.569C101.911 235.643 101.518 234.648 101.511 233.64C101.505 232.632 101.885 231.632 102.631 230.696C103.376 229.761 104.472 228.908 105.857 228.186C107.241 227.464 108.886 226.889 110.698 226.491C112.51 226.094 114.454 225.883 116.418 225.87C118.382 225.857 120.328 226.043 122.145 226.417C123.962 226.791 125.614 227.345 127.007 228.049C128.401 228.752 129.508 229.591 130.265 230.517C131.023 231.443 131.416 232.438 131.422 233.446ZM123.441 232.32C123.354 231.731 122.613 231.264 121.38 231.02C120.147 230.776 118.524 230.776 116.867 231.02C116.046 231.141 115.242 231.317 114.501 231.541C113.759 231.764 113.095 232.029 112.545 232.32C111.995 232.612 111.571 232.924 111.296 233.24C111.022 233.555 110.903 233.868 110.946 234.159C111.032 234.748 111.774 235.216 113.006 235.459C114.239 235.703 115.863 235.703 117.52 235.459C118.34 235.339 119.144 235.162 119.886 234.938C120.627 234.715 121.292 234.45 121.842 234.159C122.392 233.867 122.816 233.555 123.09 233.239C123.365 232.924 123.484 232.611 123.441 232.32Z" fill="#F5EFE4"/>
<path d="M127.004 299.66C126.21 301.803 123.875 303.275 120.514 303.752C117.152 304.229 113.038 303.673 109.078 302.205C107.117 301.479 105.252 300.55 103.591 299.473C101.93 298.396 100.504 297.191 99.3953 295.927C98.2865 294.663 97.5165 293.365 97.1292 292.106C96.7419 290.848 96.7449 289.655 97.1379 288.594C97.9318 286.451 100.266 284.98 103.628 284.502C106.99 284.025 111.104 284.581 115.064 286.049C117.025 286.776 118.889 287.704 120.551 288.781C122.212 289.859 123.638 291.064 124.747 292.328C125.855 293.592 126.625 294.89 127.013 296.148C127.4 297.406 127.397 298.6 127.004 299.66ZM116.746 295.811C116.859 295.563 116.844 295.259 116.7 294.916C116.557 294.573 116.288 294.199 115.91 293.814C115.531 293.429 115.05 293.042 114.494 292.673C113.939 292.305 113.319 291.963 112.67 291.667C112.022 291.371 111.357 291.127 110.715 290.948C110.072 290.77 109.464 290.661 108.926 290.627C108.387 290.593 107.928 290.635 107.575 290.751C107.222 290.867 106.983 291.055 106.869 291.303C106.756 291.551 106.771 291.855 106.915 292.198C107.059 292.54 107.327 292.915 107.706 293.3C108.084 293.684 108.565 294.072 109.121 294.441C109.677 294.809 110.297 295.151 110.945 295.447C111.594 295.743 112.258 295.987 112.901 296.166C113.543 296.344 114.151 296.453 114.69 296.487C115.228 296.521 115.687 296.479 116.04 296.363C116.393 296.247 116.633 296.059 116.746 295.811Z" fill="#F5EFE4"/>
<path d="M170.48 204.889C170.524 207.21 168.567 209.473 165.04 211.181C161.513 212.889 156.705 213.901 151.675 213.995C146.644 214.089 141.802 213.257 138.214 211.683C134.626 210.108 132.586 207.919 132.543 205.598C132.5 203.277 134.457 201.014 137.984 199.306C141.511 197.598 146.318 196.586 151.349 196.492C156.38 196.398 161.222 197.229 164.81 198.804C168.397 200.379 170.437 202.568 170.48 204.889ZM161.237 203.827C161.153 203.201 159.948 202.75 157.887 202.574C155.825 202.397 153.076 202.509 150.243 202.886C147.411 203.263 144.727 203.872 142.783 204.582C140.839 205.291 139.794 206.041 139.877 206.667C139.96 207.293 141.165 207.744 143.227 207.921C145.289 208.098 148.038 207.985 150.87 207.609C153.703 207.232 156.386 206.622 158.33 205.913C160.274 205.204 161.32 204.454 161.237 203.827Z" fill="#F5EFE4"/>
<path d="M178.54 242.175C178.359 244.453 176.44 246.499 173.206 247.863C169.972 249.228 165.686 249.799 161.293 249.451C156.899 249.103 152.757 247.864 149.778 246.007C146.799 244.151 145.227 241.828 145.408 239.551C145.588 237.273 147.507 235.227 150.741 233.862C153.976 232.498 158.261 231.927 162.655 232.275C167.048 232.623 171.19 233.861 174.169 235.718C177.148 237.575 178.72 239.897 178.54 242.175ZM171.364 241.134C171.376 240.737 171.147 240.338 170.689 239.957C170.231 239.577 169.554 239.224 168.696 238.917C167.838 238.611 166.817 238.357 165.689 238.172C164.562 237.986 163.351 237.871 162.126 237.834C159.652 237.76 157.269 238.006 155.503 238.519C153.736 239.032 152.73 239.77 152.705 240.57C152.693 240.967 152.923 241.366 153.38 241.747C153.838 242.127 154.515 242.481 155.373 242.787C156.231 243.093 157.253 243.347 158.38 243.532C159.508 243.718 160.718 243.833 161.943 243.87C164.418 243.945 166.8 243.698 168.567 243.185C170.334 242.672 171.34 241.934 171.364 241.134Z" fill="#F5EFE4"/>
<path d="M173.229 276.375C173.135 277.557 172.573 278.691 171.573 279.71C170.574 280.73 169.157 281.617 167.404 282.319C165.65 283.021 163.595 283.526 161.355 283.804C159.115 284.081 156.734 284.127 154.348 283.938C151.963 283.749 149.619 283.329 147.45 282.702C145.282 282.075 143.332 281.254 141.711 280.284C140.09 279.315 138.831 278.216 138.005 277.052C137.178 275.887 136.801 274.679 136.895 273.497C136.988 272.315 137.551 271.182 138.551 270.162C139.55 269.142 140.967 268.255 142.72 267.553C144.474 266.851 146.529 266.346 148.769 266.069C151.009 265.791 153.39 265.745 155.776 265.934C158.161 266.123 160.505 266.543 162.674 267.17C164.842 267.797 166.792 268.619 168.413 269.588C170.033 270.558 171.293 271.656 172.119 272.821C172.946 273.985 173.323 275.193 173.229 276.375ZM165.989 275.008C166.001 274.597 165.735 274.182 165.206 273.787C164.677 273.392 163.895 273.025 162.906 272.706C161.917 272.387 160.739 272.123 159.441 271.929C158.142 271.734 156.747 271.614 155.337 271.573C152.488 271.493 149.746 271.744 147.715 272.274C145.684 272.803 144.529 273.567 144.506 274.397C144.494 274.808 144.76 275.223 145.289 275.618C145.818 276.013 146.599 276.38 147.589 276.699C148.578 277.018 149.755 277.282 151.054 277.476C152.353 277.671 153.748 277.791 155.158 277.831C158.007 277.912 160.749 277.66 162.78 277.131C164.811 276.601 165.966 275.838 165.989 275.008Z" fill="#F5EFE4"/>
<path d="M223.868 114.632C223.012 115.327 221.897 115.685 220.586 115.686C219.276 115.687 217.795 115.331 216.229 114.638C214.663 113.945 213.041 112.929 211.458 111.647C209.875 110.366 208.36 108.845 207.001 107.17C205.642 105.495 204.464 103.7 203.536 101.887C202.608 100.074 201.946 98.2783 201.59 96.6029C201.234 94.9274 201.19 93.4049 201.46 92.1222C201.731 90.8395 202.31 89.8217 203.166 89.127C204.022 88.4322 205.137 88.0742 206.447 88.0732C207.758 88.0722 209.239 88.4283 210.805 89.1213C212.371 89.8142 213.992 90.8304 215.575 92.1118C217.159 93.3932 218.673 94.9147 220.033 96.5894C221.392 98.2641 222.569 100.059 223.498 101.872C224.426 103.685 225.087 105.481 225.443 107.156C225.799 108.832 225.844 110.354 225.573 111.637C225.303 112.92 224.723 113.937 223.868 114.632ZM219.634 109.469C219.928 109.209 220.055 108.765 220.007 108.164C219.959 107.563 219.737 106.816 219.354 105.966C218.972 105.115 218.436 104.179 217.777 103.209C217.118 102.239 216.349 101.256 215.514 100.314C213.828 98.4123 211.975 96.7977 210.363 95.8253C208.75 94.8529 207.511 94.6024 206.918 95.1288C206.624 95.3894 206.497 95.833 206.545 96.4342C206.593 97.0354 206.815 97.7824 207.197 98.6326C207.58 99.4827 208.116 100.419 208.775 101.389C209.434 102.359 210.203 103.343 211.038 104.284C212.724 106.186 214.577 107.8 216.189 108.773C217.801 109.745 219.04 109.996 219.634 109.469Z" fill="#F5EFE4"/>
<path d="M179.843 309.452C179.8 310.55 179.303 311.619 178.379 312.599C177.455 313.578 176.122 314.449 174.457 315.162C172.793 315.875 170.828 316.415 168.676 316.752C166.524 317.089 164.227 317.216 161.916 317.126C157.248 316.944 152.805 315.89 149.565 314.193C146.325 312.497 144.554 310.299 144.64 308.082C144.683 306.984 145.181 305.915 146.105 304.935C147.029 303.956 148.361 303.085 150.026 302.372C151.691 301.659 153.655 301.119 155.807 300.782C157.959 300.445 160.256 300.318 162.568 300.408C167.236 300.59 171.678 301.645 174.918 303.341C178.158 305.037 179.93 307.235 179.843 309.452ZM163.877 312.291C166.493 312.244 169.012 311.069 171.434 308.766C171.553 308.658 171.641 308.519 171.69 308.366C171.738 308.212 171.745 308.048 171.71 307.891C171.675 307.734 171.599 307.589 171.489 307.47C171.38 307.352 171.241 307.265 171.087 307.217C169.139 306.578 166.703 306.283 163.778 306.335C160.852 306.386 158.428 306.761 156.505 307.458C156.352 307.511 156.217 307.603 156.112 307.725C156.006 307.847 155.935 307.995 155.906 308.153C155.876 308.312 155.889 308.475 155.942 308.627C155.996 308.779 156.089 308.914 156.212 309.019C158.707 311.248 161.262 312.339 163.877 312.291Z" fill="#F5EFE4"/>
<path d="M201.531 210.36C201.711 212.173 200.614 214.038 198.483 215.544C196.351 217.051 193.359 218.075 190.165 218.393C188.583 218.55 186.999 218.528 185.504 218.33C184.009 218.132 182.631 217.76 181.449 217.236C180.268 216.713 179.306 216.047 178.618 215.278C177.931 214.509 177.531 213.651 177.442 212.753C177.262 210.94 178.359 209.075 180.49 207.569C182.622 206.062 185.614 205.038 188.808 204.721C190.39 204.563 191.974 204.585 193.469 204.783C194.964 204.981 196.342 205.353 197.523 205.877C198.705 206.401 199.667 207.066 200.354 207.835C201.042 208.605 201.442 209.463 201.531 210.36ZM194.095 210.949C193.981 210.342 193.361 209.857 192.372 209.6C191.382 209.342 190.105 209.333 188.82 209.576C187.535 209.818 186.348 210.291 185.52 210.891C184.693 211.491 184.292 212.169 184.406 212.775C184.52 213.382 185.14 213.867 186.13 214.124C187.119 214.382 188.397 214.391 189.681 214.149C190.966 213.906 192.153 213.433 192.981 212.833C193.809 212.233 194.21 211.555 194.095 210.949Z" fill="#F5EFE4"/>
<path d="M211.039 126.313C213.1 125.344 215.895 126.155 218.807 128.569C221.72 130.982 224.513 134.799 226.572 139.181C227.591 141.351 228.399 143.593 228.951 145.781C229.502 147.969 229.785 150.06 229.784 151.933C229.783 153.806 229.498 155.426 228.946 156.699C228.393 157.973 227.583 158.875 226.562 159.354C224.502 160.323 221.707 159.511 218.794 157.098C215.881 154.685 213.088 150.868 211.03 146.486C210.011 144.316 209.202 142.074 208.651 139.886C208.1 137.698 207.817 135.607 207.818 133.734C207.819 131.861 208.103 130.241 208.656 128.968C209.209 127.694 210.019 126.792 211.039 126.313ZM214.014 132.998C213.35 133.344 213.229 134.669 213.679 136.684C214.129 138.698 215.112 141.236 216.413 143.739C217.714 146.242 219.226 148.505 220.616 150.03C222.006 151.556 223.16 152.218 223.825 151.873C224.49 151.527 224.611 150.201 224.161 148.187C223.711 146.173 222.727 143.635 221.426 141.132C220.125 138.629 218.614 136.366 217.224 134.84C215.834 133.315 214.679 132.652 214.014 132.998Z" fill="#F5EFE4"/>
<path d="M271.182 131.34C269.072 133.053 265.624 132.942 261.599 131.032C257.573 129.122 253.298 125.569 249.715 121.155C247.941 118.969 246.39 116.637 245.151 114.293C243.911 111.949 243.008 109.638 242.492 107.493C241.977 105.347 241.859 103.409 242.145 101.789C242.431 100.168 243.117 98.8978 244.161 98.0495C246.272 96.3362 249.719 96.4468 253.744 98.3569C257.77 100.267 262.045 103.82 265.628 108.234C267.402 110.42 268.953 112.752 270.192 115.096C271.432 117.44 272.335 119.751 272.851 121.896C273.366 124.042 273.484 125.98 273.198 127.6C272.912 129.221 272.227 130.491 271.182 131.34ZM267.36 126.869C267.747 126.541 267.57 125.168 266.828 122.749C264.678 115.882 260.788 110.229 255.157 105.791C252.659 103.831 250.682 103.452 249.224 104.655C247.754 105.835 247.73 107.851 249.151 110.704C252.385 117.105 257.155 122.037 263.462 125.502C265.685 126.705 266.984 127.161 267.36 126.869Z" fill="#F5EFE4"/>
<path d="M207.675 227.6C214.948 188.055 231.497 151.426 278.315 154.743C313.24 157.234 335.552 175.694 345.252 210.122C351.071 230.767 349.444 252.118 340.37 274.174C327.852 304.664 300.805 323.991 267.614 320.437C231.485 316.556 202.219 288.444 204.345 250.745C204.625 245.875 205.734 238.16 207.675 227.6ZM283.601 308.04C303.735 305.343 318.153 294.202 326.854 274.617C331.45 264.33 334.487 253.808 335.965 243.052C339.901 214.392 328.599 181.586 300.487 169.836C292.844 166.647 283.973 165.154 273.873 165.356C253.145 165.755 237.336 174.65 228.431 193.528C225.462 199.791 222.442 208.998 219.372 221.148C217.401 228.905 215.694 238.427 214.25 249.714C211.584 270.638 218.491 286.578 234.971 297.533C249.183 306.982 265.393 310.485 283.601 308.04Z" fill="#F5EFE4"/>
<path d="M212.936 310.84C213.142 311.741 213.023 312.706 212.588 313.681C212.152 314.657 211.408 315.622 210.398 316.523C209.388 317.425 208.131 318.243 206.699 318.933C205.268 319.623 203.69 320.17 202.055 320.544C198.754 321.299 195.423 321.299 192.795 320.547C190.166 319.794 188.457 318.349 188.041 316.53C187.835 315.629 187.954 314.664 188.389 313.688C188.824 312.713 189.569 311.748 190.579 310.846C191.589 309.945 192.846 309.127 194.278 308.437C195.709 307.747 197.287 307.199 198.922 306.826C202.223 306.071 205.554 306.07 208.182 306.823C210.81 307.576 212.52 309.021 212.936 310.84ZM206.204 311.511C206.092 311.192 205.841 310.925 205.464 310.726C205.087 310.527 204.592 310.4 204.008 310.352C203.425 310.304 202.762 310.336 202.06 310.445C201.358 310.555 200.629 310.741 199.915 310.992C199.202 311.243 198.517 311.554 197.9 311.908C197.284 312.262 196.748 312.652 196.322 313.055C195.897 313.458 195.591 313.867 195.421 314.258C195.252 314.648 195.222 315.014 195.334 315.333C195.446 315.652 195.698 315.919 196.075 316.118C196.452 316.316 196.946 316.444 197.53 316.492C198.114 316.54 198.776 316.508 199.478 316.399C200.181 316.289 200.91 316.103 201.623 315.852C202.337 315.601 203.022 315.29 203.638 314.936C204.255 314.582 204.791 314.192 205.216 313.789C205.642 313.386 205.948 312.977 206.117 312.586C206.287 312.195 206.316 311.83 206.204 311.511Z" fill="#F5EFE4"/>
<path d="M295.734 288.421C274.558 301.928 244.11 293.064 231.396 271.082C219.533 250.511 228.393 225.202 242.475 207.089C261.912 182.077 295.208 188.958 311.045 213.55C320.392 228.06 322.084 243.685 316.12 260.425C311.521 273.372 304.726 282.703 295.734 288.421ZM249.75 215.247C240.706 226.557 236.337 239.023 236.643 252.644C236.984 267.663 247.188 278.112 260.238 282.906C276.939 289.022 294.749 281.073 302.735 265.852C306.819 258.052 309.231 250.427 309.972 242.978C311.483 227.76 303.126 211.416 288.897 204.766C273.967 197.782 260.918 201.275 249.75 215.247Z" fill="#F5EFE4"/>
<path d="M305.877 140.877C310.156 135.801 311.255 129.687 308.332 127.222C305.408 124.757 299.569 126.874 295.29 131.951C291.011 137.028 289.912 143.141 292.836 145.606C295.759 148.071 301.598 145.954 305.877 140.877Z" fill="#F5EFE4"/>
<path d="M238.855 337.726C241.39 337.46 244.055 339.444 246.264 343.24C248.472 347.036 250.044 352.333 250.633 357.967C250.924 360.756 250.966 363.544 250.755 366.171C250.544 368.799 250.084 371.214 249.403 373.279C248.721 375.344 247.831 377.019 246.783 378.208C245.735 379.397 244.549 380.076 243.294 380.208C240.759 380.473 238.094 378.489 235.885 374.693C233.676 370.897 232.104 365.6 231.516 359.967C231.224 357.177 231.183 354.389 231.394 351.762C231.605 349.135 232.064 346.719 232.746 344.654C233.427 342.589 234.317 340.914 235.366 339.725C236.414 338.536 237.599 337.857 238.855 337.726ZM242.183 372.481C242.521 372.447 242.748 372.264 242.867 371.933C246.225 362.625 245.213 353.852 239.831 345.615C239.806 345.569 239.785 345.543 239.767 345.538C239.714 345.522 239.667 345.518 239.626 345.525C239.586 345.532 239.542 345.548 239.496 345.573C239.479 345.567 239.462 345.591 239.446 345.644C235.707 354.742 236.361 363.553 241.408 372.076C241.587 372.38 241.845 372.515 242.183 372.481Z" fill="#F5EFE4"/>
<path d="M347.577 105.985C348.451 107.757 347.767 110.208 345.674 112.799C343.582 115.391 340.253 117.91 336.419 119.802C332.585 121.695 328.562 122.806 325.232 122.891C321.903 122.976 319.542 122.029 318.667 120.257C317.793 118.484 318.477 116.033 320.57 113.442C322.662 110.851 325.991 108.332 329.825 106.439C333.659 104.547 337.683 103.436 341.012 103.35C344.341 103.265 346.702 104.213 347.577 105.985ZM341.033 109.54C340.872 109.243 340.487 109.071 339.9 109.033C339.313 108.996 338.536 109.095 337.612 109.324C336.689 109.552 335.637 109.907 334.518 110.366C333.399 110.826 332.234 111.382 331.089 112.003C329.944 112.624 328.843 113.297 327.847 113.985C326.851 114.672 325.98 115.36 325.285 116.01C324.589 116.659 324.083 117.257 323.794 117.769C323.505 118.282 323.439 118.698 323.6 118.996C323.762 119.293 324.147 119.465 324.734 119.502C325.321 119.54 326.098 119.441 327.022 119.212C327.945 118.984 328.996 118.629 330.116 118.169C331.235 117.71 332.4 117.153 333.545 116.533C334.689 115.912 335.791 115.238 336.787 114.551C337.783 113.863 338.654 113.175 339.349 112.526C340.044 111.877 340.551 111.279 340.84 110.767C341.129 110.254 341.195 109.838 341.033 109.54Z" fill="#F5EFE4"/>
<path d="M280.959 336.854C283.44 336.76 285.896 338.694 287.786 342.23C289.677 345.766 290.847 350.615 291.04 355.709C291.136 358.232 290.988 360.739 290.606 363.088C290.224 365.436 289.615 367.58 288.814 369.397C288.013 371.214 287.035 372.668 285.937 373.676C284.838 374.685 283.64 375.228 282.412 375.274C279.931 375.369 277.475 373.435 275.584 369.899C273.694 366.363 272.523 361.514 272.331 356.419C272.235 353.897 272.383 351.389 272.765 349.041C273.146 346.692 273.755 344.548 274.557 342.732C275.358 340.915 276.336 339.461 277.434 338.452C278.532 337.444 279.73 336.901 280.959 336.854ZM276.915 357.906C276.827 358.267 276.867 358.646 277.028 358.981L281.851 368.574C282.014 368.881 282.272 369.128 282.588 369.276C282.903 369.423 283.257 369.465 283.598 369.394C283.939 369.323 284.247 369.143 284.477 368.882C284.706 368.62 284.845 368.291 284.872 367.944L285.777 354.945C285.799 354.686 285.758 354.426 285.657 354.186L282.42 346.541C282.29 346.223 282.062 345.955 281.769 345.776C281.475 345.597 281.132 345.517 280.79 345.548C280.448 345.578 280.125 345.717 279.868 345.945C279.611 346.173 279.433 346.477 279.361 346.813L276.915 357.906Z" fill="#F5EFE4"/>
<path d="M273.125 391.497C281.889 397.96 290.825 410.429 294.719 421.393C295.02 422.247 295.121 423.159 295.014 424.059C294.906 424.958 294.592 425.819 294.098 426.576C293.603 427.333 292.94 427.964 292.162 428.42C291.383 428.876 290.51 429.144 289.61 429.205C277.387 430.064 248.199 398.593 267.221 390.745C268.185 390.354 269.234 390.217 270.268 390.349C271.302 390.48 272.285 390.876 273.125 391.497ZM286.73 422.88C289.935 424.666 290.764 423.893 289.216 420.558C284.681 410.839 279.067 403.342 272.376 398.067C271.903 397.696 271.334 397.467 270.735 397.406C270.137 397.345 269.534 397.456 268.998 397.724C268.463 397.992 268.016 398.408 267.711 398.921C267.406 399.434 267.256 400.024 267.278 400.62C267.489 409.299 279.133 418.703 286.73 422.88Z" fill="#F5EFE4"/>
<path d="M312.463 366.527C313.917 366.821 315.259 367.601 316.41 368.823C317.562 370.044 318.502 371.683 319.175 373.646C319.849 375.608 320.244 377.856 320.337 380.262C320.43 382.667 320.219 385.182 319.717 387.664C319.216 390.145 318.432 392.545 317.412 394.725C316.392 396.905 315.155 398.823 313.771 400.37C312.388 401.917 310.886 403.062 309.35 403.74C307.814 404.418 306.275 404.616 304.82 404.322C303.366 404.028 302.024 403.248 300.873 402.026C299.721 400.805 298.781 399.166 298.108 397.203C297.434 395.241 297.039 392.993 296.946 390.587C296.853 388.182 297.064 385.667 297.566 383.185C298.067 380.704 298.851 378.304 299.871 376.124C300.891 373.944 302.128 372.026 303.512 370.479C304.895 368.932 306.397 367.787 307.933 367.109C309.469 366.431 311.008 366.233 312.463 366.527ZM312.095 373.799C311.336 373.595 310.501 373.707 309.636 374.128C308.772 374.548 307.895 375.27 307.057 376.251C306.218 377.233 305.434 378.454 304.748 379.847C304.063 381.239 303.491 382.775 303.063 384.366C302.636 385.958 302.362 387.574 302.258 389.122C302.153 390.671 302.22 392.121 302.454 393.39C302.689 394.66 303.086 395.723 303.623 396.521C304.161 397.318 304.828 397.833 305.587 398.037C306.345 398.24 307.181 398.129 308.045 397.708C308.91 397.287 309.787 396.566 310.625 395.584C311.464 394.603 312.248 393.381 312.934 391.989C313.619 390.596 314.191 389.061 314.619 387.469C315.046 385.878 315.32 384.262 315.424 382.713C315.529 381.165 315.462 379.715 315.228 378.445C314.993 377.176 314.596 376.112 314.059 375.315C313.521 374.518 312.854 374.002 312.095 373.799Z" fill="#F5EFE4"/>
</svg>
