<svg width="122" height="167" viewBox="0 0 122 167" fill="none" xmlns="http://www.w3.org/2000/svg">
<path d="M3.67464 73.5995C10.9483 34.0552 27.4969 -2.57417 74.3154 0.742583C109.24 3.23392 131.552 21.6937 141.252 56.122C147.071 76.7672 145.444 98.1177 136.37 120.174C123.852 150.664 96.8047 169.991 63.6136 166.437C27.4855 162.556 -1.78113 134.444 0.345473 96.7448C0.624603 91.875 1.73431 84.1599 3.67464 73.5995ZM79.6013 154.04C99.7349 151.343 114.153 140.202 122.854 120.617C127.45 110.33 130.487 99.8078 131.965 89.0517C135.901 60.3923 124.599 27.5863 96.4866 15.8357C88.8445 12.6472 79.9735 11.1538 69.8735 11.3556C49.1447 11.7554 33.3361 20.65 24.431 39.5279C21.4617 45.7914 18.4419 54.9982 15.3715 67.1484C13.4015 74.9052 11.6943 84.427 10.25 95.7137C7.58409 116.638 14.491 132.578 30.9706 143.533C45.183 152.982 61.3932 156.485 79.6013 154.04Z" fill="#BFA285" fill-opacity="0.3"/>
</svg>
