<?xml version="1.0" encoding="UTF-8"?>
<!DOCTYPE svg PUBLIC "-//W3C//DTD SVG 1.1//EN" "http://www.w3.org/Graphics/SVG/1.1/DTD/svg11.dtd">
<svg xmlns="http://www.w3.org/2000/svg" version="1.1" width="686px" height="500px" style="shape-rendering:geometricPrecision; text-rendering:geometricPrecision; image-rendering:optimizeQuality; fill-rule:evenodd; clip-rule:evenodd" xmlns:xlink="http://www.w3.org/1999/xlink">
<g><path style="opacity:1" fill="#e20914" d="M -0.5,-0.5 C 228.167,-0.5 456.833,-0.5 685.5,-0.5C 685.5,47.5 685.5,95.5 685.5,143.5C 684.504,143.414 683.671,143.748 683,144.5C 679.77,151.293 676.27,157.96 672.5,164.5C 654.547,190.7 631.547,211.367 603.5,226.5C 585.127,235.847 565.794,242.18 545.5,245.5C 543.011,245.298 540.677,245.798 538.5,247C 405.496,246.835 272.83,247.668 140.5,249.5C 129.021,249.934 117.688,251.267 106.5,253.5C 96.8215,255.066 87.8215,258.066 79.5,262.5C 73.7651,264.022 68.0985,265.856 62.5,268C 46.2919,276.032 30.9586,285.532 16.5,296.5C 10.4414,301.646 4.77475,306.979 -0.5,312.5C -0.5,208.167 -0.5,103.833 -0.5,-0.5 Z"/></g>
<g><path style="opacity:1" fill="#f7f6f8" d="M 204.5,62.5 C 204.677,66.2343 204.344,69.9009 203.5,73.5C 201.707,76.9737 200.374,80.6404 199.5,84.5C 196.641,87.4623 194.974,91.129 194.5,95.5C 191.856,100.363 189.189,105.363 186.5,110.5C 186.833,111.167 187.167,111.833 187.5,112.5C 190.24,110.805 192.907,109.138 195.5,107.5C 198.902,107.342 202.236,107.676 205.5,108.5C 210.281,111.772 214.948,115.272 219.5,119C 221.545,119.49 223.545,119.323 225.5,118.5C 229.833,118.5 234.167,118.5 238.5,118.5C 242.577,122.565 247.244,125.898 252.5,128.5C 258.919,123.789 265.919,120.456 273.5,118.5C 280.175,118.666 286.842,118.5 293.5,118C 294.464,116.275 295.131,114.441 295.5,112.5C 297.909,101.328 303.575,92.3284 312.5,85.5C 318.545,81.4332 324.878,80.7666 331.5,83.5C 336.187,89.3812 339.187,96.0479 340.5,103.5C 340.177,107.226 340.511,110.893 341.5,114.5C 342.298,114.043 342.631,113.376 342.5,112.5C 349.285,105.339 357.618,101.005 367.5,99.5C 371.329,100.069 374.663,99.4023 377.5,97.5C 384.55,92.1219 391.884,87.1219 399.5,82.5C 401.632,82.4456 402.965,81.4456 403.5,79.5C 414.513,71.5094 425.846,63.8428 437.5,56.5C 443.916,52.0772 450.916,50.7438 458.5,52.5C 465.924,58.6244 473.424,64.6244 481,70.5C 481.985,75.6895 481.485,80.6895 479.5,85.5C 481,85.8333 482.5,86.1667 484,86.5C 486.887,85.896 489.72,85.2293 492.5,84.5C 498.5,83.1667 504.5,83.1667 510.5,84.5C 514.84,87.1765 518.173,90.8431 520.5,95.5C 527.171,92.4819 528.838,87.8152 525.5,81.5C 525.5,78.8333 525.5,76.1667 525.5,73.5C 526.071,69.6906 527.738,66.3573 530.5,63.5C 531.988,61.4228 533.988,60.4228 536.5,60.5C 540.199,59.4208 543.865,59.4208 547.5,60.5C 556.089,62.5946 560.423,68.0946 560.5,77C 560.304,80.3495 559.637,83.5161 558.5,86.5C 556.44,88.0754 554.774,90.0754 553.5,92.5C 551.91,92.6282 550.577,93.2949 549.5,94.5C 549.957,95.2975 550.624,95.6309 551.5,95.5C 552.782,97.4645 554.115,99.4645 555.5,101.5C 559.112,99.8713 562.112,97.538 564.5,94.5C 567.578,94.413 569.911,93.0797 571.5,90.5C 575.365,87.776 579.698,86.4426 584.5,86.5C 590.167,86.5 595.833,86.5 601.5,86.5C 603.288,86.2148 604.955,86.5481 606.5,87.5C 612.986,90.4861 617.819,95.1527 621,101.5C 621.494,103.134 621.66,104.801 621.5,106.5C 621.5,111.5 621.5,116.5 621.5,121.5C 621.497,124.675 620.497,127.508 618.5,130C 620.406,132.061 622.073,134.228 623.5,136.5C 623.5,140.833 623.5,145.167 623.5,149.5C 619.042,163.961 609.708,173.961 595.5,179.5C 588.223,180.43 580.89,180.764 573.5,180.5C 569.332,178.498 564.999,176.498 560.5,174.5C 557.474,171.805 554.474,169.138 551.5,166.5C 548.111,167.717 545.444,169.884 543.5,173C 536.538,176.416 529.871,175.916 523.5,171.5C 520.5,166.167 517.5,166.167 514.5,171.5C 512.5,172.833 510.5,174.167 508.5,175.5C 503.18,176.775 497.847,176.775 492.5,175.5C 488.458,174.149 485.125,171.815 482.5,168.5C 481.903,167.861 481.07,167.528 480,167.5C 475.638,169.434 471.471,171.434 467.5,173.5C 462.125,173.828 456.792,173.495 451.5,172.5C 449.815,170.983 448.315,169.316 447,167.5C 445.959,170.113 444.459,172.446 442.5,174.5C 440.604,175.466 438.604,175.799 436.5,175.5C 428.534,176.365 420.534,176.698 412.5,176.5C 410.781,175.978 409.448,174.978 408.5,173.5C 406.74,165.222 407.406,157.222 410.5,149.5C 411.833,145.167 413.167,140.833 414.5,136.5C 417.53,134.409 418.864,131.409 418.5,127.5C 421.02,121.893 423.353,116.226 425.5,110.5C 427.059,107.631 428.726,104.631 430.5,101.5C 431.466,99.604 431.799,97.604 431.5,95.5C 429.517,95.1568 428.183,95.8235 427.5,97.5C 417.892,101.305 408.559,105.638 399.5,110.5C 399.961,114.212 400.627,117.879 401.5,121.5C 402.757,129.147 402.757,136.813 401.5,144.5C 397.535,159.392 390.201,172.392 379.5,183.5C 376.532,184.824 373.866,186.491 371.5,188.5C 367.711,190.259 364.045,191.926 360.5,193.5C 353.833,193.5 347.167,193.5 340.5,193.5C 334.56,190.226 329.893,185.56 326.5,179.5C 318.167,186.5 309.833,193.5 301.5,200.5C 300.311,201.429 298.978,201.762 297.5,201.5C 295.167,201.5 292.833,201.5 290.5,201.5C 287.657,201.083 284.99,200.083 282.5,198.5C 281.559,196.228 280.226,194.228 278.5,192.5C 275.321,194.094 271.988,195.094 268.5,195.5C 262.167,195.5 255.833,195.5 249.5,195.5C 246.932,195.406 245.432,194.072 245,191.5C 242.976,189.642 240.809,187.975 238.5,186.5C 231.103,190.199 223.769,193.865 216.5,197.5C 213.167,197.5 209.833,197.5 206.5,197.5C 204.505,195.359 202.505,193.025 200.5,190.5C 199.571,189.311 199.238,187.978 199.5,186.5C 198.167,186.5 196.833,186.5 195.5,186.5C 195.18,193.45 191.514,197.117 184.5,197.5C 182.517,197.157 181.183,197.824 180.5,199.5C 177.5,199.5 174.5,199.5 171.5,199.5C 166.5,199.5 161.5,199.5 156.5,199.5C 154.241,197.561 152.241,195.228 150.5,192.5C 143.438,199.03 135.105,202.863 125.5,204C 107.282,211.616 89.282,219.449 71.5,227.5C 65.3533,230.507 59.3533,233.507 53.5,236.5C 47.0838,239.726 40.2505,242.059 33,243.5C 31.4385,243.397 29.9385,243.063 28.5,242.5C 27.52,239.914 27.1866,237.247 27.5,234.5C 28.5832,234.461 29.5832,234.127 30.5,233.5C 31.5266,231.447 32.5266,229.447 33.5,227.5C 35.5333,225.132 37.8666,223.132 40.5,221.5C 43.4292,220.557 45.7625,218.89 47.5,216.5C 54.1619,210.832 61.4953,206.166 69.5,202.5C 79.4538,196.166 89.4538,189.832 99.5,183.5C 104.14,178.86 108.806,174.194 113.5,169.5C 119.308,157.547 125.308,145.88 131.5,134.5C 133.239,132.625 134.239,130.292 134.5,127.5C 134.167,126.833 133.833,126.167 133.5,125.5C 130.35,125.766 127.683,126.766 125.5,128.5C 122.024,129.643 118.358,129.81 114.5,129C 109.708,128.021 105.374,126.188 101.5,123.5C 100.167,119.833 98.8333,116.167 97.5,112.5C 97.2505,109.998 96.9172,107.498 96.5,105C 97.7337,100.898 98.7337,96.7317 99.5,92.5C 100.644,89.5534 102.311,86.8867 104.5,84.5C 109.688,79.957 115.355,76.2903 121.5,73.5C 125.624,72.6008 129.291,70.9341 132.5,68.5C 139.834,66.4926 146.834,63.4926 153.5,59.5C 163.176,53.1536 172.842,46.8202 182.5,40.5C 189.865,47.8649 197.198,55.1982 204.5,62.5 Z"/></g>
<g><path style="opacity:1" fill="#19a1e3" d="M 473.5,82.5 C 470.543,85.4243 468.876,89.091 468.5,93.5C 472.119,92.7564 475.785,92.423 479.5,92.5C 483.646,93.647 487.98,93.8136 492.5,93C 495.173,90.8227 498.173,89.3227 501.5,88.5C 504.816,88.4713 507.483,89.8046 509.5,92.5C 513.376,97.7464 515.709,103.58 516.5,110C 515.511,117.271 514.344,124.438 513,131.5C 512.172,136.202 512.338,140.869 513.5,145.5C 514.421,143.244 516.088,142.244 518.5,142.5C 518.842,129.732 520.175,117.066 522.5,104.5C 525.833,102.5 528.5,99.8333 530.5,96.5C 539.688,92.5509 545.354,95.3842 547.5,105C 545.125,116.45 544.458,127.95 545.5,139.5C 546.689,140.429 548.022,140.762 549.5,140.5C 549.266,134.621 550.266,128.954 552.5,123.5C 554.98,118.609 557.313,113.609 559.5,108.5C 570.902,96.1568 584.902,90.8235 601.5,92.5C 603.403,94.5623 605.737,95.8956 608.5,96.5C 615.618,104.412 617.285,113.412 613.5,123.5C 605.915,133.752 596.915,142.752 586.5,150.5C 590.833,151.833 595.167,151.833 599.5,150.5C 604.163,146.181 609.163,142.181 614.5,138.5C 616.611,139.212 617.611,140.712 617.5,143C 615.357,156.297 608.024,165.13 595.5,169.5C 595.5,170.5 595.5,171.5 595.5,172.5C 588.202,173.559 580.869,173.726 573.5,173C 564.734,168.401 557.734,161.901 552.5,153.5C 547.167,157.5 542.5,162.167 538.5,167.5C 535.833,168.833 533.167,168.833 530.5,167.5C 529.067,165.878 527.401,164.545 525.5,163.5C 524.079,160.991 522.412,158.657 520.5,156.5C 516.534,159.464 512.867,162.797 509.5,166.5C 501.119,171.206 493.786,169.873 487.5,162.5C 487.167,159.333 486.833,156.167 486.5,153C 487.867,140.851 489.534,128.684 491.5,116.5C 489.833,116.5 488.167,116.5 486.5,116.5C 483.932,131.773 480.265,146.773 475.5,161.5C 470.458,164.173 465.125,165.839 459.5,166.5C 457.359,166.387 455.525,165.72 454,164.5C 453.555,161.322 453.722,158.155 454.5,155C 458.025,143.756 461.358,132.423 464.5,121C 464.167,119.5 463.833,118 463.5,116.5C 459.414,119.255 456.414,122.922 454.5,127.5C 449.321,140.434 444.321,153.434 439.5,166.5C 438.646,167.522 437.646,168.355 436.5,169C 429.144,169.831 421.811,169.665 414.5,168.5C 412.424,166.063 412.091,163.397 413.5,160.5C 421.459,139.271 430.126,118.271 439.5,97.5C 440.706,93.9285 441.373,90.2618 441.5,86.5C 437.445,86.1758 433.445,86.5091 429.5,87.5C 417.643,92.0952 406.31,97.7618 395.5,104.5C 393.194,106.806 390.86,109.14 388.5,111.5C 391.082,113.577 393.082,116.077 394.5,119C 398.621,145.365 389.955,166.365 368.5,182C 356.72,188.794 345.72,187.961 335.5,179.5C 332.719,175.941 331.052,171.941 330.5,167.5C 328.323,167.586 326.323,168.253 324.5,169.5C 321.462,172.203 318.795,175.203 316.5,178.5C 314.004,179.58 311.67,180.914 309.5,182.5C 305.837,186.997 301.837,191.163 297.5,195C 294.77,195.728 292.103,195.562 289.5,194.5C 286.887,190.925 284.554,187.258 282.5,183.5C 277.867,183.822 273.534,185.155 269.5,187.5C 263.5,188.833 257.5,188.833 251.5,187.5C 250.012,185.423 248.012,184.423 245.5,184.5C 244.992,181.148 243.658,178.148 241.5,175.5C 233.064,181.213 224.064,186.213 214.5,190.5C 212.777,191.552 211.11,191.552 209.5,190.5C 206.539,186.413 204.539,181.913 203.5,177C 207.306,166.554 210.972,156.054 214.5,145.5C 210.869,145.032 207.535,145.699 204.5,147.5C 198.634,157.892 194.467,168.892 192,180.5C 190.274,183.009 188.774,185.676 187.5,188.5C 186.735,189.612 185.735,190.279 184.5,190.5C 176.514,191.099 168.514,191.432 160.5,191.5C 160.5,190.5 160.5,189.5 160.5,188.5C 162.603,181.825 165.436,175.491 169,169.5C 171.579,162.68 174.413,156.013 177.5,149.5C 178.765,148.486 179.431,146.986 179.5,145C 179.167,143.5 178.833,142 178.5,140.5C 174.221,141.274 169.887,141.774 165.5,142C 163.937,142.759 162.937,143.926 162.5,145.5C 156.509,160.812 149.842,175.812 142.5,190.5C 128.264,195.999 113.931,201.332 99.5,206.5C 80.6868,214.573 62.3534,223.74 44.5,234C 40.5723,235.802 36.5723,237.302 32.5,238.5C 32.238,237.022 32.5713,235.689 33.5,234.5C 36.6475,231.429 39.9809,228.596 43.5,226C 57.0292,217.981 70.6959,210.147 84.5,202.5C 91.5336,197.033 98.8669,192.033 106.5,187.5C 116.277,178.213 123.943,167.38 129.5,155C 140.091,131.932 150.424,108.765 160.5,85.5C 159.667,85.1667 158.833,84.8333 158,84.5C 147.19,86.7953 137.024,90.7953 127.5,96.5C 122.105,100.974 121.439,105.974 125.5,111.5C 131.871,111.85 138.204,111.85 144.5,111.5C 135.573,120.328 124.906,123.328 112.5,120.5C 104.656,114.847 101.822,107.18 104,97.5C 108.247,91.4174 113.414,86.0841 119.5,81.5C 134.18,76.0593 148.513,70.0593 162.5,63.5C 168.896,59.9394 174.563,55.4394 179.5,50C 180.944,49.2195 182.277,49.3861 183.5,50.5C 184.015,52.2251 184.682,53.8917 185.5,55.5C 188.797,57.7954 191.797,60.462 194.5,63.5C 195.325,64.3857 196.325,64.719 197.5,64.5C 197.887,68.8168 196.554,72.4834 193.5,75.5C 187.268,92.6319 179.935,109.299 171.5,125.5C 170.772,127.155 170.605,128.821 171,130.5C 172.356,129.62 173.856,129.286 175.5,129.5C 175.281,128.325 175.614,127.325 176.5,126.5C 182.723,123.442 188.556,119.775 194,115.5C 197.174,114.29 200.341,114.29 203.5,115.5C 205.89,117.893 208.557,119.893 211.5,121.5C 212.484,124.428 212.817,127.428 212.5,130.5C 216.896,129.293 221.23,127.793 225.5,126C 229.211,125.175 232.878,125.341 236.5,126.5C 238.809,128.987 241.476,130.987 244.5,132.5C 245.205,135.089 245.205,137.756 244.5,140.5C 243.5,140.5 242.5,140.5 241.5,140.5C 239.471,146.902 237.137,153.235 234.5,159.5C 233.905,162.14 233.572,164.807 233.5,167.5C 235.591,167.682 237.591,167.348 239.5,166.5C 242.445,146.918 253.111,133.418 271.5,126C 280.186,125.832 288.852,125.332 297.5,124.5C 300.352,118.622 303.019,112.622 305.5,106.5C 307.921,101.985 310.588,97.652 313.5,93.5C 320.211,86.3051 325.877,86.9718 330.5,95.5C 332.209,100.384 332.709,105.384 332,110.5C 327.979,117.218 323.979,123.885 320,130.5C 317.879,136.848 315.712,143.182 313.5,149.5C 312.508,153.783 312.174,158.116 312.5,162.5C 318.321,161.781 323.988,160.448 329.5,158.5C 331.247,142.674 337.581,129.007 348.5,117.5C 357.424,108.874 368.09,105.04 380.5,106C 386.668,101.411 392.668,96.5775 398.5,91.5C 413.754,81.9182 428.754,71.9182 443.5,61.5C 446.905,58.9969 450.571,58.3302 454.5,59.5C 458.411,63.6202 463.077,66.4535 468.5,68C 469.981,68.9803 471.315,70.147 472.5,71.5C 473.489,75.1073 473.823,78.774 473.5,82.5 Z"/></g>
<g><path style="opacity:1" fill="#f17d82" d="M 547.5,60.5 C 543.865,59.4208 540.199,59.4208 536.5,60.5C 537.871,59.2132 539.705,58.5465 542,58.5C 544.295,58.5465 546.129,59.2132 547.5,60.5 Z"/></g>
<g><path style="opacity:1" fill="#2ba5e4" d="M 538.5,66.5 C 550.38,65.706 555.047,71.0393 552.5,82.5C 546.551,90.0811 540.217,90.4144 533.5,83.5C 531.259,76.5108 532.926,70.8441 538.5,66.5 Z"/></g>
<g><path style="opacity:1" fill="#ee6f75" d="M 204.5,62.5 C 205.161,64.134 205.494,65.9674 205.5,68C 205.453,70.2953 204.787,72.1286 203.5,73.5C 204.344,69.9009 204.677,66.2343 204.5,62.5 Z"/></g>
<g><path style="opacity:1" fill="#f9b1b4" d="M 132.5,68.5 C 129.291,70.9341 125.624,72.6008 121.5,73.5C 124.462,70.641 128.129,68.9744 132.5,68.5 Z"/></g>
<g><path style="opacity:1" fill="#fac6c8" d="M 645.5,101.5 C 647.5,100.167 649.5,98.8333 651.5,97.5C 652.5,97.5 653.5,97.5 654.5,97.5C 655.338,97.1583 655.672,96.4916 655.5,95.5C 657.279,94.3303 658.279,92.6636 658.5,90.5C 659.748,89.6661 660.415,88.3328 660.5,86.5C 660.415,84.6672 659.748,83.3339 658.5,82.5C 657.982,79.6403 656.316,77.6403 653.5,76.5C 643.656,73.6731 637.99,77.3398 636.5,87.5C 636.377,91.0625 637.71,93.7291 640.5,95.5C 640.5,96.8333 641.167,97.5 642.5,97.5C 642.833,97.5 643.167,97.5 643.5,97.5C 643.672,98.4916 643.338,99.1583 642.5,99.5C 640.508,99.6715 638.842,99.0049 637.5,97.5C 636.201,95.2418 635.201,92.9084 634.5,90.5C 634.5,87.8333 634.5,85.1667 634.5,82.5C 637.17,75.8505 642.17,72.1839 649.5,71.5C 662.185,75.6196 665.518,83.6196 659.5,95.5C 655.991,100.21 651.325,102.21 645.5,101.5 Z"/></g>
<g><path style="opacity:1" fill="#ee6870" d="M 525.5,73.5 C 525.5,76.1667 525.5,78.8333 525.5,81.5C 523.974,80.5081 523.307,79.0081 523.5,77C 523.608,75.3189 524.275,74.1522 525.5,73.5 Z"/></g>
<g><path style="opacity:1" fill="#f59ea1" d="M 403.5,79.5 C 402.965,81.4456 401.632,82.4456 399.5,82.5C 400.035,80.5544 401.368,79.5544 403.5,79.5 Z"/></g>
<g><path style="opacity:1" fill="#e62a2c" d="M 658.5,82.5 C 658.5,85.1667 658.5,87.8333 658.5,90.5C 658.279,92.6636 657.279,94.3303 655.5,95.5C 656.01,92.6122 655.344,90.2789 653.5,88.5C 654.39,86.2181 654.556,83.8848 654,81.5C 653.583,80.244 652.75,79.5774 651.5,79.5C 648.5,79.5 645.5,79.5 642.5,79.5C 641.833,84.8333 641.167,90.1667 640.5,95.5C 637.71,93.7291 636.377,91.0625 636.5,87.5C 637.99,77.3398 643.656,73.6731 653.5,76.5C 656.316,77.6403 657.982,79.6403 658.5,82.5 Z"/></g>
<g><path style="opacity:1" fill="#fefbfb" d="M 642.5,79.5 C 645.5,79.5 648.5,79.5 651.5,79.5C 649.156,79.9397 647.156,80.9397 645.5,82.5C 645.5,83.8333 645.5,85.1667 645.5,86.5C 646.833,86.5 648.167,86.5 649.5,86.5C 650.043,86.56 650.376,86.8933 650.5,87.5C 648.345,88.0014 646.678,89.0014 645.5,90.5C 645.5,91.8333 645.5,93.1667 645.5,94.5C 644.5,94.5 643.5,94.5 642.5,94.5C 642.5,89.5 642.5,84.5 642.5,79.5 Z"/></g>
<g><path style="opacity:1" fill="#fcd7d8" d="M 651.5,79.5 C 652.75,79.5774 653.583,80.244 654,81.5C 654.556,83.8848 654.39,86.2181 653.5,88.5C 654.15,90.4352 654.483,92.4352 654.5,94.5C 653.5,94.5 652.5,94.5 651.5,94.5C 651.843,92.5168 651.176,91.1834 649.5,90.5C 648.167,90.5 646.833,90.5 645.5,90.5C 646.678,89.0014 648.345,88.0014 650.5,87.5C 650.376,86.8933 650.043,86.56 649.5,86.5C 651.926,82.3162 650.592,80.9829 645.5,82.5C 647.156,80.9397 649.156,79.9397 651.5,79.5 Z"/></g>
<g><path style="opacity:1" fill="#f9b4b6" d="M 510.5,84.5 C 504.5,83.1667 498.5,83.1667 492.5,84.5C 492.611,83.8826 492.944,83.3826 493.5,83C 496.638,82.0115 499.805,81.1782 503,80.5C 506.132,80.9775 508.632,82.3109 510.5,84.5 Z"/></g>
<g><path style="opacity:1" fill="#f59fa3" d="M 601.5,86.5 C 595.833,86.5 590.167,86.5 584.5,86.5C 586.915,85.1858 589.748,84.5191 593,84.5C 596.252,84.5191 599.085,85.1858 601.5,86.5 Z"/></g>
<g><path style="opacity:1" fill="#e73638" d="M 649.5,86.5 C 648.167,86.5 646.833,86.5 645.5,86.5C 645.5,85.1667 645.5,83.8333 645.5,82.5C 650.592,80.9829 651.926,82.3162 649.5,86.5 Z"/></g>
<g><path style="opacity:1" fill="#ed5c62" d="M 658.5,82.5 C 659.748,83.3339 660.415,84.6672 660.5,86.5C 660.415,88.3328 659.748,89.6661 658.5,90.5C 658.5,87.8333 658.5,85.1667 658.5,82.5 Z"/></g>
<g><path style="opacity:1" fill="#eb555c" d="M 634.5,82.5 C 634.5,85.1667 634.5,87.8333 634.5,90.5C 633.252,89.6661 632.585,88.3328 632.5,86.5C 632.585,84.6672 633.252,83.3339 634.5,82.5 Z"/></g>
<g><path style="opacity:1" fill="#ed5553" d="M 199.5,84.5 C 198.601,88.624 196.934,92.2907 194.5,95.5C 194.974,91.129 196.641,87.4623 199.5,84.5 Z"/></g>
<g><path style="opacity:1" fill="#e3161e" d="M 645.5,90.5 C 646.833,90.5 648.167,90.5 649.5,90.5C 649.5,92.1667 649.5,93.8333 649.5,95.5C 651.781,95.0773 653.448,95.744 654.5,97.5C 653.5,97.5 652.5,97.5 651.5,97.5C 648.833,97.5 646.167,97.5 643.5,97.5C 643.167,97.5 642.833,97.5 642.5,97.5C 643.1,96.1001 644.1,95.1001 645.5,94.5C 645.5,93.1667 645.5,91.8333 645.5,90.5 Z"/></g>
<g><path style="opacity:1" fill="#90d2f1" d="M 473.5,82.5 C 472.77,85.6184 471.77,88.6184 470.5,91.5C 473.713,91.19 476.713,91.5233 479.5,92.5C 475.785,92.423 472.119,92.7564 468.5,93.5C 468.876,89.091 470.543,85.4243 473.5,82.5 Z"/></g>
<g><path style="opacity:1" fill="#f27f82" d="M 558.5,86.5 C 557.903,89.4274 556.236,91.4274 553.5,92.5C 554.774,90.0754 556.44,88.0754 558.5,86.5 Z"/></g>
<g><path style="opacity:1" fill="#f69c9d" d="M 571.5,90.5 C 569.911,93.0797 567.578,94.413 564.5,94.5C 566.242,92.231 568.576,90.8976 571.5,90.5 Z"/></g>
<g><path style="opacity:1" fill="#f17e81" d="M 553.5,92.5 C 553.218,93.7777 552.551,94.7777 551.5,95.5C 550.624,95.6309 549.957,95.2975 549.5,94.5C 550.577,93.2949 551.91,92.6282 553.5,92.5 Z"/></g>
<g><path style="opacity:1" fill="#ed5d62" d="M 653.5,88.5 C 655.344,90.2789 656.01,92.6122 655.5,95.5C 655.672,96.4916 655.338,97.1583 654.5,97.5C 653.448,95.744 651.781,95.0773 649.5,95.5C 649.5,93.8333 649.5,92.1667 649.5,90.5C 651.176,91.1834 651.843,92.5168 651.5,94.5C 652.5,94.5 653.5,94.5 654.5,94.5C 654.483,92.4352 654.15,90.4352 653.5,88.5 Z"/></g>
<g><path style="opacity:1" fill="#ee686f" d="M 642.5,79.5 C 642.5,84.5 642.5,89.5 642.5,94.5C 643.5,94.5 644.5,94.5 645.5,94.5C 644.1,95.1001 643.1,96.1001 642.5,97.5C 641.167,97.5 640.5,96.8333 640.5,95.5C 641.167,90.1667 641.833,84.8333 642.5,79.5 Z"/></g>
<g><path style="opacity:1" fill="#ea4d54" d="M 377.5,97.5 C 374.663,99.4023 371.329,100.069 367.5,99.5C 370.337,97.5977 373.671,96.931 377.5,97.5 Z"/></g>
<g><path style="opacity:1" fill="#ef615e" d="M 425.5,110.5 C 425.442,105.488 427.109,101.321 430.5,98C 430.333,97.5 430.167,97 430,96.5C 429.329,97.2524 428.496,97.5858 427.5,97.5C 428.183,95.8235 429.517,95.1568 431.5,95.5C 431.799,97.604 431.466,99.604 430.5,101.5C 428.726,104.631 427.059,107.631 425.5,110.5 Z"/></g>
<g><path style="opacity:1" fill="#f28287" d="M 643.5,97.5 C 646.167,97.5 648.833,97.5 651.5,97.5C 649.5,98.8333 647.5,100.167 645.5,101.5C 643.821,101.715 642.821,101.048 642.5,99.5C 643.338,99.1583 643.672,98.4916 643.5,97.5 Z"/></g>
<g><path style="opacity:1" fill="#f8b3b6" d="M 99.5,92.5 C 98.7337,96.7317 97.7337,100.898 96.5,105C 96.9172,107.498 97.2505,109.998 97.5,112.5C 96.1914,110.429 95.5248,107.929 95.5,105C 95.8333,102.5 96.1667,100 96.5,97.5C 97.0014,95.3449 98.0014,93.6782 99.5,92.5 Z"/></g>
<g><path style="opacity:1" fill="#f2878b" d="M 195.5,107.5 C 196.964,106.84 198.631,106.507 200.5,106.5C 202.64,106.556 204.306,107.223 205.5,108.5C 202.236,107.676 198.902,107.342 195.5,107.5 Z"/></g>
<g><path style="opacity:1" fill="#ee696f" d="M 340.5,103.5 C 342.388,105.988 343.055,108.988 342.5,112.5C 342.631,113.376 342.298,114.043 341.5,114.5C 340.511,110.893 340.177,107.226 340.5,103.5 Z"/></g>
<g><path style="opacity:1" fill="#f6aaae" d="M 621.5,106.5 C 623.033,108.634 623.7,111.134 623.5,114C 623.7,116.866 623.033,119.366 621.5,121.5C 621.5,116.5 621.5,111.5 621.5,106.5 Z"/></g>
<g><path style="opacity:1" fill="#f49a9e" d="M 238.5,118.5 C 234.167,118.5 229.833,118.5 225.5,118.5C 229.833,115.833 234.167,115.833 238.5,118.5 Z"/></g>
<g><path style="opacity:1" fill="#f29196" d="M 295.5,112.5 C 295.131,114.441 294.464,116.275 293.5,118C 286.842,118.5 280.175,118.666 273.5,118.5C 279.653,117.672 285.987,117.172 292.5,117C 292.915,114.974 293.915,113.474 295.5,112.5 Z"/></g>
<g><path style="opacity:1" fill="#f5fbfd" d="M 584.5,120.5 C 587.5,120.5 590.5,120.5 593.5,120.5C 593.579,121.93 593.246,123.264 592.5,124.5C 589.448,128.409 586.114,132.076 582.5,135.5C 580.488,137.341 578.155,138.341 575.5,138.5C 574.82,130.527 577.82,124.527 584.5,120.5 Z"/></g>
<g><path style="opacity:1" fill="#f8b9bb" d="M 131.5,134.5 C 132.219,132.236 132.552,129.903 132.5,127.5C 130.097,127.448 127.764,127.781 125.5,128.5C 127.683,126.766 130.35,125.766 133.5,125.5C 133.833,126.167 134.167,126.833 134.5,127.5C 134.239,130.292 133.239,132.625 131.5,134.5 Z"/></g>
<g><path style="opacity:1" fill="#fafdfe" d="M 375.5,129.5 C 375.821,131.048 376.821,131.715 378.5,131.5C 378.665,134.518 378.498,137.518 378,140.5C 376.628,141.91 375.795,143.577 375.5,145.5C 374.492,150.508 371.492,153.508 366.5,154.5C 362.889,154.956 359.556,154.289 356.5,152.5C 355.302,148.488 355.302,144.488 356.5,140.5C 360.6,132.951 366.933,129.284 375.5,129.5 Z"/></g>
<g><path style="opacity:1" fill="#f7b4b7" d="M 401.5,121.5 C 402.822,124.768 403.489,128.435 403.5,132.5C 403.333,136.167 403.167,139.833 403,143.5C 402.617,144.056 402.117,144.389 401.5,144.5C 402.757,136.813 402.757,129.147 401.5,121.5 Z"/></g>
<g><path style="opacity:1" fill="#93d4f2" d="M 375.5,129.5 C 376.583,129.539 377.583,129.873 378.5,130.5C 379.659,134.122 379.825,137.789 379,141.5C 378.26,143.319 377.093,144.652 375.5,145.5C 377.093,144.652 378.26,143.319 379,141.5C 379.825,137.789 379.659,134.122 378.5,130.5C 377.583,129.873 376.583,129.539 375.5,129.5 Z"/></g>
<g><path style="opacity:1" fill="#f07275" d="M 418.5,127.5 C 418.864,131.409 417.53,134.409 414.5,136.5C 415.05,133.073 416.384,130.073 418.5,127.5 Z"/></g>
<g><path style="opacity:1" fill="#f38e92" d="M 623.5,136.5 C 624.8,138.223 625.467,140.39 625.5,143C 625.467,145.61 624.8,147.777 623.5,149.5C 623.5,145.167 623.5,140.833 623.5,136.5 Z"/></g>
<g><path style="opacity:1" fill="#7ac7ee" d="M 177.5,149.5 C 178.219,147.236 178.552,144.903 178.5,142.5C 173.118,143.228 167.784,144.228 162.5,145.5C 162.937,143.926 163.937,142.759 165.5,142C 169.887,141.774 174.221,141.274 178.5,140.5C 178.833,142 179.167,143.5 179.5,145C 179.431,146.986 178.765,148.486 177.5,149.5 Z"/></g>
<g><path style="opacity:1" fill="#f0f9fd" d="M 282.5,143.5 C 284.5,143.5 286.5,143.5 288.5,143.5C 289.066,151.659 287.399,159.325 283.5,166.5C 273.862,168.862 270.196,165.196 272.5,155.5C 274.329,153.844 275.663,151.844 276.5,149.5C 279.116,147.998 281.116,145.998 282.5,143.5 Z"/></g>
<g><path style="opacity:0.999" fill="#feeb00" d="M 685.5,143.5 C 685.5,166.5 685.5,189.5 685.5,212.5C 684.5,212.5 683.5,212.5 682.5,212.5C 681.393,216.048 679.726,219.381 677.5,222.5C 652.746,253.552 621.079,274.052 582.5,284C 569.993,287.269 557.326,289.436 544.5,290.5C 411.187,291.16 277.853,291.827 144.5,292.5C 140.879,293.013 137.546,294.013 134.5,295.5C 130.774,295.177 127.107,295.511 123.5,296.5C 91.1531,304.509 61.4865,318.176 34.5,337.5C 22.4714,347.204 10.8047,357.204 -0.5,367.5C -0.5,349.167 -0.5,330.833 -0.5,312.5C 4.77475,306.979 10.4414,301.646 16.5,296.5C 30.9586,285.532 46.2919,276.032 62.5,268C 68.0985,265.856 73.7651,264.022 79.5,262.5C 88.0437,259.709 96.7103,257.209 105.5,255C 106.056,254.617 106.389,254.117 106.5,253.5C 117.688,251.267 129.021,249.934 140.5,249.5C 274.495,248.859 408.495,248.193 542.5,247.5C 543.602,246.824 544.602,246.158 545.5,245.5C 565.794,242.18 585.127,235.847 603.5,226.5C 631.547,211.367 654.547,190.7 672.5,164.5C 676.27,157.96 679.77,151.293 683,144.5C 683.671,143.748 684.504,143.414 685.5,143.5 Z"/></g>
<g><path style="opacity:1" fill="#abdef5" d="M 356.5,140.5 C 355.302,144.488 355.302,148.488 356.5,152.5C 359.556,154.289 362.889,154.956 366.5,154.5C 358.734,158.441 354.734,155.941 354.5,147C 354.533,144.39 355.2,142.223 356.5,140.5 Z"/></g>
<g><path style="opacity:1" fill="#f7a7aa" d="M 410.5,149.5 C 407.406,157.222 406.74,165.222 408.5,173.5C 406.824,172.817 406.157,171.483 406.5,169.5C 406.5,166.5 406.5,163.5 406.5,160.5C 406.34,158.801 406.506,157.134 407,155.5C 407.739,153.111 408.905,151.111 410.5,149.5 Z"/></g>
<g><path style="opacity:1" fill="#ec575d" d="M 406.5,160.5 C 406.5,163.5 406.5,166.5 406.5,169.5C 405.235,168.486 404.569,166.986 404.5,165C 404.569,163.014 405.235,161.514 406.5,160.5 Z"/></g>
<g><path style="opacity:1" fill="#ed5658" d="M 523.5,171.5 C 521.418,171.376 519.918,170.376 519,168.5C 517.908,170.117 516.408,171.117 514.5,171.5C 517.5,166.167 520.5,166.167 523.5,171.5 Z"/></g>
<g><path style="opacity:1" fill="#ec5455" d="M 482.5,168.5 C 477.671,170.658 472.671,172.325 467.5,173.5C 471.471,171.434 475.638,169.434 480,167.5C 481.07,167.528 481.903,167.861 482.5,168.5 Z"/></g>
<g><path style="opacity:1" fill="#f7b7ba" d="M 436.5,175.5 C 436.082,176.222 435.416,176.722 434.5,177C 426.988,177.822 419.655,177.655 412.5,176.5C 420.534,176.698 428.534,176.365 436.5,175.5 Z"/></g>
<g><path style="opacity:1" fill="#f9b9bb" d="M 492.5,175.5 C 497.847,176.775 503.18,176.775 508.5,175.5C 506.257,176.812 503.59,177.478 500.5,177.5C 497.41,177.478 494.743,176.812 492.5,175.5 Z"/></g>
<g><path style="opacity:1" fill="#ec5b61" d="M 595.5,179.5 C 595.389,180.117 595.056,180.617 594.5,181C 587.321,181.821 580.321,181.655 573.5,180.5C 580.89,180.764 588.223,180.43 595.5,179.5 Z"/></g>
<g><path style="opacity:1" fill="#99d7f3" d="M 160.5,188.5 C 160.5,189.5 160.5,190.5 160.5,191.5C 168.514,191.432 176.514,191.099 184.5,190.5C 176.231,192.47 167.565,193.136 158.5,192.5C 158.157,190.517 158.824,189.183 160.5,188.5 Z"/></g>
<g><path style="opacity:1" fill="#ee5d59" d="M 371.5,188.5 C 371.461,189.583 371.127,190.583 370.5,191.5C 367.179,192.33 363.846,192.997 360.5,193.5C 364.045,191.926 367.711,190.259 371.5,188.5 Z"/></g>
<g><path style="opacity:1" fill="#f38c8f" d="M 340.5,193.5 C 347.167,193.5 353.833,193.5 360.5,193.5C 353.833,196.167 347.167,196.167 340.5,193.5 Z"/></g>
<g><path style="opacity:1" fill="#f7a9ab" d="M 249.5,195.5 C 255.833,195.5 262.167,195.5 268.5,195.5C 268.082,196.222 267.416,196.722 266.5,197C 260.564,197.943 254.897,197.443 249.5,195.5 Z"/></g>
<g><path style="opacity:1" fill="#f28e93" d="M 184.5,197.5 C 183.817,199.176 182.483,199.843 180.5,199.5C 181.183,197.824 182.517,197.157 184.5,197.5 Z"/></g>
<g><path style="opacity:1" fill="#f6a0a3" d="M 206.5,197.5 C 209.833,197.5 213.167,197.5 216.5,197.5C 215.306,198.777 213.64,199.444 211.5,199.5C 209.36,199.444 207.694,198.777 206.5,197.5 Z"/></g>
<g><path style="opacity:1" fill="#ed5e64" d="M 156.5,199.5 C 161.5,199.5 166.5,199.5 171.5,199.5C 169.429,200.809 166.929,201.475 164,201.5C 161.071,201.475 158.571,200.809 156.5,199.5 Z"/></g>
<g><path style="opacity:1" fill="#f07c83" d="M 290.5,201.5 C 292.833,201.5 295.167,201.5 297.5,201.5C 296.848,202.725 295.681,203.392 294,203.5C 292.319,203.392 291.152,202.725 290.5,201.5 Z"/></g>
<g><path style="opacity:0.994" fill="#01953f" d="M 685.5,212.5 C 685.5,239.167 685.5,265.833 685.5,292.5C 680.235,296.212 675.902,300.879 672.5,306.5C 668.203,308.804 664.536,311.804 661.5,315.5C 652.603,321.907 643.269,327.574 633.5,332.5C 616.729,338.959 599.563,344.293 582,348.5C 565.164,350.139 548.331,351.806 531.5,353.5C 469.86,352.193 408.194,351.526 346.5,351.5C 287.167,351.833 227.833,352.167 168.5,352.5C 137.122,354.323 107.455,362.323 79.5,376.5C 74.4505,380.354 69.1172,383.688 63.5,386.5C 51.904,394.464 40.904,403.131 30.5,412.5C 25.5,418.833 19.8333,424.5 13.5,429.5C 12.7189,430.729 12.2189,432.062 12,433.5C 7.2163,437.446 3.04963,441.779 -0.5,446.5C -0.5,420.167 -0.5,393.833 -0.5,367.5C 10.8047,357.204 22.4714,347.204 34.5,337.5C 61.4865,318.176 91.1531,304.509 123.5,296.5C 127.107,295.511 130.774,295.177 134.5,295.5C 139.602,295.138 144.602,294.305 149.5,293C 280.5,292.667 411.5,292.333 542.5,292C 543.416,291.722 544.082,291.222 544.5,290.5C 557.326,289.436 569.993,287.269 582.5,284C 621.079,274.052 652.746,253.552 677.5,222.5C 679.726,219.381 681.393,216.048 682.5,212.5C 683.5,212.5 684.5,212.5 685.5,212.5 Z"/></g>
<g><path style="opacity:1" fill="#f69da0" d="M 47.5,216.5 C 45.7625,218.89 43.4292,220.557 40.5,221.5C 42.2375,219.11 44.5708,217.443 47.5,216.5 Z"/></g>
<g><path style="opacity:1" fill="#fbbdbd" d="M 33.5,227.5 C 32.5266,229.447 31.5266,231.447 30.5,233.5C 29.5832,234.127 28.5832,234.461 27.5,234.5C 28.4123,231.253 30.4123,228.92 33.5,227.5 Z"/></g>
<g><path style="opacity:1" fill="#ed5957" d="M 71.5,227.5 C 70.0753,229.253 68.4086,230.92 66.5,232.5C 62.2492,234.236 57.9159,235.57 53.5,236.5C 59.3533,233.507 65.3533,230.507 71.5,227.5 Z"/></g>
<g><path style="opacity:1" fill="#facd02" d="M 545.5,245.5 C 544.602,246.158 543.602,246.824 542.5,247.5C 408.495,248.193 274.495,248.859 140.5,249.5C 272.83,247.668 405.496,246.835 538.5,247C 540.677,245.798 543.011,245.298 545.5,245.5 Z"/></g>
<g><path style="opacity:0.992" fill="#fac003" d="M 106.5,253.5 C 106.389,254.117 106.056,254.617 105.5,255C 96.7103,257.209 88.0437,259.709 79.5,262.5C 87.8215,258.066 96.8215,255.066 106.5,253.5 Z"/></g>
<g><path style="opacity:1" fill="#9cca19" d="M 544.5,290.5 C 544.082,291.222 543.416,291.722 542.5,292C 411.5,292.333 280.5,292.667 149.5,293C 144.602,294.305 139.602,295.138 134.5,295.5C 137.546,294.013 140.879,293.013 144.5,292.5C 277.853,291.827 411.187,291.16 544.5,290.5 Z"/></g>
</svg>
