<svg width="56" height="56" viewBox="0 0 56 56" fill="none" xmlns="http://www.w3.org/2000/svg">
<rect width="55.9973" height="56" rx="12" fill="#FFFDF5"/>
<path d="M24.9808 21.5588C24.9808 22.2887 24.837 23.0116 24.5577 23.686C24.2783 24.3604 23.8689 24.9732 23.3527 25.4894C22.8365 26.0056 22.2237 26.415 21.5493 26.6944C20.8749 26.9737 20.152 27.1175 19.422 27.1175C17.9478 27.1175 16.5339 26.5319 15.4914 25.4894C14.4489 24.4469 13.8633 23.033 13.8633 21.5588C13.8633 20.0845 14.4489 18.6706 15.4914 17.6281C16.5339 16.5857 17.9478 16 19.422 16C20.8963 16 22.3102 16.5857 23.3527 17.6281C24.3951 18.6706 24.9808 20.0845 24.9808 21.5588ZM23.2628 21.5588C23.2628 20.5401 22.8582 19.5632 22.1379 18.8429C21.4176 18.1226 20.4407 17.718 19.422 17.718C18.4034 17.718 17.4265 18.1226 16.7062 18.8429C15.9859 19.5632 15.5813 20.5401 15.5813 21.5588C15.5813 22.5774 15.9859 23.5543 16.7062 24.2746C17.4265 24.9949 18.4034 25.3995 19.422 25.3995C20.4407 25.3995 21.4176 24.9949 22.1379 24.2746C22.8582 23.5543 23.2628 22.5774 23.2628 21.5588Z" fill="#732727"/>
<path d="M42.1341 21.5588C42.1341 22.2887 41.9903 23.0116 41.711 23.686C41.4316 24.3604 41.0222 24.9732 40.506 25.4894C39.9898 26.0056 39.377 26.415 38.7026 26.6944C38.0282 26.9737 37.3053 27.1175 36.5754 27.1175C35.1011 27.1175 33.6872 26.5319 32.6447 25.4894C31.6023 24.4469 31.0166 23.033 31.0166 21.5588C31.0166 20.0845 31.6023 18.6706 32.6447 17.6281C33.6872 16.5857 35.1011 16 36.5754 16C38.0496 16 39.4635 16.5857 40.506 17.6281C41.5485 18.6706 42.1341 20.0845 42.1341 21.5588ZM40.4161 21.5588C40.4161 20.5401 40.0115 19.5632 39.2912 18.8429C38.5709 18.1226 37.594 17.718 36.5754 17.718C35.5567 17.718 34.5798 18.1226 33.8595 18.8429C33.1392 19.5632 32.7346 20.5401 32.7346 21.5588C32.7346 22.5774 33.1392 23.5543 33.8595 24.2746C34.5798 24.9949 35.5567 25.3995 36.5754 25.3995C37.594 25.3995 38.5709 24.9949 39.2912 24.2746C40.0115 23.5543 40.4161 22.5774 40.4161 21.5588Z" fill="#732727"/>
<path d="M12.7169 31.8358C12.8645 31.6855 13.0734 31.4936 13.3439 31.2603C13.5783 31.0591 13.8074 30.8927 14.0309 30.7611C14.5633 30.4478 15.0484 30.2214 15.4864 30.0818C16.1903 29.8577 16.982 29.7353 17.8614 29.7148C18.503 29.6999 19.6297 29.6982 21.2416 29.7096C22.0358 29.7148 22.6062 29.7428 22.9527 29.7937C24.5664 30.031 25.9364 30.7643 27.0628 31.9937C27.7633 32.7582 28.2519 33.5933 28.5286 34.499C28.7305 35.1606 28.8406 35.9302 28.8589 36.8079C28.868 37.2625 28.8357 37.6674 28.7619 38.0224C28.7105 38.2672 28.5781 38.5562 28.3648 38.8896C28.1887 39.1652 27.9674 39.3848 27.701 39.5483C27.4162 39.7227 27.116 39.8473 26.8004 39.9223C26.5882 39.972 26.2689 39.9972 25.8423 39.9977C22.1982 40.0006 18.2943 40.0009 14.1304 39.9986C13.506 39.9986 13.0629 39.966 12.801 39.9008C12.3453 39.787 11.9501 39.5634 11.6156 39.2301C11.1599 38.7755 10.9092 38.1937 10.8634 37.4847C10.8137 36.7253 10.8631 35.9591 11.0118 35.186C11.1067 34.6903 11.2331 34.2583 11.3909 33.89C11.579 33.4509 11.7912 33.0509 12.0273 32.6901C12.2246 32.3888 12.4545 32.104 12.7169 31.8358ZM13.3997 38.2866H26.296C26.5201 38.2866 26.735 38.1976 26.8934 38.0392C27.0519 37.8807 27.1409 37.6658 27.1409 37.4418V36.6098C27.1409 35.232 26.5935 33.9106 25.619 32.9363C24.6446 31.9621 23.323 31.4147 21.9449 31.4147H17.7508C16.3727 31.4147 15.0511 31.9621 14.0767 32.9363C13.1023 33.9106 12.5548 35.232 12.5548 36.6098V37.4418C12.5548 37.5527 12.5767 37.6626 12.6191 37.7651C12.6616 37.8676 12.7238 37.9607 12.8023 38.0392C12.8807 38.1176 12.9739 38.1799 13.0764 38.2223C13.1789 38.2648 13.2887 38.2866 13.3997 38.2866Z" fill="#732727"/>
<path d="M42.9204 31.4849C42.8124 31.4352 42.5285 31.4215 42.3775 31.4215C38.8118 31.422 34.6548 31.4223 29.9065 31.4223C29.5663 31.4223 29.297 31.5235 29.0986 31.7259C29.0757 31.7488 29.056 31.7465 29.0394 31.7191C28.7466 31.2513 28.3958 30.8339 27.987 30.4668C27.9653 30.4468 27.9653 30.4271 27.987 30.4077C28.2552 30.1721 28.4093 30.0457 28.4493 30.0286C28.937 29.8164 29.3447 29.7101 29.6724 29.7095C33.7768 29.7049 37.8812 29.7049 41.9855 29.7095C42.5842 29.7101 43.0031 29.7464 43.2421 29.8184C43.5188 29.9025 43.7839 30.0251 44.0372 30.1864C44.2727 30.3362 44.4749 30.5357 44.6436 30.785C44.9523 31.2408 45.1199 31.7465 45.1462 32.3023C45.1616 32.6208 45.155 33.0319 45.1264 33.5357C45.1001 33.9914 45.0415 34.3977 44.9506 34.7545C44.8025 35.3354 44.6255 35.8406 44.4197 36.27C44.2779 36.5662 44.0246 36.9565 43.6598 37.4408C43.3613 37.8376 43.0388 38.1693 42.6923 38.4357C42.1382 38.8629 41.6953 39.1496 41.3637 39.296C40.665 39.6042 39.9662 39.8129 39.2675 39.9221C39.1588 39.9393 38.9227 39.9582 38.559 39.9787C38.3377 39.9907 38.1013 39.997 37.8497 39.9976C36.0337 40.0016 34.7177 39.9988 33.9017 39.989C33.1155 39.9793 32.2418 39.7955 31.2806 39.4375C30.9795 39.3252 30.651 39.0996 30.3465 38.9495C30.3362 38.9445 30.328 38.9359 30.3234 38.9254C30.3189 38.9148 30.3182 38.903 30.3217 38.892C30.3754 38.7131 30.4217 38.5407 30.4606 38.3748C30.4978 38.2182 30.5232 38.0423 30.5369 37.8474C30.5381 37.8336 30.5544 37.572 30.5858 37.0626C30.5881 37.0288 30.603 37.0217 30.6304 37.0411C30.7305 37.1109 30.8677 37.2127 31.0421 37.3465C31.1816 37.4528 31.3263 37.5443 31.4761 37.6209C31.8278 37.8005 32.0774 37.9137 32.2249 37.9606C32.6635 38.0995 33.0792 38.1913 33.472 38.2359C33.747 38.2673 34.1722 38.2831 34.7474 38.2831C36.8127 38.2854 37.9509 38.2848 38.1619 38.2814C38.5199 38.2756 38.917 38.2333 39.3533 38.1544C39.7684 38.0795 40.1458 37.9591 40.4854 37.7933C41.5535 37.2736 42.3552 36.4919 42.8904 35.4484C43.1054 35.0281 43.2535 34.5592 43.3347 34.0417C43.4153 33.53 43.4488 33.0357 43.4351 32.5588C43.4248 32.1877 43.4042 31.9727 43.3733 31.9138C43.2709 31.7188 43.12 31.5758 42.9204 31.4849Z" fill="#732727"/>
</svg>
