<svg width="175" height="426" viewBox="0 0 175 426" fill="none" xmlns="http://www.w3.org/2000/svg">
<path d="M166.883 98.6201C167.262 90.9677 167.022 85.9218 166.162 83.4823C162.054 71.706 158.645 63.9592 155.935 60.2419C147.609 48.8068 131.263 47.5435 118.458 49.1989C117.7 49.286 117.066 49.0464 116.556 48.4801C115.333 47.1152 114.473 45.8809 113.978 44.7773C113.584 43.8916 113.643 42.4468 114.153 40.4429C116.993 29.3055 115.063 19.9687 108.362 12.4324C104.836 8.46829 99.3801 5.22291 91.9939 2.69631C73.7687 -3.55486 52.0907 3.67645 39.285 17.05C27.8778 28.9643 24.884 45.1476 24.9932 61.723C25.0661 71.539 27.9652 80.1643 33.6906 87.5989C42.1404 98.533 53.1833 106.882 66.8195 112.647C67.0072 112.729 67.1714 112.856 67.297 113.018C67.4225 113.179 67.5054 113.369 67.538 113.571C67.5707 113.772 67.552 113.979 67.4837 114.171C67.4154 114.364 67.2998 114.536 67.1473 114.673C60.2636 120.815 47.6109 124.104 38.7823 125.563C31.2941 126.798 27.0547 127.524 26.064 127.741C21.067 128.845 16.8494 129.353 13.4113 129.266C-7.15222 128.656 -28.415 122.884 -47.1428 116.742C-50.3989 115.675 -55.0317 117.94 -57.96 120.183C-66.1183 126.398 -73.592 132.047 -80.3809 137.129C-80.4591 137.19 -80.5495 137.234 -80.6456 137.257C-80.7418 137.28 -80.8413 137.282 -80.9372 137.264C-81.0331 137.245 -81.123 137.206 -81.2006 137.149C-81.2782 137.091 -81.3415 137.018 -81.3861 136.933L-83.1781 133.143C-83.3814 132.709 -83.6901 132.332 -84.0756 132.046C-84.461 131.76 -84.9108 131.574 -85.3834 131.507C-85.856 131.44 -86.3362 131.493 -86.7795 131.661C-87.2229 131.828 -87.6151 132.106 -87.9201 132.468C-91.3291 136.476 -94.9057 139.46 -98.6498 141.42C-102.387 143.38 -103.567 146.146 -105.315 149.022C-106.189 150.459 -107.711 151.105 -109.882 150.96C-110.596 150.916 -111.222 151.127 -111.762 151.592C-115.914 155.294 -116.904 159.404 -114.733 163.92C-114.403 164.614 -114.329 165.404 -114.524 166.155C-114.719 166.906 -115.172 167.571 -115.804 168.036L-141.7 187.029C-142.585 187.68 -143.329 188.502 -143.885 189.447C-144.442 190.391 -144.8 191.438 -144.937 192.523C-145.074 193.607 -144.987 194.707 -144.683 195.755C-144.378 196.803 -143.861 197.777 -143.164 198.617L-97.5135 253.68C-96.9162 254.406 -96.9526 255.11 -97.6227 255.792L-101.185 259.364C-101.27 259.451 -101.326 259.563 -101.347 259.693C-101.369 259.823 -101.357 259.969 -101.312 260.12C-101.267 260.272 -101.189 260.426 -101.085 260.574C-100.98 260.721 -100.85 260.858 -100.704 260.976C-100.442 261.179 -98.4604 262.682 -94.76 265.485C-92.1158 267.467 -91.7006 268.774 -91.3291 271.562C-91.2857 271.885 -91.125 272.18 -90.8784 272.389C-90.6318 272.599 -90.3171 272.707 -89.9961 272.694C-86.8493 272.578 -85.1157 273.812 -84.7952 276.397C-84.0959 282.191 -80.1405 285.219 -74.6773 283.999C-72.0695 283.418 -69.7094 283.157 -67.597 283.215C-66.9347 283.233 -66.2887 283.424 -65.7239 283.769C-65.159 284.114 -64.6951 284.601 -64.3786 285.181C-64.0621 285.762 -63.9041 286.414 -63.9205 287.075C-63.9369 287.735 -64.1271 288.379 -64.4721 288.943C-68.8426 296.131 -76.6004 300.966 -83.8336 304.93C-91.0014 308.829 -92.684 316.932 -86.0845 322.421C-85.4435 322.958 -84.5475 323.393 -83.3966 323.727C-81.7795 324.192 -80.8253 324.512 -80.5339 324.686C-79.2519 325.383 -78.9823 326.356 -79.7253 327.604C-83.9648 334.85 -82.8065 340.564 -76.2507 344.746C-75.1144 345.472 -74.9177 346.402 -75.6607 347.534C-76.9864 349.509 -77.8605 350.794 -78.283 351.389C-82.151 356.704 -80.4683 362.411 -74.6336 365.591C-73.5701 366.171 -73.4317 366.919 -74.2184 367.834L-80.7087 375.414C-81.3162 376.117 -81.6573 377.011 -81.6733 377.942C-81.6893 378.872 -81.379 379.781 -80.7961 380.511L-78.0645 383.887C-77.8455 384.155 -77.7221 384.488 -77.7142 384.831C-77.7063 385.175 -77.8142 385.51 -78.0208 385.782C-80.4392 389.092 -79.5286 392.352 -75.2892 395.561C-74.1091 396.447 -74.0363 397.413 -75.0707 398.458C-78.6327 402.096 -84.3581 402.858 -82.4351 409.588C-80.512 416.253 -72.7106 414.119 -65.1932 413.749C-58.7685 413.444 -52.169 417.146 -46.072 419.673C-45.4019 419.949 -44.7171 419.978 -44.0179 419.76C-38.9043 418.206 -34.7741 419.419 -31.6273 423.398C-31.3556 423.749 -31.0049 424.032 -30.6028 424.225C-30.2007 424.417 -29.7584 424.515 -29.3109 424.508C-9.90567 424.044 22.451 423.594 67.7591 423.158C74.6646 423.093 81.1768 421.416 87.9293 420.13C91.5131 419.462 94.9659 419.412 98.2875 419.978C100.822 420.414 104.246 421.132 108.558 422.134C110.991 422.686 112.71 422.795 113.716 422.461C114.896 422.069 116.28 421.597 117.868 421.045C118.2 420.93 118.564 420.897 118.932 420.95C119.299 421.003 119.66 421.14 119.987 421.35L125.888 425.053C126.187 425.236 126.511 425.355 126.837 425.401C127.162 425.446 127.48 425.416 127.767 425.314C130.112 424.53 131.526 422.766 132.006 420.022C132.837 415.186 132.509 410.99 131.023 407.432C129.959 404.905 128.168 404.194 125.647 405.298C123.447 406.256 119.12 406.641 112.667 406.452C101.849 406.125 96.9982 396.716 96.7796 387.11C96.7796 386.936 96.8088 380.155 96.8671 366.767C96.8962 362.483 96.277 355.731 95.0096 346.51C94.0335 339.482 93.3633 331.736 92.9991 323.27C92.97 322.559 93.1739 321.92 93.611 321.353C94.1937 320.598 94.5652 320.126 94.7255 319.938C95.0751 319.516 95.3082 318.914 95.4248 318.13C95.891 315.066 96.2333 310.804 96.4519 305.344C96.481 304.618 96.3062 303.943 95.9274 303.319C94.8639 301.547 93.1084 299.805 90.6609 298.091C90.049 297.656 89.6265 297.082 89.3934 296.37C88.7378 294.236 87.8054 292.051 86.5962 289.814C84.7169 286.329 83.9083 278.967 83.5587 275.918C82.6409 267.99 78.4452 263.612 73.1349 258.341C72.6713 257.882 72.3288 257.316 72.1382 256.693C71.9475 256.071 71.9146 255.41 72.0422 254.772C72.1699 254.133 72.4543 253.536 72.87 253.034C73.2856 252.532 73.8196 252.14 74.4242 251.893C76.8936 250.892 78.2048 249.171 78.8385 246.361C80.951 237.257 82.6045 230.403 83.7991 225.8C84.0232 224.947 84.4537 224.153 85.0566 223.48C85.6596 222.807 86.4185 222.274 87.2737 221.923L93.1521 219.549C93.9679 219.215 94.3758 218.576 94.3758 217.632L94.3977 211.729C94.3977 210.858 94.6526 210.183 95.1625 209.704C97.3697 207.547 98.9431 206.023 99.0742 202.712C99.2636 197.978 100.771 193.121 103.598 188.14C103.786 187.813 103.884 187.443 103.883 187.066C103.881 186.688 103.779 186.317 103.588 185.988C103.396 185.658 103.121 185.383 102.79 185.187C102.458 184.992 102.082 184.884 101.697 184.873L96.4519 184.742C96.2737 184.742 96.0982 184.699 95.9401 184.617C95.782 184.536 95.6459 184.417 95.5432 184.272C95.4404 184.127 95.3741 183.96 95.3497 183.784C95.3253 183.608 95.3435 183.429 95.4029 183.261C100.021 170.396 103.423 160.631 105.608 153.966C108.034 146.56 100.254 144.012 94.8347 143.489C86.487 142.676 80.055 141.783 75.5387 140.81C74.4223 140.571 73.4259 139.999 72.7668 139.22C72.1078 138.44 71.8395 137.517 72.0204 136.65C72.829 132.773 78.6855 131.88 82.2038 131.706C82.564 131.685 82.9251 131.736 83.2664 131.855C83.6077 131.975 83.9224 132.161 84.1924 132.403C92.9117 140.004 101.216 138.283 113.737 136.998C118.035 136.563 120.155 138.472 120.097 142.727C120.053 145.21 121.794 147.214 125.319 148.738C127.49 149.682 128.838 149 129.362 146.691L130.52 141.463C130.681 140.752 131.147 140.36 131.919 140.287L134.498 140.048C134.834 140.021 135.158 139.916 135.44 139.742C135.722 139.567 135.953 139.328 136.115 139.046C137.105 137.347 138.89 136.722 141.469 137.173C141.571 137.187 142.11 137.245 143.086 137.347C144.222 137.463 144.739 138.298 144.637 139.852C144.627 139.988 144.648 140.125 144.7 140.253C144.751 140.382 144.831 140.498 144.934 140.595C145.038 140.692 145.163 140.767 145.3 140.816C145.437 140.864 145.584 140.884 145.73 140.875C146.283 140.832 147.107 140.316 148.199 139.329C148.621 138.946 149.118 138.654 149.659 138.472C150.201 138.29 150.774 138.222 151.344 138.271C151.914 138.32 152.469 138.485 152.973 138.757C153.477 139.029 153.92 139.402 154.274 139.852L160.481 147.758C160.883 148.268 161.441 148.629 162.062 148.779C162.682 148.93 163.328 148.862 163.89 148.586L164.676 148.194C165.058 148.01 165.393 147.742 165.656 147.411C165.92 147.08 166.106 146.693 166.2 146.28C166.294 145.866 166.295 145.436 166.201 145.021C166.108 144.606 165.923 144.217 165.66 143.881L158.645 135.082C158.15 134.457 158.222 133.913 158.863 133.448C161.792 131.372 163.737 129.411 164.698 127.567C165.004 126.943 165.157 126.253 165.157 125.498L164.96 115.348C164.946 114.448 165.383 113.998 166.272 113.998C177.198 114.041 177.963 101.321 168.02 99.9923C167.233 99.8762 166.854 99.4188 166.883 98.6201ZM81.1768 62.0279C81.2059 64.9756 81.8615 68.3735 83.1435 72.2215C83.2699 72.6139 83.3006 73.0308 83.233 73.4372C83.1654 73.8436 83.0014 74.2274 82.755 74.5562C82.5086 74.8851 82.187 75.1495 81.8172 75.3269C81.4474 75.5043 81.0404 75.5897 80.6304 75.5758C67.5843 75.2055 55.6964 65.6871 53.0522 52.9017C52.1344 48.4002 52.7317 43.318 54.8441 37.6549C59.9868 23.8457 71.241 18.4222 88.6067 21.3845C96.2115 22.6768 100.64 26.8443 101.893 33.8868C101.962 34.239 101.959 34.6032 101.884 34.9584C101.809 35.3136 101.663 35.6527 101.456 35.956C100.99 36.6385 100.349 37.2483 99.5331 37.7856C93.9825 41.5319 96.4081 49.3949 103.161 49.1118C104.457 49.0682 106.519 48.6761 109.345 47.9356C111.632 47.3402 113.184 48.1389 114 50.3315C114.145 50.7236 114.225 51.0067 114.24 51.181C114.415 53.5478 113.322 54.8837 110.962 55.1887C102.541 56.2632 97.1293 60.4234 94.7255 67.6692C94.4487 68.5114 93.8878 68.8164 93.0428 68.584C88.8762 67.4514 85.6784 65.0482 83.4494 61.3745C81.8906 58.8043 81.1331 59.0221 81.1768 62.0279ZM-82.6973 167.862C-81.6629 165.466 -79.2518 163.15 -75.464 160.914C-70.3942 157.908 -64.9966 154.75 -70.2849 148.891C-70.4072 148.759 -70.4976 148.601 -70.5501 148.429C-70.6025 148.256 -70.6157 148.072 -70.5887 147.89C-70.5617 147.708 -70.4951 147.532 -70.3937 147.373C-70.2922 147.215 -70.1582 147.079 -70.0008 146.974L-54.1357 136.367C-53.6029 136.002 -52.9465 135.854 -52.3001 135.953C-40.8346 137.739 -29.3983 140.338 -17.9912 143.75C-10.6778 145.943 -5.49867 148.259 -2.45386 150.699C19.0201 168.007 25.5396 189.81 17.1044 216.107C15.6621 220.616 12.4279 224.144 7.5984 220.442C7.11516 220.067 6.71483 219.598 6.42281 219.062C6.13078 218.527 5.95346 217.937 5.9021 217.331C5.85072 216.725 5.92642 216.115 6.1244 215.54C6.32237 214.966 6.63828 214.44 7.05208 213.994C11.1458 209.58 13.5715 206.966 14.3291 206.153C15.4071 204.977 15.5237 203.155 14.6787 200.686C12.2749 193.687 7.56926 190.761 0.561798 191.908C-9.22824 193.52 -15.7914 198.886 -19.1275 208.005C-19.3898 208.731 -19.8487 209.297 -20.5043 209.704C-28.1236 214.495 -31.8677 221.175 -31.7366 229.742C-31.726 230.599 -32.0177 231.433 -32.5609 232.098C-33.104 232.763 -33.8642 233.216 -34.7086 233.38C-37.1415 233.873 -38.948 235.275 -40.1281 237.583C-40.4777 238.266 -40.9876 238.796 -41.6578 239.173C-43.843 240.393 -45.635 241.881 -47.0336 243.638C-47.4269 244.132 -47.6527 244.691 -47.711 245.316L-48.9785 260.345C-49.0448 261.077 -49.3006 261.777 -49.7193 262.37C-50.1381 262.964 -50.7046 263.43 -51.3604 263.721L-59.8393 267.445C-60.2618 267.634 -60.7425 267.627 -61.2816 267.423C-66.4388 265.449 -69.5273 263.133 -70.5471 260.475C-72.208 256.141 -75.3548 254.377 -78.9605 250.892C-79.3454 250.522 -79.6185 250.038 -79.7472 249.498L-80.4902 246.492C-80.612 246.006 -80.8527 245.558 -81.191 245.187C-81.5294 244.817 -81.955 244.535 -82.4301 244.367C-82.9053 244.199 -83.4155 244.15 -83.9156 244.225C-84.4158 244.299 -84.8904 244.494 -85.2978 244.793C-86.2739 245.519 -87.2135 245.991 -88.1168 246.209C-88.8306 246.368 -89.4134 246.158 -89.865 245.577L-126.818 197.833C-126.945 197.667 -127.008 197.462 -126.996 197.254C-126.984 197.047 -126.897 196.85 -126.753 196.7L-106.036 176.052C-105.41 175.427 -104.761 175.413 -104.091 176.008C-98.5114 180.902 -93.4998 179.094 -89.0565 170.585C-88.2115 168.987 -86.9149 168.428 -85.1667 168.908C-84.9482 168.98 -84.6276 168.995 -84.2051 168.951C-83.4913 168.893 -82.9886 168.53 -82.6973 167.862ZM70.2504 181.149C70.441 181.184 70.6374 181.17 70.8216 181.11C71.0058 181.05 71.1718 180.944 71.3044 180.803C71.4371 180.662 71.5321 180.49 71.5809 180.303C71.6296 180.116 71.6305 179.92 71.5834 179.733C71.19 178.077 70.2358 176.27 68.7207 174.309C68.2836 173.743 68.0505 173.104 68.0214 172.393C67.7373 166.033 70.9278 157.124 77.4399 155.49C81.2132 154.532 84.6878 154.888 87.8637 156.558C95.0751 160.369 91.2946 176.204 85.3069 179.493C84.6222 179.871 83.9375 179.871 83.2528 179.493C80.6013 178.07 77.9935 178.644 75.4295 181.214C74.9633 181.693 74.8103 182.259 74.9706 182.913C76.1725 187.726 77.0466 193.498 72.4575 195.568C72.299 195.644 72.1612 195.757 72.0561 195.898C71.9509 196.039 71.8814 196.203 71.8535 196.376C71.8256 196.549 71.8401 196.727 71.8958 196.893C71.9515 197.059 72.0468 197.21 72.1734 197.332C76.8936 201.819 73.0475 205.021 69.7477 207.983C69.4536 208.247 69.2213 208.573 69.067 208.936C68.9128 209.3 68.8404 209.693 68.855 210.088C68.8696 210.482 68.9708 210.869 69.1514 211.22C69.3321 211.571 69.5879 211.879 69.9007 212.121C72.1151 213.82 73.7978 216.078 74.9487 218.895C75.211 219.578 75.2328 220.267 75.0143 220.964C73.2806 226.323 71.2775 231.579 69.0048 236.734C68.1744 238.622 66.7248 239.587 64.6561 239.631C63.703 239.648 62.7727 239.348 62.0153 238.779C61.258 238.21 60.7179 237.405 60.4822 236.494C59.6081 233.096 56.9639 229.568 57.0294 226.257C57.1751 220.609 57.1751 212.738 57.0294 202.646C56.9711 199.525 57.7943 196.41 59.4988 193.302C62.092 188.583 63.8402 185.512 64.7435 184.089C66.2586 181.722 68.0942 180.742 70.2504 181.149ZM46.3434 297.111C46.0812 296.661 45.5276 295.782 44.6826 294.475C43.3933 292.428 42.9344 289.967 45.4693 288.921C46.3143 288.558 47.2175 288.529 48.1791 288.834C59.0836 292.363 58.581 302.142 56.7672 311.617C56.6069 312.401 56.7308 313.127 57.1387 313.795L62.6237 323.052C63.0608 323.778 63.6435 324.33 64.372 324.708L67.8466 326.515C68.5021 326.864 68.8664 327.394 68.9392 328.105C70.702 346.3 75.2911 363.928 82.7064 380.99C86.2903 389.245 87.1863 396.411 85.3069 404.601C85.2 405.063 84.9401 405.477 84.5681 405.776C84.1961 406.076 83.7333 406.245 83.2528 406.256L24.9277 407.672C24.6611 407.681 24.3955 407.635 24.148 407.536C23.9005 407.437 23.6768 407.287 23.4913 407.096C23.3058 406.905 23.1627 406.677 23.0714 406.427C22.98 406.177 22.9424 405.911 22.9609 405.646C23.2086 402.408 21.8318 399.656 18.8307 397.391C18.3062 396.992 17.8976 396.46 17.6474 395.852C17.3973 395.243 17.3148 394.579 17.4085 393.93C17.5022 393.281 17.7687 392.669 18.1803 392.159C18.5918 391.649 19.1334 391.26 19.7486 391.031C22.2543 390.087 22.8225 387.793 21.4531 384.148C21.344 383.857 21.2938 383.547 21.3057 383.238C21.3175 382.929 21.3912 382.626 21.522 382.349C21.6529 382.072 21.8383 381.825 22.0669 381.626C22.2955 381.426 22.5625 381.276 22.8517 381.186L26.5666 380.01C27.5831 379.696 28.4437 379.005 28.981 378.071C29.5182 377.137 29.6936 376.027 29.4731 374.956C28.2711 369.097 26.6978 362.759 34.1059 360.951C34.4141 360.875 34.7 360.727 34.9397 360.52C35.1794 360.313 35.3659 360.052 35.4836 359.76C35.6013 359.468 35.6467 359.153 35.6161 358.841C35.5856 358.529 35.4798 358.229 35.3078 357.967C32.9331 354.337 32.0007 350.583 32.5106 346.706C32.6126 345.893 33.0642 345.429 33.8655 345.312C41.4411 344.093 44.1581 339.998 42.0166 333.028C41.9146 332.693 41.897 332.338 41.9652 331.994C42.0335 331.65 42.1855 331.329 42.4079 331.058C42.6304 330.786 42.9163 330.574 43.2406 330.439C43.5649 330.304 43.9175 330.251 44.2674 330.284C46.8897 330.53 49.3591 330.153 51.6755 329.151C52.0193 329.007 52.3279 328.792 52.5804 328.522C52.8329 328.251 53.0236 327.931 53.1396 327.583C55.1719 321.745 50.6703 317.302 46.5619 313.621C41.9947 309.526 42.1258 303.515 46.1686 299.028C46.6931 298.432 46.7513 297.793 46.3434 297.111ZM10.4174 346.728C12.8649 349.473 17.2355 350.736 16.7329 355.506C16.3614 358.947 13.7609 360.516 10.92 362.345C10.6681 362.507 10.4555 362.722 10.2981 362.976C10.1407 363.23 10.0425 363.515 10.011 363.81C9.97948 364.105 10.0154 364.403 10.116 364.681C10.2167 364.96 10.3795 365.211 10.5923 365.416C12.6173 367.406 13.5861 369.635 13.4987 372.103C13.4841 372.916 13.1781 373.657 12.5808 374.325L9.30292 378.028C8.83673 378.536 8.60365 379.102 8.60365 379.727C8.58908 384.126 6.83356 387.444 3.33711 389.68C2.71068 390.087 2.28091 390.646 2.04781 391.358C-2.22076 404.847 -11.6976 410.009 -26.3826 406.844C-27.4899 406.597 -33.4557 405.559 -44.2801 403.729C-56.2773 401.682 -51.5134 387.023 -47.8639 380.576C-35.3496 358.417 -25.7198 341.189 -18.9746 328.89C-18.6249 328.251 -18.1369 327.75 -17.5104 327.387C-13.2419 324.889 -9.22096 321.39 -5.44771 316.888C-2.56314 313.469 -3.41539 311.312 -3.34982 307.326C-3.21872 300.574 4.42978 300.814 8.71292 298.832C9.57216 298.433 10.5543 298.385 11.4516 298.698C12.3489 299.011 13.0908 299.66 13.5205 300.509C15.0939 303.674 14.2708 305.744 11.0511 306.716C10.6975 306.826 10.3941 307.057 10.1943 307.367C9.9944 307.678 9.9109 308.049 9.95851 308.415C10.4101 311.624 9.03342 314.601 5.82834 317.346C0.168457 322.203 -0.487106 326.907 4.58275 333.006C5.04893 333.572 5.64622 333.906 6.37465 334.008C8.31955 334.269 10.5704 334.357 11.7723 335.838C14.0013 338.582 13.6735 340.477 11.5101 342.764C10.8399 343.476 10.3664 344.158 10.0896 344.811C9.79825 345.523 9.90753 346.162 10.4174 346.728Z" fill="#BFA285" fill-opacity="0.3"/>
</svg>
