<svg width="250" height="251" viewBox="0 0 250 251" fill="none" xmlns="http://www.w3.org/2000/svg">
<mask id="path-1-inside-1_278_2603" fill="white">
<path d="M250 125.746C250 158.898 236.83 190.692 213.388 214.135C189.946 237.577 158.152 250.746 125 250.746C91.8479 250.746 60.0537 237.577 36.6116 214.135C13.1696 190.692 0 158.898 0 125.746C0 92.5941 13.1696 60.7999 36.6116 37.3578C60.0537 13.9158 91.8479 0.746155 125 0.746155C141.415 0.746155 157.67 3.97937 172.835 10.2612C188.001 16.543 201.781 25.7505 213.388 37.3578C224.996 48.9651 234.203 62.745 240.485 77.9107C246.767 93.0764 250 109.331 250 125.746ZM38.0689 137.271C38.6803 137.669 39.5178 138.427 40.5811 139.543C55.0829 154.763 78.7431 156.092 95.2254 144.05C104.619 137.2 110.308 127.541 112.293 115.072C112.321 114.877 112.42 114.699 112.571 114.569C112.723 114.44 112.916 114.369 113.117 114.368H136.803C137.335 114.368 137.645 114.629 137.734 115.152C140.233 129.942 147.513 140.58 159.573 147.067C167.628 151.409 176.148 152.977 185.134 151.772C216.411 147.585 232.082 111.537 213.805 85.6435C205.072 73.2685 190.238 66.5027 175.032 68.1909C162.502 69.5732 152.351 75.7054 144.579 86.5873C143.791 87.6861 142.364 90.318 140.299 94.4829C140.166 94.7487 140.246 94.8816 140.539 94.8816H149.471C149.556 94.882 149.64 94.8588 149.715 94.8145C149.789 94.7701 149.852 94.7061 149.896 94.6291C158.895 78.4392 178.102 71.6734 194.412 80.1007C208.209 87.2253 215.414 101.953 212.157 117.186C207.478 138.985 183.34 149.872 163.84 139.543C154.73 134.723 148.944 126.73 146.48 115.564C146.303 114.767 146.622 114.368 147.437 114.368H157.247C157.46 114.368 157.566 114.262 157.566 114.049V105.927C157.566 105.759 157.482 105.675 157.313 105.675H91.5036C91.2909 105.675 91.1846 105.777 91.1846 105.981V113.996C91.1846 114.098 91.2252 114.196 91.2975 114.268C91.3698 114.341 91.4678 114.381 91.5701 114.381H102.802C103.396 114.381 103.639 114.669 103.533 115.245C101.459 126.105 95.2387 135.011 85.5088 139.902C58.18 153.66 28.3124 126.384 39.3184 98.0319C45.6588 81.6958 63.1779 72.9495 80.0058 78.0005C88.7433 80.6235 95.4425 86.1442 100.104 94.5626C100.219 94.7753 100.401 94.8816 100.649 94.8816H109.475C109.508 94.8822 109.541 94.8744 109.571 94.8589C109.6 94.8434 109.625 94.8206 109.644 94.7929C109.662 94.7651 109.674 94.7331 109.677 94.6998C109.68 94.6666 109.674 94.6331 109.661 94.6025C105.753 85.5195 100.028 78.7183 92.4872 74.1989C82.1105 67.9782 71.2241 66.3521 59.8283 69.3207C40.8337 74.2787 27.382 92.1036 28.5517 111.949C28.7112 114.758 28.8131 117.124 28.8574 119.047C28.8751 119.809 28.9017 141.214 28.9372 183.262C28.9372 183.483 29.0479 183.594 29.2695 183.594H37.3378C37.5239 183.594 37.617 183.496 37.617 183.301V137.51C37.617 137.155 37.7676 137.076 38.0689 137.271Z"/>
</mask>
<path d="M250 125.746C250 158.898 236.83 190.692 213.388 214.135C189.946 237.577 158.152 250.746 125 250.746C91.8479 250.746 60.0537 237.577 36.6116 214.135C13.1696 190.692 0 158.898 0 125.746C0 92.5941 13.1696 60.7999 36.6116 37.3578C60.0537 13.9158 91.8479 0.746155 125 0.746155C141.415 0.746155 157.67 3.97937 172.835 10.2612C188.001 16.543 201.781 25.7505 213.388 37.3578C224.996 48.9651 234.203 62.745 240.485 77.9107C246.767 93.0764 250 109.331 250 125.746ZM38.0689 137.271C38.6803 137.669 39.5178 138.427 40.5811 139.543C55.0829 154.763 78.7431 156.092 95.2254 144.05C104.619 137.2 110.308 127.541 112.293 115.072C112.321 114.877 112.42 114.699 112.571 114.569C112.723 114.44 112.916 114.369 113.117 114.368H136.803C137.335 114.368 137.645 114.629 137.734 115.152C140.233 129.942 147.513 140.58 159.573 147.067C167.628 151.409 176.148 152.977 185.134 151.772C216.411 147.585 232.082 111.537 213.805 85.6435C205.072 73.2685 190.238 66.5027 175.032 68.1909C162.502 69.5732 152.351 75.7054 144.579 86.5873C143.791 87.6861 142.364 90.318 140.299 94.4829C140.166 94.7487 140.246 94.8816 140.539 94.8816H149.471C149.556 94.882 149.64 94.8588 149.715 94.8145C149.789 94.7701 149.852 94.7061 149.896 94.6291C158.895 78.4392 178.102 71.6734 194.412 80.1007C208.209 87.2253 215.414 101.953 212.157 117.186C207.478 138.985 183.34 149.872 163.84 139.543C154.73 134.723 148.944 126.73 146.48 115.564C146.303 114.767 146.622 114.368 147.437 114.368H157.247C157.46 114.368 157.566 114.262 157.566 114.049V105.927C157.566 105.759 157.482 105.675 157.313 105.675H91.5036C91.2909 105.675 91.1846 105.777 91.1846 105.981V113.996C91.1846 114.098 91.2252 114.196 91.2975 114.268C91.3698 114.341 91.4678 114.381 91.5701 114.381H102.802C103.396 114.381 103.639 114.669 103.533 115.245C101.459 126.105 95.2387 135.011 85.5088 139.902C58.18 153.66 28.3124 126.384 39.3184 98.0319C45.6588 81.6958 63.1779 72.9495 80.0058 78.0005C88.7433 80.6235 95.4425 86.1442 100.104 94.5626C100.219 94.7753 100.401 94.8816 100.649 94.8816H109.475C109.508 94.8822 109.541 94.8744 109.571 94.8589C109.6 94.8434 109.625 94.8206 109.644 94.7929C109.662 94.7651 109.674 94.7331 109.677 94.6998C109.68 94.6666 109.674 94.6331 109.661 94.6025C105.753 85.5195 100.028 78.7183 92.4872 74.1989C82.1105 67.9782 71.2241 66.3521 59.8283 69.3207C40.8337 74.2787 27.382 92.1036 28.5517 111.949C28.7112 114.758 28.8131 117.124 28.8574 119.047C28.8751 119.809 28.9017 141.214 28.9372 183.262C28.9372 183.483 29.0479 183.594 29.2695 183.594H37.3378C37.5239 183.594 37.617 183.496 37.617 183.301V137.51C37.617 137.155 37.7676 137.076 38.0689 137.271Z" fill="white"/>
<path d="M250 125.746H251H250ZM125 250.746V251.746V250.746ZM0 125.746H-1H0ZM125 0.746155V-0.253845V0.746155ZM38.0689 137.271L38.6152 136.433L38.6122 136.431L38.0689 137.271ZM40.5811 139.543L39.857 140.233L39.8572 140.233L40.5811 139.543ZM95.2254 144.05L94.6362 143.242L94.6355 143.242L95.2254 144.05ZM112.293 115.072L113.28 115.23L113.282 115.218L112.293 115.072ZM113.117 114.368V113.368L113.114 113.368L113.117 114.368ZM137.734 115.152L138.72 114.986L138.72 114.985L137.734 115.152ZM159.573 147.067L160.048 146.187L160.047 146.186L159.573 147.067ZM185.134 151.772L185.001 150.781L185.001 150.781L185.134 151.772ZM213.805 85.6435L212.988 86.2201L212.988 86.2202L213.805 85.6435ZM175.032 68.1909L175.142 69.1848L175.142 69.1848L175.032 68.1909ZM144.579 86.5873L145.392 87.1704L145.393 87.1685L144.579 86.5873ZM140.299 94.4829L141.194 94.9301L141.195 94.927L140.299 94.4829ZM149.471 94.8816L149.475 93.8816H149.471V94.8816ZM149.896 94.6291L150.763 95.1278L150.767 95.1214L150.77 95.1149L149.896 94.6291ZM194.412 80.1007L193.953 80.9891L193.953 80.9892L194.412 80.1007ZM212.157 117.186L213.135 117.396L213.135 117.395L212.157 117.186ZM163.84 139.543L164.308 138.66L164.308 138.66L163.84 139.543ZM146.48 115.564L147.457 115.349L147.456 115.347L146.48 115.564ZM103.533 115.245L104.515 115.433L104.516 115.427L103.533 115.245ZM85.5088 139.902L85.0597 139.009L85.0592 139.009L85.5088 139.902ZM39.3184 98.0319L40.2506 98.3938L40.2506 98.3937L39.3184 98.0319ZM80.0058 78.0005L80.2934 77.0427L80.2933 77.0427L80.0058 78.0005ZM100.104 94.5626L100.983 94.0863L100.979 94.0782L100.104 94.5626ZM109.475 94.8816L109.492 93.8818L109.483 93.8816H109.475V94.8816ZM109.661 94.6025L108.742 94.9977L108.744 95.0026L109.661 94.6025ZM92.4872 74.1989L91.9731 75.0566L91.9732 75.0567L92.4872 74.1989ZM59.8283 69.3207L59.5762 68.353L59.5757 68.3531L59.8283 69.3207ZM28.5517 111.949L29.5501 111.892L29.5499 111.89L28.5517 111.949ZM28.8574 119.047L27.8577 119.07L27.8577 119.07L28.8574 119.047ZM28.9372 183.262H29.9372V183.261L28.9372 183.262ZM249 125.746C249 158.633 235.936 190.173 212.681 213.427L214.095 214.842C237.725 191.212 251 159.163 251 125.746H249ZM212.681 213.427C189.427 236.682 157.887 249.746 125 249.746V251.746C158.417 251.746 190.466 238.471 214.095 214.842L212.681 213.427ZM125 249.746C92.1131 249.746 60.5733 236.682 37.3188 213.427L35.9045 214.842C59.5341 238.471 91.5827 251.746 125 251.746V249.746ZM37.3188 213.427C14.0642 190.173 1 158.633 1 125.746H-1C-1 159.163 12.275 191.212 35.9045 214.842L37.3188 213.427ZM1 125.746C1 92.8593 14.0642 61.3194 37.3188 38.0649L35.9045 36.6507C12.275 60.2803 -1 92.3289 -1 125.746H1ZM37.3188 38.0649C60.5733 14.8104 92.1131 1.74615 125 1.74615V-0.253845C91.5827 -0.253845 59.5341 13.0211 35.9045 36.6507L37.3188 38.0649ZM125 1.74615C141.284 1.74615 157.408 4.95351 172.453 11.1851L173.218 9.33733C157.931 3.00524 141.547 -0.253845 125 -0.253845V1.74615ZM172.453 11.1851C187.497 17.4167 201.167 26.5504 212.681 38.0649L214.095 36.6507C202.395 24.9505 188.505 15.6694 173.218 9.33733L172.453 11.1851ZM212.681 38.0649C224.196 49.5794 233.329 63.249 239.561 78.2934L241.409 77.528C235.077 62.241 225.796 48.3509 214.095 36.6507L212.681 38.0649ZM239.561 78.2934C245.793 93.3378 249 109.462 249 125.746H251C251 109.2 247.741 92.8151 241.409 77.528L239.561 78.2934ZM37.5226 138.108C38.0309 138.44 38.8016 139.125 39.857 140.233L41.3053 138.854C40.2339 137.729 39.3298 136.899 38.6152 136.433L37.5226 138.108ZM39.8572 140.233C54.7234 155.835 78.9492 157.18 95.8154 144.857L94.6355 143.242C78.537 155.004 55.4425 153.691 41.3051 138.854L39.8572 140.233ZM95.8147 144.858C105.441 137.838 111.258 127.934 113.28 115.23L111.305 114.915C109.358 127.147 103.796 136.562 94.6362 143.242L95.8147 144.858ZM113.282 115.218C113.275 115.264 113.252 115.303 113.221 115.329L111.922 113.809C111.588 114.094 111.367 114.491 111.303 114.927L113.282 115.218ZM113.221 115.329C113.191 115.356 113.154 115.368 113.12 115.368L113.114 113.368C112.678 113.369 112.255 113.525 111.922 113.809L113.221 115.329ZM113.117 115.368H136.803V113.368H113.117V115.368ZM136.803 115.368C136.856 115.368 136.872 115.375 136.864 115.372C136.86 115.371 136.849 115.367 136.835 115.36C136.821 115.352 136.806 115.342 136.79 115.329C136.775 115.316 136.762 115.302 136.752 115.289C136.742 115.277 136.737 115.267 136.735 115.262C136.73 115.254 136.739 115.269 136.748 115.319L138.72 114.985C138.648 114.563 138.465 114.124 138.079 113.799C137.694 113.475 137.231 113.368 136.803 113.368V115.368ZM136.748 115.319C139.293 130.38 146.739 141.299 159.099 147.948L160.047 146.186C148.286 139.861 141.173 129.504 138.72 114.986L136.748 115.319ZM159.099 147.947C167.337 152.388 176.07 153.997 185.267 152.763L185.001 150.781C176.227 151.958 167.919 150.43 160.048 146.187L159.099 147.947ZM185.267 152.763C217.293 148.476 233.329 111.569 214.622 85.0669L212.988 86.2202C230.835 111.504 215.528 146.695 185.001 150.781L185.267 152.763ZM214.622 85.067C205.681 72.3961 190.492 65.4684 174.922 67.197L175.142 69.1848C189.984 67.5371 204.464 74.1408 212.988 86.2201L214.622 85.067ZM174.922 67.1969C162.091 68.6126 151.691 74.9086 143.766 86.0061L145.393 87.1685C153.011 76.5022 162.913 70.534 175.142 69.1848L174.922 67.1969ZM143.767 86.0042C142.922 87.1822 141.458 89.8935 139.403 94.0387L141.195 94.927C143.27 90.7425 144.66 88.19 145.392 87.1704L143.767 86.0042ZM139.405 94.0357C139.319 94.2069 139.074 94.7496 139.402 95.2965C139.737 95.8549 140.344 95.8816 140.539 95.8816V93.8816C140.539 93.8816 140.552 93.8816 140.576 93.8849C140.6 93.8882 140.642 93.8959 140.695 93.915C140.806 93.9544 140.988 94.053 141.117 94.2674C141.244 94.4797 141.245 94.6823 141.231 94.7895C141.218 94.8883 141.189 94.9403 141.194 94.9301L139.405 94.0357ZM140.539 95.8816H149.471V93.8816H140.539V95.8816ZM149.467 95.8816C149.737 95.8828 149.999 95.8088 150.225 95.6743L149.204 93.9546C149.281 93.9089 149.374 93.8812 149.475 93.8816L149.467 95.8816ZM150.225 95.6743C150.451 95.5401 150.635 95.3503 150.763 95.1278L149.03 94.1304C149.069 94.062 149.127 94.0001 149.204 93.9546L150.225 95.6743ZM150.77 95.1149C159.533 79.3492 178.171 72.8345 193.953 80.9891L194.871 79.2123C178.034 70.5124 158.257 77.5291 149.022 94.1433L150.77 95.1149ZM193.953 80.9892C207.36 87.9123 214.339 102.197 211.179 116.977L213.135 117.395C216.488 101.71 209.058 86.5383 194.871 79.2122L193.953 80.9892ZM211.179 116.976C206.642 138.114 183.233 148.684 164.308 138.66L163.372 140.427C183.446 151.059 208.314 139.856 213.135 117.396L211.179 116.976ZM164.308 138.66C155.488 133.992 149.865 126.263 147.457 115.349L145.504 115.78C148.023 127.197 153.973 135.453 163.372 140.427L164.308 138.66ZM147.456 115.347C147.443 115.287 147.437 115.241 147.434 115.208C147.432 115.175 147.433 115.16 147.433 115.159C147.433 115.158 147.432 115.173 147.421 115.2C147.416 115.213 147.409 115.228 147.4 115.244C147.391 115.26 147.38 115.276 147.367 115.292C147.355 115.308 147.341 115.322 147.328 115.335C147.314 115.347 147.301 115.357 147.289 115.365C147.265 115.381 147.25 115.386 147.251 115.386C147.251 115.386 147.265 115.381 147.298 115.376C147.33 115.372 147.375 115.368 147.437 115.368V113.368C146.907 113.368 146.245 113.494 145.806 114.042C145.367 114.59 145.389 115.264 145.504 115.781L147.456 115.347ZM147.437 115.368H157.247V113.368H147.437V115.368ZM157.247 115.368C157.507 115.368 157.886 115.302 158.193 114.995C158.5 114.689 158.566 114.31 158.566 114.049H156.566C156.566 114.001 156.579 113.782 156.779 113.581C156.98 113.381 157.199 113.368 157.247 113.368V115.368ZM158.566 114.049V105.927H156.566V114.049H158.566ZM158.566 105.927C158.566 105.689 158.506 105.327 158.21 105.031C157.914 104.735 157.552 104.675 157.313 104.675V106.675C157.243 106.675 157.007 106.657 156.796 106.445C156.584 106.234 156.566 105.997 156.566 105.927H158.566ZM157.313 104.675H91.5036V106.675H157.313V104.675ZM91.5036 104.675C91.2535 104.675 90.8805 104.734 90.5724 105.029C90.2565 105.332 90.1846 105.714 90.1846 105.981H92.1846C92.1846 106.044 92.1659 106.272 91.9563 106.473C91.7546 106.667 91.541 106.675 91.5036 106.675V104.675ZM90.1846 105.981V113.996H92.1846V105.981H90.1846ZM90.1846 113.996C90.1846 114.363 90.3305 114.716 90.5904 114.976L92.0046 113.561C92.1199 113.677 92.1846 113.833 92.1846 113.996H90.1846ZM90.5904 114.976C90.8502 115.235 91.2026 115.381 91.5701 115.381V113.381C91.7331 113.381 91.8894 113.446 92.0046 113.561L90.5904 114.976ZM91.5701 115.381H102.802V113.381H91.5701V115.381ZM102.802 115.381C102.875 115.381 102.885 115.391 102.856 115.381C102.821 115.369 102.741 115.331 102.667 115.243C102.592 115.155 102.566 115.067 102.56 115.024C102.554 114.989 102.562 114.996 102.55 115.064L104.516 115.427C104.594 115.008 104.596 114.427 104.193 113.951C103.795 113.48 103.225 113.381 102.802 113.381V115.381ZM102.551 115.058C100.529 125.644 94.4842 134.271 85.0597 139.009L85.958 140.796C95.9932 135.751 102.389 126.566 104.515 115.433L102.551 115.058ZM85.0592 139.009C58.55 152.354 29.5754 125.894 40.2506 98.3938L38.3861 97.67C27.0494 126.874 57.8101 154.966 85.9585 140.796L85.0592 139.009ZM40.2506 98.3937C46.4053 82.5361 63.3983 74.0597 79.7184 78.9583L80.2933 77.0427C62.9575 71.8392 44.9122 80.8554 38.3861 97.6701L40.2506 98.3937ZM79.7183 78.9583C88.1909 81.5018 94.6865 86.8432 99.2288 95.047L100.979 94.0782C96.1986 85.4453 89.2956 79.7452 80.2934 77.0427L79.7183 78.9583ZM99.2244 95.0389C99.3558 95.2815 99.5503 95.5063 99.8211 95.6649C100.091 95.8227 100.379 95.8816 100.649 95.8816V93.8816C100.67 93.8816 100.744 93.8875 100.832 93.9389C100.921 93.9911 100.967 94.0564 100.983 94.0863L99.2244 95.0389ZM100.649 95.8816H109.475V93.8816H100.649V95.8816ZM109.458 95.8815C109.659 95.8849 109.857 95.8378 110.035 95.7445L109.106 93.9732C109.225 93.911 109.357 93.8795 109.492 93.8818L109.458 95.8815ZM110.035 95.7445C110.213 95.6511 110.365 95.5144 110.476 95.3476L108.812 94.2382C108.886 94.1269 108.987 94.0357 109.106 93.9732L110.035 95.7445ZM110.476 95.3476C110.587 95.1805 110.655 94.9881 110.673 94.7879L108.681 94.6118C108.692 94.4781 108.738 94.3496 108.812 94.2382L110.476 95.3476ZM110.673 94.7879C110.69 94.5878 110.658 94.3865 110.577 94.2024L108.744 95.0026C108.691 94.8797 108.669 94.7453 108.681 94.6118L110.673 94.7879ZM110.579 94.2073C106.599 84.9565 100.745 77.9817 93.0013 73.3412L91.9732 75.0567C99.3122 79.4549 104.906 86.0824 108.742 94.9977L110.579 94.2073ZM93.0014 73.3413C82.4014 66.9867 71.2397 65.3147 59.5762 68.353L60.0803 70.2884C71.2085 67.3895 81.8195 68.9697 91.9731 75.0566L93.0014 73.3413ZM59.5757 68.3531C40.1341 73.4278 26.3547 91.6713 27.5534 112.008L29.5499 111.89C28.4092 92.5358 41.5332 75.1296 60.0808 70.2883L59.5757 68.3531ZM27.5533 112.006C27.7124 114.808 27.8137 117.162 27.8577 119.07L29.8571 119.024C29.8125 117.086 29.71 114.708 29.5501 111.892L27.5533 112.006ZM27.8577 119.07C27.875 119.817 27.9017 141.201 27.9372 183.262L29.9372 183.261C29.9017 141.227 29.8752 119.801 29.8571 119.024L27.8577 119.07ZM27.9372 183.262C27.9372 183.526 28.0041 183.909 28.3131 184.218C28.6222 184.527 29.0045 184.594 29.2695 184.594V182.594C29.3128 182.594 29.529 182.605 29.7273 182.804C29.9256 183.002 29.9372 183.218 29.9372 183.262H27.9372ZM29.2695 184.594H37.3378V182.594H29.2695V184.594ZM37.3378 184.594C37.5972 184.594 37.9724 184.524 38.2705 184.211C38.5604 183.908 38.617 183.542 38.617 183.301H36.617C36.617 183.256 36.627 183.036 36.8238 182.83C37.0289 182.615 37.2646 182.594 37.3378 182.594V184.594ZM38.617 183.301V137.51H36.617V183.301H38.617ZM38.617 137.51C38.617 137.479 38.6219 137.531 38.59 137.623C38.5553 137.723 38.452 137.933 38.1978 138.068C37.9463 138.201 37.7189 138.169 37.6242 138.145C37.5349 138.122 37.4978 138.092 37.5257 138.11L38.6122 136.431C38.4894 136.351 38.3205 136.258 38.1182 136.207C37.9104 136.154 37.5889 136.127 37.2621 136.3C36.9325 136.475 36.7728 136.759 36.7005 136.968C36.6308 137.168 36.617 137.363 36.617 137.51H38.617Z" fill="black" mask="url(#path-1-inside-1_278_2603)"/>
<path d="M37.617 137.51V183.301C37.617 183.496 37.524 183.594 37.3379 183.594H29.2695C29.048 183.594 28.9372 183.483 28.9372 183.262C28.9018 141.214 28.8752 119.809 28.8575 119.047C28.8131 117.124 28.7112 114.758 28.5517 111.949C27.382 92.1036 40.8337 74.2787 59.8283 69.3207C71.2242 66.3521 82.1105 67.9782 92.4873 74.199C100.028 78.7183 105.753 85.5195 109.661 94.6025C109.674 94.6331 109.68 94.6666 109.677 94.6999C109.674 94.7331 109.663 94.7651 109.644 94.7929C109.625 94.8207 109.6 94.8434 109.571 94.8589C109.541 94.8744 109.508 94.8822 109.475 94.8817H100.649C100.401 94.8817 100.219 94.7753 100.104 94.5626C95.4426 86.1442 88.7433 80.6235 80.0059 78.0005C63.178 72.9495 45.6588 81.6958 39.3184 98.0319C28.3125 126.384 58.1801 153.66 85.5089 139.902C95.2388 135.011 101.46 126.105 103.533 115.245C103.639 114.669 103.396 114.381 102.802 114.381H91.5701C91.4679 114.381 91.3699 114.341 91.2976 114.268C91.2253 114.196 91.1847 114.098 91.1847 113.996V105.981C91.1847 105.777 91.291 105.675 91.5037 105.675H157.313C157.482 105.675 157.566 105.759 157.566 105.927V114.049C157.566 114.262 157.46 114.368 157.247 114.368H147.437C146.622 114.368 146.303 114.767 146.48 115.564C148.944 126.73 154.73 134.723 163.84 139.544C183.34 149.872 207.478 138.985 212.157 117.186C215.414 101.953 208.209 87.2253 194.412 80.1007C178.102 71.6735 158.895 78.4392 149.896 94.6291C149.852 94.7062 149.789 94.7701 149.715 94.8145C149.64 94.8588 149.556 94.882 149.471 94.8817H140.539C140.246 94.8817 140.166 94.7487 140.299 94.4829C142.364 90.318 143.791 87.6861 144.579 86.5873C152.351 75.7054 162.502 69.5733 175.032 68.1909C190.238 66.5028 205.072 73.2685 213.805 85.6436C232.082 111.537 216.411 147.585 185.134 151.772C176.148 152.978 167.628 151.409 159.573 147.067C147.513 140.58 140.233 129.942 137.734 115.152C137.645 114.629 137.335 114.368 136.804 114.368H113.117C112.916 114.369 112.723 114.44 112.572 114.569C112.42 114.699 112.321 114.877 112.293 115.073C110.308 127.541 104.619 137.2 95.2255 144.05C78.7431 156.092 55.083 154.763 40.5812 139.544C39.5178 138.427 38.6804 137.669 38.069 137.271C37.7677 137.076 37.617 137.155 37.617 137.51Z" fill="black"/>
</svg>
