<svg width="255" height="471" viewBox="0 0 255 471" fill="none" xmlns="http://www.w3.org/2000/svg">
<path d="M177.708 0.0317383C178.995 0.0317383 180.055 0.33174 180.888 0.93174C191.668 8.72507 200.438 15.1351 207.198 20.1617C209.008 21.5017 209.598 23.2017 209.598 25.6017C209.618 41.7151 209.638 50.4151 209.658 51.7017C209.665 52.0617 209.848 52.2451 210.208 52.2517C215.435 52.2784 222.181 52.2751 230.448 52.2417C232.175 52.2351 233.645 52.6417 234.858 53.4617C238.018 55.6017 249.705 63.6551 269.918 77.6217C272.251 79.2351 273.608 80.5917 273.988 81.6917C275.138 85.0117 273.578 87.2317 270.858 89.5717C261.025 97.9851 249.731 103.558 236.978 106.292C236.665 106.358 236.508 106.552 236.508 106.872L236.498 141.792C236.498 142.132 236.671 142.305 237.018 142.312C241.958 142.412 245.018 142.418 246.198 142.332C248.578 142.152 250.511 142.572 251.998 143.592C260.078 149.158 275.521 159.822 298.328 175.582C301.588 177.832 304.048 180.072 302.528 183.982C302.135 185.002 301.255 186.108 299.888 187.302C286.521 199.028 271.048 206.585 253.468 209.972C253.381 209.988 253.303 210.035 253.246 210.104C253.19 210.174 253.158 210.261 253.158 210.352L253.148 251.032C253.148 251.114 253.182 251.193 253.242 251.251C253.302 251.309 253.383 251.342 253.468 251.342C261.861 251.355 270.278 251.355 278.718 251.342C280.371 251.342 281.841 251.785 283.128 252.672C319.608 277.858 342.218 293.475 350.958 299.522C353.098 301.008 354.421 302.355 354.928 303.562C356.268 306.732 354.618 309.062 352.128 311.252C335.968 325.518 317.441 335.498 296.548 341.192C296.419 341.227 296.305 341.303 296.224 341.407C296.143 341.512 296.098 341.64 296.098 341.772V415.822C296.098 416.075 296.225 416.202 296.478 416.202C304.178 416.215 311.751 416.212 319.198 416.192C321.811 416.192 323.571 417.255 324.478 419.382C324.918 420.408 325.138 422.242 325.138 424.882C325.138 438.035 325.135 450.532 325.128 462.372C325.128 464.738 324.851 466.355 324.298 467.222C322.778 469.602 320.878 470.132 317.928 470.132C312.828 470.145 266.085 470.148 177.698 470.142C89.3114 470.148 42.5681 470.145 37.4681 470.132C34.5181 470.132 32.6181 469.602 31.0981 467.222C30.5448 466.355 30.2681 464.738 30.2681 462.372C30.2614 450.532 30.2614 438.035 30.2681 424.882C30.2681 422.242 30.4881 420.408 30.9281 419.382C31.8348 417.255 33.5948 416.192 36.2081 416.192C43.6548 416.212 51.2281 416.215 58.9281 416.202C59.1814 416.202 59.3081 416.075 59.3081 415.822V341.772C59.3079 341.64 59.2637 341.512 59.1824 341.407C59.1011 341.303 58.9871 341.227 58.8581 341.192C37.9648 335.498 19.4381 325.518 3.2781 311.252C0.788101 309.062 -0.861902 306.732 0.478098 303.562C0.984765 302.355 2.3081 301.008 4.4481 299.522C13.1881 293.475 35.7981 277.858 72.2781 252.672C73.5648 251.785 75.0348 251.342 76.6881 251.342C85.1281 251.355 93.5448 251.355 101.938 251.342C102.023 251.342 102.104 251.309 102.164 251.251C102.224 251.193 102.258 251.114 102.258 251.032L102.248 210.352C102.248 210.261 102.217 210.174 102.16 210.104C102.103 210.035 102.025 209.988 101.938 209.972C84.3581 206.585 68.8848 199.028 55.5181 187.302C54.1514 186.108 53.2714 185.002 52.8781 183.982C51.3581 180.072 53.8181 177.832 57.0781 175.582C79.8848 159.822 95.3281 149.158 103.408 143.592C104.895 142.572 106.828 142.152 109.208 142.332C110.388 142.418 113.448 142.412 118.388 142.312C118.735 142.305 118.908 142.132 118.908 141.792L118.898 106.872C118.898 106.552 118.741 106.358 118.428 106.292C105.675 103.558 94.3814 97.9851 84.5481 89.5717C81.8281 87.2317 80.2681 85.0117 81.4181 81.6917C81.7981 80.5917 83.1548 79.2351 85.4881 77.6217C105.701 63.6551 117.388 55.6017 120.548 53.4617C121.761 52.6417 123.231 52.2351 124.958 52.2417C133.225 52.2751 139.971 52.2784 145.198 52.2517C145.558 52.2451 145.741 52.0617 145.748 51.7017C145.768 50.4151 145.788 41.7151 145.808 25.6017C145.808 23.2017 146.398 21.5017 148.208 20.1617C154.968 15.1351 163.738 8.72507 174.518 0.93174C175.351 0.33174 176.415 0.0317383 177.708 0.0317383ZM177.698 52.2617C189.371 52.2617 195.828 52.2417 197.068 52.2017C197.461 52.1884 197.658 51.9851 197.658 51.5917L197.668 28.5717C197.668 28.3854 197.625 28.2017 197.541 28.0351C197.458 27.8685 197.337 27.7235 197.188 27.6117C190.975 23.0117 184.565 18.3384 177.958 13.5917C177.931 13.5717 177.848 13.5617 177.708 13.5617C177.575 13.5617 177.495 13.5717 177.468 13.5917C170.855 18.3317 164.441 23.0017 158.228 27.6017C158.079 27.7135 157.958 27.8585 157.875 28.0251C157.791 28.1917 157.748 28.3754 157.748 28.5617V51.5817C157.748 51.9751 157.945 52.1784 158.338 52.1917C159.578 52.2317 166.031 52.2551 177.698 52.2617ZM177.708 95.8817C206.395 95.8817 221.065 95.8784 221.718 95.8717C235.065 95.7717 247.185 91.9417 258.078 84.3817C258.111 84.3587 258.138 84.328 258.157 84.2923C258.175 84.2567 258.185 84.217 258.185 84.1767C258.185 84.1365 258.175 84.0968 258.157 84.0611C258.138 84.0254 258.111 83.9948 258.078 83.9717L229.948 64.5417C229.694 64.3596 229.387 64.2616 229.068 64.2617C211.988 64.2551 194.865 64.2551 177.698 64.2617C160.538 64.2551 143.418 64.2584 126.338 64.2717C126.02 64.2716 125.712 64.3696 125.458 64.5517L97.3281 83.9817C97.2951 84.0048 97.2681 84.0354 97.2495 84.0711C97.2309 84.1068 97.2212 84.1465 97.2212 84.1867C97.2212 84.227 97.2309 84.2666 97.2495 84.3023C97.2681 84.338 97.2951 84.3687 97.3281 84.3917C108.221 91.9517 120.341 95.7817 133.688 95.8817C134.341 95.8817 149.015 95.8817 177.708 95.8817ZM224.538 108.252C224.538 108.151 224.498 108.054 224.427 107.983C224.356 107.912 224.259 107.872 224.158 107.872H131.238C131.137 107.872 131.041 107.912 130.969 107.983C130.898 108.054 130.858 108.151 130.858 108.252V141.972C130.858 142.073 130.898 142.169 130.969 142.24C131.041 142.312 131.137 142.352 131.238 142.352H224.158C224.259 142.352 224.356 142.312 224.427 142.24C224.498 142.169 224.538 142.073 224.538 141.972V108.252ZM177.708 199.652C204.081 199.652 220.328 199.658 226.448 199.672C236.228 199.685 242.891 199.458 246.438 198.992C261.231 197.038 274.651 191.585 286.698 182.632C286.958 182.438 286.955 182.252 286.688 182.072L247.018 154.652C246.758 154.465 246.465 154.368 246.138 154.362C243.631 154.288 220.818 154.255 177.698 154.262C134.585 154.262 111.775 154.298 109.268 154.372C108.941 154.378 108.648 154.475 108.388 154.662L68.7181 182.082C68.4514 182.262 68.4481 182.448 68.7081 182.642C80.7548 191.595 94.1748 197.048 108.968 199.002C112.515 199.468 119.178 199.695 128.958 199.682C135.078 199.662 151.328 199.652 177.708 199.652ZM241.178 211.932C241.178 211.852 241.146 211.776 241.09 211.72C241.034 211.663 240.958 211.632 240.878 211.632H114.498C114.419 211.632 114.342 211.663 114.286 211.72C114.23 211.776 114.198 211.852 114.198 211.932V251.052C114.198 251.131 114.23 251.208 114.286 251.264C114.342 251.32 114.419 251.352 114.498 251.352H240.878C240.958 251.352 241.034 251.32 241.09 251.264C241.146 251.208 241.178 251.131 241.178 251.052V211.932ZM210.208 366.702C213.038 367.582 214.998 369.842 214.998 372.852C214.978 391.832 214.978 406.085 214.998 415.612C214.998 416.012 215.195 416.212 215.588 416.212L251.488 416.202C251.875 416.202 252.068 416.008 252.068 415.622V346.132C252.068 346.065 252.042 346.002 251.995 345.955C251.948 345.908 251.884 345.882 251.818 345.882C243.845 345.882 217.681 345.882 173.328 345.882C170.908 345.882 169.271 345.708 168.418 345.362C163.658 343.432 163.668 336.752 168.008 334.572C168.895 334.132 170.828 333.912 173.808 333.912C185.495 333.932 212.375 333.945 254.448 333.952C263.068 333.952 269.725 333.695 274.418 333.182C298.411 330.555 320.031 321.665 339.278 306.512C339.32 306.479 339.354 306.436 339.377 306.387C339.399 306.339 339.41 306.285 339.408 306.232C339.406 306.178 339.392 306.126 339.366 306.079C339.34 306.032 339.303 305.992 339.258 305.962L277.758 263.442C277.671 263.382 277.575 263.352 277.468 263.352H78.2481C77.9748 263.352 77.7248 263.432 77.4981 263.592L16.2581 305.902C16.2072 305.937 16.1654 305.984 16.1358 306.039C16.1063 306.094 16.0899 306.155 16.088 306.217C16.086 306.279 16.0986 306.341 16.1246 306.397C16.1507 306.453 16.1896 306.503 16.2381 306.542C38.9314 324.448 64.8681 333.568 94.0481 333.902C103.928 334.015 112.355 334.018 119.328 333.912C121.475 333.878 123.015 334.162 123.948 334.762C127.808 337.232 127.798 342.552 124.118 344.932C123.091 345.592 121.235 345.915 118.548 345.902C117.828 345.895 112.855 345.888 103.628 345.882C103.549 345.882 103.472 345.913 103.416 345.97C103.36 346.026 103.328 346.102 103.328 346.182V415.892C103.328 415.974 103.362 416.053 103.422 416.111C103.482 416.169 103.563 416.202 103.648 416.202H139.908C140.241 416.202 140.408 416.038 140.408 415.712C140.408 413.565 140.405 400.145 140.398 375.452C140.398 372.952 140.598 371.232 140.998 370.292C141.751 368.532 143.201 367.318 145.348 366.652C166.921 359.972 188.541 359.988 210.208 366.702ZM91.3781 346.322C91.3785 346.247 91.351 346.175 91.3011 346.12C91.2512 346.064 91.1824 346.029 91.1081 346.022L71.5881 344.192C71.5463 344.188 71.504 344.192 71.4641 344.205C71.4241 344.219 71.3874 344.24 71.3563 344.268C71.3252 344.297 71.3004 344.331 71.2834 344.37C71.2665 344.408 71.2579 344.45 71.2581 344.492L71.2681 415.912C71.2681 415.991 71.2997 416.068 71.356 416.124C71.4122 416.18 71.4885 416.212 71.5681 416.212L91.0681 416.202C91.1477 416.202 91.224 416.17 91.2802 416.114C91.3365 416.058 91.3681 415.981 91.3681 415.902L91.3781 346.322ZM284.138 344.522C284.138 344.477 284.129 344.433 284.111 344.392C284.093 344.351 284.067 344.314 284.034 344.284C284.001 344.254 283.962 344.231 283.92 344.217C283.877 344.203 283.833 344.198 283.788 344.202L264.318 346.022C264.239 346.029 264.165 346.066 264.111 346.125C264.057 346.185 264.028 346.262 264.028 346.342V415.882C264.028 415.967 264.062 416.048 264.122 416.108C264.182 416.168 264.263 416.202 264.348 416.202H283.818C283.903 416.202 283.984 416.168 284.044 416.108C284.104 416.048 284.138 415.967 284.138 415.882V344.522ZM177.698 416.202C192.238 416.202 200.568 416.198 202.688 416.192C202.778 416.192 202.865 416.156 202.929 416.092C202.992 416.028 203.028 415.942 203.028 415.852V377.332C203.027 377.237 202.997 377.145 202.941 377.07C202.884 376.996 202.806 376.944 202.718 376.922C194.485 374.722 186.145 373.622 177.698 373.622C169.251 373.622 160.911 374.722 152.678 376.922C152.59 376.944 152.512 376.996 152.456 377.07C152.399 377.145 152.369 377.237 152.368 377.332V415.852C152.368 415.942 152.404 416.028 152.468 416.092C152.531 416.156 152.618 416.192 152.708 416.192C154.828 416.198 163.158 416.202 177.698 416.202ZM313.238 428.472C313.238 428.387 313.204 428.305 313.144 428.245C313.084 428.185 313.003 428.152 312.918 428.152H42.6181C42.5332 428.152 42.4518 428.185 42.3918 428.245C42.3318 428.305 42.2981 428.387 42.2981 428.472V457.892C42.2981 457.977 42.3318 458.058 42.3918 458.118C42.4518 458.178 42.5332 458.212 42.6181 458.212H312.918C313.003 458.212 313.084 458.178 313.144 458.118C313.204 458.058 313.238 457.977 313.238 457.892V428.472Z" fill="#BFA285" fill-opacity="0.3"/>
</svg>
