<svg width="356" height="471" viewBox="0 0 356 471" fill="none" xmlns="http://www.w3.org/2000/svg">
<path d="M177.708 0C178.995 0 180.055 0.300002 180.888 0.900002C191.668 8.69334 200.438 15.1033 207.198 20.13C209.008 21.47 209.598 23.17 209.598 25.57C209.618 41.6833 209.638 50.3833 209.658 51.67C209.665 52.03 209.848 52.2133 210.208 52.22C215.435 52.2467 222.181 52.2433 230.448 52.21C232.175 52.2033 233.645 52.61 234.858 53.43C238.018 55.57 249.705 63.6233 269.918 77.59C272.251 79.2033 273.608 80.56 273.988 81.66C275.138 84.98 273.578 87.2 270.858 89.54C261.025 97.9533 249.731 103.527 236.978 106.26C236.665 106.327 236.508 106.52 236.508 106.84L236.498 141.76C236.498 142.1 236.671 142.273 237.018 142.28C241.958 142.38 245.018 142.387 246.198 142.3C248.578 142.12 250.511 142.54 251.998 143.56C260.078 149.127 275.521 159.79 298.328 175.55C301.588 177.8 304.048 180.04 302.528 183.95C302.135 184.97 301.255 186.077 299.888 187.27C286.521 198.997 271.048 206.553 253.468 209.94C253.381 209.956 253.303 210.003 253.246 210.072C253.19 210.142 253.158 210.229 253.158 210.32L253.148 251C253.148 251.082 253.182 251.161 253.242 251.219C253.302 251.277 253.383 251.31 253.468 251.31C261.861 251.323 270.278 251.323 278.718 251.31C280.371 251.31 281.841 251.753 283.128 252.64C319.608 277.827 342.218 293.443 350.958 299.49C353.098 300.977 354.421 302.323 354.928 303.53C356.268 306.7 354.618 309.03 352.128 311.22C335.968 325.487 317.441 335.467 296.548 341.16C296.419 341.195 296.305 341.271 296.224 341.376C296.143 341.48 296.098 341.608 296.098 341.74V415.79C296.098 416.043 296.225 416.17 296.478 416.17C304.178 416.183 311.751 416.18 319.198 416.16C321.811 416.16 323.571 417.223 324.478 419.35C324.918 420.377 325.138 422.21 325.138 424.85C325.138 438.003 325.135 450.5 325.128 462.34C325.128 464.707 324.851 466.323 324.298 467.19C322.778 469.57 320.878 470.1 317.928 470.1C312.828 470.113 266.085 470.117 177.698 470.11C89.3114 470.117 42.5681 470.113 37.4681 470.1C34.5181 470.1 32.6181 469.57 31.0981 467.19C30.5448 466.323 30.2681 464.707 30.2681 462.34C30.2614 450.5 30.2614 438.003 30.2681 424.85C30.2681 422.21 30.4881 420.377 30.9281 419.35C31.8348 417.223 33.5948 416.16 36.2081 416.16C43.6548 416.18 51.2281 416.183 58.9281 416.17C59.1814 416.17 59.3081 416.043 59.3081 415.79V341.74C59.3079 341.608 59.2637 341.48 59.1824 341.376C59.1011 341.271 58.9871 341.195 58.8581 341.16C37.9648 335.467 19.4381 325.487 3.2781 311.22C0.788101 309.03 -0.861902 306.7 0.478098 303.53C0.984765 302.323 2.3081 300.977 4.4481 299.49C13.1881 293.443 35.7981 277.827 72.2781 252.64C73.5648 251.753 75.0348 251.31 76.6881 251.31C85.1281 251.323 93.5448 251.323 101.938 251.31C102.023 251.31 102.104 251.277 102.164 251.219C102.224 251.161 102.258 251.082 102.258 251L102.248 210.32C102.248 210.229 102.217 210.142 102.16 210.072C102.103 210.003 102.025 209.956 101.938 209.94C84.3581 206.553 68.8848 198.997 55.5181 187.27C54.1514 186.077 53.2714 184.97 52.8781 183.95C51.3581 180.04 53.8181 177.8 57.0781 175.55C79.8848 159.79 95.3281 149.127 103.408 143.56C104.895 142.54 106.828 142.12 109.208 142.3C110.388 142.387 113.448 142.38 118.388 142.28C118.735 142.273 118.908 142.1 118.908 141.76L118.898 106.84C118.898 106.52 118.741 106.327 118.428 106.26C105.675 103.527 94.3814 97.9533 84.5481 89.54C81.8281 87.2 80.2681 84.98 81.4181 81.66C81.7981 80.56 83.1548 79.2033 85.4881 77.59C105.701 63.6233 117.388 55.57 120.548 53.43C121.761 52.61 123.231 52.2033 124.958 52.21C133.225 52.2433 139.971 52.2467 145.198 52.22C145.558 52.2133 145.741 52.03 145.748 51.67C145.768 50.3833 145.788 41.6833 145.808 25.57C145.808 23.17 146.398 21.47 148.208 20.13C154.968 15.1033 163.738 8.69334 174.518 0.900002C175.351 0.300002 176.415 0 177.708 0ZM177.698 52.23C189.371 52.23 195.828 52.21 197.068 52.17C197.461 52.1567 197.658 51.9533 197.658 51.56L197.668 28.54C197.668 28.3537 197.625 28.17 197.541 28.0033C197.458 27.8367 197.337 27.6918 197.188 27.58C190.975 22.98 184.565 18.3067 177.958 13.56C177.931 13.54 177.848 13.53 177.708 13.53C177.575 13.53 177.495 13.54 177.468 13.56C170.855 18.3 164.441 22.97 158.228 27.57C158.079 27.6818 157.958 27.8267 157.875 27.9933C157.791 28.16 157.748 28.3437 157.748 28.53V51.55C157.748 51.9433 157.945 52.1467 158.338 52.16C159.578 52.2 166.031 52.2233 177.698 52.23ZM177.708 95.85C206.395 95.85 221.065 95.8467 221.718 95.84C235.065 95.74 247.185 91.91 258.078 84.35C258.111 84.327 258.138 84.2963 258.157 84.2606C258.175 84.2249 258.185 84.1853 258.185 84.145C258.185 84.1048 258.175 84.0651 258.157 84.0294C258.138 83.9937 258.111 83.963 258.078 83.94L229.948 64.51C229.694 64.3278 229.387 64.2299 229.068 64.23C211.988 64.2233 194.865 64.2233 177.698 64.23C160.538 64.2233 143.418 64.2267 126.338 64.24C126.02 64.2399 125.712 64.3378 125.458 64.52L97.3281 83.95C97.2951 83.973 97.2681 84.0037 97.2495 84.0394C97.2309 84.0751 97.2212 84.1147 97.2212 84.155C97.2212 84.1953 97.2309 84.2349 97.2495 84.2706C97.2681 84.3063 97.2951 84.337 97.3281 84.36C108.221 91.92 120.341 95.75 133.688 95.85C134.341 95.85 149.015 95.85 177.708 95.85ZM224.538 108.22C224.538 108.119 224.498 108.023 224.427 107.951C224.356 107.88 224.259 107.84 224.158 107.84H131.238C131.137 107.84 131.041 107.88 130.969 107.951C130.898 108.023 130.858 108.119 130.858 108.22V141.94C130.858 142.041 130.898 142.137 130.969 142.209C131.041 142.28 131.137 142.32 131.238 142.32H224.158C224.259 142.32 224.356 142.28 224.427 142.209C224.498 142.137 224.538 142.041 224.538 141.94V108.22ZM177.708 199.62C204.081 199.62 220.328 199.627 226.448 199.64C236.228 199.653 242.891 199.427 246.438 198.96C261.231 197.007 274.651 191.553 286.698 182.6C286.958 182.407 286.955 182.22 286.688 182.04L247.018 154.62C246.758 154.433 246.465 154.337 246.138 154.33C243.631 154.257 220.818 154.223 177.698 154.23C134.585 154.23 111.775 154.267 109.268 154.34C108.941 154.347 108.648 154.443 108.388 154.63L68.7181 182.05C68.4514 182.23 68.4481 182.417 68.7081 182.61C80.7548 191.563 94.1748 197.017 108.968 198.97C112.515 199.437 119.178 199.663 128.958 199.65C135.078 199.63 151.328 199.62 177.708 199.62ZM241.178 211.9C241.178 211.82 241.146 211.744 241.09 211.688C241.034 211.632 240.958 211.6 240.878 211.6H114.498C114.419 211.6 114.342 211.632 114.286 211.688C114.23 211.744 114.198 211.82 114.198 211.9V251.02C114.198 251.1 114.23 251.176 114.286 251.232C114.342 251.288 114.419 251.32 114.498 251.32H240.878C240.958 251.32 241.034 251.288 241.09 251.232C241.146 251.176 241.178 251.1 241.178 251.02V211.9ZM210.208 366.67C213.038 367.55 214.998 369.81 214.998 372.82C214.978 391.8 214.978 406.053 214.998 415.58C214.998 415.98 215.195 416.18 215.588 416.18L251.488 416.17C251.875 416.17 252.068 415.977 252.068 415.59V346.1C252.068 346.034 252.042 345.97 251.995 345.923C251.948 345.876 251.884 345.85 251.818 345.85C243.845 345.85 217.681 345.85 173.328 345.85C170.908 345.85 169.271 345.677 168.418 345.33C163.658 343.4 163.668 336.72 168.008 334.54C168.895 334.1 170.828 333.88 173.808 333.88C185.495 333.9 212.375 333.913 254.448 333.92C263.068 333.92 269.725 333.663 274.418 333.15C298.411 330.523 320.031 321.633 339.278 306.48C339.32 306.447 339.354 306.404 339.377 306.356C339.399 306.307 339.41 306.254 339.408 306.2C339.406 306.146 339.392 306.094 339.366 306.047C339.34 306 339.303 305.96 339.258 305.93L277.758 263.41C277.671 263.35 277.575 263.32 277.468 263.32H78.2481C77.9748 263.32 77.7248 263.4 77.4981 263.56L16.2581 305.87C16.2072 305.906 16.1654 305.953 16.1358 306.007C16.1063 306.062 16.0899 306.123 16.088 306.185C16.086 306.247 16.0986 306.309 16.1246 306.365C16.1507 306.422 16.1896 306.471 16.2381 306.51C38.9314 324.417 64.8681 333.537 94.0481 333.87C103.928 333.983 112.355 333.987 119.328 333.88C121.475 333.847 123.015 334.13 123.948 334.73C127.808 337.2 127.798 342.52 124.118 344.9C123.091 345.56 121.235 345.883 118.548 345.87C117.828 345.863 112.855 345.857 103.628 345.85C103.549 345.85 103.472 345.882 103.416 345.938C103.36 345.994 103.328 346.07 103.328 346.15V415.86C103.328 415.942 103.362 416.021 103.422 416.079C103.482 416.137 103.563 416.17 103.648 416.17H139.908C140.241 416.17 140.408 416.007 140.408 415.68C140.408 413.533 140.405 400.113 140.398 375.42C140.398 372.92 140.598 371.2 140.998 370.26C141.751 368.5 143.201 367.287 145.348 366.62C166.921 359.94 188.541 359.957 210.208 366.67ZM91.3781 346.29C91.3785 346.215 91.351 346.143 91.3011 346.088C91.2512 346.032 91.1824 345.997 91.1081 345.99L71.5881 344.16C71.5463 344.156 71.504 344.16 71.4641 344.174C71.4241 344.187 71.3874 344.208 71.3563 344.237C71.3252 344.265 71.3004 344.299 71.2834 344.338C71.2665 344.376 71.2579 344.418 71.2581 344.46L71.2681 415.88C71.2681 415.96 71.2997 416.036 71.356 416.092C71.4122 416.148 71.4885 416.18 71.5681 416.18L91.0681 416.17C91.1477 416.17 91.224 416.138 91.2802 416.082C91.3365 416.026 91.3681 415.95 91.3681 415.87L91.3781 346.29ZM284.138 344.49C284.138 344.445 284.129 344.401 284.111 344.36C284.093 344.319 284.067 344.283 284.034 344.252C284.001 344.222 283.962 344.199 283.92 344.185C283.877 344.171 283.833 344.166 283.788 344.17L264.318 345.99C264.239 345.998 264.165 346.035 264.111 346.094C264.057 346.153 264.028 346.23 264.028 346.31V415.85C264.028 415.935 264.062 416.016 264.122 416.076C264.182 416.136 264.263 416.17 264.348 416.17H283.818C283.903 416.17 283.984 416.136 284.044 416.076C284.104 416.016 284.138 415.935 284.138 415.85V344.49ZM177.698 416.17C192.238 416.17 200.568 416.167 202.688 416.16C202.778 416.16 202.865 416.124 202.929 416.06C202.992 415.997 203.028 415.91 203.028 415.82V377.3C203.027 377.205 202.997 377.113 202.941 377.039C202.884 376.965 202.806 376.912 202.718 376.89C194.485 374.69 186.145 373.59 177.698 373.59C169.251 373.59 160.911 374.69 152.678 376.89C152.59 376.912 152.512 376.965 152.456 377.039C152.399 377.113 152.369 377.205 152.368 377.3V415.82C152.368 415.91 152.404 415.997 152.468 416.06C152.531 416.124 152.618 416.16 152.708 416.16C154.828 416.167 163.158 416.17 177.698 416.17ZM313.238 428.44C313.238 428.355 313.204 428.274 313.144 428.214C313.084 428.154 313.003 428.12 312.918 428.12H42.6181C42.5332 428.12 42.4518 428.154 42.3918 428.214C42.3318 428.274 42.2981 428.355 42.2981 428.44V457.86C42.2981 457.945 42.3318 458.026 42.3918 458.086C42.4518 458.146 42.5332 458.18 42.6181 458.18H312.918C313.003 458.18 313.084 458.146 313.144 458.086C313.204 458.026 313.238 457.945 313.238 457.86V428.44Z" fill="#BFA285" fill-opacity="0.3"/>
</svg>
