<svg width="56" height="56" viewBox="0 0 56 56" fill="none" xmlns="http://www.w3.org/2000/svg">
<rect width="55.9973" height="56" rx="12" fill="#FFFDF5"/>
<path d="M32.1507 33.2354C32.1042 33.1823 32.0536 33.1783 31.999 33.2234C30.7137 34.283 29.2864 34.97 27.7172 35.2843C27.508 35.3258 27.291 35.3586 27.0663 35.3827C26.6919 35.4222 26.4724 35.4465 26.4078 35.4555C25.9949 35.5155 25.5487 35.5213 25.0692 35.4728C24.6347 35.4287 24.2098 35.3649 23.7943 35.2813C22.567 35.033 21.4543 34.579 20.4563 33.9193C19.281 33.1425 18.3247 32.1958 17.5875 31.0791C17.0209 30.2202 16.6139 29.3082 16.3667 28.3432C16.2946 28.0619 16.2533 27.9017 16.2428 27.8627C16.2012 27.7015 16.1702 27.5393 16.1497 27.3761C16.1231 27.1679 16.1021 27.028 16.0866 26.9564C16.0606 26.8368 16.0426 26.6952 16.0326 26.5315C15.987 25.7777 15.9893 25.2241 16.0393 24.8707C16.0949 24.4823 16.1307 24.2325 16.1467 24.1214C16.1762 23.9162 16.2195 23.699 16.2766 23.4697C16.3181 23.3031 16.3772 23.0893 16.4537 22.8285C16.8532 21.4611 17.5689 20.2248 18.601 19.1196C19.3143 18.3558 20.0934 17.7281 20.9383 17.2366C21.3712 16.9848 21.8245 16.7744 22.298 16.6052C24.1129 15.956 25.9729 15.8291 27.8779 16.2245C29.355 16.5313 30.6776 17.1653 31.8459 18.1263C32.3719 18.5593 32.8685 19.0558 33.3355 19.6159C34.0677 20.4948 34.6143 21.4879 34.9752 22.595C35.7245 24.892 35.6604 27.1602 34.783 29.3995C34.4146 30.34 33.9053 31.1919 33.2551 31.9553C33.2305 31.9842 33.2176 32.0213 33.219 32.0592C33.2204 32.0972 33.2359 32.1332 33.2626 32.1602C35.6101 34.5262 37.7111 36.645 39.5656 38.5165C39.7528 38.7052 39.8712 38.8493 39.9207 38.949C40.0218 39.1522 40.0228 39.3529 39.9237 39.5511C39.8166 39.7643 39.6539 39.9042 39.4357 39.9708C39.1849 40.0464 38.9499 39.9753 38.7307 39.7576C37.6225 38.6594 35.5053 36.5534 32.3789 33.4396C32.2926 33.354 32.2093 33.3029 32.1507 33.2354ZM33.9819 25.7544C33.9819 23.571 33.1145 21.477 31.5707 19.9331C30.0268 18.3893 27.9328 17.5219 25.7494 17.5219C23.566 17.5219 21.472 18.3893 19.9281 19.9331C18.3842 21.477 17.5169 23.571 17.5169 25.7544C17.5169 27.9378 18.3842 30.0318 19.9281 31.5757C21.472 33.1196 23.566 33.9869 25.7494 33.9869C27.9328 33.9869 30.0268 33.1196 31.5707 31.5757C33.1145 30.0318 33.9819 27.9378 33.9819 25.7544Z" fill="#732727"/>
</svg>
