<svg width="87" height="72" viewBox="0 0 87 72" fill="none" xmlns="http://www.w3.org/2000/svg">
<path d="M64.0153 14.4654L57.2558 5.29827L51.4816 14.9664L38.9756 17.9703L48.0044 25.9478L48.2966 37.8104C49.7328 37.008 54.4858 33.5979 56.6828 31.9931L73.4951 38.5312C76.1193 38.7988 70.4823 30.3035 67.3357 26.0224C67.0937 25.4079 73.3249 20.6071 76.4708 18.2835C77.435 16.839 68.5689 15.1362 64.0153 14.4654Z" stroke="#FFC700" stroke-width="4"/>
<path d="M34.3169 30.2259L30.7882 25.4381L27.7768 30.4854L21.2516 32.0519L25.9642 36.2189L26.1186 42.413C26.8679 41.9943 29.3475 40.2145 30.4936 39.3769L39.2674 42.7936C40.6368 42.9337 37.694 38.4969 36.0514 36.261C35.925 35.9401 39.1757 33.4344 40.8168 32.2216C41.3197 31.4675 36.693 30.5769 34.3169 30.2259Z" stroke="#FFC700" stroke-width="4"/>
<path d="M17.1821 48.87L14.919 45.8182L12.9643 49.0527L8.75264 50.0709L11.7807 52.7228L11.8644 56.6824C12.3486 56.4128 13.9521 55.2686 14.6933 54.7302L20.342 56.8919C21.2247 56.978 19.3385 54.1491 18.285 52.7238C18.2043 52.519 20.3069 50.9087 21.3683 50.1292C21.6945 49.6458 18.7134 49.0883 17.1821 48.87Z" stroke="#FFC700" stroke-width="4"/>
<path d="M32.6552 56.0211L30.3922 52.9693L28.4374 56.2038L24.2258 57.2221L27.2539 59.8739L27.3375 63.8335C27.8217 63.5639 29.4252 62.4197 30.1664 61.8813L35.8152 64.0431C36.6978 64.1291 34.8116 61.3002 33.7582 59.875C33.6775 59.6701 35.78 58.0598 36.8414 57.2803C37.1676 56.7969 34.1865 56.2394 32.6552 56.0211Z" stroke="#FFC700" stroke-width="4"/>
</svg>
