<svg width="31" height="18" viewBox="0 0 31 18" fill="none" xmlns="http://www.w3.org/2000/svg">
<path d="M15.3746 -0.00195312C18.6028 -0.00145301 20.5345 -0.00120337 21.1696 -0.00120337C21.8868 -0.00120337 22.6105 0.0758141 23.3406 0.229849C24.6624 0.508411 25.8519 1.06054 26.9092 1.88622C27.2713 2.16929 27.6193 2.48911 27.9534 2.84569C28.2965 3.21177 28.5923 3.57885 28.8409 3.94694C29.678 5.18521 30.1709 6.59453 30.3194 8.17489C30.3559 8.55997 30.3742 8.83504 30.3742 9.00007C30.3742 9.16511 30.3559 9.44017 30.3194 9.82526C30.1709 11.4056 29.678 12.8149 28.8409 14.0532C28.5923 14.4213 28.2965 14.7884 27.9534 15.1545C27.6193 15.511 27.2713 15.8309 26.9092 16.1139C25.8519 16.9396 24.6624 17.4917 23.3406 17.7703C22.6105 17.9243 21.8868 18.0013 21.1696 18.0013C20.5345 18.0013 18.6026 18.0013 15.3738 18.0013C12.1456 18.0013 10.2139 18.0013 9.57878 18.0013C8.86162 18.0013 8.13795 17.9243 7.40779 17.7703C6.08599 17.4917 4.89647 16.9396 3.83924 16.1139C3.47715 15.8309 3.12908 15.511 2.795 15.1545C2.45192 14.7884 2.15611 14.4213 1.90755 14.0532C1.07036 12.8149 0.577502 11.4056 0.428969 9.82526C0.39246 9.44017 0.374207 9.16511 0.374207 9.00007C0.374207 8.83453 0.39246 8.55922 0.428969 8.17414C0.577502 6.59378 1.07036 5.18446 1.90755 3.94619C2.15611 3.5781 2.45192 3.21102 2.795 2.84494C3.12908 2.48836 3.47715 2.16854 3.83924 1.88547C4.89647 1.05979 6.08599 0.507662 7.40779 0.229099C8.13795 0.0755645 8.86162 -0.00120337 9.57878 -0.00120337C10.2139 -0.00120337 12.1459 -0.00145301 15.3746 -0.00195312ZM1.87529 9.00007C1.87529 9.16361 1.90405 9.47393 1.96156 9.93103C2.06159 10.7247 2.25963 11.4479 2.5557 12.1005C2.76374 12.5596 3.0153 12.9895 3.31037 13.3901C3.81198 14.0707 4.41762 14.6628 5.12728 15.1665C5.46935 15.4085 5.81868 15.6101 6.17526 15.7711C6.60986 15.9671 6.98919 16.1079 7.31327 16.1934C7.75537 16.31 8.19947 16.392 8.64557 16.4395C9.01015 16.4785 9.45975 16.4985 9.99437 16.4995C10.9486 16.5015 12.742 16.5025 15.3746 16.5025C18.0072 16.5025 19.8006 16.5015 20.7548 16.4995C21.2894 16.4985 21.739 16.4785 22.1036 16.4395C22.5497 16.392 22.9938 16.31 23.4359 16.1934C23.76 16.1079 24.1393 15.9671 24.5739 15.7711C24.9305 15.6101 25.2798 15.4085 25.6219 15.1665C26.3315 14.6628 26.9372 14.0707 27.4388 13.3901C27.7339 12.9895 27.9854 12.5596 28.1935 12.1005C28.4895 11.4479 28.6876 10.7247 28.7876 9.93103C28.8451 9.47393 28.8739 9.16361 28.8739 9.00007C28.8739 8.83704 28.8451 8.52697 28.7876 8.06986C28.6876 7.27619 28.4895 6.55302 28.1935 5.90037C27.9854 5.44127 27.7339 5.01143 27.4388 4.61084C26.9372 3.93018 26.3315 3.33805 25.6219 2.83443C25.2798 2.59238 24.9305 2.39084 24.5739 2.2298C24.1393 2.03375 23.76 1.89297 23.4359 1.80745C22.9938 1.69093 22.5497 1.60891 22.1036 1.5614C21.739 1.52239 21.2894 1.50238 20.7548 1.50138C19.8006 1.49938 18.0072 1.49838 15.3746 1.49838C12.742 1.49838 10.9486 1.49938 9.99437 1.50138C9.45975 1.50238 9.01015 1.52239 8.64557 1.5614C8.19947 1.60891 7.75537 1.69093 7.31327 1.80745C6.98919 1.89297 6.60986 2.03375 6.17526 2.2298C5.81868 2.39084 5.46935 2.59238 5.12728 2.83443C4.41762 3.33805 3.81198 3.93018 3.31037 4.61084C3.0153 5.01143 2.76374 5.44127 2.5557 5.90037C2.25963 6.55302 2.06159 7.27619 1.96156 8.06986C1.90405 8.52697 1.87529 8.83704 1.87529 9.00007Z" fill="white"/>
<path d="M9.37363 5.25782C9.51917 5.25732 9.63119 5.27758 9.70971 5.31859C9.98977 5.46462 10.1283 5.71592 10.1253 6.0725C10.1208 6.52861 10.1211 7.24602 10.1261 8.22474C10.1261 8.22574 10.1296 8.22999 10.1366 8.23749C10.1436 8.24449 10.1476 8.24799 10.1486 8.24799C11.1273 8.2525 11.8447 8.2525 12.3008 8.24799C12.6574 8.24499 12.9087 8.38353 13.0547 8.66359C13.0957 8.74211 13.1162 8.85413 13.1162 8.99966C13.1167 9.1452 13.0965 9.25722 13.0555 9.33574C12.9094 9.6158 12.6581 9.75433 12.3015 9.75133C11.8454 9.74683 11.128 9.74708 10.1493 9.75208C10.1483 9.75208 10.1441 9.75558 10.1366 9.76259C10.1296 9.77009 10.1261 9.77434 10.1261 9.77534C10.1211 10.7541 10.1211 11.4715 10.1261 11.9276C10.1291 12.2842 9.99052 12.5355 9.71046 12.6815C9.63194 12.7225 9.51992 12.7428 9.37438 12.7423C9.22885 12.7428 9.11683 12.7225 9.03831 12.6815C8.75825 12.5355 8.61972 12.2842 8.62272 11.9276C8.62722 11.4715 8.62697 10.7541 8.62197 9.77534C8.62197 9.77434 8.61821 9.77034 8.61071 9.76334C8.60371 9.75583 8.59971 9.75208 8.59871 9.75208C7.61999 9.74758 6.90258 9.74758 6.44648 9.75208C6.0899 9.75508 5.83859 9.61655 5.69256 9.33649C5.65155 9.25797 5.63104 9.14595 5.63104 9.00041C5.63104 8.85488 5.65155 8.74285 5.69256 8.66434C5.83859 8.38427 6.0899 8.24574 6.44648 8.24875C6.90258 8.25325 7.61999 8.253 8.59871 8.24799C8.59971 8.24799 8.60371 8.24449 8.61071 8.23749C8.61771 8.23049 8.62122 8.22649 8.62122 8.22549C8.62622 7.24677 8.62647 6.52936 8.62197 6.07325C8.61896 5.71667 8.7575 5.46512 9.03756 5.31859C9.11608 5.27758 9.2281 5.25732 9.37363 5.25782Z" fill="white"/>
<path d="M23.6264 7.86465C24.2408 7.86465 24.7389 7.36657 24.7389 6.75215C24.7389 6.13773 24.2408 5.63965 23.6264 5.63965C23.0119 5.63965 22.5139 6.13773 22.5139 6.75215C22.5139 7.36657 23.0119 7.86465 23.6264 7.86465Z" fill="white"/>
<path d="M20.6254 12.3646C21.2398 12.3646 21.7379 11.8666 21.7379 11.2521C21.7379 10.6377 21.2398 10.1396 20.6254 10.1396C20.011 10.1396 19.5129 10.6377 19.5129 11.2521C19.5129 11.8666 20.011 12.3646 20.6254 12.3646Z" fill="white"/>
</svg>
