<svg width="17" height="18" viewBox="0 0 17 18" fill="none" xmlns="http://www.w3.org/2000/svg">
<path d="M12.9932 4.49426C12.9932 5.68621 12.5197 6.82934 11.6769 7.67218C10.834 8.51501 9.6909 8.98851 8.49895 8.98851C7.307 8.98851 6.16387 8.51501 5.32103 7.67218C4.47819 6.82934 4.00469 5.68621 4.00469 4.49426C4.00469 3.30231 4.47819 2.15917 5.32103 1.31634C6.16387 0.4735 7.307 0 8.49895 0C9.6909 0 10.834 0.4735 11.6769 1.31634C12.5197 2.15917 12.9932 3.30231 12.9932 4.49426ZM11.867 4.50045C11.867 3.60749 11.5122 2.75111 10.8808 2.11969C10.2494 1.48828 9.39303 1.13355 8.50008 1.13355C7.60712 1.13355 6.75074 1.48828 6.11932 2.11969C5.48791 2.75111 5.13318 3.60749 5.13318 4.50045C5.13318 4.9426 5.22027 5.38041 5.38947 5.7889C5.55867 6.19739 5.80668 6.56856 6.11932 6.8812C6.75074 7.51262 7.60712 7.86734 8.50008 7.86734C8.94222 7.86734 9.38004 7.78026 9.78853 7.61105C10.197 7.44185 10.5682 7.19385 10.8808 6.8812C11.1935 6.56856 11.4415 6.19739 11.6107 5.7889C11.7799 5.38041 11.867 4.9426 11.867 4.50045Z" fill="white"/>
<path d="M8.50005 10.6865C9.0719 10.6865 9.6004 10.6713 10.1469 10.709C10.2955 10.7191 10.5116 10.7345 10.7953 10.7552C11.0625 10.7747 11.4186 10.8403 11.8636 10.9522C11.9844 10.9826 12.1058 11.0223 12.2277 11.0715C12.3748 11.1308 12.4921 11.1786 12.5795 11.215C13.3239 11.5238 13.9819 11.9671 14.5534 12.545C15.4352 13.4369 15.9971 14.498 16.2391 15.7284C16.2837 15.9554 16.3227 16.231 16.3561 16.5552C16.3877 16.8576 16.3772 17.0835 16.3246 17.2329C16.2244 17.5169 16.0443 17.7417 15.7843 17.9071C15.7141 17.9514 15.6291 17.9784 15.5293 17.9882C15.4445 17.9961 15.353 18 15.2547 18C14.7297 17.9981 12.4782 17.997 8.50005 17.9966C4.52154 17.9966 2.26982 17.9974 1.74488 17.9989C1.64657 17.9989 1.55501 17.9949 1.47021 17.9871C1.3704 17.9773 1.28542 17.9503 1.21525 17.906C0.955217 17.7405 0.77511 17.5158 0.674925 17.2317C0.622768 17.0824 0.61245 16.8565 0.643969 16.5541C0.677364 16.2299 0.716387 15.9543 0.761039 15.7273C1.00306 14.4969 1.56515 13.436 2.4473 12.5444C3.01877 11.9666 3.67673 11.5233 4.42117 11.2144C4.5086 11.178 4.62586 11.1302 4.77294 11.0709C4.89489 11.0218 5.01628 10.982 5.1371 10.9516C5.58212 10.8398 5.93821 10.7741 6.20537 10.7546C6.48904 10.7343 6.70517 10.7191 6.85376 10.709C7.40027 10.6713 7.92877 10.6865 8.50005 10.6865ZM8.49949 16.8862C11.8874 16.8865 14.1119 16.8869 15.1731 16.8873C15.1825 16.8873 15.1919 16.8854 15.2006 16.8817C15.2094 16.878 15.2173 16.8725 15.2238 16.8657C15.2304 16.8589 15.2355 16.8508 15.2389 16.8419C15.2423 16.833 15.2438 16.8236 15.2434 16.8141C15.195 15.4573 14.7053 14.304 13.7744 13.3543C13.5943 13.1703 13.3495 13.0099 13.1401 12.8315C13.0178 12.7272 12.8446 12.6161 12.6206 12.4983C12.3814 12.3728 12.1298 12.2214 11.8799 12.1465C11.6683 12.0831 11.4936 12.0289 11.3559 11.9838C11.2021 11.9343 11.0227 11.9005 10.8178 11.8825C10.3777 11.8435 10.1377 11.8236 10.098 11.8229C9.94373 11.8202 9.4111 11.8189 8.50005 11.8189C7.58901 11.8186 7.05638 11.8197 6.90216 11.8223C6.86239 11.8231 6.62243 11.8429 6.18229 11.882C5.97742 11.9 5.79806 11.9337 5.64422 11.9833C5.50651 12.0283 5.33184 12.0825 5.12022 12.1459C4.87032 12.2202 4.61873 12.3716 4.37896 12.4971C4.15495 12.615 3.98178 12.726 3.85946 12.8303C3.65008 13.0088 3.40525 13.1692 3.22514 13.3532C2.29383 14.3025 1.80398 15.4556 1.75557 16.8124C1.75519 16.8219 1.75673 16.8313 1.7601 16.8402C1.76346 16.8491 1.76859 16.8572 1.77516 16.864C1.78173 16.8708 1.78961 16.8763 1.79834 16.88C1.80706 16.8837 1.81645 16.8856 1.82593 16.8856C2.88706 16.8856 5.11159 16.8858 8.49949 16.8862Z" fill="white"/>
</svg>
