<svg width="24" height="24" viewBox="0 0 24 24" fill="none" xmlns="http://www.w3.org/2000/svg">
<path d="M23.9973 12C23.9973 15.1826 22.7332 18.2348 20.483 20.4853C18.2328 22.7357 15.1809 24 11.9987 24C8.81641 24 5.76451 22.7357 3.51432 20.4853C1.26414 18.2348 0 15.1826 0 12C0 8.8174 1.26414 5.76516 3.51432 3.51472C5.76451 1.26428 8.81641 0 11.9987 0C15.1809 0 18.2328 1.26428 20.483 3.51472C22.7332 5.76516 23.9973 8.8174 23.9973 12ZM22.4911 12C22.4911 9.21692 21.3856 6.54782 19.4179 4.57989C17.4502 2.61195 14.7814 1.50638 11.9987 1.50638C9.21588 1.50638 6.54709 2.61195 4.57937 4.57989C2.61166 6.54782 1.50621 9.21692 1.50621 12C1.50621 14.7831 2.61166 17.4522 4.57937 19.4201C6.54709 21.388 9.21588 22.4936 11.9987 22.4936C14.7814 22.4936 17.4502 21.388 19.4179 19.4201C21.3856 17.4522 22.4911 14.7831 22.4911 12Z" fill="#732727"/>
<path d="M12.7509 17.2986C12.7444 17.5022 12.7444 17.7652 12.7509 18.0878C12.7599 18.5402 12.6797 18.9033 12.2499 19.0766C11.9828 19.1838 11.5943 19.0953 11.4097 18.853C11.3037 18.7135 11.2505 18.5429 11.25 18.3414C11.2495 17.8452 11.2487 17.4627 11.2477 17.1936C11.2477 17.1824 11.2439 17.1716 11.2367 17.1629C11.2296 17.1543 11.2197 17.1484 11.2087 17.1463C10.3771 16.9868 9.59575 16.7705 8.86465 16.4974C8.70062 16.4364 8.56461 16.3564 8.45659 16.2574C8.1663 15.9918 8.21206 15.5244 8.44834 15.2551C8.57636 15.1096 8.73838 15.0313 8.93441 15.0203C9.03742 15.0148 9.20544 15.046 9.43848 15.1141C9.6385 15.1726 10.1371 15.3226 10.9342 15.5642C11.7978 15.8252 12.6537 15.8392 13.5018 15.6062C13.6998 15.5517 13.9101 15.4439 14.1326 15.2829C14.4792 15.0315 14.6292 14.6392 14.5962 14.2341C14.5632 13.8215 14.3029 13.5522 13.9218 13.3534C13.4248 13.0943 13.0215 12.924 12.7119 12.8425C11.5613 12.5394 10.7797 12.3249 9.79027 11.8643C9.29821 11.6352 8.90665 11.3014 8.61561 10.8628C8.23806 10.2921 8.1388 9.68996 8.31782 9.0563C8.55435 8.21959 9.03292 7.60994 9.75352 7.22735C10.1623 7.00979 10.7302 6.86725 11.2207 6.75623C11.2289 6.75448 11.2363 6.74993 11.2415 6.74336C11.2467 6.73678 11.2494 6.7286 11.2492 6.72022C11.2477 6.47716 11.2482 6.11857 11.2507 5.64445C11.2545 5.10356 11.6873 4.77873 12.2056 4.91152C12.5807 5.00679 12.7637 5.39014 12.7479 5.75548C12.7444 5.8325 12.7467 6.13557 12.7547 6.6647C12.7552 6.68921 12.7677 6.70296 12.7922 6.70596C13.2423 6.75648 13.6866 6.834 14.1251 6.93852C14.4482 7.01554 14.7295 7.11657 14.969 7.2416C15.4933 7.51617 15.4461 8.16283 15.0327 8.49366C14.9002 8.59969 14.7312 8.6457 14.5257 8.6317C14.3847 8.62194 14.2339 8.51992 14.0944 8.48166C12.8469 8.14107 11.2005 7.92427 10.1241 8.853C9.68526 9.2311 9.60875 9.97903 10.1413 10.3264C10.6184 10.6384 11.1977 10.8873 11.8793 11.0728C11.9418 11.0898 12.2359 11.1641 12.7614 11.2956C13.182 11.4011 13.6801 11.5887 14.2556 11.8583C14.8027 12.1153 15.2103 12.3976 15.4783 12.7052C15.9014 13.1918 16.1121 13.7687 16.1106 14.4359C16.1101 14.724 16.0494 15.022 15.9284 15.3301C15.6773 15.9678 15.2585 16.4421 14.6719 16.7532C14.1584 17.0253 13.5325 17.1916 12.7944 17.2521C12.7664 17.2546 12.7519 17.2701 12.7509 17.2986Z" fill="#732727"/>
</svg>
