<svg width="21" height="21" viewBox="0 0 21 21" fill="none" xmlns="http://www.w3.org/2000/svg">
<path d="M16.748 9.65475C16.5606 10.3371 16.1409 11.8961 15.489 14.3319C15.3306 14.9243 15.2008 15.325 15.0995 15.534C14.8005 16.1508 14.3507 16.6233 13.7498 16.9514C13.5303 17.0709 13.1347 17.2157 12.563 17.3858C6.1697 19.2858 2.73915 20.3053 2.27133 20.4442C1.42836 20.6944 0.563227 20.0705 0.502427 19.2269C0.48976 19.0517 0.56006 18.7095 0.713326 18.2003C1.75115 14.7533 2.78813 11.3061 3.82426 7.85861C4.09363 6.96182 4.62901 6.31455 5.43039 5.91682C5.64741 5.80915 6.04768 5.67678 6.63119 5.51972C8.34541 5.05823 9.94352 4.62967 11.4255 4.23405C11.4576 4.22519 11.4855 4.20914 11.5091 4.18592C11.9596 3.73456 12.9299 2.76472 14.4199 1.27639C15.4345 0.263055 16.9754 0.227589 18.0058 1.25295C18.6772 1.92175 19.2565 2.50104 19.7437 2.99082C20.7824 4.03582 20.7317 5.56658 19.7063 6.59448C18.9265 7.37686 17.9824 8.32137 16.8741 9.42801C16.8154 9.4867 16.7734 9.56228 16.748 9.65475ZM12.7422 4.81482L16.1837 8.25635C16.1981 8.2707 16.2176 8.27876 16.2379 8.27876C16.2582 8.27876 16.2777 8.2707 16.292 8.25635L18.814 5.73378C19.0714 5.47644 19.2159 5.12728 19.2158 4.76312C19.2157 4.39897 19.0709 4.04964 18.8133 3.79199L17.2066 2.18522C16.9489 1.92764 16.5996 1.78287 16.2354 1.78275C15.8713 1.78263 15.5221 1.92717 15.2648 2.18459L12.7422 4.70652C12.7279 4.72089 12.7198 4.74036 12.7198 4.76067C12.7198 4.78097 12.7279 4.80045 12.7422 4.81482ZM10.4059 10.5959C11.0867 11.2761 11.3299 12.2837 11.0157 13.1799C10.8722 13.5903 10.6442 13.9395 10.3318 14.2274C9.53882 14.9595 8.31142 15.1388 7.36965 14.5694C7.34643 14.5555 7.32532 14.558 7.30632 14.577L3.02562 18.8577C2.9948 18.8885 3.00029 18.8978 3.04209 18.8856C7.49273 17.5573 10.5443 16.6463 12.1969 16.1527C12.7707 15.9813 13.1473 15.8354 13.3268 15.7151C13.7118 15.4563 13.9711 15.0818 14.1045 14.5916C14.5698 12.8816 15.0372 11.1608 15.5067 9.42928C15.5109 9.41366 15.5073 9.40015 15.4959 9.38875C14.8132 8.70644 14.1657 8.05917 13.5535 7.44695C12.9413 6.83515 12.294 6.18788 11.6117 5.50515C11.6003 5.49375 11.5868 5.49016 11.5712 5.49438C9.83965 5.96432 8.11889 6.43214 6.40889 6.89785C5.91869 7.03169 5.54439 7.29115 5.28599 7.67622C5.16566 7.85566 5.01978 8.23228 4.84836 8.80608C4.3552 10.4587 3.4451 13.5105 2.11806 17.9615C2.10581 18.0033 2.1151 18.0088 2.14593 17.978L6.42535 13.696C6.44435 13.677 6.44689 13.6559 6.43295 13.6327C5.86359 12.6909 6.04219 11.4635 6.77432 10.6706C7.06228 10.3582 7.41145 10.1302 7.82185 9.98661C8.71739 9.67185 9.72502 9.91505 10.4059 10.5959ZM9.90298 12.3743C9.90298 12.0351 9.76826 11.7099 9.52846 11.4701C9.28866 11.2303 8.96342 11.0956 8.62429 11.0956C8.28515 11.0956 7.95991 11.2303 7.72011 11.4701C7.48031 11.7099 7.34559 12.0351 7.34559 12.3743C7.34559 12.7134 7.48031 13.0387 7.72011 13.2785C7.95991 13.5183 8.28515 13.653 8.62429 13.653C8.96342 13.653 9.28866 13.5183 9.52846 13.2785C9.76826 13.0387 9.90298 12.7134 9.90298 12.3743Z" fill="white"/>
</svg>
