<svg width="36" height="40" viewBox="0 0 36 40" fill="none" xmlns="http://www.w3.org/2000/svg">
<path d="M30.6995 16.4889C31.5456 13.956 32.2843 11.4013 32.6403 8.74553C29.8478 10.0643 26.9021 11.2635 24.3482 13.0389C24.3446 9.84912 23.9171 6.51785 23.0843 3.46868C20.4318 5.70014 17.8412 8.35952 15.7992 11.1706C13.6285 9.87379 11.2586 8.73966 8.88253 7.89221C8.7053 10.6437 8.77204 13.4088 8.78743 16.1605C6.68577 17.2943 4.58138 18.7754 2.7758 20.3831C4.20652 21.384 5.79795 22.1417 7.28463 23.0524C6.02636 25.5473 5.03105 28.1768 3.9444 30.7505C6.37286 30.497 8.75924 29.9125 11.1145 29.2371C11.4699 31.9825 11.6635 34.7489 12.0069 37.4966" stroke="#5E7BE0" stroke-width="5" stroke-miterlimit="1.5" stroke-linecap="round" stroke-linejoin="round"/>
</svg>
