<svg width="192" height="192" viewBox="0 0 192 192" fill="none" xmlns="http://www.w3.org/2000/svg">
<circle cx="96" cy="96" r="95.5" stroke="#732727" stroke-dasharray="15 15"/>
<circle cx="96" cy="96" r="86" fill="#F5EFE4"/>
<path d="M91.2686 115.603C91.244 115.604 91.2197 115.609 91.197 115.619C91.1744 115.628 91.1539 115.642 91.1367 115.66C91.1195 115.678 91.106 115.699 91.0968 115.722C91.0877 115.744 91.0832 115.769 91.0835 115.793C91.0919 116.642 91.1002 118.687 91.1085 121.927C91.1119 123.129 91.0177 123.909 90.8259 124.266C90.349 125.158 89.5802 125.605 88.5196 125.606C87.7225 125.608 85.2887 125.607 81.2182 125.604C81.1837 125.604 81.1506 125.618 81.1262 125.643C81.1018 125.668 81.0881 125.701 81.0881 125.736C81.0881 129.093 81.0923 130.908 81.1006 131.179C81.1389 132.382 81.0864 133.276 80.943 133.861C80.5953 135.269 79.3246 135.659 78.0189 135.639C77.3919 135.629 71.0134 135.617 58.8835 135.602C57.0025 135.6 56.0628 134.651 56.0645 132.755C56.0695 127.704 56.0728 122.327 56.0745 116.624C56.0745 116.15 56.2696 115.718 56.6598 115.328C72.1916 99.7964 80.6095 91.3794 81.9135 90.077C81.9736 90.0169 81.9919 89.9461 81.9686 89.8644C80.9397 86.069 80.8346 82.0635 81.6534 77.8478C82.3855 74.0824 83.7829 70.7056 85.8457 67.7173C87.2781 65.6445 89.0891 63.6826 91.2786 61.8316C92.6177 60.6977 93.9868 59.7538 95.3859 59.0001C99.4097 56.8289 103.676 55.7099 108.185 55.6432C112.986 55.5715 117.538 56.6971 121.84 59.0201C123.206 59.7571 124.575 60.7035 125.948 61.8591C129.444 64.8032 132.301 68.4002 133.979 72.585C135.393 76.1152 136.086 79.7013 136.058 83.3433C136.038 85.8697 135.642 88.4419 134.87 91.06C133.856 94.4986 132.213 97.5827 129.942 100.313C128.8 101.683 127.528 102.971 126.125 104.175C123.452 106.469 120.44 108.145 117.09 109.202C113.888 110.211 110.66 110.667 107.405 110.568C106.233 110.533 105.049 110.398 103.855 110.163C103.782 110.148 103.718 110.168 103.663 110.223C101.795 112.089 100.188 113.697 98.8403 115.048C98.455 115.435 97.8697 115.626 97.0843 115.621C94.643 115.603 92.7044 115.597 91.2686 115.603ZM76.1104 123.002C76.2054 121.369 77.316 120.609 78.8294 120.609C81.0239 120.61 83.3635 120.614 85.8482 120.621C85.9099 120.621 85.969 120.597 86.0127 120.553C86.0563 120.509 86.0808 120.45 86.0808 120.388C86.0825 119.97 86.0841 117.911 86.0858 114.213C86.0875 112.987 86.1975 112.184 86.416 111.804C86.8746 111.007 87.7017 110.606 88.8973 110.603C89.0624 110.603 91.4454 110.604 96.0462 110.606C96.1761 110.606 96.3009 110.554 96.3939 110.463C98.6785 108.242 100.244 106.725 101.089 105.913C101.623 105.399 102.145 105.093 102.655 104.993C103.028 104.921 103.604 104.976 104.381 105.158C106.287 105.603 108.393 105.699 110.699 105.445C114.634 105.01 118.328 103.744 121.518 101.516C125.763 98.5508 128.631 94.5244 130.12 89.4366C130.762 87.2471 131.076 85.0959 131.063 82.9831C131.051 80.937 130.72 78.7967 130.07 76.5621C129.593 74.9196 128.955 73.3954 128.156 71.9896C125.593 67.4722 121.924 64.2513 117.15 62.3269C112.333 60.3842 107.413 60.114 102.392 61.5164C100.765 61.9717 99.2196 62.5954 97.7572 63.3875C93.9401 65.4552 90.9851 68.4102 88.8923 72.2523C87.0914 75.5541 86.1608 79.4537 86.1033 83.1582C86.0733 85.1576 86.3543 87.1679 86.9463 89.189C87.1764 89.9761 87.2756 90.5239 87.2439 90.8324C87.1722 91.5294 86.9454 92.0689 86.5636 92.4508C79.2029 99.8181 70.7608 108.259 61.2373 117.775C61.1298 117.884 61.0696 118.031 61.0697 118.185L61.0747 130.429C61.0747 130.478 61.0942 130.525 61.1289 130.56C61.1636 130.595 61.2107 130.614 61.2598 130.614L75.8252 130.624C75.9936 130.624 76.0779 130.54 76.0779 130.371C76.0712 125.942 76.082 123.486 76.1104 123.002Z" fill="#732727"/>
<path d="M113.599 81.8125C115.656 81.8125 117.323 80.1449 117.323 78.0879C117.323 76.0309 115.656 74.3634 113.599 74.3634C111.542 74.3634 109.874 76.0309 109.874 78.0879C109.874 80.1449 111.542 81.8125 113.599 81.8125Z" fill="#732727"/>
</svg>
