<svg width="192" height="192" viewBox="0 0 192 192" fill="none" xmlns="http://www.w3.org/2000/svg">
<circle cx="96" cy="96" r="95.5" stroke="#732727" stroke-dasharray="15 15"/>
<circle cx="96" cy="96" r="86" fill="#F5EFE4"/>
<path d="M111.101 61.6735C110.427 61.6773 109.823 61.6211 109.29 61.505C108.454 61.326 107.905 60.7917 107.644 59.9024C107.17 58.2874 107.666 57.0952 109.133 56.3258C109.462 56.1544 110.172 56.062 111.261 56.0487C115.754 55.9954 120.589 55.9858 125.767 56.0201C126.451 56.0258 127.451 56.0811 128.767 56.1858C129.904 56.2753 130.883 56.4581 131.703 56.7343C132.915 57.1438 134.161 57.7151 135.443 58.4483C135.82 58.6635 136.159 58.9063 136.46 59.1768C136.857 59.5339 137.28 59.8167 137.717 60.2966C139.574 62.3401 140.783 64.6921 141.345 67.3526C141.569 68.4134 141.683 70.3074 141.685 73.0346C141.69 88.396 141.691 103.758 141.688 119.122C141.688 121.203 141.629 122.662 141.513 123.498C141.317 124.923 140.914 126.336 140.305 127.737C139.81 128.878 139.081 130.008 138.119 131.125C137.75 131.554 137.322 131.968 136.834 132.368C136.051 133.011 135.608 133.425 134.929 133.796C133.369 134.652 131.707 135.272 129.944 135.659C128.843 135.899 127.095 136.012 124.699 135.999C122.75 135.988 117.985 135.985 110.401 135.99C109.194 135.99 108.327 135.479 107.801 134.456C107.352 133.582 107.334 132.71 107.747 131.84C108.077 131.146 108.625 130.677 109.393 130.431C109.785 130.306 110.466 130.243 111.435 130.243C116.282 130.239 121.327 130.237 126.57 130.237C127.528 130.237 128.215 130.178 128.632 130.06C129.002 129.955 129.453 129.846 129.986 129.731C130.39 129.644 130.816 129.479 131.263 129.237C133.431 128.068 134.862 126.344 135.557 124.067C135.847 123.12 135.992 121.556 135.994 119.373C136.006 105.029 136.007 88.655 135.997 70.2522C135.997 68.8086 135.471 67.2279 134.42 65.5101C132.569 62.4877 129.541 61.7335 126.187 61.7364C116.878 61.744 111.948 61.7287 111.398 61.6907C111.217 61.6792 111.118 61.6735 111.101 61.6735Z" fill="#732727"/>
<path d="M102.886 98.8819C102.583 98.7772 102.232 98.7248 101.834 98.7248C79.2454 98.7267 62.8937 98.7267 52.7791 98.7248C52.025 98.7248 51.4479 98.4572 51.048 97.922C50.231 96.8308 50.0919 95.7452 50.6309 94.6654C50.888 94.1474 51.2975 93.7684 51.8593 93.5285C52.5392 93.2352 53.1048 93.0885 53.5562 93.0885C72.7665 93.0771 89.0258 93.078 102.334 93.0914C102.551 93.0914 102.721 93.0228 102.843 92.8857C102.87 92.8546 102.884 92.8146 102.883 92.7738C102.882 92.733 102.866 92.6944 102.837 92.6657C98.3539 88.1236 92.5919 82.3017 85.5511 75.1999C84.9931 74.6362 84.6874 73.9753 84.6341 73.2174C84.5865 72.5413 84.7979 71.949 85.2683 71.4405C85.8796 70.7797 86.5757 70.4235 87.3565 70.3721C87.7508 70.3454 88.2402 70.4883 88.8249 70.8006C89.1239 70.9587 89.4857 71.2501 89.9104 71.6748C97.1131 78.8717 104.246 86.0039 111.31 93.0714C112.203 93.9665 112.738 94.6768 112.915 95.2025C113.26 96.2195 112.985 97.1765 112.09 98.0735C101.514 108.649 94.106 116.058 89.8647 120.301C89.3905 120.776 89.002 121.001 88.6049 121.293C87.7765 121.901 86.4938 121.653 85.8139 121.056C84.6789 120.056 84.3361 119.01 84.7855 117.919C84.9855 117.437 85.5921 116.685 86.6052 115.662C92.5338 109.674 97.8444 104.301 102.537 99.5418C102.604 99.4732 102.647 99.3923 102.666 99.299C102.69 99.1771 102.766 99.0876 102.894 99.0304C103.014 98.9733 103.011 98.9238 102.886 98.8819Z" fill="#732727"/>
</svg>
