<svg width="192" height="192" viewBox="0 0 192 192" fill="none" xmlns="http://www.w3.org/2000/svg">
<circle cx="96" cy="96" r="95.5" stroke="#732727" stroke-dasharray="15 15"/>
<circle cx="96" cy="96" r="86" fill="#F5EFE4"/>
<path d="M66.141 63.2339C68.2311 63.2339 69.9255 61.5396 69.9255 59.4494C69.9255 57.3593 68.2311 55.6649 66.141 55.6649C64.0508 55.6649 62.3564 57.3593 62.3564 59.4494C62.3564 61.5396 64.0508 63.2339 66.141 63.2339Z" fill="#732727"/>
<path d="M87.2035 77.5282C85.8581 78.7346 84.6424 78.821 83.5563 77.7874C82.6031 76.8775 82.3439 75.6372 83.1775 74.5748C83.4487 74.2291 84.068 73.5217 85.0355 72.4525C87.6204 69.6008 89.2495 66.3094 89.7757 62.4486C89.8231 62.0928 90.0053 60.5356 90.3221 57.777C90.4153 56.962 90.8965 56.3393 91.7658 55.9089C93.5704 55.0168 95.4613 56.4681 95.3393 58.4429C95.2733 59.4867 95.125 60.9041 94.8946 62.6951C94.698 64.2303 94.4125 65.6265 94.038 66.8838C92.8163 70.9911 90.5382 74.5392 87.2035 77.5282Z" fill="#732727"/>
<path d="M109.552 80.1003C111.921 79.5158 114 77.3528 114.221 74.8315C114.23 74.7349 114.357 73.0278 114.602 69.7101C114.818 66.8109 115.981 64.2938 118.092 62.1588C119.932 60.2984 122.226 59.3037 124.975 59.1749C126.368 59.1106 127.189 59.0513 127.438 58.997C129.227 58.6132 130.648 57.3119 131.908 56.2749C132.745 55.5887 133.873 55.3803 134.791 56.0462C136.044 56.9535 136.532 58.6031 135.357 59.7926C133.05 62.1283 130.727 63.783 127.415 64.0193C126.622 64.0752 125.382 64.0168 124.533 64.2227C121.945 64.8581 119.894 66.9651 119.703 69.6847C119.493 72.7092 119.354 74.579 119.287 75.2941C119.061 77.6578 118.109 79.7564 116.43 81.5897C114.246 83.9772 111.563 85.2209 108.383 85.3209C107.139 85.3599 106.392 85.4149 106.141 85.4861C105.211 85.7538 104.517 86.0707 104.06 86.4367C102.841 87.4144 102.07 88.0201 101.744 88.2539C100.285 89.3036 98.5315 88.2845 98.041 86.7874C97.7546 85.9182 97.9681 85.1311 98.6815 84.4262C99.871 83.2494 101.137 82.1337 102.631 81.4017C104.104 80.6798 105.685 80.2986 107.376 80.2579C108.508 80.2308 109.234 80.1783 109.552 80.1003Z" fill="#732727"/>
<path d="M132.224 83.5671C134.314 83.5671 136.008 81.8728 136.008 79.7826C136.008 77.6925 134.314 75.9981 132.224 75.9981C130.134 75.9981 128.439 77.6925 128.439 79.7826C128.439 81.8728 130.134 83.5671 132.224 83.5671Z" fill="#732727"/>
<path d="M103.506 120.162L63.025 135.313C62.0973 135.66 61.0893 135.733 60.1213 135.523C59.1532 135.313 58.2661 134.828 57.5657 134.128C56.8652 133.428 56.3811 132.54 56.1711 131.572C55.9611 130.604 56.034 129.596 56.3811 128.669L71.5319 88.1879C71.8349 87.3788 72.336 86.6588 72.9895 86.0937C73.6429 85.5286 74.4277 85.1365 75.2719 84.9534C76.1162 84.7703 76.9929 84.802 77.8217 85.0456C78.6506 85.2892 79.405 85.7369 80.0159 86.3477L105.346 111.678C105.957 112.289 106.405 113.043 106.648 113.872C106.892 114.701 106.923 115.578 106.74 116.422C106.557 117.266 106.165 118.051 105.6 118.704C105.035 119.358 104.315 119.859 103.506 120.162ZM93.2656 118.502C93.2776 118.514 93.2929 118.522 93.3096 118.526C93.3263 118.53 93.3436 118.528 93.3596 118.522L101.592 115.414C101.606 115.409 101.618 115.4 101.628 115.389C101.637 115.378 101.644 115.365 101.648 115.35C101.651 115.336 101.65 115.321 101.647 115.307C101.643 115.293 101.635 115.28 101.625 115.269L76.4043 90.0484C76.3936 90.0382 76.3806 90.0308 76.3664 90.0268C76.3522 90.0229 76.3373 90.0226 76.3229 90.0258C76.3085 90.0291 76.2952 90.0359 76.2841 90.0456C76.273 90.0553 76.2645 90.0676 76.2594 90.0814L73.1509 98.3138C73.145 98.3298 73.1437 98.3471 73.1473 98.3638C73.1509 98.3805 73.1592 98.3958 73.1713 98.4078L93.2656 118.502ZM78.3359 124.063C78.3468 124.075 78.3608 124.083 78.3761 124.086C78.3914 124.09 78.4075 124.089 78.4223 124.084L87.9459 120.492C87.9583 120.487 87.9692 120.479 87.9778 120.469C87.9864 120.459 87.9923 120.447 87.9951 120.434C87.9979 120.421 87.9974 120.407 87.9937 120.394C87.99 120.381 87.9831 120.37 87.9738 120.36L71.3133 103.7C71.3038 103.69 71.292 103.683 71.2792 103.68C71.2664 103.676 71.2529 103.676 71.2398 103.678C71.2267 103.681 71.2146 103.687 71.2043 103.696C71.1941 103.704 71.1861 103.715 71.1812 103.728L67.5898 113.251C67.5845 113.266 67.5835 113.282 67.5872 113.297C67.5908 113.313 67.5988 113.327 67.6101 113.337L78.3359 124.063ZM73.0188 126.051C73.0311 126.046 73.0421 126.039 73.0508 126.029C73.0594 126.019 73.0654 126.007 73.0682 125.994C73.0709 125.981 73.0704 125.967 73.0667 125.955C73.063 125.942 73.0561 125.93 73.0467 125.921L65.7522 118.474C65.7431 118.465 65.7317 118.458 65.7192 118.454C65.7067 118.45 65.6934 118.449 65.6805 118.452C65.6676 118.454 65.6556 118.46 65.6455 118.468C65.6354 118.477 65.6275 118.487 65.6226 118.5L61.1188 130.453C61.1141 130.467 61.1134 130.482 61.1169 130.497C61.1204 130.511 61.1278 130.524 61.1385 130.534C61.1491 130.545 61.1624 130.552 61.1769 130.555C61.1914 130.558 61.2065 130.557 61.2204 130.552L73.0188 126.051Z" fill="#732727"/>
<path d="M119.978 105.977C119.502 106.368 118.936 106.891 118.281 107.545C117.479 108.347 116.875 108.799 116.468 108.902C115.18 109.235 113.998 108.628 113.464 107.433C113.019 106.437 113.278 105.413 114.242 104.36C117.285 101.041 120.784 98.8043 124.739 97.6504C127.441 96.8651 129.916 96.6389 132.992 96.339C135.157 96.1255 136.723 98.0088 135.709 100.05C135.221 101.033 134.321 101.323 133.172 101.458C132.738 101.509 131.597 101.639 129.749 101.849C126.085 102.264 122.829 103.64 119.978 105.977Z" fill="#732727"/>
<path d="M132.224 129.317C134.314 129.317 136.008 127.622 136.008 125.532C136.008 123.442 134.314 121.748 132.224 121.748C130.134 121.748 128.439 123.442 128.439 125.532C128.439 127.622 130.134 129.317 132.224 129.317Z" fill="#732727"/>
</svg>
