<svg width="28" height="24" viewBox="0 0 28 24" fill="none" xmlns="http://www.w3.org/2000/svg">
<path d="M19.559 1.70455C22.7188 4.72939 24.7357 6.6623 25.6097 7.5033C26.0139 7.89268 26.4038 8.39853 26.7794 9.02085C27.0808 9.52043 27.304 10.0437 27.449 10.5907C27.8566 12.1225 27.7676 13.6044 27.1819 15.0363C26.9364 15.6358 26.6019 16.197 26.1783 16.72C25.959 16.9906 25.5634 17.4011 24.9914 17.9515C23.0693 19.8002 21.0504 21.738 18.9347 23.7648C18.792 23.9012 18.6107 23.9786 18.391 23.9969C17.7367 24.0508 17.2666 23.3349 17.5612 22.7542C17.6154 22.6469 17.7336 22.5062 17.9157 22.332C22.1368 18.2789 24.2724 16.2281 24.3226 16.1796C25.0145 15.509 25.5866 14.6415 25.8178 13.7183C26.1009 12.5912 26.0276 11.5204 25.5977 10.5059C25.3762 9.98174 25.0805 9.50729 24.7105 9.08252C24.6095 8.96604 24.2282 8.59065 23.5665 7.95634C19.7959 4.34343 17.5737 2.21269 16.9001 1.5641C16.6098 1.28406 16.4702 0.950056 16.6158 0.575806C16.7922 0.123622 17.2649 -0.117886 17.723 0.0568216C17.8401 0.101355 18.0222 0.240379 18.2694 0.473893C18.4863 0.67886 18.9162 1.08908 19.559 1.70455Z" fill="#732727"/>
<path d="M18.7112 18.4232C16.6001 20.5345 15.3967 21.7361 15.1009 22.0278C14.7995 22.3247 14.4068 22.5682 13.9227 22.7583C12.6896 23.2422 11.1919 22.8928 10.2765 21.9773C5.82707 17.5291 2.76975 14.472 1.10451 12.806C0.56503 12.2665 0.296147 11.6281 0.29786 10.8911C0.300143 10.0598 0.300714 7.33268 0.299572 2.70979C0.299572 2.01182 0.552185 1.2616 1.05056 0.762315C1.54979 0.263885 2.29992 0.0103878 2.99781 0.0112442C7.62019 0.0118152 10.347 0.0109589 11.1782 0.00867512C11.9152 0.0069623 12.5534 0.275875 13.0929 0.815412C14.7587 2.48084 17.8157 5.53851 22.264 9.98841C23.1794 10.9039 23.5288 12.4018 23.045 13.635C22.8549 14.1192 22.6114 14.5117 22.3145 14.8126C22.0228 15.1089 20.8217 16.3124 18.7112 18.4232ZM2.2571 1.96643C2.09498 2.12914 2.01363 2.36237 2.01305 2.66611C2.01077 5.33354 2.01049 8.00068 2.0122 10.6675C2.0122 10.9973 1.99935 11.2362 2.19545 11.4323C5.20168 14.4571 8.20762 17.482 11.2133 20.5068C11.4542 20.7489 11.6346 20.9088 11.7545 20.9864C12.3162 21.3495 13.0972 21.3427 13.6435 21.0087C13.7691 20.9316 14.056 20.669 14.5041 20.2208C15.5043 19.2205 16.5044 18.2202 17.5046 17.2199C18.5054 16.2196 19.5058 15.2194 20.506 14.2191C20.9547 13.7709 21.2176 13.484 21.2947 13.3584C21.6286 12.8128 21.6355 12.0318 21.2724 11.4691C21.1948 11.3492 21.0349 11.1688 20.7929 10.9279C17.7689 7.92132 14.7453 4.91447 11.7219 1.90733C11.5258 1.71122 11.2869 1.72406 10.9572 1.72406C8.29069 1.72178 5.62384 1.72149 2.95671 1.72321C2.65301 1.72321 2.4198 1.80428 2.2571 1.96643Z" fill="#732727"/>
<path d="M5.86587 6.85336C6.57006 6.85336 7.14092 6.28244 7.14092 5.57817C7.14092 4.8739 6.57006 4.30298 5.86587 4.30298C5.16168 4.30298 4.59082 4.8739 4.59082 5.57817C4.59082 6.28244 5.16168 6.85336 5.86587 6.85336Z" fill="#732727"/>
</svg>
