<svg width="711" height="442" viewBox="0 0 711 442" fill="none" xmlns="http://www.w3.org/2000/svg">
<path d="M65.9838 216.414C77.0303 210.017 85.9976 205.335 93.3369 201.507C90.0402 195.265 85.2327 191.606 80.3072 190.051C77.3993 189.134 74.471 188.941 71.8177 189.376C69.2938 189.791 67.0362 190.768 65.3257 192.217C63.2843 193.947 62.0233 196.44 62.1012 199.515C62.2119 203.879 63.6372 209.682 65.9838 216.414ZM207.66 55.4643C207.714 55.3639 207.771 55.2647 207.832 55.1668C208.258 54.4927 208.825 53.5178 209.445 52.4502C213.014 46.3124 218.097 37.5715 225.334 37.1497C237.28 36.4532 242.448 41.5506 243.919 49.3842C245.112 55.7415 243.23 63.7181 240.839 71.355C239.796 74.6876 237.767 77.9993 235.411 81.1024C233.415 83.7334 231.298 86.0992 229.383 88.1777C228.686 90.1694 227.813 92.0588 226.799 93.8646C246.139 88.7884 263.384 79.7827 281.35 70.4001C291.628 65.0323 302.135 59.5451 313.18 54.6518C313.338 54.582 313.498 54.5217 313.66 54.4702C321.97 51.3972 328.969 53.0989 333.413 56.8794C335.247 58.4389 336.646 60.3526 337.539 62.4511C338.447 64.5851 338.829 66.9157 338.615 69.271C338.246 73.3161 336.145 77.3354 331.942 80.3497C332.396 81.7234 332.666 83.1221 332.741 84.5253C341.88 79.7774 348.793 76.2061 351.114 75.0506C353.947 73.6403 356.648 73.061 359.4 73.4973C362.176 73.9372 364.675 75.3699 367.03 77.9757C367.785 78.8113 368.428 79.695 368.938 80.6051C370.38 83.1804 371.042 86.2099 370.571 89.3091C370.112 92.3321 368.591 95.3589 365.682 97.9903C364.565 99.0005 363.285 99.9285 361.83 100.744L360.621 101.422C361.412 102.024 362.185 102.74 362.942 103.578C363.698 104.414 364.34 105.297 364.85 106.208C366.293 108.783 366.954 111.813 366.484 114.912C366.024 117.935 364.504 120.961 361.594 123.593C360.477 124.603 359.197 125.531 357.742 126.346C350.939 130.159 344.371 133.946 337.797 137.754C339.795 138.462 341.654 139.76 343.432 141.726C344.187 142.562 344.829 143.446 345.339 144.356C346.782 146.931 347.443 149.96 346.973 153.06C346.514 156.083 344.993 159.11 342.083 161.741C340.966 162.751 339.686 163.679 338.232 164.494C330.139 169.03 322.379 173.529 314.547 178.07C295.186 189.295 275.39 200.772 255.127 210.38C245.581 214.906 235.947 219.01 226.231 222.468C216.451 225.949 206.589 228.777 196.652 230.727C189.829 232.065 183.931 233.619 178.624 235.435C181.597 250.479 180.285 267.308 175.825 278.894C173.882 283.943 171.304 288.132 168.164 290.973C164.495 294.293 160.174 295.838 155.286 294.993C152.832 294.569 150.295 293.517 147.702 291.746C148.173 301.029 147.451 309.998 145.593 317.107C144.171 322.553 142.058 327.099 139.266 330.177C139.112 330.346 138.957 330.511 138.8 330.672C138.446 331.236 137.969 331.735 137.376 332.125L8.1755 417.024C5.9694 418.475 3.00534 417.862 1.55529 415.655C0.105249 413.448 0.718227 410.483 2.92432 409.033L80.6702 357.945C72.1586 350.199 61.1458 333.203 50.6155 313.854C36.8418 288.546 23.5061 258.845 17.8619 241.127C14.7224 243.597 11.5653 245.959 8.39995 248.21C6.24559 249.743 3.25632 249.239 1.72345 247.084C0.190588 244.929 0.694341 241.939 2.8487 240.406C12.1714 233.776 21.4258 226.145 30.3576 217.559C38.7231 209.518 46.79 200.659 54.3485 191.022C55.4918 188.656 57.1299 186.602 59.1369 184.901C62.1724 182.328 66.0455 180.617 70.28 179.922C74.385 179.248 78.8441 179.524 83.1953 180.897C85.9693 181.772 88.7077 183.09 91.2887 184.887C90.4285 181.674 89.6654 178.568 89.0189 175.602C87.8248 170.121 87.0285 165.081 86.7466 160.663C76.1734 169.759 65.1296 177.515 54.2364 183.984C37.0026 194.218 20.1392 201.222 6.1108 205.22C3.56286 205.945 0.90931 204.467 0.184347 201.918C-0.540616 199.369 0.937156 196.715 3.48509 195.99C16.8242 192.189 32.8923 185.509 49.3602 175.729C63.025 167.614 76.962 157.356 89.8372 144.826C91.2794 142.663 93.1591 140.868 95.3502 139.466H95.369C98.7208 137.32 102.784 136.14 107.067 136.015C111.207 135.895 115.583 136.764 119.721 138.709C123.474 140.473 127.035 143.111 130.042 146.683C136.211 123.221 147.887 115.537 167.799 102.437C168.375 102.058 168.972 101.666 172.642 99.2291C183.624 91.937 191.714 78.9692 199.386 66.671C199.586 66.3512 199.773 66.0504 201.507 63.2903C203.672 59.844 205.348 57.5593 207.046 55.9999C207.251 55.8113 207.456 55.633 207.66 55.4643ZM232.766 64.8879C234.226 59.6894 235.172 54.706 234.504 51.1477C233.959 48.2453 231.59 46.3831 225.859 46.7171C224.412 46.8014 222.235 49.8223 220.203 53.1007C227.864 54.185 231.519 58.6423 232.766 64.8879ZM217.659 105.681C217.607 105.69 217.556 105.697 217.505 105.705C214.666 108.569 211.616 111.289 208.586 113.991L207.95 114.558C232.511 109.679 255.644 98.4299 279.136 87.0041C288.319 82.5381 297.556 78.0457 306.814 73.9437C306.961 73.879 307.11 73.8225 307.259 73.7735L307.498 73.6829L307.495 73.6767C313.22 71.4971 320.819 68.6054 326.491 72.4716C328.143 71.2344 328.961 69.7932 329.087 68.408C329.155 67.6663 329.026 66.9121 328.724 66.203C328.408 65.4585 327.899 64.7692 327.225 64.1956C325.16 62.4392 321.602 61.7619 317.003 63.4493C305.895 68.3727 295.725 73.6839 285.776 78.8795C263.816 90.3483 242.898 101.273 217.659 105.681ZM579.049 266.182C579.654 265.771 580.321 265.518 580.999 265.414C583.925 259.158 587.528 253.298 591.704 248.417C581.542 237.734 572.978 229.526 561.555 222.303C556.335 233.591 554.356 246.636 555.818 256.764C556.436 261.051 557.661 264.697 559.503 267.278C561.017 269.398 563.004 270.76 565.465 271.043C568.887 271.436 573.381 270.021 579.049 266.182ZM575.954 278.699C571.686 280.411 567.824 280.968 564.378 280.573C559.003 279.956 554.79 277.158 551.701 272.83C548.941 268.963 547.159 263.874 546.328 258.115C544.596 246.112 546.978 230.66 553.238 217.496C547.554 214.492 541.126 211.612 533.574 208.731C522.799 204.621 512.292 199.668 502.013 194.095C491.815 188.566 481.822 182.406 472 175.841C451.09 161.865 431.259 146.262 411.866 131.004C403.712 124.588 395.634 118.232 388.03 112.417C385.719 110.649 384.022 108.774 382.848 106.873C381.227 104.25 380.603 101.605 380.747 99.1019C380.896 96.5167 381.845 94.1657 383.353 92.1917C384.42 90.7962 385.78 89.5878 387.336 88.6257C389.679 87.1767 391.935 86.3721 394.185 86.1501C387.431 80.8395 380.774 75.6257 374.447 70.7868C372.136 69.0195 370.44 67.144 369.265 65.2432C367.644 62.6197 367.02 59.9752 367.164 57.4719C367.313 54.8866 368.262 52.5358 369.771 50.5618C370.837 49.1663 372.197 47.9578 373.753 46.9957C374.675 46.4257 375.583 45.9555 376.483 45.5812L375.555 44.8709C373.244 43.1035 371.548 41.2282 370.373 39.3274C368.752 36.7038 368.128 34.0592 368.272 31.5558C368.421 28.9705 369.37 26.6198 370.879 24.6458C371.945 23.2503 373.305 22.0419 374.861 21.0798C377.933 19.1805 380.854 18.3881 383.809 18.5642C386.709 18.737 389.408 19.8315 392.122 21.716C394.872 23.6252 402.395 29.0042 412.11 35.9848C412.455 34.5421 413.038 33.1476 413.839 31.8194C414.199 31.2228 414.626 30.6172 415.117 30.0059C415.336 29.7338 415.557 29.4757 415.779 29.2262L415.648 29.1285C410.647 25.3757 407.893 21.635 406.704 18.1053C405.314 13.9773 405.985 10.2625 407.803 7.10961C408.123 6.55565 408.468 6.0347 408.833 5.54713C412.685 0.410825 417.422 -0.591196 422.175 0.280323C426.089 0.998165 429.613 3.02323 432.485 4.75858L432.477 4.77203C432.53 4.80408 432.583 4.83686 432.635 4.87119L512.425 57.3589C512.775 57.5615 513.105 57.8117 513.405 58.1103C513.896 58.5991 514.32 58.9612 514.685 59.2156L514.86 59.3373C514.752 58.9526 514.528 58.5559 514.242 58.2066C514.048 57.9702 512.983 56.699 511.966 55.485C506.166 48.5611 501.815 43.3674 500.858 33.5804C500.149 26.3253 499.996 18.8522 502.452 13.3559C505.455 6.63609 511.358 3.04448 522.421 5.88211C524.986 6.53992 526.878 7.70426 528.629 10.0193C529.933 11.7429 531.065 14.1101 532.424 17.6099C532.773 18.5091 532.897 18.848 533.713 20.9687C535.001 24.3198 536.309 27.7209 537.735 31.1119C541.46 29.5795 546.409 29.3928 552.939 31.0314C555.74 31.7342 557.836 32.9539 559.83 35.3613C561.396 37.2513 562.786 39.8639 564.478 43.7343C564.852 44.5895 565.119 45.2217 566.109 47.5073C572.056 61.2373 578.328 75.7147 589.229 85.3653C590.565 86.5485 592.316 88.0852 594.007 89.5706C613.949 107.079 625.516 117.239 626.971 142.457C631.476 139.087 636.526 137.018 641.589 136.058C646.869 135.058 652.191 135.28 656.935 136.498C661.868 137.766 666.22 140.124 669.346 143.335C670.839 144.868 672.057 146.581 672.939 148.451C678.265 155.188 685.81 162.119 694.122 168.874C702.622 175.782 712.19 182.677 720.996 188.986C723.15 190.529 723.645 193.528 722.102 195.683C720.559 197.838 717.561 198.333 715.407 196.79C706.649 190.515 697.104 183.634 688.083 176.303C682.809 172.017 677.804 167.635 673.386 163.224C672.109 167.953 669.868 173.327 666.917 179.128C665.447 182.018 663.79 185.036 661.982 188.151C666.09 186.47 670.334 185.607 674.458 185.434C679.748 185.212 684.862 186.141 689.251 187.943C693.844 189.828 697.696 192.696 700.231 196.251C701.393 197.882 702.281 199.641 702.844 201.503C705.398 205.913 707.457 209.028 709.708 211.58C711.996 214.173 714.603 216.302 718.298 218.787C720.494 220.258 721.082 223.232 719.611 225.428C718.14 227.624 715.168 228.212 712.972 226.741C708.591 223.795 705.436 221.197 702.544 217.92C702.031 217.338 701.529 216.739 701.035 216.116C695.94 227.572 683.817 242.764 669.638 258.299C653.507 275.971 634.576 294.306 620.612 307.809C611.049 317.056 603.004 322.307 596.385 324.501L718.093 433.653C720.061 435.414 720.229 438.438 718.468 440.406C716.707 442.375 713.685 442.543 711.717 440.782L578.391 321.21C577.871 320.745 577.477 320.192 577.211 319.594C576.771 319 576.361 318.368 575.979 317.7C573.765 313.828 572.612 308.712 572.41 302.912C572.159 295.709 573.419 287.208 575.954 278.699ZM561.568 211.084C561.728 211.153 561.885 211.231 562.039 211.319C562.204 211.412 562.36 211.514 562.509 211.623C577.98 220.57 588.199 230.729 601.522 244.893C601.573 244.941 601.624 244.99 601.674 245.041C601.775 245.143 601.869 245.249 601.959 245.358C603.308 246.793 604.689 248.27 606.111 249.79C611.39 255.432 617.264 261.711 624.694 269.274C626.548 271.16 626.523 274.192 624.638 276.046C622.753 277.901 619.722 277.876 617.868 275.99C610.97 268.969 604.736 262.306 599.135 256.318L598.304 255.43C593.09 261.73 588.934 269.791 586.116 278.057C586.198 278.535 586.164 279.04 585.995 279.531C585.118 282.069 585.194 284.486 585.785 286.477C586.445 288.701 587.64 290.277 588.74 290.731C595.938 293.698 608.226 289.358 621.463 281.835C638.903 271.924 657.585 256.556 669.052 244.578C672.763 240.339 676.231 236.202 679.335 232.254C667.603 222.985 658.206 216.211 650.581 210.715C623.995 191.551 617.366 186.77 617.421 157.404C616.801 156.102 616.78 154.543 617.471 153.181C617.484 152.5 617.5 151.811 617.519 151.105C618.271 123.609 607.63 114.267 587.706 96.7742C586.305 95.5442 584.856 94.2723 582.89 92.5314C570.406 81.4802 563.696 65.9885 557.332 51.2967C557.232 51.0652 557.161 50.9023 555.701 47.5613C554.384 44.5501 553.392 42.6254 552.441 41.4769C551.918 40.8454 551.361 40.5238 550.613 40.3361C545.137 38.9619 541.867 39.4532 540.04 41.0776C539.778 41.5425 539.436 41.9662 539.024 42.3261C538.937 42.4749 538.857 42.6285 538.782 42.7869C536.934 46.7321 537.313 53.3801 538.146 60.0405C539.256 68.9233 546.653 77.5894 553.903 86.0826C555.433 87.8748 556.958 89.6604 558.032 90.9587C559.806 93.1033 560.69 95.0359 560.906 96.7372C561.198 99.044 560.466 100.869 558.967 102.261C557.845 103.303 556.404 103.906 554.774 104.136C552.405 104.471 549.207 103.952 546.344 102.92C516.794 92.2651 491.495 75.0156 465.784 57.4855C456.574 51.2062 447.31 44.89 437.582 38.7165L437.529 38.6819L437.31 38.5578C432.584 35.873 425.791 32.0137 422.581 36.0089C422.401 36.2334 422.225 36.4882 422.053 36.7719C421.391 37.8699 421.173 39.0764 421.5 40.2943C421.929 41.8914 423.195 43.6461 425.458 45.4645C426.272 46.1195 427.24 46.7892 428.368 47.4701C428.884 47.7814 429.321 48.175 429.671 48.6235L432.498 50.6613C458.943 69.7256 488.347 91.0112 489.036 91.5872C491.066 93.2863 491.335 96.31 489.636 98.3406C487.938 100.371 484.915 100.64 482.885 98.9409C482.225 98.3894 453.114 77.3188 426.91 58.4278C408.388 45.0752 391.293 32.7961 386.683 29.5951C385.397 28.7022 384.267 28.1923 383.246 28.1316C382.28 28.074 381.187 28.4178 379.887 29.2214C379.334 29.5632 378.858 29.9836 378.493 30.4612C378.109 30.9641 377.869 31.5185 377.837 32.0812C377.8 32.7258 378.002 33.4731 378.512 34.2997C379.085 35.226 380.013 36.2175 381.369 37.2545C387.202 41.7152 394.516 47.3833 402.314 53.4263C425.868 71.6797 453.98 93.4652 474.909 107.757C477.094 109.249 477.657 112.231 476.165 114.417C474.674 116.603 471.693 117.165 469.508 115.674C460.642 109.619 450.492 102.226 439.941 94.3231C439.779 94.2182 439.622 94.1024 439.471 93.9755C438.888 93.4889 425.978 84.2202 412.65 74.7069C401.64 66.8468 390.416 58.8721 385.575 55.5111C384.289 54.6183 383.16 54.1084 382.138 54.0475C381.172 53.9899 380.079 54.3337 378.779 55.1373C378.226 55.4792 377.75 55.8997 377.385 56.3773C377 56.8801 376.761 57.4345 376.729 57.9972C376.692 58.6418 376.893 59.389 377.404 60.2156C377.977 61.1419 378.905 62.1333 380.261 63.1704C388.475 69.4518 396.305 75.6131 404.21 81.8324C422.267 96.0398 440.705 110.547 459.722 123.533C460.5 124.065 461.148 124.754 461.65 125.557C462.42 126.787 462.78 128.201 462.687 129.648C462.604 130.94 462.171 132.252 461.355 133.448C460.73 134.363 459.878 135.214 458.788 135.919C458.508 136.106 458.212 136.261 457.905 136.383L457.901 136.384L457.863 136.399C457.216 136.651 456.536 136.753 455.869 136.716L455.862 136.716L455.794 136.711L455.726 136.706L455.715 136.705C455.053 136.648 454.399 136.454 453.797 136.118L453.758 136.096L453.752 136.093L453.748 136.09C453.492 135.944 453.248 135.773 453.019 135.578C452.09 134.845 439.375 125.718 426.25 116.349C415.234 108.485 404.001 100.504 399.158 97.1412C397.872 96.2481 396.742 95.7384 395.721 95.6775C394.754 95.6199 393.662 95.9637 392.362 96.7673C391.809 97.1092 391.333 97.5297 390.968 98.0072C390.583 98.51 390.344 99.0645 390.312 99.6273C390.275 100.272 390.476 101.019 390.987 101.846C391.559 102.772 392.488 103.763 393.844 104.8C402.057 111.082 409.888 117.243 417.793 123.462C437.137 138.683 456.918 154.246 477.327 167.887C486.848 174.252 496.573 180.244 506.552 185.654C516.45 191.02 526.581 195.794 536.987 199.764C546.708 203.472 554.662 207.166 561.568 211.084ZM646.134 195.606C650.888 188.261 655.1 181.192 658.365 174.776C662.067 167.5 664.476 161.245 664.938 156.674C665.199 154.091 664.236 151.815 662.482 150.013C660.584 148.063 657.807 146.597 654.572 145.766C651.148 144.886 647.26 144.735 643.352 145.476C637.322 146.619 631.31 149.929 627.004 156.028C626.887 177.678 630.897 184.062 646.134 195.606ZM530.373 38.2122C528.376 33.7181 526.563 29.0059 524.786 24.3829L523.497 21.0616C522.476 18.4323 521.708 16.7638 520.978 15.7973C520.694 15.4225 520.416 15.2411 520.058 15.1493C514.786 13.7972 512.236 14.9197 511.191 17.2578C509.6 20.819 509.806 26.7485 510.386 32.68C511.049 39.4606 514.593 43.6916 519.318 49.3319C519.781 49.8852 520.25 50.4444 521.631 52.1284C523.045 53.8532 524.104 56.0804 524.407 58.3735C524.711 60.6816 524.29 63.0571 522.815 65.1727C522.484 65.6471 522.102 66.1196 521.675 66.5493C520.38 67.8491 518.59 68.9476 516.237 69.1725C514.154 69.3716 511.779 68.8515 509.208 67.057C508.479 66.5481 507.738 65.9433 506.99 65.2294L427.54 12.9653L427.534 12.9753C425.338 11.6484 422.691 10.1087 420.449 9.69763C419.046 9.44046 417.642 9.74481 416.485 11.2875C416.332 11.4912 416.2 11.6879 416.092 11.8746C415.568 12.7846 415.376 13.862 415.781 15.0664C416.388 16.869 418.091 19.0018 421.387 21.4746C422.648 22.4208 424.108 23.3866 425.786 24.3682C431.539 24.2654 437.403 27.596 442.036 30.2285L442.249 30.3495C442.409 30.4274 442.566 30.5149 442.72 30.6124C452.269 36.672 461.755 43.1394 471.185 49.569C495.735 66.3074 519.903 82.7846 547.273 93.0688L546.627 92.3109C538.439 82.7191 530.084 72.9318 528.618 61.2037C527.609 53.1295 527.268 44.8193 530.118 38.7349C530.201 38.5584 530.286 38.3846 530.373 38.2122ZM634.611 280.757C631.207 283.009 627.789 285.124 624.417 287.041C609.711 295.398 595.625 300.041 586.466 296.265C585.081 295.694 583.692 294.575 582.517 293.055C582.059 296.412 581.871 299.637 581.975 302.612C582.123 306.851 582.877 310.435 584.306 312.935C585.356 314.772 586.833 315.93 588.77 316.123C593.924 316.635 602.088 312.397 613.973 300.905C620.107 294.974 627.209 288.101 634.611 280.757ZM685.068 224.569C689.474 218.279 692.557 212.729 693.693 208.373C694.324 205.954 693.781 203.7 692.429 201.804C690.956 199.738 688.562 198.008 685.613 196.797C682.46 195.503 678.736 194.837 674.833 195.001C668.571 195.264 661.908 197.709 656.492 203.181C664.214 208.747 673.685 215.585 685.068 224.569ZM25.8683 234.558C30.3297 250.723 44.3901 282.4 59.0173 309.277C70.5942 330.549 82.2098 348.522 88.9798 352.485L120.454 331.803C115.204 328.289 109.376 321.52 103.088 310.57C93.8933 294.557 81.4349 272.823 71.3676 252.585C62.8815 235.526 55.9016 219.143 53.4606 207.128C48.1311 213.272 42.6236 219.054 36.9965 224.463C33.3352 227.982 29.6203 231.348 25.8683 234.558ZM145.999 277.285C146.568 277.574 147.089 277.981 147.522 278.504C151.179 282.913 154.303 285.09 156.899 285.539C158.649 285.841 160.285 285.208 161.75 283.882C163.746 282.077 165.484 279.153 166.898 275.48C170.614 265.825 171.79 251.875 169.563 239.032C159.045 243.835 150.469 250.093 140.15 258.346C142.784 263.981 144.726 270.501 145.999 277.285ZM170.874 228.006C171.135 227.877 171.411 227.77 171.701 227.689C178.331 225.169 185.816 223.075 194.814 221.309C204.29 219.45 213.702 216.75 223.043 213.426C232.447 210.079 241.782 206.102 251.039 201.713C270.942 192.276 290.56 180.902 309.745 169.779C317.892 165.055 325.963 160.376 333.543 156.128C334.43 155.63 335.132 155.136 335.669 154.65C336.774 153.651 337.335 152.61 337.483 151.634C337.62 150.734 337.415 149.831 336.975 149.045C336.775 148.688 336.562 148.385 336.343 148.142C335.539 147.253 334.875 146.794 334.301 146.703C333.703 146.608 332.867 146.858 331.792 147.393C326.618 149.968 315.719 155.548 305.249 160.943C292.182 167.676 279.532 174.238 278.97 174.588C276.831 175.919 274.052 175.36 272.583 173.366C272.11 172.791 271.739 172.211 271.461 171.641C270.731 170.143 270.506 168.548 270.692 167.083C270.909 165.367 271.702 163.823 272.944 162.712C273.423 162.283 273.927 161.936 274.445 161.683C293.108 152.588 311.371 142 329.257 131.63C337.403 126.907 345.474 122.228 353.054 117.979C353.941 117.482 354.643 116.987 355.18 116.502C356.285 115.503 356.846 114.462 356.994 113.486C357.131 112.586 356.926 111.683 356.486 110.897C356.285 110.54 356.073 110.236 355.853 109.994C355.049 109.104 354.385 108.645 353.812 108.555C353.214 108.46 352.378 108.71 351.303 109.245C346.13 111.819 335.23 117.4 324.761 122.794C313.013 128.847 301.604 134.762 299.011 136.149L298.495 136.432L298.48 136.44C298.324 136.538 298.163 136.625 298 136.702C287.547 142.418 277.542 147.705 268.906 151.914C266.524 153.074 263.652 152.083 262.492 149.7C261.332 147.317 262.323 144.445 264.705 143.284C285.176 133.308 313.029 117.448 336.365 104.16C344.354 99.611 351.846 95.345 357.142 92.377C358.029 91.8797 358.731 91.385 359.268 90.8993C360.372 89.9004 360.933 88.8596 361.082 87.8833C361.218 86.9833 361.013 86.0802 360.573 85.2949C360.373 84.9375 360.16 84.6341 359.941 84.3915C359.137 83.5022 358.473 83.0429 357.9 82.952C357.302 82.8573 356.466 83.1072 355.39 83.6424C350.42 86.116 333.755 94.7657 315.905 104.076C290.188 117.49 261.603 132.474 260.938 132.888C258.69 134.286 255.734 133.598 254.336 131.35C252.938 129.101 253.627 126.145 255.874 124.746C256.564 124.317 285.481 109.157 311.478 95.5968L314.215 94.17C314.626 93.785 315.113 93.4666 315.664 93.2397C315.849 93.1634 315.57 93.2765 315.884 93.1425C319.431 91.6319 321.582 89.7728 322.56 87.8304C323.319 86.325 323.34 84.663 322.748 83.0549C322.71 82.9767 322.674 82.8969 322.64 82.8158L322.59 82.697L322.599 82.6935C320.928 78.8301 315.021 81.0784 310.908 82.6437L310.906 82.6374L310.661 82.7308C301.313 86.8727 292.28 91.2661 283.3 95.6336C258.159 107.861 233.42 119.893 206.381 124.615C203.763 125.072 200.929 124.983 198.822 124.25C197.306 123.724 196.03 122.853 195.134 121.599C194.017 120.034 193.629 118.193 194.211 116.077C194.665 114.429 195.786 112.654 197.789 110.813C199.439 109.295 200.822 108.062 202.21 106.824C209.977 99.8988 217.902 92.8321 220.584 84.2625C222.6 77.8222 224.223 71.2853 223.401 66.9065C222.856 64.0041 220.487 62.142 214.756 62.476C214.331 62.5007 213.966 62.6571 213.535 63.0535C212.523 63.983 211.312 65.6811 209.609 68.3929C209.272 68.9286 208.733 69.801 207.525 71.7361C199.318 84.8932 190.663 98.7666 177.93 107.221C177.611 107.433 175.607 108.747 173.05 110.429C152.895 123.688 142.13 130.77 137.409 158.006C137.279 158.759 137.148 159.493 137.018 160.216C137.355 161.599 137.052 162.999 136.291 164.093C130.663 192.828 124.146 196.227 97.9389 209.895C90.3794 213.837 81.0582 218.699 69.4474 225.466C71.7087 230.959 74.3823 236.841 77.3099 242.908C84.8189 256.434 96.6485 273.37 108.479 285.493C118.032 295.282 127.336 301.834 133.697 300.386C134.602 300.18 135.827 298.896 136.805 296.863C137.714 294.974 138.261 292.547 138.006 289.799C137.984 289.555 137.992 289.315 138.026 289.083C137.332 280.505 135.496 271.825 132.453 264.57C126.738 269.216 120.38 274.382 112.945 280.126C110.852 281.742 107.846 281.355 106.231 279.263C104.615 277.17 105.001 274.163 107.093 272.547C114.514 266.814 120.834 261.677 126.514 257.06C128.051 255.811 129.541 254.6 130.996 253.423C131.062 253.366 131.131 253.31 131.202 253.256C145.3 241.856 155.945 233.82 170.874 228.006ZM127.153 160.81C124.737 153.977 120.406 149.602 115.67 147.376C112.918 146.083 110.035 145.504 107.329 145.582C104.772 145.657 102.406 146.321 100.521 147.524L100.526 147.532C98.2721 148.976 96.6903 151.273 96.3593 154.321C95.8516 158.994 96.6734 165.669 98.3961 173.575C99.8489 180.243 101.942 187.719 104.429 195.586C118.662 187.548 123.129 181.807 127.153 160.81ZM137.998 304.753C137.004 305.5 135.98 306.004 135.01 306.225C126.281 308.212 115.103 300.851 104.189 289.667C102.463 287.898 100.738 286.031 99.0253 284.09C103.441 291.978 107.679 299.365 111.378 305.805C118.661 318.489 124.326 324.215 128.511 325.162C129.868 325.468 131.1 324.911 132.177 323.724C133.898 321.826 135.292 318.674 136.329 314.706C137.112 311.708 137.671 308.341 137.998 304.753Z" fill="#ECE5CB"/>
</svg>
