<svg width="75" height="75" viewBox="0 0 75 75" fill="none" xmlns="http://www.w3.org/2000/svg">
<rect x="1" y="1" width="73" height="73" rx="9" fill="#FFFDF5" stroke="#F2F0E3" stroke-width="2"/>
<path d="M48 52.5005H27C26.1716 52.5005 25.5 51.829 25.5 51.0005V36.536C25.5232 36.1684 25.6795 35.8219 25.9395 35.561L36.4395 25.061C36.7209 24.7794 37.1026 24.6211 37.5007 24.6211C37.8989 24.6211 38.2806 24.7794 38.562 25.061L49.062 35.561C49.3436 35.8419 49.5013 36.2238 49.5 36.6215V51.0005C49.5 51.829 48.8284 52.5005 48 52.5005ZM37.5 28.2425L28.5 37.2425V49.5005H46.5V37.2425L37.5 28.2425ZM37.5 46.499C37.188 46.2215 36.8355 45.932 36.462 45.626L36.3915 45.569C34.656 44.153 32.4915 42.3905 32.4915 40.199C32.4917 39.4729 32.7844 38.7776 33.3034 38.2698C33.8224 37.7621 34.5241 37.4848 35.25 37.5005C36.1083 37.4982 36.9268 37.8622 37.5 38.501C38.0733 37.8623 38.8917 37.4984 39.75 37.5005C40.4751 37.4864 41.1755 37.7646 41.6932 38.2725C42.211 38.7804 42.5026 39.4752 42.5025 40.2005C42.5025 42.3995 40.3245 44.174 38.5755 45.6005L38.49 45.671C38.1345 45.962 37.7985 46.2365 37.4985 46.502L37.5 46.499Z" fill="#7D0202"/>
</svg>
