<svg width="75" height="75" viewBox="0 0 75 75" fill="none" xmlns="http://www.w3.org/2000/svg">
<rect x="1" y="1" width="73" height="73" rx="9" fill="#FFFDF5" stroke="#F2F0E3" stroke-width="2"/>
<path d="M37.5029 51.0618C33.8129 51.0618 33.3779 51.0423 31.9379 50.9793C30.815 50.9424 29.7066 50.7141 28.6604 50.3043C26.8504 49.5999 25.4191 48.1681 24.7154 46.3578C24.3214 45.3079 24.1089 44.1985 24.0869 43.0773C24.0029 41.6403 24.0029 41.1693 24.0029 37.5078C24.0029 33.8073 24.0224 33.3753 24.0869 31.9428C24.1093 30.8231 24.3219 29.7153 24.7154 28.6668C25.4184 26.8541 26.852 25.4211 28.6649 24.7188C29.7129 24.3231 30.8209 24.11 31.9409 24.0888C33.3734 24.0078 33.8444 24.0078 37.5029 24.0078C41.2229 24.0078 41.6504 24.0273 43.0679 24.0888C44.1908 24.1102 45.3018 24.3233 46.3529 24.7188C48.1654 25.4219 49.5987 26.8546 50.3024 28.6668C50.7031 29.7306 50.9168 30.8557 50.9339 31.9923C51.0179 33.4293 51.0179 33.8988 51.0179 37.5588C51.0179 41.2188 50.9969 41.6988 50.9339 43.1193C50.9116 44.2416 50.6986 45.3519 50.3039 46.4028C49.5984 48.2144 48.165 49.6467 46.3529 50.3508C45.3033 50.7441 44.1946 50.9566 43.0739 50.9793C41.6414 51.0618 41.1719 51.0618 37.5029 51.0618ZM37.4519 26.3823C33.7829 26.3823 33.4019 26.4003 31.9694 26.4648C31.1144 26.4761 30.2676 26.6339 29.4659 26.9313C28.2821 27.3843 27.3453 28.3173 26.8874 29.4993C26.5877 30.3098 26.4299 31.1658 26.4209 32.0298C26.3414 33.4833 26.3414 33.8643 26.3414 37.5078C26.3414 41.1078 26.3549 41.5443 26.4209 42.9888C26.4344 43.8441 26.5921 44.691 26.8874 45.4938C27.3459 46.675 28.2826 47.6073 29.4659 48.0603C30.2671 48.3597 31.1142 48.5175 31.9694 48.5268C33.4214 48.6108 33.8039 48.6108 37.4519 48.6108C41.1314 48.6108 41.5124 48.5928 42.9329 48.5268C43.7885 48.5164 44.6359 48.3586 45.4379 48.0603C46.6146 47.6034 47.5453 46.6732 48.0029 45.4968C48.302 44.6857 48.4598 43.8293 48.4694 42.9648H48.4859C48.5504 41.5308 48.5504 41.1483 48.5504 37.4838C48.5504 33.8193 48.5339 33.4338 48.4694 32.0013C48.456 31.147 48.2983 30.3011 48.0029 29.4993C47.5464 28.3212 46.6155 27.3893 45.4379 26.9313C44.6361 26.6324 43.7886 26.4746 42.9329 26.4648C41.4824 26.3823 41.1029 26.3823 37.4519 26.3823ZM37.5029 44.4363C34.6979 44.4381 32.1681 42.7499 31.0932 40.159C30.0184 37.5681 30.6103 34.5848 32.5929 32.6005C34.5755 30.6162 37.5582 30.0217 40.1501 31.0943C42.7419 32.1669 44.4323 34.6953 44.4329 37.5003C44.4288 41.3269 41.3295 44.4289 37.5029 44.4363ZM37.5029 32.9973C35.0176 32.9973 33.0029 35.012 33.0029 37.4973C33.0029 39.9826 35.0176 41.9973 37.5029 41.9973C39.9882 41.9973 42.0029 39.9826 42.0029 37.4973C41.9972 35.0144 39.9858 33.0031 37.5029 32.9973ZM44.7029 31.9278C43.8111 31.9245 43.0903 31.1997 43.0919 30.3078C43.0936 29.416 43.8171 28.6938 44.7089 28.6938C45.6008 28.6938 46.3243 29.4159 46.3259 30.3078C46.3263 30.7381 46.1554 31.1508 45.8508 31.4548C45.5463 31.7588 45.1332 31.929 44.7029 31.9278Z" fill="#7D0202"/>
</svg>
