<svg width="31" height="31" viewBox="0 0 31 31" fill="none" xmlns="http://www.w3.org/2000/svg">
<g clip-path="url(#clip0_197_461)">
<path d="M15.5 2.79357C19.6411 2.79357 20.1272 2.81203 21.764 2.88587C23.2777 2.95355 24.0961 3.20584 24.6437 3.4212C25.3698 3.70425 25.8867 4.03652 26.4282 4.57801C26.9697 5.11949 27.3081 5.63636 27.585 6.36245C27.7942 6.91008 28.0526 7.72846 28.1203 9.24216C28.1941 10.8789 28.2126 11.365 28.2126 15.5062C28.2126 19.6473 28.1941 20.1334 28.1203 21.7701C28.0526 23.2838 27.8003 24.1022 27.585 24.6499C27.3019 25.3759 26.9697 25.8928 26.4282 26.4343C25.8867 26.9758 25.3698 27.3142 24.6437 27.5911C24.0961 27.8003 23.2777 28.0588 21.764 28.1264C20.1272 28.2003 19.6411 28.2187 15.5 28.2187C11.3589 28.2187 10.8728 28.2003 9.23601 28.1264C7.72232 28.0588 6.90394 27.8065 6.3563 27.5911C5.63021 27.3081 5.11334 26.9758 4.57186 26.4343C4.03037 25.8928 3.69194 25.3759 3.41505 24.6499C3.20584 24.1022 2.9474 23.2838 2.87972 21.7701C2.80588 20.1334 2.78742 19.6473 2.78742 15.5062C2.78742 11.365 2.80588 10.8789 2.87972 9.24216C2.9474 7.72846 3.19968 6.91008 3.41505 6.36245C3.6981 5.63636 4.03037 5.11949 4.57186 4.57801C5.11334 4.03652 5.63021 3.69809 6.3563 3.4212C6.90394 3.21199 7.72232 2.95355 9.23601 2.88587C10.8728 2.80588 11.365 2.79357 15.5 2.79357ZM15.5 0C11.2912 0 10.762 0.0184597 9.1068 0.0922985C7.45773 0.166137 6.33168 0.430726 5.34717 0.812227C4.32573 1.20603 3.46427 1.74137 2.60282 2.60282C1.74137 3.46427 1.21219 4.33188 0.812228 5.34716C0.430727 6.33168 0.166137 7.45772 0.0922986 9.11294C0.0184597 10.762 0 11.2912 0 15.5C0 19.7088 0.0184597 20.238 0.0922986 21.8932C0.166137 23.5423 0.430727 24.6683 0.812228 25.659C1.20604 26.6804 1.74137 27.5419 2.60282 28.4033C3.46427 29.2648 4.33188 29.794 5.34717 30.1939C6.33168 30.5754 7.45773 30.84 9.11295 30.9139C10.7682 30.9877 11.2912 31.0062 15.5062 31.0062C19.7211 31.0062 20.2442 30.9877 21.8994 30.9139C23.5485 30.84 24.6745 30.5754 25.6652 30.1939C26.6866 29.8001 27.5481 29.2648 28.4095 28.4033C29.271 27.5419 29.8001 26.6743 30.2001 25.659C30.5816 24.6745 30.8462 23.5484 30.92 21.8932C30.9939 20.238 31.0123 19.715 31.0123 15.5C31.0123 11.285 30.9939 10.762 30.92 9.10679C30.8462 7.45772 30.5816 6.33168 30.2001 5.34101C29.8063 4.31957 29.271 3.45812 28.4095 2.59667C27.5481 1.73521 26.6805 1.20603 25.6652 0.806074C24.6806 0.424573 23.5546 0.159984 21.8994 0.0861453C20.238 0.0184597 19.7088 0 15.5 0Z" fill="#7D0202"/>
<path d="M15.5 2.79357C19.6411 2.79357 20.1272 2.81203 21.764 2.88587C23.2777 2.95355 24.0961 3.20584 24.6437 3.4212C25.3698 3.70425 25.8867 4.03652 26.4282 4.57801C26.9697 5.11949 27.3081 5.63636 27.585 6.36245C27.7942 6.91008 28.0526 7.72846 28.1203 9.24216C28.1941 10.8789 28.2126 11.365 28.2126 15.5062C28.2126 19.6473 28.1941 20.1334 28.1203 21.7701C28.0526 23.2838 27.8003 24.1022 27.585 24.6499C27.3019 25.3759 26.9697 25.8928 26.4282 26.4343C25.8867 26.9758 25.3698 27.3142 24.6437 27.5911C24.0961 27.8003 23.2777 28.0588 21.764 28.1264C20.1272 28.2003 19.6411 28.2187 15.5 28.2187C11.3589 28.2187 10.8728 28.2003 9.23601 28.1264C7.72232 28.0588 6.90394 27.8065 6.3563 27.5911C5.63021 27.3081 5.11334 26.9758 4.57186 26.4343C4.03037 25.8928 3.69194 25.3759 3.41505 24.6499C3.20584 24.1022 2.9474 23.2838 2.87972 21.7701C2.80588 20.1334 2.78742 19.6473 2.78742 15.5062C2.78742 11.365 2.80588 10.8789 2.87972 9.24216C2.9474 7.72846 3.19968 6.91008 3.41505 6.36245C3.6981 5.63636 4.03037 5.11949 4.57186 4.57801C5.11334 4.03652 5.63021 3.69809 6.3563 3.4212C6.90394 3.21199 7.72232 2.95355 9.23601 2.88587C10.8728 2.80588 11.365 2.79357 15.5 2.79357Z" fill="#7D0202"/>
<path d="M15.4994 7.54395C11.106 7.54395 7.53711 11.1067 7.53711 15.5062C7.53711 19.9058 11.0998 23.4685 15.4994 23.4685C19.899 23.4685 23.4617 19.9058 23.4617 15.5062C23.4617 11.1067 19.899 7.54395 15.4994 7.54395ZM15.4994 20.6688C12.6443 20.6688 10.3307 18.3552 10.3307 15.5001C10.3307 12.645 12.6443 10.3314 15.4994 10.3314C18.3545 10.3314 20.6681 12.645 20.6681 15.5001C20.6681 18.3552 18.3545 20.6688 15.4994 20.6688Z" fill="white"/>
<path d="M23.7762 9.08228C24.8025 9.08228 25.6345 8.2503 25.6345 7.224C25.6345 6.1977 24.8025 5.36572 23.7762 5.36572C22.7499 5.36572 21.918 6.1977 21.918 7.224C21.918 8.2503 22.7499 9.08228 23.7762 9.08228Z" fill="white"/>
</g>
<defs>
<clipPath id="clip0_197_461">
<rect width="31" height="31" fill="white"/>
</clipPath>
</defs>
</svg>
