<svg width="60" height="60" viewBox="0 0 60 60" fill="none" xmlns="http://www.w3.org/2000/svg">
<circle cx="30" cy="30" r="29" stroke="#732727" stroke-width="2"/>
<path d="M24.6937 20.315L37.5444 28.1682C37.8582 28.36 38.1174 28.6291 38.2973 28.9499C38.4772 29.2707 38.5716 29.6322 38.5716 30C38.5716 30.3678 38.4772 30.7293 38.2973 31.0501C38.1174 31.3709 37.8582 31.64 37.5444 31.8318L24.6937 39.685C24.3682 39.8839 23.9957 39.9925 23.6144 39.9996C23.233 40.0068 22.8567 39.9122 22.524 39.7256C22.1914 39.5391 21.9144 39.2673 21.7216 38.9382C21.5289 38.6091 21.4273 38.2346 21.4272 37.8532V22.1468C21.4273 21.7654 21.5289 21.3909 21.7216 21.0618C21.9144 20.7327 22.1914 20.4609 22.524 20.2744C22.8567 20.0878 23.233 19.9932 23.6144 20.0004C23.9957 20.0075 24.3682 20.1161 24.6937 20.315ZM23.9528 21.5317C23.8435 21.465 23.7184 21.4285 23.5904 21.4261C23.4624 21.4237 23.336 21.4555 23.2243 21.5182C23.1127 21.5808 23.0197 21.6721 22.955 21.7826C22.8903 21.893 22.8561 22.0188 22.8561 22.1468V37.8532C22.8561 37.9812 22.8903 38.1069 22.955 38.2174C23.0197 38.3279 23.1127 38.4192 23.2243 38.4818C23.336 38.5445 23.4624 38.5763 23.5904 38.5739C23.7184 38.5715 23.8435 38.535 23.9528 38.4683L36.8035 30.6151C36.9089 30.5507 36.996 30.4604 37.0564 30.3526C37.1168 30.2449 37.1485 30.1235 37.1485 30C37.1485 29.8765 37.1168 29.7551 37.0564 29.6474C36.996 29.5396 36.9089 29.4493 36.8035 29.3849L23.9528 21.5317Z" fill="#732727"/>
</svg>
