<svg width="529" height="538" viewBox="0 0 529 538" fill="none" xmlns="http://www.w3.org/2000/svg">
<path d="M544.337 228.659H280.124C280.833 227.364 281.632 226.089 282.592 224.659C286.199 219.32 290.689 212.673 290.689 200.184C290.689 187.695 286.199 181.041 282.592 175.702C279.712 171.438 277.805 168.617 277.805 162.041C277.805 155.471 279.706 152.656 282.592 148.392C286.199 143.053 290.689 136.412 290.689 123.93C290.689 111.447 286.199 104.813 282.585 99.48C279.706 95.2225 277.805 92.4078 277.805 85.851C277.805 80.447 279.139 77.5551 281.2 74.3346L523.195 104.001C523.601 104.053 523.994 104.072 524.387 104.072C529.199 104.072 533.367 100.485 533.966 95.5896C534.616 90.2952 530.848 85.471 525.546 84.8269L289.948 55.9458C290.406 53.5176 290.683 50.8188 290.683 47.753C290.683 35.2705 286.193 28.6299 282.585 23.2968C281.632 21.8798 280.833 20.6109 280.124 19.3227H525.81C531.144 19.3227 535.473 15.0009 535.473 9.66137C535.473 4.32185 531.144 0 525.81 0H138.5C133.16 0 128.837 4.32185 128.837 9.66137C128.837 15.0009 133.16 19.3227 138.5 19.3227H156.492C158.038 25.9311 160.976 30.3754 163.514 34.1175C165.124 36.5071 166.38 38.4974 167.218 40.8934L141.115 37.6922C135.788 37.0031 131.002 40.8032 130.351 46.1041C129.7 51.3985 133.469 56.2228 138.764 56.8668L164.403 60.01C164.1 60.4609 163.836 60.8924 163.507 61.3755C159.9 66.715 155.41 73.3492 155.41 85.8381C155.41 98.3206 159.9 104.955 163.514 110.288C166.393 114.545 168.294 117.36 168.294 123.917C168.294 130.487 166.393 133.301 163.507 137.565C159.9 142.905 155.41 149.545 155.41 162.028C155.41 174.517 159.9 181.164 163.507 186.503C166.393 190.767 168.294 193.588 168.294 200.164C168.294 206.741 166.393 209.555 163.507 213.826C160.976 217.581 158.032 222.025 156.492 228.64H9.66279C4.32249 228.64 0 232.962 0 238.301C0 428.81 167.669 494.186 186.788 501.013C193.681 503.474 195.085 508.523 196.966 517.238C198.519 524.426 201.411 537.804 215.802 537.804H338.198C352.589 537.804 355.481 524.426 357.034 517.238C358.921 508.523 360.325 503.474 367.218 501.013C386.338 494.205 554 428.83 554 238.32C554 232.981 549.671 228.659 544.337 228.659ZM266.584 110.307C269.463 114.565 271.363 117.379 271.363 123.936C271.363 130.506 269.463 133.321 266.577 137.584C262.97 142.924 258.48 149.565 258.48 162.047C258.48 174.536 262.97 181.183 266.577 186.523C269.463 190.786 271.363 193.607 271.363 200.184C271.363 206.76 269.463 209.575 266.577 213.845C264.039 217.6 261.102 222.044 259.562 228.659H228.589C229.298 227.364 230.097 226.089 231.057 224.659C234.664 219.32 239.154 212.673 239.154 200.184C239.154 187.695 234.664 181.041 231.057 175.702C228.177 171.438 226.27 168.617 226.27 162.041C226.27 155.471 228.171 152.656 231.057 148.392C234.664 143.053 239.154 136.412 239.154 123.93C239.154 111.447 234.664 104.813 231.05 99.48C228.171 95.2225 226.27 92.4078 226.27 85.851C226.27 79.2877 228.171 76.473 231.057 72.2156C231.843 71.0562 232.667 69.8131 233.472 68.4863L260.857 71.842C259.465 75.5713 258.48 80.0606 258.48 85.8445C258.48 98.3399 262.97 104.974 266.584 110.307ZM266.584 34.124C269.463 38.3814 271.363 41.1961 271.363 47.753C271.363 50.1297 271.041 51.9331 270.584 53.5691L239.064 49.7046C239.09 49.0476 239.154 48.4421 239.154 47.753C239.154 35.2705 234.664 28.6299 231.057 23.2968C230.103 21.8798 229.304 20.6109 228.596 19.3227H259.562C261.108 25.9376 264.045 30.3818 266.584 34.124ZM179.522 23.3032C178.568 21.8862 177.77 20.6174 177.061 19.3292H208.027C209.573 25.9376 212.511 30.3818 215.049 34.124C217.857 38.2848 219.713 41.1124 219.796 47.3472L187.42 43.3796C186.518 33.6538 182.678 27.9729 179.522 23.3032ZM179.522 175.702C176.642 171.438 174.735 168.617 174.735 162.041C174.735 155.471 176.636 152.656 179.522 148.392C183.129 143.053 187.619 136.412 187.619 123.93C187.619 111.447 183.129 104.813 179.515 99.48C176.636 95.2225 174.735 92.4078 174.735 85.851C174.735 79.2877 176.636 76.473 179.522 72.2156C181.345 69.5233 183.387 66.4831 184.965 62.5413L212.169 65.8777C209.418 70.5602 206.945 76.5954 206.945 85.8574C206.945 98.3399 211.435 104.974 215.049 110.307C217.928 114.565 219.828 117.379 219.828 123.936C219.828 130.506 217.928 133.321 215.042 137.584C211.435 142.924 206.945 149.565 206.945 162.047C206.945 174.536 211.435 181.183 215.042 186.523C217.928 190.786 219.828 193.607 219.828 200.184C219.828 206.76 217.928 209.575 215.042 213.845C212.504 217.6 209.567 222.044 208.027 228.659H177.055C177.763 227.364 178.562 226.089 179.522 224.659C183.129 219.32 187.619 212.673 187.619 200.184C187.619 187.695 183.129 181.041 179.522 175.702ZM360.712 482.83C343.37 489.027 340.098 504.143 338.146 513.174C337.785 514.816 337.302 517.07 336.838 518.5H217.162C216.691 517.07 216.208 514.816 215.847 513.174C213.896 504.143 210.63 489.027 193.282 482.83C175.805 476.589 25.0137 417.822 19.4802 247.982H534.513C528.98 417.822 378.195 476.589 360.712 482.83Z" fill="#F9F5E7"/>
<path d="M58.0738 295.321C58.3444 296.133 64.7411 315.288 68.574 323.372C70.2232 326.856 73.6953 328.891 77.3092 328.891C78.6942 328.891 80.105 328.595 81.4384 327.957C86.2634 325.677 88.3183 319.913 86.0315 315.089C83.2679 309.26 78.1402 294.426 76.4009 289.196C74.7131 284.146 69.2698 281.396 64.1807 283.09C59.1174 284.784 56.3796 290.252 58.0738 295.321Z" fill="#F9F5E7"/>
<path d="M87.6866 359.466C89.368 362.094 129.61 424.011 196.206 449.813C197.353 450.258 198.532 450.47 199.698 450.47C203.576 450.47 207.228 448.132 208.71 444.3C210.636 439.327 208.169 433.724 203.196 431.804C142.616 408.327 104.339 349.631 103.959 349.039C101.079 344.562 95.1012 343.261 90.6112 346.134C86.1213 349.013 84.8136 354.977 87.6866 359.466Z" fill="#F9F5E7"/>
</svg>
